<?xml version="1.0" encoding="UTF-8" standalone="no"?>
<svg
   height="21"
   version="1.1"
   viewBox="0 0 18 21"
   width="18"
   xml:space="preserve"
   id="svg4757"
   sodipodi:docname="pdf.svg"
   inkscape:version="1.2 (dc2aedaf03, 2022-05-15)"
   xmlns:inkscape="http://www.inkscape.org/namespaces/inkscape"
   xmlns:sodipodi="http://sodipodi.sourceforge.net/DTD/sodipodi-0.dtd"
   xmlns="http://www.w3.org/2000/svg"
   xmlns:svg="http://www.w3.org/2000/svg"><defs
     id="defs4761" /><sodipodi:namedview
     id="namedview4759"
     pagecolor="#ffffff"
     bordercolor="#000000"
     borderopacity="0.25"
     inkscape:showpageshadow="false"
     inkscape:pageopacity="0.0"
     inkscape:pagecheckerboard="false"
     inkscape:deskcolor="#d1d1d1"
     showgrid="false"
     showborder="false"
     borderlayer="false"
     shape-rendering="crispEdges"
     inkscape:zoom="38.761904"
     inkscape:cx="8.9907864"
     inkscape:cy="10.5"
     inkscape:window-width="1920"
     inkscape:window-height="1017"
     inkscape:window-x="1352"
     inkscape:window-y="-8"
     inkscape:window-maximized="1"
     inkscape:current-layer="svg4757" /><g
     id="_x32_7_x2C__PDF_x2C__File_type_x2C__Adobe"
     transform="matrix(0.05167543,0,0,0.05106023,-4.2289105,-2.5714442)"><g
       id="g4753"><polygon
         points="362.586,60.947 362.628,60.905 419.462,117.917 419.242,118.127 363.11,118.169 "
         style="fill:#a51600"
         id="polygon4719" /><path
         d="m 210.056,150.893 c 0,10.817 -6.043,15.927 -15.318,15.854 -1.27,0 -2.686,0 -3.557,-0.199 v -29.619 c 0.871,-0.199 2.35,-0.409 4.638,-0.409 8.792,0 14.3,4.972 14.237,14.373 z"
         style="fill:#f1f1f1"
         id="path4721" /><path
         d="m 164.239,143.035 c 0,4.638 -3.357,7.396 -8.792,7.396 -1.479,0 -2.56,-0.073 -3.431,-0.272 v -13.367 c 0.745,-0.199 2.15,-0.398 4.228,-0.398 5.11,0 7.995,2.475 7.995,6.641 z"
         style="fill:#f1f1f1"
         id="path4723" /><path
         d="M 130.098,100.721 H 306.36 v 101.771 h -176.262 -0.43 -37.34 V 100.721 h 37.34 z"
         style="fill:#f1f1f1"
         id="path4725" /><path
         d="m 279.754,255.035 c 0.125,10.566 -6.631,31.181 -6.631,31.181 -2.33,-2.454 -6.988,-15.591 -6.988,-27.74 0,-12.149 3.925,-15.464 6.988,-15.464 3.073,-0.001 6.504,1.468 6.631,12.023 z"
         style="fill:#dc1d00"
         id="path4727" /><path
         d="m 353.321,347.174 c 0,13.954 -25.284,8.267 -40.834,-6.536 0,0 40.834,-7.409 40.834,6.536 z"
         style="fill:#dc1d00"
         id="path4729" /><path
         d="m 206.594,393.128 c -12.517,-7.49 26.271,-30.563 33.27,-31.297 0,0 -20.166,39.134 -33.27,31.297 z"
         style="fill:#dc1d00"
         id="path4731" /><path
         d="m 279.019,309.172 c 7.114,13.252 21.235,28.843 21.235,28.843 0,0 -5.403,0.608 -17.961,3.682 -12.56,3.074 -18.864,6.265 -18.864,6.265 0,0 0,0 5.151,-11.541 5.162,-11.542 10.439,-27.249 10.439,-27.249 z"
         style="fill:#dc1d00"
         id="path4733" /><path
         d="M 419.672,118.127 V 451.148 H 130.098 V 202.492 H 306.36 V 100.721 H 130.098 V 60.853 h 232.488 l 0.042,0.052 -0.042,0.042 0.524,57.222 56.132,-0.042 0.22,-0.209 z"
         style="fill:#dc1d00"
         id="path4735" /><path
         d="m 239.864,361.831 c -6.998,0.734 -45.787,23.807 -33.27,31.297 13.104,7.837 33.27,-31.297 33.27,-31.297 z m 72.623,-21.193 c 15.55,14.803 40.834,20.49 40.834,6.536 0,-13.945 -40.834,-6.536 -40.834,-6.536 z m -12.233,-2.623 c 0,0 -14.121,-15.591 -21.235,-28.843 0,0 -5.276,15.707 -10.438,27.248 -5.151,11.541 -5.151,11.541 -5.151,11.541 0,0 6.305,-3.19 18.864,-6.265 12.557,-3.073 17.96,-3.681 17.96,-3.681 z m -27.131,-51.799 c 0,0 6.756,-20.615 6.631,-31.181 -0.127,-10.555 -3.558,-12.023 -6.631,-12.023 -3.063,0 -6.988,3.315 -6.988,15.464 0,12.149 4.658,25.286 6.988,27.74 z m 8.478,15.958 c 6.872,14.856 25.778,33.994 25.778,33.994 0,0 6.127,-1.594 31.412,-2.203 25.295,-0.608 26.397,13.618 26.513,14.846 0.126,1.238 1.112,12.527 -19.021,13.261 -20.123,0.735 -41.002,-20.249 -41.002,-20.249 0,0 -8.583,1.354 -15.696,3.065 -7.112,1.719 -29.954,7.983 -29.954,7.983 0,0 -6.756,12.274 -21.728,31.905 -14.982,19.641 -31.759,18.173 -36.543,11.666 -5.56,-7.553 -1.269,-15.096 9.286,-24.918 10.555,-9.819 34.906,-17.961 34.906,-17.961 0,0 4.91,-8.834 12.108,-25.694 7.196,-16.861 12.642,-33.794 12.642,-33.794 0,0 -7.124,-16.179 -8.509,-29.944 -1.553,-15.349 0.168,-25.663 11.951,-25.789 11.782,-0.126 15.465,8.719 15.832,24.057 0.364,15.351 -7.975,39.775 -7.975,39.775 z"
         style="fill:#ffffff"
         id="path4737" /><g
         id="g4745"><polygon
           points="238,174 238,156 254,156 254,148 238,148 238,137 255,137 255,129 228,129 228,174 "
           style="fill:#7c1100"
           id="polygon4739" /><path
           d="m 213.277,133.498 c -4.364,-3.294 -10.385,-4.837 -18.989,-4.837 -5.172,0 -9.289,0.336 -14.289,0.944 v 44.465 c 4,0.335 6.766,0.671 12.075,0.671 8.866,0 16.351,-1.878 21.114,-5.844 4.364,-3.693 7.635,-9.674 7.635,-18.339 0.001,-7.985 -2.835,-13.567 -7.546,-17.06 z m -18.63,33.249 c -1.27,0 -2.647,0 -3.647,-0.199 v -29.619 c 1,-0.199 2.44,-0.409 4.729,-0.409 8.792,0 14.3,4.973 14.236,14.374 0,10.816 -6.043,15.926 -15.318,15.853 z"
           style="fill:#7c1100"
           id="path4741" /><path
           d="m 169.548,132.291 c -3.021,-2.424 -7.458,-3.63 -13.774,-3.63 -6.242,0 -10.773,0.41 -13.773,0.944 V 174 h 10 v -15.92 c 1,0.136 2.159,0.21 3.502,0.21 6.043,0 11.219,-1.479 14.713,-4.774 2.686,-2.549 4.167,-6.316 4.167,-10.744 -0.001,-4.438 -1.95,-8.193 -4.835,-10.481 z m -14.11,18.14 c -1.479,0 -2.438,-0.073 -3.438,-0.272 v -13.367 c 1,-0.199 2.159,-0.398 4.235,-0.398 5.109,0 7.995,2.476 7.995,6.641 0,4.637 -3.357,7.396 -8.792,7.396 z"
           style="fill:#7c1100"
           id="path4743" /></g><path
         d="M 419.672,461.64 H 130.098 c -5.794,0 -10.492,-4.697 -10.492,-10.492 V 202.492 c 0,-5.794 4.697,-10.492 10.492,-10.492 5.795,0 10.492,4.697 10.492,10.492 V 440.656 H 409.18 V 122.466 L 358.22,71.345 H 140.59 v 29.377 c 0,5.795 -4.697,10.492 -10.492,10.492 -5.794,0 -10.492,-4.697 -10.492,-10.492 V 60.853 c 0,-5.794 4.697,-10.492 10.492,-10.492 h 232.488 c 2.934,0 5.722,1.227 7.699,3.364 l 56.797,56.975 c 1.974,1.968 3.082,4.641 3.082,7.428 v 333.021 c 0,5.793 -4.697,10.491 -10.492,10.491 z"
         style="fill:#a51600"
         id="path4747" /><path
         d="M 306.36,212.983 H 92.328 c -5.795,0 -10.492,-4.697 -10.492,-10.492 v -101.77 c 0,-5.794 4.697,-10.492 10.492,-10.492 H 306.36 c 5.795,0 10.492,4.697 10.492,10.492 v 101.771 c 0.001,5.794 -4.697,10.491 -10.492,10.491 z M 102.82,192 H 295.869 V 111.213 H 102.82 Z"
         style="fill:#a51600"
         id="path4749" /><path
         d="m 363.11,128.661 c -5.756,0 -10.438,-4.638 -10.491,-10.395 l -0.524,-57.223 c -0.054,-5.794 4.601,-10.534 10.396,-10.587 0.032,0 0.065,0 0.098,0 5.75,0 10.437,4.634 10.49,10.396 l 0.428,46.819 45.728,-0.034 c 0.003,0 0.007,0 0.009,0 5.791,0 10.487,4.692 10.491,10.484 0.004,5.794 -4.689,10.496 -10.483,10.5 l -56.131,0.042 c -0.005,-0.002 -0.009,-0.002 -0.011,-0.002 z"
         style="fill:#a51600"
         id="path4751" /></g></g><g
     id="Layer_1"
     transform="translate(-81.835999,-50.361)" /></svg>
