<?xml version="1.0" encoding="UTF-8" standalone="no"?>
<svg
   width="300"
   height="300"
   viewBox="0 0 300 300"
   fill="none"
   version="1.1"
   id="svg209"
   sodipodi:docname="background.svg"
   inkscape:version="1.2.1 (9c6d41e410, 2022-07-14)"
   xmlns:inkscape="http://www.inkscape.org/namespaces/inkscape"
   xmlns:sodipodi="http://sodipodi.sourceforge.net/DTD/sodipodi-0.dtd"
   xmlns="http://www.w3.org/2000/svg"
   xmlns:svg="http://www.w3.org/2000/svg">
  <sodipodi:namedview
     id="namedview211"
     pagecolor="#ffffff"
     bordercolor="#000000"
     borderopacity="0.25"
     inkscape:showpageshadow="2"
     inkscape:pageopacity="0.0"
     inkscape:pagecheckerboard="true"
     inkscape:deskcolor="#d1d1d1"
     showgrid="false"
     inkscape:zoom="2.7133333"
     inkscape:cx="150"
     inkscape:cy="150"
     inkscape:window-width="1920"
     inkscape:window-height="1017"
     inkscape:window-x="1352"
     inkscape:window-y="-8"
     inkscape:window-maximized="1"
     inkscape:current-layer="svg209"
     inkscape:lockguides="true" />
  <defs
     id="defs207">
    <clipPath
       id="clip0_12_124">
      <rect
         width="710"
         height="710"
         fill="#ffffff"
         transform="translate(0,142)"
         id="rect204"
         x="0"
         y="0" />
    </clipPath>
  </defs>
  <g
     clip-path="url(#clip0_12_124)"
     id="g202"
     transform="matrix(0.46662612,0,0,0.46662612,0,-97.565456)"
     inkscape:export-filename="g202.svg"
     inkscape:export-xdpi="113.60001"
     inkscape:export-ydpi="113.60001">
    <mask
       id="mask0_12_124"
       maskUnits="userSpaceOnUse"
       x="309"
       y="429"
       width="13"
       height="15">
      <path
         d="m 312.958,443.287 -3.65,-13.291 12.093,2.397 z"
         fill="#ffffff"
         id="path4" />
    </mask>
    <g
       mask="url(#mask0_12_124)"
       id="g9">
      <path
         d="m 312.958,443.287 -3.65,-13.291 12.093,2.397 z"
         fill="#a7a7a7"
         fill-opacity="0.1"
         id="path7" />
    </g>
    <mask
       id="mask1_12_124"
       maskUnits="userSpaceOnUse"
       x="334"
       y="436"
       width="13"
       height="15">
      <path
         d="m 335.811,450.22 -0.971,-13.746 11.383,4.723 z"
         fill="#ffffff"
         id="path11" />
    </mask>
    <g
       mask="url(#mask1_12_124)"
       id="g16">
      <path
         d="m 335.811,450.22 -0.971,-13.746 11.383,4.723 z"
         fill="#a7a7a7"
         fill-opacity="0.1"
         id="path14" />
    </g>
    <mask
       id="mask2_12_124"
       maskUnits="userSpaceOnUse"
       x="356"
       y="447"
       width="13"
       height="15">
      <path
         d="m 356.87,461.48 1.732,-13.671 10.252,6.85 z"
         fill="#ffffff"
         id="path18" />
    </mask>
    <g
       mask="url(#mask2_12_124)"
       id="g23">
      <path
         d="m 356.87,461.48 1.732,-13.671 10.252,6.85 z"
         fill="#a7a7a7"
         fill-opacity="0.1"
         id="path21" />
    </g>
    <mask
       id="mask3_12_124"
       maskUnits="userSpaceOnUse"
       x="390"
       y="483"
       width="15"
       height="13">
      <path
         d="m 390.515,495.123 6.827,-11.988 6.836,10.25 z"
         fill="#ffffff"
         id="path25" />
    </mask>
    <g
       mask="url(#mask3_12_124)"
       id="g30">
      <path
         d="m 390.515,495.123 6.827,-11.988 6.836,10.25 z"
         fill="#a7a7a7"
         fill-opacity="0.1"
         id="path28" />
    </g>
    <mask
       id="mask4_12_124"
       maskUnits="userSpaceOnUse"
       x="401"
       y="505"
       width="15"
       height="13">
      <path
         d="m 415.499,517.15 -13.749,-0.983 9.026,-10.405 z"
         fill="#ffffff"
         id="path32" />
    </mask>
    <g
       mask="url(#mask4_12_124)"
       id="g37">
      <path
         d="m 415.499,517.15 -13.749,-0.983 9.026,-10.405 z"
         fill="#a7a7a7"
         fill-opacity="0.1"
         id="path35" />
    </g>
    <mask
       id="mask5_12_124"
       maskUnits="userSpaceOnUse"
       x="408"
       y="530"
       width="14"
       height="13">
      <path
         d="m 421.999,542.676 -13.28,-3.638 10.878,-8.455 z"
         fill="#ffffff"
         id="path39" />
    </mask>
    <g
       mask="url(#mask5_12_124)"
       id="g44">
      <path
         d="m 421.999,542.676 -13.28,-3.638 10.878,-8.455 z"
         fill="#a7a7a7"
         fill-opacity="0.1"
         id="path42" />
    </g>
    <mask
       id="mask6_12_124"
       maskUnits="userSpaceOnUse"
       x="408"
       y="582"
       width="14"
       height="14">
      <path
         d="m 419.597,595.026 -10.878,-8.435 13.28,-3.644 z"
         fill="#ffffff"
         id="path46" />
    </mask>
    <g
       mask="url(#mask6_12_124)"
       id="g51">
      <path
         d="m 419.597,595.026 -10.878,-8.435 13.28,-3.644 z"
         fill="#a7a7a7"
         fill-opacity="0.1"
         id="path49" />
    </g>
    <mask
       id="mask7_12_124"
       maskUnits="userSpaceOnUse"
       x="401"
       y="608"
       width="15"
       height="12">
      <path
         d="m 410.776,619.85 -9.026,-10.417 13.749,-0.977 z"
         fill="#ffffff"
         id="path53" />
    </mask>
    <g
       mask="url(#mask7_12_124)"
       id="g58">
      <path
         d="m 410.776,619.85 -9.026,-10.417 13.749,-0.977 z"
         fill="#a7a7a7"
         fill-opacity="0.1"
         id="path56" />
    </g>
    <mask
       id="mask8_12_124"
       maskUnits="userSpaceOnUse"
       x="390"
       y="630"
       width="15"
       height="13">
      <path
         d="m 397.342,642.482 -6.827,-11.971 13.663,1.719 z"
         fill="#ffffff"
         id="path60" />
    </mask>
    <g
       mask="url(#mask8_12_124)"
       id="g65">
      <path
         d="m 397.342,642.482 -6.827,-11.971 13.663,1.719 z"
         fill="#a7a7a7"
         fill-opacity="0.1"
         id="path63" />
    </g>
    <mask
       id="mask9_12_124"
       maskUnits="userSpaceOnUse"
       x="356"
       y="664"
       width="13"
       height="14">
      <path
         d="m 358.602,677.797 -1.732,-13.669 11.984,6.831 z"
         fill="#ffffff"
         id="path67" />
    </mask>
    <g
       mask="url(#mask9_12_124)"
       id="g72">
      <path
         d="m 358.602,677.797 -1.732,-13.669 11.984,6.831 z"
         fill="#a7a7a7"
         fill-opacity="0.1"
         id="path70" />
    </g>
    <mask
       id="mask10_12_124"
       maskUnits="userSpaceOnUse"
       x="334"
       y="675"
       width="13"
       height="15">
      <path
         d="m 334.84,689.135 0.971,-13.723 10.412,9.014 z"
         fill="#ffffff"
         id="path74" />
    </mask>
    <g
       mask="url(#mask10_12_124)"
       id="g79">
      <path
         d="m 334.84,689.135 0.971,-13.723 10.412,9.014 z"
         fill="#a7a7a7"
         fill-opacity="0.1"
         id="path77" />
    </g>
    <mask
       id="mask11_12_124"
       maskUnits="userSpaceOnUse"
       x="309"
       y="682"
       width="13"
       height="14">
      <path
         d="m 309.308,695.61 3.65,-13.269 8.443,10.872 z"
         fill="#ffffff"
         id="path81" />
    </mask>
    <g
       mask="url(#mask11_12_124)"
       id="g86">
      <path
         d="m 309.308,695.61 3.65,-13.269 8.443,10.872 z"
         fill="#a7a7a7"
         fill-opacity="0.1"
         id="path84" />
    </g>
    <mask
       id="mask12_12_124"
       maskUnits="userSpaceOnUse"
       x="256"
       y="682"
       width="14"
       height="14">
      <path
         d="m 269.046,695.61 -12.078,-2.397 8.434,-10.872 z"
         fill="#ffffff"
         id="path88" />
    </mask>
    <g
       mask="url(#mask12_12_124)"
       id="g93">
      <path
         d="m 269.046,695.61 -12.078,-2.397 8.434,-10.872 z"
         fill="#a7a7a7"
         fill-opacity="0.1"
         id="path91" />
    </g>
    <mask
       id="mask13_12_124"
       maskUnits="userSpaceOnUse"
       x="232"
       y="675"
       width="12"
       height="15">
      <path
         d="m 243.517,689.135 -11.385,-4.709 10.408,-9.014 z"
         fill="#ffffff"
         id="path95" />
    </mask>
    <g
       mask="url(#mask13_12_124)"
       id="g100">
      <path
         d="m 243.517,689.135 -11.385,-4.709 10.408,-9.014 z"
         fill="#a7a7a7"
         fill-opacity="0.1"
         id="path98" />
    </g>
    <mask
       id="mask14_12_124"
       maskUnits="userSpaceOnUse"
       x="209"
       y="664"
       width="13"
       height="14">
      <path
         d="m 219.772,677.797 -10.255,-6.838 11.974,-6.831 z"
         fill="#ffffff"
         id="path102" />
    </mask>
    <g
       mask="url(#mask14_12_124)"
       id="g107">
      <path
         d="m 219.772,677.797 -10.255,-6.838 11.974,-6.831 z"
         fill="#a7a7a7"
         fill-opacity="0.1"
         id="path105" />
    </g>
    <mask
       id="mask15_12_124"
       maskUnits="userSpaceOnUse"
       x="174"
       y="630"
       width="14"
       height="13">
      <path
         d="m 181.026,642.482 -6.841,-10.252 13.666,-1.719 z"
         fill="#ffffff"
         id="path109" />
    </mask>
    <g
       mask="url(#mask15_12_124)"
       id="g114">
      <path
         d="m 181.026,642.482 -6.841,-10.252 13.666,-1.719 z"
         fill="#a7a7a7"
         fill-opacity="0.1"
         id="path112" />
    </g>
    <mask
       id="mask16_12_124"
       maskUnits="userSpaceOnUse"
       x="162"
       y="608"
       width="15"
       height="12">
      <path
         d="m 167.565,619.85 -4.703,-11.394 13.728,0.977 z"
         fill="#ffffff"
         id="path116" />
    </mask>
    <g
       mask="url(#mask16_12_124)"
       id="g121">
      <path
         d="m 167.565,619.85 -4.703,-11.394 13.728,0.977 z"
         fill="#a7a7a7"
         fill-opacity="0.1"
         id="path119" />
    </g>
    <mask
       id="mask17_12_124"
       maskUnits="userSpaceOnUse"
       x="156"
       y="582"
       width="14"
       height="14">
      <path
         d="m 158.786,595.026 -2.402,-12.079 13.28,3.644 z"
         fill="#ffffff"
         id="path123" />
    </mask>
    <g
       mask="url(#mask17_12_124)"
       id="g128">
      <path
         d="m 158.786,595.026 -2.402,-12.079 13.28,3.644 z"
         fill="#a7a7a7"
         fill-opacity="0.1"
         id="path126" />
    </g>
    <mask
       id="mask18_12_124"
       maskUnits="userSpaceOnUse"
       x="156"
       y="530"
       width="14"
       height="13">
      <path
         d="m 156.384,542.676 2.402,-12.093 10.878,8.455 z"
         fill="#ffffff"
         id="path130" />
    </mask>
    <g
       mask="url(#mask18_12_124)"
       id="g135">
      <path
         d="m 156.384,542.676 2.402,-12.093 10.878,8.455 z"
         fill="#a7a7a7"
         fill-opacity="0.1"
         id="path133" />
    </g>
    <mask
       id="mask19_12_124"
       maskUnits="userSpaceOnUse"
       x="162"
       y="505"
       width="15"
       height="13">
      <path
         d="m 162.862,517.156 4.703,-11.389 9.025,10.412 z"
         fill="#ffffff"
         id="path137" />
    </mask>
    <g
       mask="url(#mask19_12_124)"
       id="g142">
      <path
         d="m 162.862,517.156 4.703,-11.389 9.025,10.412 z"
         fill="#a7a7a7"
         fill-opacity="0.1"
         id="path140" />
    </g>
    <mask
       id="mask20_12_124"
       maskUnits="userSpaceOnUse"
       x="174"
       y="483"
       width="14"
       height="13">
      <path
         d="m 187.851,495.123 -13.666,-1.738 6.841,-10.25 z"
         fill="#ffffff"
         id="path144" />
    </mask>
    <g
       mask="url(#mask20_12_124)"
       id="g149">
      <path
         d="m 187.851,495.123 -13.666,-1.738 6.841,-10.25 z"
         fill="#a7a7a7"
         fill-opacity="0.1"
         id="path147" />
    </g>
    <mask
       id="mask21_12_124"
       maskUnits="userSpaceOnUse"
       x="209"
       y="447"
       width="13"
       height="15">
      <path
         d="m 221.491,461.48 -11.974,-6.821 10.255,-6.85 z"
         fill="#ffffff"
         id="path151" />
    </mask>
    <g
       mask="url(#mask21_12_124)"
       id="g156">
      <path
         d="m 221.491,461.48 -11.974,-6.821 10.255,-6.85 z"
         fill="#a7a7a7"
         fill-opacity="0.1"
         id="path154" />
    </g>
    <mask
       id="mask22_12_124"
       maskUnits="userSpaceOnUse"
       x="232"
       y="436"
       width="12"
       height="15">
      <path
         d="m 242.54,450.22 -10.408,-9.023 11.385,-4.723 z"
         fill="#ffffff"
         id="path158" />
    </mask>
    <g
       mask="url(#mask22_12_124)"
       id="g163">
      <path
         d="m 242.54,450.22 -10.408,-9.023 11.385,-4.723 z"
         fill="#a7a7a7"
         fill-opacity="0.1"
         id="path161" />
    </g>
    <mask
       id="mask23_12_124"
       maskUnits="userSpaceOnUse"
       x="256"
       y="429"
       width="14"
       height="15">
      <path
         d="m 265.402,443.287 -8.434,-10.894 12.078,-2.397 z"
         fill="#ffffff"
         id="path165" />
    </mask>
    <g
       mask="url(#mask23_12_124)"
       id="g170">
      <path
         d="m 265.402,443.287 -8.434,-10.894 12.078,-2.397 z"
         fill="#a7a7a7"
         fill-opacity="0.1"
         id="path168" />
    </g>
    <mask
       id="mask24_12_124"
       maskUnits="userSpaceOnUse"
       x="102"
       y="378"
       width="372"
       height="372">
      <path
         d="m 287.915,749.198 c -0.273,0 -0.554,-0.003 -0.83,-0.003 V 625.442 c -5.515,-0.185 -10.854,-1.071 -15.918,-2.593 l 12.627,126.303 c -1.403,-0.031 -2.814,-0.076 -4.209,-0.139 L 277.634,729.5 c -39.663,-2.701 -75.518,-19.224 -102.779,-44.807 l -16.208,11.888 c -1.093,-1.068 -2.175,-2.15 -3.24,-3.24 l 11.919,-16.254 C 141.738,649.832 125.195,614.003 122.48,574.348 l -19.488,-1.949 c -0.122,-2.752 -0.182,-5.529 -0.182,-8.312 0,-1.131 0.008,-2.255 0.028,-3.38 h 123.705 c 0.19,-5.518 1.079,-10.854 2.595,-15.924 l -126.212,12.624 c 0.052,-1.409 0.117,-2.809 0.199,-4.212 l 19.369,-1.939 c 2.701,-39.658 19.213,-75.508 44.798,-102.777 l -10.803,-14.743 c 1.204,-1.215 2.425,-2.411 3.663,-3.592 l 14.743,10.809 c 27.261,-25.583 63.084,-42.134 102.739,-44.841 l 1.693,-16.941 c 2.845,-0.127 5.711,-0.196 8.588,-0.196 1.116,0 2.238,0.012 3.351,0.032 v 121.18 c 5.535,0.181 10.86,1.076 15.927,2.595 L 294.822,379.103 c 1.411,0.051 2.825,0.12 4.225,0.202 l 1.682,16.807 c 39.652,2.707 75.506,19.224 102.773,44.818 l 13.274,-9.733 c 1.358,1.318 2.693,2.653 4.01,4.01 l -9.755,13.312 c 25.586,27.266 42.134,63.082 44.843,102.737 l 16.816,1.684 c 0.219,3.689 0.33,7.404 0.33,11.147 0,0.267 0,0.542 -0.003,0.809 H 351.795 c -0.182,5.521 -1.071,10.855 -2.585,15.927 l 123.759,-12.38 c -0.032,1.409 -0.08,2.815 -0.145,4.215 l -16.958,1.695 c -2.706,39.65 -19.258,75.465 -44.835,102.734 l 10.826,14.768 c -1.181,1.239 -2.377,2.457 -3.592,3.661 L 403.474,684.67 c -27.258,25.589 -63.093,42.129 -102.745,44.835 l -1.937,19.378 c -3.598,0.207 -7.225,0.315 -10.877,0.315 z m -24.668,-129.325 -64.82,47.541 c 20.894,18.077 47.263,29.974 76.293,32.939 l -7.903,-78.978 c -1.207,-0.46 -2.397,-0.965 -3.57,-1.502 z m 51.855,-0.006 c -1.159,0.537 -2.346,1.037 -3.559,1.497 l -7.897,78.96 c 28.916,-3.078 55.144,-15.077 75.935,-33.182 z m 16.887,-11.295 c -3.812,3.562 -8.055,6.669 -12.675,9.202 l 82.013,60.134 -33.68,-33.674 z m -97.778,-15.62 -60.126,81.988 69.324,-69.324 c -3.567,-3.811 -6.657,-8.06 -9.198,-12.664 z m -82.877,-15.719 c 3.016,29.076 15.044,55.462 33.228,76.342 l 47.558,-64.837 c -0.536,-1.17 -1.033,-2.363 -1.502,-3.578 z m 275.05,0.06 -78.653,7.867 c -0.461,1.209 -0.957,2.391 -1.494,3.567 l 47.283,64.47 c 17.98,-20.805 29.857,-47.033 32.864,-75.904 z M 289.179,518.931 c -24.243,0 -43.87,19.658 -43.87,43.881 0,24.222 19.627,43.869 43.87,43.869 24.216,0 43.872,-19.647 43.872,-43.869 0,-24.223 -19.656,-43.881 -43.872,-43.881 z M 184.562,472.02 c -18.184,20.888 -30.164,47.277 -33.188,76.353 l 79.247,-7.932 c 0.466,-1.204 0.963,-2.397 1.499,-3.573 z m 208.952,0.389 -47.277,64.476 c 0.528,1.17 1.028,2.352 1.482,3.55 l 78.708,7.875 c -3.013,-28.871 -14.916,-55.09 -32.913,-75.901 z m 10.741,-21.712 -69.316,69.31 c 3.562,3.808 6.666,8.057 9.188,12.661 z m -227.199,-2.985 69.327,69.327 c 3.808,-3.561 8.057,-6.657 12.658,-9.193 z m 126.59,-22.376 7.897,78.923 c 1.205,0.46 2.386,0.957 3.553,1.491 l 64.513,-47.303 c -20.8,-18.099 -47.041,-30.041 -75.963,-33.111 z m -28.92,-0.103 c -29.028,2.951 -55.38,14.905 -76.274,32.987 l 64.803,47.53 c 1.179,-0.534 2.357,-1.031 3.562,-1.496 z"
         fill="#ffffff"
         id="path172" />
    </mask>
    <g
       mask="url(#mask24_12_124)"
       id="g177">
      <path
         d="m 287.915,749.198 c -0.273,0 -0.554,-0.003 -0.83,-0.003 V 625.442 c -5.515,-0.185 -10.854,-1.071 -15.918,-2.593 l 12.627,126.303 c -1.403,-0.031 -2.814,-0.076 -4.209,-0.139 L 277.634,729.5 c -39.663,-2.701 -75.518,-19.224 -102.779,-44.807 l -16.208,11.888 c -1.093,-1.068 -2.175,-2.15 -3.24,-3.24 l 11.919,-16.254 C 141.738,649.832 125.195,614.003 122.48,574.348 l -19.488,-1.949 c -0.122,-2.752 -0.182,-5.529 -0.182,-8.312 0,-1.131 0.008,-2.255 0.028,-3.38 h 123.705 c 0.19,-5.518 1.079,-10.854 2.595,-15.924 l -126.212,12.624 c 0.052,-1.409 0.117,-2.809 0.199,-4.212 l 19.369,-1.939 c 2.701,-39.658 19.213,-75.508 44.798,-102.777 l -10.803,-14.743 c 1.204,-1.215 2.425,-2.411 3.663,-3.592 l 14.743,10.809 c 27.261,-25.583 63.084,-42.134 102.739,-44.841 l 1.693,-16.941 c 2.845,-0.127 5.711,-0.196 8.588,-0.196 1.116,0 2.238,0.012 3.351,0.032 v 121.18 c 5.535,0.181 10.86,1.076 15.927,2.595 L 294.822,379.103 c 1.411,0.051 2.825,0.12 4.225,0.202 l 1.682,16.807 c 39.652,2.707 75.506,19.224 102.773,44.818 l 13.274,-9.733 c 1.358,1.318 2.693,2.653 4.01,4.01 l -9.755,13.312 c 25.586,27.266 42.134,63.082 44.843,102.737 l 16.816,1.684 c 0.219,3.689 0.33,7.404 0.33,11.147 0,0.267 0,0.542 -0.003,0.809 H 351.795 c -0.182,5.521 -1.071,10.855 -2.585,15.927 l 123.759,-12.38 c -0.032,1.409 -0.08,2.815 -0.145,4.215 l -16.958,1.695 c -2.706,39.65 -19.258,75.465 -44.835,102.734 l 10.826,14.768 c -1.181,1.239 -2.377,2.457 -3.592,3.661 L 403.474,684.67 c -27.258,25.589 -63.093,42.129 -102.745,44.835 l -1.937,19.378 c -3.598,0.207 -7.225,0.315 -10.877,0.315 z m -24.668,-129.325 -64.82,47.541 c 20.894,18.077 47.263,29.974 76.293,32.939 l -7.903,-78.978 c -1.207,-0.46 -2.397,-0.965 -3.57,-1.502 z m 51.855,-0.006 c -1.159,0.537 -2.346,1.037 -3.559,1.497 l -7.897,78.96 c 28.916,-3.078 55.144,-15.077 75.935,-33.182 z m 16.887,-11.295 c -3.812,3.562 -8.055,6.669 -12.675,9.202 l 82.013,60.134 -33.68,-33.674 z m -97.778,-15.62 -60.126,81.988 69.324,-69.324 c -3.567,-3.811 -6.657,-8.06 -9.198,-12.664 z m -82.877,-15.719 c 3.016,29.076 15.044,55.462 33.228,76.342 l 47.558,-64.837 c -0.536,-1.17 -1.033,-2.363 -1.502,-3.578 z m 275.05,0.06 -78.653,7.867 c -0.461,1.209 -0.957,2.391 -1.494,3.567 l 47.283,64.47 c 17.98,-20.805 29.857,-47.033 32.864,-75.904 z M 289.179,518.931 c -24.243,0 -43.87,19.658 -43.87,43.881 0,24.222 19.627,43.869 43.87,43.869 24.216,0 43.872,-19.647 43.872,-43.869 0,-24.223 -19.656,-43.881 -43.872,-43.881 z M 184.562,472.02 c -18.184,20.888 -30.164,47.277 -33.188,76.353 l 79.247,-7.932 c 0.466,-1.204 0.963,-2.397 1.499,-3.573 z m 208.952,0.389 -47.277,64.476 c 0.528,1.17 1.028,2.352 1.482,3.55 l 78.708,7.875 c -3.013,-28.871 -14.916,-55.09 -32.913,-75.901 z m 10.741,-21.712 -69.316,69.31 c 3.562,3.808 6.666,8.057 9.188,12.661 z m -227.199,-2.985 69.327,69.327 c 3.808,-3.561 8.057,-6.657 12.658,-9.193 z m 126.59,-22.376 7.897,78.923 c 1.205,0.46 2.386,0.957 3.553,1.491 l 64.513,-47.303 c -20.8,-18.099 -47.041,-30.041 -75.963,-33.111 z m -28.92,-0.103 c -29.028,2.951 -55.38,14.905 -76.274,32.987 l 64.803,47.53 c 1.179,-0.534 2.357,-1.031 3.562,-1.496 z"
         fill="#a7a7a7"
         fill-opacity="0.1"
         id="path175" />
    </g>
    <mask
       id="mask25_12_124"
       maskUnits="userSpaceOnUse"
       x="251"
       y="525"
       width="76"
       height="76">
      <path
         d="m 289.179,600.396 c -20.602,0 -37.298,-16.696 -37.298,-37.281 0,-20.601 16.696,-37.297 37.298,-37.297 20.592,0 37.277,16.696 37.277,37.297 0,20.585 -16.685,37.281 -37.277,37.281 z m -0.301,-48.036 c -5.927,0 -10.75,4.82 -10.75,10.755 0,5.93 4.823,10.744 10.75,10.744 5.938,0 10.749,-4.814 10.749,-10.744 0,-5.935 -4.811,-10.755 -10.749,-10.755 z"
         fill="#ffffff"
         id="path179" />
    </mask>
    <g
       mask="url(#mask25_12_124)"
       id="g184">
      <path
         d="m 289.179,600.396 c -20.602,0 -37.298,-16.696 -37.298,-37.281 0,-20.601 16.696,-37.297 37.298,-37.297 20.592,0 37.277,16.696 37.277,37.297 0,20.585 -16.685,37.281 -37.277,37.281 z m -0.301,-48.036 c -5.927,0 -10.75,4.82 -10.75,10.755 0,5.93 4.823,10.744 10.75,10.744 5.938,0 10.749,-4.814 10.749,-10.744 0,-5.935 -4.811,-10.755 -10.749,-10.755 z"
         fill="#a7a7a7"
         fill-opacity="0.1"
         id="path182" />
    </g>
    <path
       d="m 287.915,919.087 c -9.932,0 -17.986,-1.387 -17.986,-17.435 0.128,-9.114 1.085,-18.276 2.176,-27.319 1.897,-15.713 4.052,-31.517 8.338,-46.791 -8.134,-0.412 -15.39,-5.901 -17.798,-13.734 -0.307,-0.866 -0.443,-1.769 -0.639,-2.658 -47.431,-4.791 -93.652,-23.652 -130.472,-54.037 -0.705,0.576 -1.531,0.988 -2.326,1.426 -2.823,1.491 -5.947,2.218 -9.065,2.218 -4.817,0 -9.614,-1.738 -13.232,-5.092 -4.916,9.346 -11.871,18.761 -18.1104,27.158 -8.3979,11.315 -17.2189,22.397 -26.8664,32.675 -4.9217,4.924 -8.9658,6.824 -12.5385,6.824 -4.6661,0 -8.5286,-3.235 -12.5045,-7.211 -7.0262,-7.023 -11.7292,-13.697 -0.3862,-25.04 6.5319,-6.356 13.6887,-12.169 20.8511,-17.781 12.4505,-9.77 25.1566,-19.426 38.9873,-27.199 -5.4698,-6.035 -6.7051,-15.046 -2.8739,-22.291 0.3919,-0.821 0.9314,-1.571 1.4171,-2.329 C 64.5299,683.56 45.6724,637.489 40.8473,589.996 c -0.9003,-0.088 -1.7864,-0.383 -2.6497,-0.639 -7.7589,-2.389 -13.4275,-9.679 -13.7371,-17.798 -10.0876,3.144 -21.66334,4.876 -32.01226,6.401 -13.93864,2.062 -28.01084,3.666 -42.10284,4.109 -16.0459,0 -17.4319,-8.048 -17.4319,-17.982 0,-9.935 1.386,-17.983 17.4319,-17.983 9.1107,0.128 18.2838,1.082 27.3178,2.175 15.71654,1.897 31.52954,4.047 46.7973,8.336 0.409,-8.143 5.9015,-15.388 13.7371,-17.802 0.8548,-0.303 1.7693,-0.448 2.6497,-0.636 4.7996,-47.431 23.6542,-93.649 54.0393,-130.472 -0.5737,-0.707 -0.9854,-1.531 -1.4171,-2.326 -3.7999,-7.177 -2.6555,-16.336 2.8739,-22.297 C 86.9885,378.166 77.5768,371.205 69.1847,364.977 57.8645,356.579 46.78,347.758 36.505,338.102 c -11.343,-11.337 -6.64,-18.017 0.3862,-25.04 3.9731,-3.976 7.8384,-7.211 12.5045,-7.211 3.5727,0 7.6168,1.9 12.5385,6.825 6.3474,6.532 12.1637,13.688 17.7841,20.851 9.7667,12.45 19.4226,25.159 27.1927,38.982 3.684,-3.326 8.469,-5.087 13.286,-5.087 3.084,0 6.182,0.722 9.014,2.218 0.821,0.389 1.567,0.926 2.323,1.42 36.905,-30.356 82.981,-49.217 130.472,-54.036 0.088,-0.903 0.383,-1.787 0.639,-2.659 2.408,-7.832 9.664,-13.322 17.798,-13.734 -4.286,-15.271 -6.441,-31.078 -8.338,-46.797 -1.091,-9.032 -2.048,-18.205 -2.176,-27.313 0,-16.048 8.054,-17.434 17.986,-17.434 9.931,0 17.98,1.386 17.98,17.434 -0.44,14.084 -2.042,28.162 -4.107,42.101 -1.536,10.346 -3.26,21.927 -6.404,32.009 8.123,0.313 15.413,5.976 17.804,13.734 0.301,0.861 0.449,1.77 0.633,2.659 47.437,4.796 93.649,23.651 130.475,54.036 0.704,-0.576 1.531,-0.991 2.326,-1.42 2.829,-1.496 5.93,-2.218 9.014,-2.218 4.817,0 9.602,1.761 13.283,5.087 7.77,-13.823 17.426,-26.532 27.193,-38.982 5.617,-7.163 11.434,-14.319 17.787,-20.851 4.918,-4.925 8.963,-6.825 12.535,-6.825 4.663,0 8.529,3.235 12.502,7.211 7.029,7.023 11.735,13.703 0.392,25.04 -10.278,9.656 -21.365,18.477 -32.683,26.875 -8.392,6.228 -17.807,13.189 -27.162,18.105 5.533,5.961 6.677,15.12 2.88,22.291 -0.397,0.827 -0.931,1.576 -1.428,2.332 30.362,36.908 49.22,82.985 54.045,130.472 0.903,0.088 1.778,0.384 2.652,0.636 7.836,2.414 13.325,9.659 13.737,17.802 15.268,-4.289 31.076,-6.439 46.795,-8.336 9.04,-1.093 18.21,-2.047 27.318,-2.175 16.046,0 17.431,8.048 17.431,17.983 0,9.934 -1.385,17.982 -17.431,17.982 -14.084,-0.443 -28.159,-2.047 -42.106,-4.109 -10.343,-1.525 -21.928,-3.257 -32.007,-6.401 -0.309,8.119 -5.978,15.409 -13.737,17.798 -0.855,0.307 -1.769,0.451 -2.652,0.639 -4.803,47.431 -23.652,93.649 -54.045,130.475 0.579,0.702 0.994,1.531 1.428,2.329 3.829,7.245 2.59,16.256 -2.88,22.291 13.831,7.773 26.537,17.429 38.991,27.199 7.156,5.612 14.319,11.425 20.854,17.781 11.343,11.343 6.637,18.017 -0.392,25.04 -3.973,3.976 -7.839,7.211 -12.502,7.211 -3.572,0 -7.617,-1.9 -12.535,-6.824 -9.654,-10.278 -18.472,-21.36 -26.872,-32.675 -6.234,-8.397 -13.195,-17.812 -18.108,-27.158 -3.618,3.354 -8.415,5.092 -13.232,5.092 -3.118,0 -6.245,-0.727 -9.065,-2.218 -0.824,-0.395 -1.573,-0.938 -2.326,-1.426 -36.914,30.357 -82.984,49.217 -130.475,54.037 -0.088,0.906 -0.38,1.786 -0.633,2.658 -2.391,7.759 -9.681,13.427 -17.804,13.734 3.144,10.082 4.868,21.666 6.404,32.01 2.065,13.938 3.667,28.011 4.107,42.1 0,16.048 -8.049,17.435 -17.98,17.435 z m 0,-592.734 c -131.301,0 -237.7355,106.435 -237.7355,237.734 0,131.304 106.4345,237.739 237.7355,237.739 131.301,0 237.735,-106.435 237.735,-237.739 0,-131.299 -106.434,-237.734 -237.735,-237.734 z m 0,434.903 c -108.894,0 -197.1719,-88.272 -197.1719,-197.169 0,-62.833 29.3879,-118.8 75.1749,-154.908 0.159,0.113 0.343,0.193 0.545,0.238 0.088,0.017 0.176,0.026 0.258,0.026 0.259,0 0.494,-0.08 0.707,-0.241 0.355,-0.259 0.617,-0.861 0.784,-1.807 2.085,-1.593 4.198,-3.146 6.345,-4.657 0.355,0.025 0.733,0.059 1.136,0.108 0.911,0.11 1.749,0.164 2.508,0.164 0.795,0 1.505,-0.059 2.127,-0.181 1.224,-0.245 2.541,-0.872 3.942,-1.909 2.013,-1.491 3.234,-3.252 3.646,-5.265 0.114,-0.546 0.171,-1.094 0.173,-1.642 29.283,-17.224 63.397,-27.102 99.826,-27.102 108.894,0 197.172,88.284 197.172,197.176 0,108.897 -88.278,197.169 -197.172,197.169 z m -0.829,-12.061 c 0.275,0 0.556,0.003 0.829,0.003 3.652,0 7.279,-0.108 10.877,-0.315 46.514,-2.696 88.42,-22.567 119.473,-53.367 1.215,-1.204 2.411,-2.422 3.592,-3.661 29.86,-31.299 48.865,-73.042 50.967,-119.197 0.065,-1.4 0.113,-2.806 0.145,-4.215 0.028,-1.178 0.042,-2.363 0.048,-3.547 0.003,-0.267 0.003,-0.542 0.003,-0.809 0,-3.744 -0.111,-7.458 -0.33,-11.147 -2.715,-45.673 -21.993,-86.896 -51.903,-117.733 -1.318,-1.357 -2.653,-2.692 -4.01,-4.01 -30.84,-29.911 -72.054,-49.183 -117.729,-51.892 -1.4,-0.083 -2.815,-0.151 -4.226,-0.202 -1.187,-0.042 -2.363,-0.076 -3.556,-0.096 -1.113,-0.02 -2.235,-0.032 -3.351,-0.032 -2.877,0 -5.742,0.069 -8.588,0.196 -46.144,2.108 -87.881,21.113 -119.175,50.973 -1.238,1.181 -2.459,2.377 -3.663,3.592 -30.794,31.05 -50.666,72.951 -53.364,119.459 -0.082,1.403 -0.147,2.803 -0.198,4.212 -0.037,1.096 -0.069,2.201 -0.088,3.3 -0.02,1.125 -0.029,2.249 -0.029,3.38 0,2.783 0.06,5.56 0.182,8.312 2.076,46.994 21.672,89.426 52.415,120.942 1.065,1.09 2.147,2.172 3.24,3.24 31.513,30.752 73.942,50.353 120.938,52.432 1.395,0.063 2.806,0.108 4.209,0.139 1.099,0.023 2.19,0.037 3.292,0.043 z"
       fill="#a7a7a7"
       fill-opacity="0.1"
       id="path186" />
    <mask
       id="mask26_12_124"
       maskUnits="userSpaceOnUse"
       x="76"
       y="646"
       width="31"
       height="29">
      <path
         d="m 100.748,674.375 -9.1617,-6.285 -9.1532,6.285 3.1439,-10.661 -8.8069,-6.762 11.1044,-0.304 3.7118,-10.463 3.7205,10.463 11.0982,0.304 -8.8006,6.762 z"
         fill="#ffffff"
         id="path188" />
    </mask>
    <g
       mask="url(#mask26_12_124)"
       id="g193">
      <path
         d="m 100.748,674.375 -9.1617,-6.285 -9.1532,6.285 3.1439,-10.661 -8.8069,-6.762 11.1044,-0.304 3.7118,-10.463 3.7205,10.463 11.0982,0.304 -8.8006,6.762 z"
         fill="#a7a7a7"
         fill-opacity="0.1"
         id="path191" />
    </g>
    <mask
       id="mask27_12_124"
       maskUnits="userSpaceOnUse"
       x="469"
       y="646"
       width="30"
       height="29">
      <path
         d="m 493.11,674.375 -9.157,-6.285 -9.161,6.285 3.138,-10.661 -8.795,-6.762 11.098,-0.304 3.72,-10.463 3.715,10.463 11.108,0.304 -8.81,6.762 z"
         fill="#ffffff"
         id="path195" />
    </mask>
    <g
       mask="url(#mask27_12_124)"
       id="g200">
      <path
         d="m 493.11,674.375 -9.157,-6.285 -9.161,6.285 3.138,-10.661 -8.795,-6.762 11.098,-0.304 3.72,-10.463 3.715,10.463 11.108,0.304 -8.81,6.762 z"
         fill="#a7a7a7"
         fill-opacity="0.1"
         id="path198" />
    </g>
  </g>
</svg>
