<?xml version="1.0" encoding="UTF-8" standalone="no"?>
<svg
   viewBox="0 0 32 32"
   version="1.1"
   id="svg17"
   sodipodi:docname="registrar.svg"
   inkscape:version="1.1 (c68e22c387, 2021-05-23)"
   xmlns:inkscape="http://www.inkscape.org/namespaces/inkscape"
   xmlns:sodipodi="http://sodipodi.sourceforge.net/DTD/sodipodi-0.dtd"
   xmlns="http://www.w3.org/2000/svg"
   xmlns:svg="http://www.w3.org/2000/svg">
  <sodipodi:namedview
     id="namedview19"
     pagecolor="#ffffff"
     bordercolor="#666666"
     borderopacity="1.0"
     inkscape:pageshadow="2"
     inkscape:pageopacity="0.0"
     inkscape:pagecheckerboard="0"
     showgrid="false"
     inkscape:zoom="26"
     inkscape:cx="15.980769"
     inkscape:cy="16.019231"
     inkscape:window-width="1920"
     inkscape:window-height="1017"
     inkscape:window-x="-8"
     inkscape:window-y="-8"
     inkscape:window-maximized="1"
     inkscape:current-layer="svg17" />
  <defs
     id="defs4">
    <style
       id="style2">.cls-1{fill:#101820;}</style>
  </defs>
  <title
     id="title6" />
  <g
     data-name="Layer 42"
     id="Layer_42"
     style="fill:#fcfcfc;stroke:#fcfcfc">
    <path
       class="cls-1"
       d="M 2,29 A 1,1 0 0 1 1,27.89 l 0.77,-7 A 1,1 0 0 1 2.06,20.3 L 18.42,3.94 a 3.2,3.2 0 0 1 4.53,0 l 3.11,3.11 a 3.2,3.2 0 0 1 0,4.53 L 9.71,27.93 a 1,1 0 0 1 -0.59,0.29 l -7,0.77 z m 7,-1.78 z m -5.27,-5.77 -0.6,5.42 5.42,-0.6 16.1,-16.1 a 1.2,1.2 0 0 0 0,-1.7 L 21.53,5.35 a 1.2,1.2 0 0 0 -1.7,0 z"
       id="path8"
       style="fill:#fcfcfc;stroke:#fcfcfc" />
    <path
       class="cls-1"
       d="M 23,14.21 A 1,1 0 0 1 22.29,13.92 L 16.08,7.69 A 1.0040916,1.0040916 0 0 1 17.5,6.27 l 6.23,6.23 a 1,1 0 0 1 0,1.42 1,1 0 0 1 -0.73,0.29 z"
       id="path10"
       style="fill:#fcfcfc;stroke:#fcfcfc" />
    <rect
       class="cls-1"
       height="2"
       transform="rotate(-45,12.901419,17.096057)"
       width="11.01"
       x="7.3899999"
       y="16.1"
       id="rect12"
       style="fill:#fcfcfc;stroke:#fcfcfc" />
    <path
       class="cls-1"
       d="M 30,29 H 14 a 1,1 0 0 1 0,-2 h 16 a 1,1 0 0 1 0,2 z"
       id="path14"
       style="fill:#fcfcfc;stroke:#fcfcfc" />
  </g>
</svg>
