<?xml version="1.0" encoding="UTF-8" standalone="no"?>
<!-- Created with Inkscape (http://www.inkscape.org/) -->

<svg
   width="31.579605mm"
   height="26.059343mm"
   viewBox="0 0 31.579605 26.059343"
   version="1.1"
   id="svg8105"
   inkscape:version="1.2.1 (9c6d41e410, 2022-07-14)"
   sodipodi:docname="items.svg"
   xmlns:inkscape="http://www.inkscape.org/namespaces/inkscape"
   xmlns:sodipodi="http://sodipodi.sourceforge.net/DTD/sodipodi-0.dtd"
   xmlns="http://www.w3.org/2000/svg"
   xmlns:svg="http://www.w3.org/2000/svg">
  <sodipodi:namedview
     id="namedview8107"
     pagecolor="#ffffff"
     bordercolor="#000000"
     borderopacity="0.25"
     inkscape:showpageshadow="2"
     inkscape:pageopacity="0.0"
     inkscape:pagecheckerboard="true"
     inkscape:deskcolor="#d1d1d1"
     inkscape:document-units="mm"
     showgrid="false"
     inkscape:zoom="8.2646299"
     inkscape:cx="59.651794"
     inkscape:cy="49.246004"
     inkscape:window-width="1920"
     inkscape:window-height="1017"
     inkscape:window-x="-8"
     inkscape:window-y="-8"
     inkscape:window-maximized="1"
     inkscape:current-layer="layer1" />
  <defs
     id="defs8102" />
  <g
     inkscape:label="Layer 1"
     inkscape:groupmode="layer"
     id="layer1"
     transform="translate(42.402706,-24.228394)">
    <path
       id="path190"
       style="fill:#2e2d40;fill-opacity:1;fill-rule:nonzero;stroke:none;stroke-width:0.0352777"
       d="m -17.785875,43.471714 -0.676979,0.604663 c -0.191913,0.147108 -0.38735,0.293862 -0.597958,0.428625 -0.24765,0.169685 -0.519642,0.331258 -0.793047,0.462843 -1.195916,0.624065 -2.553051,0.970492 -3.989916,0.966259 -1.45415,-0.0042 -2.807759,-0.368652 -3.995912,-1.004007 l -0.800807,-0.480835 c -0.191558,-0.127706 -0.39511,-0.270933 -0.575381,-0.424743 l -0.02646,-0.0113 -0.624063,-0.572207 -0.02999,-0.02928 c -1.575504,-1.571625 -2.564694,-3.745442 -2.5527,-6.147155 0.0039,-0.496355 0.04868,-0.974018 0.138641,-1.451679 0.04551,-0.3048 0.109715,-0.601133 0.195792,-0.890764 0.06809,-0.229304 0.154165,-0.466019 0.230013,-0.688269 0.108302,-0.293158 0.228952,-0.568325 0.385937,-0.8382 1.234017,-2.454981 3.625146,-4.233333 6.444898,-4.639733 0.289277,-0.04445 0.597606,-0.07549 0.897818,-0.07549 0.124532,-0.01834 0.248709,-0.01516 0.383824,-0.01834 0.124176,0 0.237418,0.0032 0.361598,0.01834 0.300212,0.0081 0.605012,0.04163 0.905933,0.07938 2.815519,0.4318 5.18795,2.233787 6.421612,4.688062 0.131233,0.274815 0.25894,0.553157 0.361598,0.842434 0.09666,0.221898 0.16016,0.455083 0.22084,0.691446 0.09102,0.289983 0.165452,0.597604 0.202845,0.89535 0.08326,0.473075 0.12065,0.962729 0.124884,1.454854 -0.0113,2.409473 -1.016352,4.586464 -2.613025,6.139743 z m 6.232879,-7.095064 0.729896,-0.127354 -0.06456,-0.360538 -0.323495,-1.921581 -0.732367,0.123473 c -0.08749,-0.319265 -0.184504,-0.631121 -0.293865,-0.9398 -0.111831,-0.307975 -0.232481,-0.612071 -0.372533,-0.913696 l 0.647348,-0.364419 -0.684741,-1.202618 -0.465315,-0.812448 -0.644173,0.368652 c -0.378884,-0.545394 -0.800452,-1.052336 -1.255184,-1.522942 l 0.477663,-0.564444 -1.767416,-1.488369 -0.480838,0.560211 c -0.304446,-0.218017 -0.620536,-0.413456 -0.946854,-0.602192 -0.245533,-0.138641 -0.504473,-0.270227 -0.756357,-0.390525 l 0.259644,-0.691091 -2.169583,-0.808567 -0.25541,0.702381 c -0.636059,-0.168628 -1.281994,-0.297039 -1.944511,-0.356306 l 0.0046,-0.740833 -2.312459,-0.01517 v 0.740834 c -0.646993,0.05997 -1.304925,0.172861 -1.95086,0.337961 l -0.248708,-0.694972 -2.180521,0.781755 0.251883,0.691445 c -0.605367,0.282575 -1.177219,0.6096 -1.710971,0.977547 l -0.473075,-0.570795 -1.778706,1.476728 0.473427,0.571851 c -0.473427,0.466021 -0.893937,0.974021 -1.274233,1.5113 l -0.643112,-0.379942 -1.169459,2.000605 0.639585,0.372179 c -0.274108,0.589491 -0.507648,1.210733 -0.676626,1.846087 l -0.733074,-0.131587 -0.417689,2.278239 0.729191,0.127352 c -0.05609,0.654757 -0.05962,1.31586 -0.0035,1.977673 l -0.733425,0.124529 0.390877,2.281767 0.73378,-0.123825 c 0.08643,0.319265 0.18415,0.631473 0.292804,0.9398 0.109362,0.308329 0.233891,0.613129 0.368654,0.913696 l -0.642763,0.368652 1.049163,1.827035 0.101246,0.18415 0.639233,-0.3683 c 0.37959,0.54469 0.80504,1.056217 1.259771,1.52259 l -0.477663,0.56374 1.766713,1.492601 0.477308,-0.563033 c 0.537986,0.378532 1.113013,0.709435 1.707092,0.991307 l -0.255058,0.696028 2.164995,0.804688 0.256117,-0.70344 c 0.635354,0.173567 1.281641,0.29704 1.939925,0.357365 v 0.740834 l 2.311754,0.01482 v -0.740481 c 0.646642,-0.05997 1.300337,-0.169334 1.943804,-0.334434 l 0.251883,0.702734 2.176992,-0.781757 -0.248002,-0.699558 c 0.60184,-0.281517 1.180748,-0.612775 1.714852,-0.981427 l 0.472723,0.5715 1.77941,-1.477081 -0.474485,-0.571146 c 0.474485,-0.466725 0.891469,-0.970491 1.274585,-1.507773 l 0.643467,0.378883 1.16205,-2.00025 -0.640292,-0.371826 c 0.278697,-0.59408 0.515409,-1.214615 0.68439,-1.849615 l 0.72884,0.132292 0.415218,-2.275769 -0.721783,-0.131233 c 0.05609,-0.65405 0.05927,-1.316215 0.0028,-1.974144" />
    <path
       id="path192"
       style="fill:#ffffff;fill-opacity:1;fill-rule:nonzero;stroke:none;stroke-width:0.0352777"
       d="m -25.708204,36.238008 c -0.228955,0 -0.41275,0.18415 -0.41275,0.414161 0,0.2286 0.183795,0.413102 0.41275,0.413102 0.229658,0 0.413808,-0.184502 0.413808,-0.413102 0,-0.230011 -0.18415,-0.414161 -0.413808,-0.414161 z m 0.717902,2.236963 c -0.229658,0 -0.413457,0.183798 -0.413457,0.413101 0,0.230013 0.183799,0.413457 0.413457,0.413457 0.229306,0 0.413456,-0.183444 0.413456,-0.413457 0,-0.229303 -0.18415,-0.413101 -0.413456,-0.413101 z m 1.176515,-2.808463 c 0.229658,0 0.41416,-0.18415 0.41416,-0.413808 0,-0.228954 -0.184502,-0.413808 -0.41416,-0.413808 -0.225073,0 -0.413457,0.184854 -0.413457,0.413808 0,0.229658 0.188384,0.413808 0.413457,0.413808 z m 0,2.405944 c -0.431448,0 -0.773997,-0.353483 -0.773997,-0.785638 0,-0.432504 0.342549,-0.770818 0.782109,-0.770818 0.4318,0.0039 0.773996,0.350308 0.773996,0.778933 -0.0039,0.4318 -0.345723,0.782108 -0.782108,0.777523 z m 1.151466,-0.770467 c 0,-0.635 -0.515763,-1.151466 -1.151466,-1.151466 -0.62724,0 -1.142297,0.516466 -1.142297,1.151466 0,0.631825 0.515057,1.146879 1.142297,1.146879 0.635703,0 1.151466,-0.515054 1.151466,-1.146879 z m 0.03669,1.172986 c -0.229303,0 -0.413453,0.183798 -0.413453,0.413101 0,0.230013 0.18415,0.413457 0.413453,0.413457 0.230013,0 0.414163,-0.183444 0.414163,-0.413457 0,-0.229303 -0.18415,-0.413101 -0.414163,-0.413101 z m 0.72249,-2.236963 c -0.23001,0 -0.413102,0.18415 -0.413102,0.414161 0,0.2286 0.183092,0.413102 0.413102,0.413102 0.229659,0 0.413457,-0.184502 0.413457,-0.413102 0,-0.230011 -0.183798,-0.414161 -0.413457,-0.414161" />
    <path
       id="path194"
       style="fill:#ffffff;fill-opacity:1;fill-rule:nonzero;stroke:#000000;stroke-width:0.0352777;stroke-opacity:1"
       d="m -17.002709,37.361252 c -0.0049,0.786694 -0.149928,1.55857 -0.417687,2.276827 l -0.01447,0.04833 c -0.03387,0.08784 -0.06809,0.174977 -0.111477,0.262467 -0.121709,0.291042 -0.261763,0.572558 -0.421923,0.849135 -0.131586,0.214135 -0.267052,0.422982 -0.422275,0.61736 -0.06879,0.09666 -0.136525,0.18415 -0.208844,0.271288 l -0.03457,0.03845 c -0.05327,0.0635 -0.105833,0.126648 -0.164394,0.184857 l -2.296583,-3.771548 4.048125,-1.621719 c 0.02963,0.2667 0.04409,0.534458 0.04409,0.795867 z m -4.514143,6.344354 c -0.369358,0.136879 -0.74789,0.233539 -1.121833,0.306564 h -0.04798 c -0.58773,0.10654 -1.17969,0.126294 -1.7526,0.06809 -0.189797,-0.02011 -0.374298,-0.03916 -0.563034,-0.07267 l -0.05362,-0.01024 c -0.09701,-0.02434 -0.199673,-0.03881 -0.30621,-0.07267 -0.251531,-0.05362 -0.494948,-0.121354 -0.738013,-0.213429 -0.198967,-0.06809 -0.388408,-0.145346 -0.57291,-0.238125 l 2.820458,-3.330575 2.840215,3.364087 c -0.159808,0.07303 -0.330555,0.141113 -0.504473,0.198967 z m -7.355065,-1.848909 c -0.04833,-0.0635 -0.1016,-0.121708 -0.15522,-0.184501 l -0.03881,-0.03916 c -0.480483,-0.577143 -0.878416,-1.256948 -1.146175,-2.009775 l -0.01905,-0.05362 c -0.09243,-0.26176 -0.169685,-0.52846 -0.228248,-0.790927 -0.07267,-0.305858 -0.116062,-0.616302 -0.140404,-0.9271 -0.01976,-0.18909 -0.01976,-0.378531 -0.024,-0.563033 l 0.0042,-0.04833 v -0.0056 c 0,-0.04339 0,-0.09666 0.01024,-0.145344 0,-0.208491 0.01447,-0.417335 0.0381,-0.616302 l 4.039659,1.655231 z m -0.15522,-8.94221 0.03916,-0.04374 c 0.475192,-0.55245 1.033992,-1.033285 1.6891,-1.417109 0.02469,-0.01939 0.05785,-0.03387 0.09243,-0.05362 l 0.03316,-0.02963 c 0.2286,-0.125942 0.466725,-0.23777 0.718608,-0.334433 0.112184,-0.05292 0.223663,-0.101952 0.349957,-0.150987 0.116417,-0.04304 0.24271,-0.08255 0.369358,-0.111125 0.19826,-0.06315 0.397582,-0.111832 0.596548,-0.155575 l -0.315031,4.359274 v 0.0056 h -0.0053 l -4.252383,-1.082675 c 0.194027,-0.345368 0.427215,-0.680508 0.68439,-0.986015 z m 3.320343,4.150784 c -0.232833,0 -0.41275,-0.184502 -0.41275,-0.41275 0,-0.228246 0.179917,-0.412044 0.41275,-0.412044 0.228248,0 0.413457,0.183798 0.413457,0.412044 0,0.228248 -0.185209,0.41275 -0.413457,0.41275 z m 0.718257,1.407583 c 0.228245,0 0.413102,0.184502 0.413102,0.41769 0,0.2286 -0.184857,0.41275 -0.413102,0.41275 -0.232482,0 -0.416984,-0.18415 -0.416984,-0.41275 0,-0.233188 0.184502,-0.41769 0.416984,-0.41769 z m 1.17475,-2.320219 c 0.636762,0 1.151466,0.51435 1.151466,1.150409 0,0.63147 -0.514704,1.14582 -1.151466,1.14582 -0.625475,0 -1.14018,-0.51435 -1.14018,-1.14582 0,-0.636059 0.514705,-1.150409 1.14018,-1.150409 z m 0,-1.31586 c 0.228952,0 0.413102,0.184502 0.413102,0.417335 0,0.2286 -0.18415,0.41275 -0.413102,0.41275 -0.222957,0 -0.412398,-0.18415 -0.412398,-0.41275 0,-0.232833 0.189441,-0.417335 0.412398,-0.417335 z m 1.602668,4.053769 c 0,0.2286 -0.184502,0.41275 -0.412398,0.41275 -0.232833,0 -0.41275,-0.18415 -0.41275,-0.41275 0,-0.233188 0.179917,-0.41769 0.41275,-0.41769 0.227896,0 0.412398,0.184502 0.412398,0.41769 z m 0.723194,-2.238023 c 0,0.228248 -0.184854,0.41275 -0.417687,0.41275 -0.227897,0 -0.413457,-0.184502 -0.413457,-0.41275 0,-0.228246 0.18556,-0.412044 0.413457,-0.412044 0.232833,0 0.417687,0.183798 0.417687,0.412044 z m 1.082323,-5.247921 0.04868,0.02434 c 0.35419,0.208843 0.689682,0.442029 1.000125,0.718608 0.237773,0.208844 0.465667,0.436385 0.669573,0.679096 0.03457,0.03457 0.06844,0.06385 0.09243,0.09807 l 0.03387,0.03845 c 0.121356,0.144991 0.238125,0.291396 0.34431,0.451556 0.116771,0.169333 0.2286,0.339019 0.330555,0.524227 l -4.257323,1.053396 -0.296334,-4.369154 c 0.718257,0.155929 1.407935,0.417338 2.034117,0.781404 z m 5.107165,4.471458 c -0.03916,-0.296687 -0.111125,-0.601839 -0.203555,-0.892881 -0.05927,-0.238477 -0.121354,-0.471665 -0.219427,-0.694973 -0.1016,-0.286102 -0.232481,-0.567619 -0.363715,-0.83961 -1.232958,-2.456392 -3.602566,-4.257323 -6.417026,-4.689475 -0.301625,-0.03881 -0.606425,-0.07267 -0.908402,-0.07726 -0.126648,-0.01516 -0.23848,-0.01976 -0.359834,-0.01976 -0.135114,0.0046 -0.261056,0 -0.38735,0.01976 -0.296333,0 -0.606779,0.02893 -0.898173,0.07267 -2.815518,0.40781 -5.208764,2.1844 -6.442781,4.640791 -0.16016,0.271637 -0.276577,0.543629 -0.38735,0.83961 -0.07302,0.218723 -0.16016,0.456494 -0.2286,0.689327 -0.08643,0.28575 -0.150635,0.582438 -0.194027,0.888296 -0.09243,0.475896 -0.136173,0.957086 -0.140406,1.452031 -0.0099,2.402771 0.975431,4.577292 2.5527,6.145742 l 0.02928,0.02893 0.626181,0.57291 0.02506,0.01447 c 0.179213,0.150284 0.382765,0.295979 0.577147,0.422627 l 0.80151,0.480132 c 1.183568,0.635703 2.538235,0.99977 3.994502,1.00471 1.437216,0.0049 2.791883,-0.34431 3.990623,-0.965907 0.27164,-0.130878 0.543631,-0.291393 0.791281,-0.461078 0.20955,-0.135467 0.408162,-0.281517 0.596546,-0.432155 l 0.680156,-0.601837 c 1.597731,-1.553633 2.597502,-3.733096 2.611967,-6.140805 -0.0049,-0.495297 -0.0441,-0.98072 -0.126294,-1.456264" />
    <path
       id="path196"
       style="fill:#5f4d67;fill-opacity:1;fill-rule:nonzero;stroke:none;stroke-width:0.0352777"
       d="m -23.399627,35.2527 c 0,0.229658 -0.184502,0.413808 -0.41416,0.413808 -0.225073,0 -0.413457,-0.18415 -0.413457,-0.413808 0,-0.228954 0.188384,-0.413808 0.413457,-0.413808 0.229658,0 0.41416,0.184854 0.41416,0.413808" />
    <path
       id="path198"
       style="fill:#5f4d67;fill-opacity:1;fill-rule:nonzero;stroke:none;stroke-width:0.0352777"
       d="m -25.294396,36.652169 c 0,0.2286 -0.18415,0.413102 -0.413808,0.413102 -0.228955,0 -0.41275,-0.184502 -0.41275,-0.413102 0,-0.230011 0.183795,-0.414161 0.41275,-0.414161 0.229658,0 0.413808,0.18415 0.413808,0.414161" />
    <path
       id="path200"
       style="fill:#5f4d67;fill-opacity:1;fill-rule:nonzero;stroke:none;stroke-width:0.0352777"
       d="m -24.576846,38.888072 c 0,0.230013 -0.18415,0.413457 -0.413456,0.413457 -0.229658,0 -0.413457,-0.183444 -0.413457,-0.413457 0,-0.229303 0.183799,-0.413101 0.413457,-0.413101 0.229306,0 0.413456,0.183798 0.413456,0.413101" />
    <path
       id="path202"
       style="fill:#5f4d67;fill-opacity:1;fill-rule:nonzero;stroke:none;stroke-width:0.0352777"
       d="m -22.211471,38.888072 c 0,0.230013 -0.18415,0.413457 -0.414163,0.413457 -0.229303,0 -0.413453,-0.183444 -0.413453,-0.413457 0,-0.229303 0.18415,-0.413101 0.413453,-0.413101 0.230013,0 0.414163,0.183798 0.414163,0.413101" />
    <path
       id="path204"
       style="fill:#5f4d67;fill-opacity:1;fill-rule:nonzero;stroke:none;stroke-width:0.0352777"
       d="m -21.489687,36.652169 c 0,0.2286 -0.183798,0.413102 -0.413457,0.413102 -0.23001,0 -0.413102,-0.184502 -0.413102,-0.413102 0,-0.230011 0.183092,-0.414161 0.413102,-0.414161 0.229659,0 0.413457,0.18415 0.413457,0.414161" />
    <path
       id="path206"
       style="fill:#5f4d67;fill-opacity:1;fill-rule:nonzero;stroke:none;stroke-width:0.0352777"
       d="m -23.813787,38.072452 c -0.431448,0 -0.773997,-0.353483 -0.773997,-0.785638 0,-0.432504 0.342549,-0.770818 0.782109,-0.770818 0.4318,0.0039 0.773996,0.350308 0.773996,0.778933 -0.0039,0.4318 -0.345723,0.782108 -0.782108,0.777523 z m 0,-1.921933 c -0.62724,0 -1.142297,0.516466 -1.142297,1.151466 0,0.631825 0.515057,1.146879 1.142297,1.146879 0.635703,0 1.151466,-0.515054 1.151466,-1.146879 0,-0.635 -0.515763,-1.151466 -1.151466,-1.151466" />
    <path
       id="path208"
       style="fill:#5db2c3;fill-opacity:1;fill-rule:nonzero;stroke:none;stroke-width:0.0352777"
       d="m -40.170329,33.22211 h 3.055112 V 30.837 h -3.055112 z" />
    <path
       id="path210"
       style="fill:#ffffff;fill-opacity:1;fill-rule:nonzero;stroke:none;stroke-width:0.0352777"
       d="m -34.882896,27.987594 c 0,2.07645 -1.683808,3.759906 -3.759554,3.759906 -2.076095,0 -3.760256,-1.683456 -3.760256,-3.759906 0,-2.076803 1.684161,-3.7592 3.760256,-3.7592 2.075746,0 3.759554,1.682397 3.759554,3.7592" />
    <path
       id="path212"
       style="fill:#aacac0;fill-opacity:1;fill-rule:nonzero;stroke:none;stroke-width:0.0352777"
       d="m -35.540475,27.987594 c 0,1.71309 -1.389592,3.101623 -3.101975,3.101623 -1.713087,0 -3.101975,-1.388533 -3.101975,-3.101623 0,-1.713089 1.388888,-3.101622 3.101975,-3.101622 1.712383,0 3.101975,1.388533 3.101975,3.101622" />
    <path
       id="path214"
       style="fill:#3b9878;fill-opacity:1;fill-rule:nonzero;stroke:none;stroke-width:0.0352777"
       d="m -35.827635,27.134577 -0.685094,0.684389 c -0.545042,-0.545042 -1.297165,-0.880533 -2.127604,-0.880533 -0.831496,0 -1.583267,0.335491 -2.129012,0.880533 l -0.687565,-0.687564 c 0.722135,-0.722489 1.714852,-1.166283 2.816577,-1.166283 1.096788,0 2.093383,0.447675 2.812698,1.169458" />
    <path
       id="path216"
       style="fill:#ef3320;fill-opacity:1;fill-rule:nonzero;stroke:none;stroke-width:0.0352777"
       d="m -35.827635,27.135988 -0.685094,0.684742 c -0.293158,-0.293864 -0.64629,-0.522817 -1.037873,-0.673453 l 0.33796,-0.910167 c 0.526698,0.199673 0.996598,0.508 1.385007,0.898878" />
    <path
       id="path218"
       style="fill:#581e19;fill-opacity:1;fill-rule:nonzero;stroke:none;stroke-width:0.0352777"
       d="m -38.249102,29.538052 c -0.09172,0.24624 -0.364067,0.370417 -0.609952,0.2794 -0.244475,-0.09066 -0.368654,-0.364067 -0.277283,-0.609952 l 0.04374,-0.08714 1.464027,-2.604204 -0.596193,2.928409 c -0.0039,0.03139 -0.01236,0.06174 -0.02434,0.09349" />
    <path
       id="path220"
       style="fill:#d3d8d7;fill-opacity:1;fill-rule:nonzero;stroke:none;stroke-width:0.0352777"
       d="m -36.782604,30.469737 c 0.610658,-0.458258 1.047044,-1.136295 1.190625,-1.916993 l 7.94e-4,7.94e-4 c -0.142521,0.780343 -0.578908,1.458383 -1.191329,1.916287" />
    <path
       id="path222"
       style="fill:#87a7a1;fill-opacity:1;fill-rule:nonzero;stroke:none;stroke-width:0.0352777"
       d="m -37.760858,30.9601 -1.184979,-1.185333 c 0.0074,0.0046 0.01447,0.0088 0.02188,0.01304 0.01765,0.0099 0.03634,0.01905 0.05645,0.02646 0.0028,0.0011 0.0056,0.0021 0.0085,0.0032 0.05468,0.02045 0.110418,0.02999 0.165452,0.02999 0.04022,0 0.07973,-0.0053 0.118181,-0.01516 0.14605,-0.03704 0.270933,-0.142169 0.326319,-0.293159 l 0.0011,-0.0035 c 0.0095,-0.02611 0.01693,-0.05115 0.02117,-0.07655 l 0.0039,-0.01447 0.481187,-2.369962 c 0.06527,0.02046 0.129823,0.04304 0.193323,0.06773 l -0.0021,0.0049 c 0.391583,0.150637 0.744714,0.379589 1.037873,0.673453 l 0.09454,-0.09454 0.826207,0.826557 c -0.143582,0.780698 -0.579967,1.458735 -1.190625,1.916994 -0.29069,0.217313 -0.62089,0.384881 -0.978255,0.490363" />
    <path
       id="path224"
       style="fill:#307d65;fill-opacity:1;fill-rule:nonzero;stroke:none;stroke-width:0.0352777"
       d="m -37.548485,27.142338 c -0.0635,-0.02469 -0.128059,-0.04727 -0.193323,-0.06773 l 0.113241,-0.558447 0.227897,0.227894 -0.147815,0.398286" />
    <path
       id="path226"
       style="fill:#c92e23;fill-opacity:1;fill-rule:nonzero;stroke:none;stroke-width:0.0352777"
       d="m -36.512729,27.82073 c -0.293158,-0.293864 -0.64629,-0.522817 -1.037873,-0.673453 l 0.0021,-0.0049 0.147815,-0.398286 0.982485,0.982133 -0.09454,0.09455" />
    <path
       id="path228"
       style="fill:#461b17;fill-opacity:1;fill-rule:nonzero;stroke:none;stroke-width:0.0352777"
       d="m -38.693602,29.847437 c -0.05503,0 -0.110773,-0.0095 -0.165452,-0.02998 -0.0028,-0.0011 -0.0056,-0.0021 -0.0085,-0.0032 0.0028,0.0011 0.006,0.0021 0.0092,0.0032 0.05468,0.02011 0.110773,0.02963 0.165806,0.02963 0.03986,0 0.07902,-0.0049 0.117123,-0.01482 -0.03845,0.0099 -0.07796,0.01516 -0.118181,0.01516 m -0.230365,-0.05962 c -0.0074,-0.0042 -0.01447,-0.0085 -0.02188,-0.01304 l -0.0028,-0.0028 c 0.0081,0.0056 0.01622,0.01093 0.02468,0.01588 m 0.675924,-0.252235 0.02117,-0.07655 c -0.0042,0.0254 -0.01164,0.05045 -0.02117,0.07655" />
    <path
       id="path230"
       style="fill:#ffffff;fill-opacity:1;fill-rule:nonzero;stroke:none;stroke-width:0.0352777"
       d="m -37.403845,33.22211 v 0.312561 h -2.477207 V 33.22211 h 2.477207" />
    <path
       id="path232"
       style="fill:#d3d8d7;fill-opacity:1;fill-rule:nonzero;stroke:none;stroke-width:0.0352777"
       d="m -38.64245,31.089217 c -1.714145,0 -3.101975,-1.387475 -3.101975,-3.098448 0,-3.44e-4 0,-0.0011 0,-0.0014 7.94e-4,1.712029 1.389592,3.099859 3.101975,3.099859 0.0024,0 0.0053,0 0.0078,0 -0.0024,0 -0.0053,0 -0.0078,0 m 0.27164,-0.01164 c 0.04762,-0.0042 0.09525,-0.0095 0.142168,-0.01588 0.0028,2.65e-4 0.0049,7.94e-4 0.0074,0.0011 -0.04868,0.0056 -0.09878,0.01058 -0.149577,0.01482 m 0.140758,-6.164439 c -0.04903,-0.0067 -0.09842,-0.01199 -0.148167,-0.01623 0.05327,0.0042 0.105834,0.0095 0.156986,0.01517 -0.0028,3.44e-4 -0.0056,7.14e-4 -0.0088,0.0011 m -0.44591,-0.02716 c 0.0019,0 0.0032,0 0.0046,0 -0.0013,0 -0.0028,0 -0.0046,0 m 0.02045,0 c 0.0046,0 0.0085,0 0.01304,0 -0.0046,0 -0.0085,0 -0.01304,0 m 0.02082,0 c -0.0028,0 -0.0053,0 -0.0078,0 0.0024,0 0.0049,0 0.0078,0" />
    <path
       id="path234"
       style="fill:#87a7a1;fill-opacity:1;fill-rule:nonzero;stroke:none;stroke-width:0.0352777"
       d="m -38.64245,31.089217 c -1.712383,0 -3.101269,-1.38783 -3.101975,-3.099859 7.94e-4,-1.702153 1.37019,-3.085395 3.068463,-3.103386 0.0019,0 0.0032,0 0.0046,0 0.0053,0 0.01093,0 0.01588,0 0.0046,0 0.0085,0 0.01304,0 v 0 0 c 0.0024,0 0.0049,0 0.0078,0 0.08573,3.43e-4 0.171802,0.0046 0.256469,0.01093 0.04974,0.0042 0.09913,0.0095 0.148167,0.01623 -0.950384,0.135466 -1.763184,0.700264 -2.234142,1.49225 -0.367594,0.189794 -0.702027,0.435328 -0.992717,0.726016 l 0.571148,0.571148 c -0.0085,0.0949 -0.01304,0.191205 -0.01304,0.288219 0,1.565626 1.16205,2.858206 2.670175,3.070931 -0.04692,0.0064 -0.09454,0.01164 -0.142168,0.01588 -0.08678,0.0071 -0.175332,0.0113 -0.263877,0.01164 -0.0024,0 -0.0053,0 -0.0078,0" />
    <path
       id="path236"
       style="fill:#307d65;fill-opacity:1;fill-rule:nonzero;stroke:none;stroke-width:0.0352777"
       d="m -40.885762,27.702549 -0.571148,-0.571147 c 0.29069,-0.290689 0.625123,-0.536222 0.992716,-0.726017 -0.229658,0.386292 -0.378176,0.826206 -0.421568,1.297164" />
    <path
       id="path238"
       style="fill:#f49e11;fill-opacity:1;fill-rule:nonzero;stroke:none;stroke-width:0.0352777"
       d="m -39.62035,46.663295 c 3.582813,1.004007 8.853665,-6.692193 11.710813,-3.368323 l 0.03775,0.04092 c 0.05221,0.05257 0.123825,0.08678 0.206375,0.08678 0.166159,0 0.293865,-0.13194 0.293865,-0.29351 0,-0.04092 -0.0081,-0.07832 -0.02363,-0.116417 v -0.0035 c -0.04481,-0.05292 -0.09349,-0.101952 -0.137938,-0.146754 -2.695575,-2.696281 -6.839302,1.410052 -9.32815,2.631721 -1.120069,0.548571 -2.665942,1.143706 -3.605742,-0.05997 -1.42875,-1.823863 -0.04128,-3.429354 1.18463,-4.722638 2.007304,-2.11596 1.169458,-4.522255 1.019175,-7.17691 h -0.717905 c 0.145698,1.563865 0.72108,3.383492 0.307271,4.850342 -0.484716,1.721908 -1.936046,2.555875 -2.710391,4.074935 -0.879475,1.721908 -0.09384,3.680883 1.763887,4.203348" />
  </g>
</svg>
