<?xml version="1.0" encoding="UTF-8" standalone="no"?>
<!-- Created with Inkscape (http://www.inkscape.org/) -->

<svg
   width="32.063114mm"
   height="26.458338mm"
   viewBox="0 0 32.063114 26.458337"
   version="1.1"
   id="svg8105"
   inkscape:version="1.2.1 (9c6d41e410, 2022-07-14)"
   sodipodi:docname="items.svg"
   xmlns:inkscape="http://www.inkscape.org/namespaces/inkscape"
   xmlns:sodipodi="http://sodipodi.sourceforge.net/DTD/sodipodi-0.dtd"
   xmlns="http://www.w3.org/2000/svg"
   xmlns:svg="http://www.w3.org/2000/svg">
  <sodipodi:namedview
     id="namedview8107"
     pagecolor="#ffffff"
     bordercolor="#000000"
     borderopacity="0.25"
     inkscape:showpageshadow="2"
     inkscape:pageopacity="0.0"
     inkscape:pagecheckerboard="true"
     inkscape:deskcolor="#d1d1d1"
     inkscape:document-units="mm"
     showgrid="false"
     inkscape:zoom="4.0699993"
     inkscape:cx="60.687971"
     inkscape:cy="49.877159"
     inkscape:window-width="1920"
     inkscape:window-height="1017"
     inkscape:window-x="1352"
     inkscape:window-y="-8"
     inkscape:window-maximized="1"
     inkscape:current-layer="layer1" />
  <defs
     id="defs8102" />
  <g
     inkscape:label="Layer 1"
     inkscape:groupmode="layer"
     id="layer1"
     transform="translate(42.402706,-24.228394)">
    <g
       id="g2644">
      <path
         id="path190"
         style="fill:#2e2d40;fill-opacity:1;fill-rule:nonzero;stroke:none;stroke-width:0.0358178"
         d="m -17.408972,43.766345 -0.687344,0.61392 c -0.194851,0.149361 -0.39328,0.298362 -0.607113,0.435188 -0.251442,0.172283 -0.527598,0.33633 -0.805189,0.46993 -1.214227,0.633619 -2.59214,0.985351 -4.051005,0.981053 -1.476414,-0.0043 -2.850748,-0.374297 -4.057093,-1.019379 l -0.813068,-0.488197 c -0.19449,-0.129662 -0.401159,-0.275082 -0.58419,-0.431247 l -0.02686,-0.01147 -0.633618,-0.580968 -0.03045,-0.02973 c -1.599627,-1.595688 -2.603962,-3.802788 -2.591784,-6.241273 0.004,-0.503954 0.04942,-0.988931 0.140764,-1.473905 0.04621,-0.309467 0.111394,-0.610337 0.198789,-0.904402 0.06913,-0.232815 0.156526,-0.473154 0.233535,-0.698807 0.10996,-0.297647 0.232457,-0.577027 0.391846,-0.851034 1.252911,-2.492568 3.68065,-4.298148 6.543574,-4.710771 0.293707,-0.04513 0.606756,-0.07665 0.911565,-0.07665 0.126438,-0.01862 0.252517,-0.01539 0.3897,-0.01862 0.126078,0 0.241053,0.0032 0.367135,0.01862 0.304808,0.0082 0.614275,0.04227 0.919803,0.0806 2.858627,0.438411 5.267382,2.267988 6.519932,4.75984 0.133243,0.279022 0.262905,0.561626 0.367135,0.855332 0.09814,0.225296 0.162612,0.462051 0.224221,0.702033 0.09241,0.294423 0.167985,0.606753 0.205951,0.909058 0.08453,0.480318 0.122497,0.977469 0.126796,1.477129 -0.01147,2.446364 -1.031913,4.656687 -2.653033,6.233748 z m 6.32831,-7.203696 0.741071,-0.129303 -0.06555,-0.366059 -0.328447,-1.951001 -0.743581,0.125363 c -0.08883,-0.324153 -0.187329,-0.640784 -0.298364,-0.954189 -0.113543,-0.31269 -0.23604,-0.621442 -0.378237,-0.927685 l 0.65726,-0.369999 -0.695225,-1.221031 -0.47244,-0.824887 -0.654035,0.374296 c -0.384685,-0.553744 -0.812708,-1.068448 -1.274402,-1.546259 l 0.484976,-0.573086 -1.794476,-1.511158 -0.4882,0.568789 c -0.309108,-0.221355 -0.630037,-0.419787 -0.961351,-0.611412 -0.249293,-0.140764 -0.512197,-0.274365 -0.767938,-0.396505 l 0.263619,-0.701672 -2.202801,-0.820947 -0.25932,0.713135 c -0.645798,-0.171209 -1.301622,-0.301586 -1.974283,-0.361761 l 0.0047,-0.752176 -2.347864,-0.0154 v 0.752177 c -0.656899,0.06089 -1.324905,0.175507 -1.98073,0.343135 l -0.252515,-0.705612 -2.213907,0.793724 0.25574,0.702032 c -0.614636,0.286901 -1.195244,0.618933 -1.737168,0.992514 l -0.480318,-0.579535 -1.805939,1.499338 0.480675,0.580607 c -0.480675,0.473156 -0.907624,0.988934 -1.293742,1.534439 l -0.652959,-0.385759 -1.187364,2.031236 0.649377,0.377877 c -0.278304,0.598516 -0.51542,1.22927 -0.686985,1.874352 l -0.744298,-0.133602 -0.424084,2.313121 0.740355,0.129302 c -0.05695,0.664782 -0.06053,1.336007 -0.0036,2.007953 l -0.744654,0.126435 0.396862,2.316703 0.745015,-0.125721 c 0.08775,0.324153 0.186969,0.641141 0.297287,0.954189 0.111036,0.31305 0.237472,0.622517 0.374298,0.927685 l -0.652604,0.374297 1.065226,1.855008 0.102796,0.18697 0.649021,-0.373939 c 0.385401,0.553029 0.817365,1.072388 1.279059,1.545902 l -0.484977,0.572371 1.793763,1.515454 0.484616,-0.571654 c 0.546223,0.384328 1.130054,0.720298 1.733229,1.006485 l -0.258963,0.706685 2.198143,0.817008 0.260038,-0.71421 c 0.645082,0.176225 1.301264,0.301588 1.969627,0.362837 v 0.752176 l 2.347149,0.01505 v -0.751818 c 0.656542,-0.06089 1.320246,-0.171927 1.973565,-0.339554 l 0.255739,0.713493 2.210324,-0.793726 -0.251799,-0.710269 c 0.611054,-0.285827 1.198826,-0.622157 1.741107,-0.996454 l 0.479961,0.580251 1.806654,-1.499697 -0.481749,-0.57989 c 0.481749,-0.473871 0.905118,-0.98535 1.2941,-1.530859 l 0.653319,0.384684 1.179842,-2.030875 -0.650096,-0.377519 c 0.282964,-0.603176 0.5233,-1.233212 0.694869,-1.877934 l 0.739999,0.134317 0.421575,-2.310612 -0.732834,-0.133243 c 0.05695,-0.664064 0.06018,-1.336367 0.0028,-2.004369" />
      <path
         id="path192"
         style="fill:#ffffff;fill-opacity:1;fill-rule:nonzero;stroke:none;stroke-width:0.0358178"
         d="m -25.452598,36.421885 c -0.23246,0 -0.419069,0.186969 -0.419069,0.420502 0,0.2321 0.186609,0.419427 0.419069,0.419427 0.233174,0 0.420144,-0.187327 0.420144,-0.419427 0,-0.233533 -0.18697,-0.420502 -0.420144,-0.420502 z m 0.728894,2.271212 c -0.233174,0 -0.419788,0.186613 -0.419788,0.419426 0,0.233535 0.186614,0.419788 0.419788,0.419788 0.232817,0 0.419786,-0.186253 0.419786,-0.419788 0,-0.232813 -0.186969,-0.419426 -0.419786,-0.419426 z m 1.194528,-2.851462 c 0.233174,0 0.420501,-0.18697 0.420501,-0.420144 0,-0.23246 -0.187327,-0.420144 -0.420501,-0.420144 -0.228519,0 -0.419787,0.187684 -0.419787,0.420144 0,0.233174 0.191268,0.420144 0.419787,0.420144 z m 0,2.442781 c -0.438054,0 -0.785847,-0.358896 -0.785847,-0.797667 0,-0.439126 0.347793,-0.78262 0.794083,-0.78262 0.438412,0.004 0.785847,0.355671 0.785847,0.790859 -0.004,0.438411 -0.351016,0.794083 -0.794083,0.789428 z m 1.169096,-0.782264 c 0,-0.644722 -0.52366,-1.169096 -1.169096,-1.169096 -0.636843,0 -1.159786,0.524374 -1.159786,1.169096 0,0.641499 0.522943,1.164439 1.159786,1.164439 0.645436,0 1.169096,-0.52294 1.169096,-1.164439 z m 0.03725,1.190945 c -0.232814,0 -0.419784,0.186613 -0.419784,0.419426 0,0.233535 0.18697,0.419788 0.419784,0.419788 0.233534,0 0.420504,-0.186253 0.420504,-0.419788 0,-0.232813 -0.18697,-0.419426 -0.420504,-0.419426 z m 0.733552,-2.271212 c -0.233532,0 -0.419427,0.186969 -0.419427,0.420502 0,0.2321 0.185895,0.419427 0.419427,0.419427 0.233175,0 0.419787,-0.187327 0.419787,-0.419427 0,-0.233533 -0.186612,-0.420502 -0.419787,-0.420502" />
      <path
         id="path194"
         style="fill:#ffffff;fill-opacity:1;fill-rule:nonzero;stroke:#000000;stroke-width:0.0358178;stroke-opacity:1"
         d="m -16.613815,37.562327 c -0.005,0.798738 -0.152223,1.582432 -0.424082,2.311687 l -0.01469,0.04907 c -0.03439,0.08918 -0.06913,0.177656 -0.113184,0.266485 -0.123573,0.295498 -0.265771,0.581324 -0.428383,0.862136 -0.133601,0.217414 -0.271141,0.429458 -0.428741,0.626812 -0.06984,0.09814 -0.138615,0.18697 -0.212041,0.275442 l -0.0351,0.03904 c -0.05409,0.06447 -0.107454,0.128587 -0.166911,0.187687 l -2.331746,-3.829293 4.110105,-1.646549 c 0.03008,0.270783 0.04477,0.542641 0.04477,0.808052 z m -4.583258,6.441491 c -0.375013,0.138974 -0.759341,0.237114 -1.139009,0.311257 h -0.04871 c -0.596728,0.108172 -1.197752,0.128228 -1.779433,0.06913 -0.192703,-0.02042 -0.380029,-0.03976 -0.571655,-0.07378 l -0.05444,-0.0104 c -0.09849,-0.02471 -0.20273,-0.0394 -0.310898,-0.07378 -0.255382,-0.05444 -0.502526,-0.123212 -0.749313,-0.216697 -0.202013,-0.06913 -0.394355,-0.147571 -0.581681,-0.241771 l 2.863641,-3.381569 2.883701,3.415594 c -0.162255,0.07415 -0.335616,0.143274 -0.512197,0.202014 z M -28.66475,42.1266 c -0.04907,-0.06447 -0.103155,-0.123571 -0.157596,-0.187325 l -0.03941,-0.03976 c -0.487839,-0.58598 -0.891865,-1.276193 -1.163723,-2.040546 l -0.01934,-0.05444 c -0.09384,-0.265768 -0.172283,-0.536551 -0.231743,-0.803037 -0.07378,-0.310541 -0.117839,-0.625738 -0.142553,-0.941295 -0.02006,-0.191985 -0.02006,-0.384326 -0.02437,-0.571653 l 0.0043,-0.04907 v -0.0057 c 0,-0.04405 0,-0.09814 0.0104,-0.147569 0,-0.211683 0.01469,-0.423725 0.03868,-0.625738 l 4.101509,1.680574 z m -0.157596,-9.079122 0.03976,-0.04441 c 0.482468,-0.560908 1.049823,-1.049105 1.714962,-1.438806 0.02507,-0.01969 0.05873,-0.03439 0.09384,-0.05444 l 0.03367,-0.03008 c 0.2321,-0.127871 0.47387,-0.241411 0.72961,-0.339554 0.113902,-0.05373 0.227087,-0.103513 0.355315,-0.153299 0.1182,-0.0437 0.246426,-0.08381 0.375013,-0.112826 0.201296,-0.06412 0.40367,-0.113544 0.605682,-0.157957 l -0.319854,4.426018 v 0.0057 h -0.0054 l -4.31749,-1.099252 c 0.196998,-0.350656 0.433756,-0.690927 0.694869,-1.001112 z m 3.37118,4.214336 c -0.236398,0 -0.41907,-0.187327 -0.41907,-0.41907 0,-0.23174 0.182672,-0.418352 0.41907,-0.418352 0.231742,0 0.419787,0.186612 0.419787,0.418352 0,0.231743 -0.188045,0.41907 -0.419787,0.41907 z m 0.729254,1.429134 c 0.231739,0 0.419427,0.187327 0.419427,0.424085 0,0.2321 -0.187688,0.41907 -0.419427,0.41907 -0.236042,0 -0.423369,-0.18697 -0.423369,-0.41907 0,-0.236758 0.187327,-0.424085 0.423369,-0.424085 z m 1.192736,-2.355743 c 0.646512,0 1.169096,0.522225 1.169096,1.168022 0,0.641139 -0.522584,1.163364 -1.169096,1.163364 -0.635051,0 -1.157637,-0.522225 -1.157637,-1.163364 0,-0.645797 0.522586,-1.168022 1.157637,-1.168022 z m 0,-1.336007 c 0.232458,0 0.419427,0.187327 0.419427,0.423725 0,0.2321 -0.186969,0.419069 -0.419427,0.419069 -0.22637,0 -0.418712,-0.186969 -0.418712,-0.419069 0,-0.236398 0.192342,-0.423725 0.418712,-0.423725 z m 1.627206,4.115835 c 0,0.2321 -0.187327,0.41907 -0.418712,0.41907 -0.236398,0 -0.419069,-0.18697 -0.419069,-0.41907 0,-0.236758 0.182671,-0.424085 0.419069,-0.424085 0.231385,0 0.418712,0.187327 0.418712,0.424085 z m 0.734267,-2.272289 c 0,0.231743 -0.187684,0.41907 -0.424082,0.41907 -0.231386,0 -0.419788,-0.187327 -0.419788,-0.41907 0,-0.23174 0.188402,-0.418352 0.419788,-0.418352 0.236398,0 0.424082,0.186612 0.424082,0.418352 z m 1.098894,-5.328271 0.04943,0.02471 c 0.359612,0.212041 0.700241,0.448797 1.015437,0.729611 0.241414,0.212041 0.472797,0.443066 0.679825,0.689493 0.0351,0.0351 0.06949,0.06483 0.09385,0.09957 l 0.03439,0.03904 c 0.123214,0.147211 0.241771,0.295858 0.349581,0.45847 0.118559,0.171926 0.2321,0.34421 0.335616,0.532253 l -4.322506,1.069525 -0.300871,-4.43605 c 0.729254,0.158317 1.429492,0.423728 2.065261,0.793368 z m 5.18536,4.53992 c -0.03976,-0.301229 -0.112826,-0.611054 -0.206672,-0.906552 -0.06018,-0.242128 -0.123212,-0.478886 -0.222786,-0.705613 -0.103156,-0.290483 -0.236041,-0.57631 -0.369284,-0.852465 -1.251836,-2.494002 -3.657724,-4.322506 -6.515276,-4.761275 -0.306243,-0.0394 -0.61571,-0.07378 -0.92231,-0.07844 -0.128587,-0.01539 -0.242131,-0.02006 -0.365343,-0.02006 -0.137183,0.0047 -0.265053,0 -0.393281,0.02006 -0.30087,0 -0.616069,0.02937 -0.911925,0.07378 -2.858626,0.414054 -5.288514,2.217845 -6.541425,4.711845 -0.162612,0.275796 -0.280812,0.551952 -0.393281,0.852465 -0.07414,0.222072 -0.162612,0.463483 -0.2321,0.699881 -0.08775,0.290125 -0.152941,0.591356 -0.196997,0.901897 -0.09385,0.483182 -0.138258,0.971739 -0.142556,1.474262 -0.01005,2.43956 0.990366,4.647374 2.591784,6.239839 l 0.02973,0.02937 0.635768,0.581681 0.02544,0.01469 c 0.181957,0.152585 0.388626,0.300511 0.585984,0.429098 l 0.813781,0.487483 c 1.20169,0.645436 2.577098,1.015077 4.055661,1.020093 1.459221,0.005 2.834629,-0.349582 4.051723,-0.980696 0.275799,-0.132882 0.551954,-0.295855 0.803396,-0.468138 0.212759,-0.137541 0.414411,-0.285827 0.60568,-0.438771 l 0.69057,-0.611052 c 1.622193,-1.57742 2.637271,-3.790252 2.651958,-6.234825 -0.005,-0.502881 -0.04477,-0.995736 -0.128228,-1.478561" />
      <path
         id="path196"
         style="fill:#5f4d67;fill-opacity:1;fill-rule:nonzero;stroke:none;stroke-width:0.0358178"
         d="m -23.108675,35.421491 c 0,0.233174 -0.187327,0.420144 -0.420501,0.420144 -0.228519,0 -0.419787,-0.18697 -0.419787,-0.420144 0,-0.23246 0.191268,-0.420144 0.419787,-0.420144 0.233174,0 0.420501,0.187684 0.420501,0.420144" />
      <path
         id="path198"
         style="fill:#5f4d67;fill-opacity:1;fill-rule:nonzero;stroke:none;stroke-width:0.0358178"
         d="m -25.032454,36.842387 c 0,0.2321 -0.18697,0.419427 -0.420144,0.419427 -0.23246,0 -0.419069,-0.187327 -0.419069,-0.419427 0,-0.233533 0.186609,-0.420502 0.419069,-0.420502 0.233174,0 0.420144,0.186969 0.420144,0.420502" />
      <path
         id="path200"
         style="fill:#5f4d67;fill-opacity:1;fill-rule:nonzero;stroke:none;stroke-width:0.0358178"
         d="m -24.303918,39.112523 c 0,0.233535 -0.186969,0.419788 -0.419786,0.419788 -0.233174,0 -0.419788,-0.186253 -0.419788,-0.419788 0,-0.232813 0.186614,-0.419426 0.419788,-0.419426 0.232817,0 0.419786,0.186613 0.419786,0.419426" />
      <path
         id="path202"
         style="fill:#5f4d67;fill-opacity:1;fill-rule:nonzero;stroke:none;stroke-width:0.0358178"
         d="m -21.902327,39.112523 c 0,0.233535 -0.18697,0.419788 -0.420504,0.419788 -0.232814,0 -0.419784,-0.186253 -0.419784,-0.419788 0,-0.232813 0.18697,-0.419426 0.419784,-0.419426 0.233534,0 0.420504,0.186613 0.420504,0.419426" />
      <path
         id="path204"
         style="fill:#5f4d67;fill-opacity:1;fill-rule:nonzero;stroke:none;stroke-width:0.0358178"
         d="m -21.169492,36.842387 c 0,0.2321 -0.186612,0.419427 -0.419787,0.419427 -0.233532,0 -0.419427,-0.187327 -0.419427,-0.419427 0,-0.233533 0.185895,-0.420502 0.419427,-0.420502 0.233175,0 0.419787,0.186969 0.419787,0.420502" />
      <path
         id="path206"
         style="fill:#5f4d67;fill-opacity:1;fill-rule:nonzero;stroke:none;stroke-width:0.0358178"
         d="m -23.529176,38.284416 c -0.438054,0 -0.785847,-0.358896 -0.785847,-0.797667 0,-0.439126 0.347793,-0.78262 0.794083,-0.78262 0.438412,0.004 0.785847,0.355671 0.785847,0.790859 -0.004,0.438411 -0.351016,0.794083 -0.794083,0.789428 z m 0,-1.95136 c -0.636843,0 -1.159786,0.524374 -1.159786,1.169096 0,0.641499 0.522943,1.164439 1.159786,1.164439 0.645436,0 1.169096,-0.52294 1.169096,-1.164439 0,-0.644722 -0.52366,-1.169096 -1.169096,-1.169096" />
      <path
         id="path208"
         style="fill:#5db2c3;fill-opacity:1;fill-rule:nonzero;stroke:none;stroke-width:0.0358178"
         d="m -40.13615,33.359811 h 3.101889 v -2.421628 h -3.101889 z" />
      <path
         id="path210"
         style="fill:#ffffff;fill-opacity:1;fill-rule:nonzero;stroke:none;stroke-width:0.0358178"
         d="m -34.767762,28.04515 c 0,2.108242 -1.709588,3.817474 -3.817115,3.817474 -2.107882,0 -3.817829,-1.709232 -3.817829,-3.817474 0,-2.1086 1.709947,-3.816756 3.817829,-3.816756 2.107527,0 3.817115,1.708156 3.817115,3.816756" />
      <path
         id="path212"
         style="fill:#aacac0;fill-opacity:1;fill-rule:nonzero;stroke:none;stroke-width:0.0358178"
         d="m -35.435409,28.04515 c 0,1.739319 -1.410868,3.149112 -3.149468,3.149112 -1.739316,0 -3.149469,-1.409793 -3.149469,-3.149112 0,-1.739317 1.410153,-3.14911 3.149469,-3.14911 1.7386,0 3.149468,1.409793 3.149468,3.14911" />
      <path
         id="path214"
         style="fill:#3b9878;fill-opacity:1;fill-rule:nonzero;stroke:none;stroke-width:0.0358178"
         d="m -35.726965,27.179073 -0.695584,0.694868 c -0.553387,-0.553388 -1.317025,-0.894015 -2.160179,-0.894015 -0.844227,0 -1.607508,0.340627 -2.161609,0.894015 l -0.698092,-0.698092 c 0.733191,-0.733551 1.741108,-1.184139 2.859701,-1.184139 1.113581,0 2.125434,0.454529 2.855763,1.187363" />
      <path
         id="path216"
         style="fill:#ef3320;fill-opacity:1;fill-rule:nonzero;stroke:none;stroke-width:0.0358178"
         d="m -35.726965,27.180506 -0.695584,0.695226 c -0.297646,-0.298364 -0.656185,-0.530822 -1.053763,-0.683765 l 0.343134,-0.924102 c 0.534762,0.20273 1.011857,0.515778 1.406213,0.912641" />
      <path
         id="path218"
         style="fill:#581e19;fill-opacity:1;fill-rule:nonzero;stroke:none;stroke-width:0.0358178"
         d="m -38.185507,29.619347 c -0.09312,0.25001 -0.369641,0.376088 -0.619291,0.283678 -0.248218,-0.09205 -0.374298,-0.369641 -0.281528,-0.619291 l 0.04441,-0.08847 1.486443,-2.644077 -0.605321,2.973246 c -0.004,0.03187 -0.01255,0.06268 -0.02471,0.09492" />
      <path
         id="path220"
         style="fill:#d3d8d7;fill-opacity:1;fill-rule:nonzero;stroke:none;stroke-width:0.0358178"
         d="m -36.696556,30.565297 c 0.620008,-0.465274 1.063075,-1.153693 1.208855,-1.946344 l 8.06e-4,8.06e-4 c -0.144703,0.792291 -0.587772,1.480712 -1.209569,1.945627" />
      <path
         id="path222"
         style="fill:#87a7a1;fill-opacity:1;fill-rule:nonzero;stroke:none;stroke-width:0.0358178"
         d="m -37.689788,31.063168 -1.203122,-1.203482 c 0.0075,0.0047 0.01469,0.0089 0.02222,0.01324 0.01792,0.01005 0.0369,0.01934 0.05731,0.02687 0.0028,0.0011 0.0057,0.0021 0.0086,0.0032 0.05552,0.02076 0.112108,0.03045 0.167985,0.03045 0.04084,0 0.08095,-0.0054 0.119991,-0.01539 0.148286,-0.03761 0.275081,-0.144345 0.331315,-0.297647 l 0.0011,-0.0036 c 0.0096,-0.02651 0.01719,-0.05193 0.02149,-0.07772 l 0.004,-0.01469 0.488555,-2.406248 c 0.06627,0.02077 0.13181,0.0437 0.196283,0.06877 l -0.0021,0.005 c 0.397578,0.152943 0.756116,0.3854 1.053763,0.683764 l 0.09599,-0.09599 0.838857,0.839212 c -0.145781,0.792652 -0.588847,1.48107 -1.208855,1.946345 -0.295141,0.22064 -0.630396,0.390774 -0.993233,0.497871" />
      <path
         id="path224"
         style="fill:#307d65;fill-opacity:1;fill-rule:nonzero;stroke:none;stroke-width:0.0358178"
         d="m -37.474163,27.186953 c -0.06447,-0.02507 -0.13002,-0.04799 -0.196283,-0.06877 l 0.114975,-0.566997 0.231386,0.231383 -0.150078,0.404384" />
      <path
         id="path226"
         style="fill:#c92e23;fill-opacity:1;fill-rule:nonzero;stroke:none;stroke-width:0.0358178"
         d="m -36.422549,27.875732 c -0.297646,-0.298364 -0.656185,-0.530822 -1.053763,-0.683765 l 0.0021,-0.005 0.150078,-0.404384 0.997528,0.997171 -0.09599,0.096" />
      <path
         id="path228"
         style="fill:#461b17;fill-opacity:1;fill-rule:nonzero;stroke:none;stroke-width:0.0358178"
         d="m -38.636813,29.933469 c -0.05587,0 -0.112469,-0.0096 -0.167985,-0.03044 -0.0028,-0.0011 -0.0057,-0.0021 -0.0086,-0.0032 0.0028,0.0011 0.0061,0.0021 0.0093,0.0032 0.05552,0.02042 0.112469,0.03008 0.168344,0.03008 0.04047,0 0.08023,-0.005 0.118917,-0.01505 -0.03904,0.01005 -0.07915,0.01539 -0.119991,0.01539 m -0.233892,-0.06053 c -0.0075,-0.0043 -0.01469,-0.0086 -0.02222,-0.01324 l -0.0028,-0.0028 c 0.0082,0.0057 0.01647,0.0111 0.02506,0.01612 m 0.686273,-0.256097 0.02149,-0.07772 c -0.0043,0.02579 -0.01182,0.05122 -0.02149,0.07772" />
      <path
         id="path230"
         style="fill:#ffffff;fill-opacity:1;fill-rule:nonzero;stroke:none;stroke-width:0.0358178"
         d="m -37.327308,33.359811 v 0.317347 h -2.515135 v -0.317347 h 2.515135" />
      <path
         id="path232"
         style="fill:#d3d8d7;fill-opacity:1;fill-rule:nonzero;stroke:none;stroke-width:0.0358178"
         d="m -38.584877,31.194262 c -1.74039,0 -3.149469,-1.408719 -3.149469,-3.145888 0,-3.49e-4 0,-0.0011 0,-0.0014 8.06e-4,1.738241 1.410868,3.14732 3.149469,3.14732 0.0024,0 0.0054,0 0.0079,0 -0.0024,0 -0.0054,0 -0.0079,0 m 0.275799,-0.01182 c 0.04835,-0.0043 0.09671,-0.0096 0.144344,-0.01612 0.0028,2.7e-4 0.005,8.07e-4 0.0075,0.0011 -0.04943,0.0057 -0.100293,0.01074 -0.151868,0.01505 m 0.142914,-6.258821 c -0.04978,-0.0068 -0.09993,-0.01217 -0.150436,-0.01648 0.05409,0.0043 0.107454,0.0096 0.15939,0.0154 -0.0028,3.49e-4 -0.0057,7.24e-4 -0.0089,0.0011 m -0.452737,-0.02757 c 0.0019,0 0.0032,0 0.0047,0 -0.0013,0 -0.0028,0 -0.0047,0 m 0.02076,0 c 0.0047,0 0.0086,0 0.01324,0 -0.0047,0 -0.0086,0 -0.01324,0 m 0.02114,0 c -0.0028,0 -0.0054,0 -0.0079,0 0.0024,0 0.005,0 0.0079,0" />
      <path
         id="path234"
         style="fill:#87a7a1;fill-opacity:1;fill-rule:nonzero;stroke:none;stroke-width:0.0358178"
         d="m -38.584877,31.194262 c -1.738601,0 -3.148752,-1.409079 -3.149469,-3.147321 8.06e-4,-1.728214 1.391169,-3.132634 3.115443,-3.150901 0.0019,0 0.0032,0 0.0047,0 0.0054,0 0.0111,0 0.01612,0 0.0047,0 0.0086,0 0.01324,0 v 0 0 c 0.0024,0 0.005,0 0.0079,0 0.08704,3.48e-4 0.174432,0.0047 0.260396,0.0111 0.0505,0.0043 0.100648,0.0096 0.150435,0.01648 -0.964935,0.13754 -1.790179,0.710985 -2.268348,1.515097 -0.373222,0.1927 -0.712776,0.441994 -1.007916,0.737132 l 0.579892,0.579893 c -0.0086,0.09635 -0.01324,0.194133 -0.01324,0.292632 0,1.589597 1.179842,2.901967 2.711057,3.117949 -0.04764,0.0065 -0.09599,0.01182 -0.144345,0.01612 -0.08811,0.0072 -0.178016,0.01147 -0.267917,0.01182 -0.0024,0 -0.0054,0 -0.0079,0" />
      <path
         id="path236"
         style="fill:#307d65;fill-opacity:1;fill-rule:nonzero;stroke:none;stroke-width:0.0358178"
         d="m -40.862536,27.755741 -0.579893,-0.579892 c 0.295141,-0.295139 0.634694,-0.544432 1.007915,-0.737133 -0.233174,0.392207 -0.383966,0.838856 -0.428022,1.317025" />
      <path
         id="path238"
         style="fill:#f49e11;fill-opacity:1;fill-rule:nonzero;stroke:none;stroke-width:0.0358178"
         d="m -39.57775,47.006791 c 3.637669,1.019379 8.989222,-6.794656 11.890115,-3.419894 l 0.03833,0.04155 c 0.05301,0.05338 0.125721,0.08811 0.209535,0.08811 0.168703,0 0.298364,-0.13396 0.298364,-0.298004 0,-0.04155 -0.0082,-0.07952 -0.02399,-0.1182 v -0.0036 c -0.0455,-0.05373 -0.09492,-0.103513 -0.14005,-0.149001 -2.736846,-2.737563 -6.944017,1.431641 -9.470971,2.672015 -1.137218,0.55697 -2.70676,1.161217 -3.660949,-0.06089 -1.450625,-1.851787 -0.04191,-3.48186 1.202768,-4.794945 2.038037,-2.148357 1.187363,-4.591494 1.034779,-7.286794 h -0.728897 c 0.147929,1.587809 0.732121,3.435296 0.311976,4.924604 -0.492137,1.748272 -1.965688,2.595008 -2.751889,4.137326 -0.892941,1.748272 -0.09528,3.73724 1.790893,4.267705" />
    </g>
  </g>
</svg>
