<?xml version="1.0" encoding="UTF-8" standalone="no"?>
<svg
   viewBox="0 0 810.01355 430.70724"
   height="430.70724"
   width="810.01355"
   xml:space="preserve"
   id="svg2"
   version="1.1"
   sodipodi:docname="logo-image.svg"
   inkscape:version="1.2.1 (9c6d41e410, 2022-07-14)"
   xmlns:inkscape="http://www.inkscape.org/namespaces/inkscape"
   xmlns:sodipodi="http://sodipodi.sourceforge.net/DTD/sodipodi-0.dtd"
   xmlns="http://www.w3.org/2000/svg"
   xmlns:svg="http://www.w3.org/2000/svg"
   xmlns:rdf="http://www.w3.org/1999/02/22-rdf-syntax-ns#"
   xmlns:cc="http://creativecommons.org/ns#"
   xmlns:dc="http://purl.org/dc/elements/1.1/"><sodipodi:namedview
     id="namedview93"
     pagecolor="#ffffff"
     bordercolor="#000000"
     borderopacity="0.25"
     inkscape:showpageshadow="2"
     inkscape:pageopacity="0.0"
     inkscape:pagecheckerboard="0"
     inkscape:deskcolor="#d1d1d1"
     showgrid="false"
     inkscape:zoom="0.8933527"
     inkscape:cx="534.50334"
     inkscape:cy="226.1145"
     inkscape:window-width="1920"
     inkscape:window-height="1017"
     inkscape:window-x="-8"
     inkscape:window-y="-8"
     inkscape:window-maximized="1"
     inkscape:current-layer="svg2" /><metadata
     id="metadata8"><rdf:RDF><cc:Work
         rdf:about=""><dc:format>image/svg+xml</dc:format><dc:type
           rdf:resource="http://purl.org/dc/dcmitype/StillImage" /></cc:Work></rdf:RDF></metadata><defs
     id="defs6" /><g
     id="g616"
     transform="rotate(180,405.00679,215.35363)"><path
       id="path170"
       style="fill:#cdcccb;fill-opacity:1;fill-rule:evenodd;stroke:none;stroke-width:0.133333"
       d="m 180.39626,259.8566 -16.42,-50.532 42.984,-31.22933 42.984,31.22933 -16.41867,50.532 z m -51.6,20.28533 48.252,-15.67866 v 50.73599 c 0,9.74667 -4.252,18.53467 -10.992,24.60534 12.79866,4.51066 26.56266,6.972 40.904,6.97066 14.34266,0 28.10533,-2.46 40.904,-6.97066 -6.73867,-6.07067 -10.992,-14.85867 -10.992,-24.60534 v -50.73599 l 48.25466,15.67866 c 9.20133,2.98934 16.208,9.66934 19.91867,17.87333 15.652,-20.63866 24.94533,-46.36799 24.94533,-74.27066 0,-1.03467 -0.0147,-2.06667 -0.04,-3.09467 -7.76933,4.328 -17.24667,5.54934 -26.33867,2.59467 l -48.25199,-15.67867 29.82,-41.04666 c 5.56266,-7.65467 13.82933,-12.22133 22.55999,-13.35067 -15.64799,-22.304 -38.51066,-39.17066 -65.19999,-47.224 1.568,8.60267 -0.23467,17.80667 -5.75867,25.408 l -29.82133,41.048 -29.82,-41.048 c -5.52534,-7.60133 -7.33067,-16.804 -5.76134,-25.40666 -26.68799,8.05066 -49.54799,24.92133 -65.19733,47.22266 8.72934,1.12934 16.996,5.696 22.55734,13.35067 l 29.82133,41.04666 -48.252,15.67867 c -9.092,2.95467 -18.56707,1.73467 -26.34053,-2.592 -0.0244,1.02667 -0.038,2.05867 -0.038,3.092 0,27.90267 9.29186,53.632 24.9452,74.27066 3.71066,-8.20399 10.71866,-14.88399 19.92133,-17.87333 v 0" /><path
       id="path172"
       style="fill:#2f2d2d;fill-opacity:1;fill-rule:evenodd;stroke:none;stroke-width:0.133333"
       d="m 206.96026,364.52193 c -77.74933,0 -140.7764,-63.03067 -140.7764,-140.77733 0,-77.748 63.02707,-140.77733 140.7764,-140.77733 77.74933,0 140.77599,63.02933 140.77599,140.77733 0,77.74666 -63.02666,140.77733 -140.77599,140.77733 z m 10.33733,58.776 c 4.76,-0.24533 9.47067,-0.66133 14.13733,-1.232 l 1.24267,7.052 c 6.89867,-0.856 13.692,-2.05067 20.364,-3.56934 l -1.24267,-7.04266 c 4.63467,-1.064 9.20534,-2.29467 13.712,-3.67067 l 2.448,6.72534 c 6.624,-2.036 13.10934,-4.396 19.428,-7.06534 l -2.448,-6.72666 c 4.37067,-1.85467 8.66,-3.85734 12.86533,-6.00667 l 3.576,6.19733 c 6.15067,-3.16266 12.11867,-6.624 17.89067,-10.35866 l -3.57867,-6.20134 c 3.97334,-2.58133 7.848,-5.296 11.61734,-8.14666 l 4.59866,5.47733 c 5.49467,-4.17067 10.78,-8.60933 15.828,-13.29733 l -4.59733,-5.48134 c 3.46,-3.22533 6.804,-6.56933 10.02933,-10.02933 l 5.48,4.6 c 4.68667,-5.048 9.12934,-10.33067 13.29867,-15.83067 l -5.47733,-4.59733 c 2.848,-3.768 5.56266,-7.64933 8.14666,-11.616 l 6.19734,3.57867 c 3.74266,-5.772 7.2,-11.74 10.36,-17.89067 l -6.19867,-3.57867 c 2.15067,-4.20533 4.16,-8.49333 6.008,-12.86266 l 6.72933,2.448 c 2.66667,-6.32267 5.02667,-12.80667 7.06667,-19.428 l -6.72933,-2.45067 c 1.38133,-4.504 2.60933,-9.07733 3.67066,-13.712 l 7.04534,1.24134 c 1.516,-6.66934 2.70933,-13.464 3.56666,-20.36267 l -7.052,-1.24267 c 0.57334,-4.66666 0.98667,-9.37866 1.232,-14.13466 h 7.15067 c 0.17333,-3.42667 0.25733,-6.872 0.25733,-10.33867 0,-3.46667 -0.084,-6.91333 -0.25733,-10.336 h -7.15067 c -0.24266,-4.76133 -0.66133,-9.472 -1.232,-14.13733 l 7.052,-1.24267 c -0.85733,-6.89867 -2.048,-13.69333 -3.56666,-20.36533 l -7.04534,1.24266 c -1.06133,-4.63333 -2.292,-9.20666 -3.67066,-13.712 l 6.72933,-2.44933 c -2.04,-6.62266 -4.4,-13.10666 -7.06667,-19.42933 l -6.72933,2.44933 c -1.85067,-4.36933 -3.85333,-8.66 -6.008,-12.86133 l 6.19867,-3.57867 c -3.16,-6.148 -6.62,-12.11733 -10.36,-17.892 l -6.19734,3.58 c -2.58133,-3.972 -5.29866,-7.848 -8.14666,-11.616 l 5.47733,-4.59866 c -4.172,-5.49734 -8.612,-10.78 -13.29867,-15.83067 l -5.48,4.6 c -3.22533,-3.46 -6.572,-6.804 -10.02933,-10.02933 l 4.59733,-5.48134 c -5.048,-4.688 -10.33066,-9.12933 -15.828,-13.3 l -4.59866,5.48 c -3.76934,-2.84933 -7.64667,-5.56533 -11.61734,-8.14666 l 3.57867,-6.2 c -5.76933,-3.74 -11.74,-7.20134 -17.89067,-10.35867 l -3.576,6.196 c -4.20533,-2.15067 -8.49466,-4.15467 -12.86533,-6.008 l 2.448,-6.72533 c -6.31866,-2.66667 -12.804,-5.028 -19.428,-7.068 l -2.448,6.728 c -4.50666,-1.37867 -9.07733,-2.60934 -13.712,-3.67067 l 1.24267,-7.044 c -6.672,-1.516 -13.46533,-2.71066 -20.364,-3.56533 l -1.24267,7.04933 c -4.66666,-0.57067 -9.37733,-0.98533 -14.13733,-1.23067 v -7.15199 c -3.42533,-0.168 -6.87067,-0.25867 -10.33733,-0.25867 -3.46667,0 -6.91334,0.0907 -10.336,0.25867 v 7.15199 c -4.76,0.24134 -9.472,0.66 -14.13734,1.23067 l -1.24133,-7.04933 c -6.89867,0.85467 -13.69467,2.048 -20.36667,3.56533 l 1.24267,7.044 c -4.63466,1.06267 -9.20533,2.292 -13.712,3.67067 l -2.448,-6.728 c -6.62533,2.04 -13.108,4.4 -19.43066,7.068 l 2.44933,6.72533 c -4.368,1.85333 -8.65867,3.85733 -12.86133,6.008 l -3.57867,-6.196 c -6.148,3.15733 -12.11867,6.62 -17.892,10.35867 l 3.58,6.2 c -3.972,2.58 -7.84747,5.29733 -11.61627,8.14666 l -4.59893,-5.48 c -5.4968,4.172 -10.77973,8.612 -15.8292,13.3 l 4.6,5.48134 c -3.46093,3.224 -6.80667,6.56933 -10.03067,10.02933 l -5.48173,-4.6 C 50.58333,88.0166 46.14479,93.3006 41.97199,98.79794 l 5.48014,4.59866 c -2.84894,3.768 -5.56507,7.644 -8.14587,11.616 l -6.20147,-3.58 c -3.73853,5.772 -7.19853,11.74267 -10.35839,17.892 l 6.19693,3.57867 c -2.15,4.20133 -4.1552,8.492 -6.0084,12.86267 L 16.21,143.31527 c -2.66774,6.32267 -5.02707,12.80667 -7.06774,19.42933 l 6.72814,2.44933 c -1.3792,4.50534 -2.60947,9.07734 -3.6708,13.712 l -7.04427,-1.24266 c -1.51573,6.672 -2.71,13.46666 -3.56667,20.36533 l 7.05,1.24267 c -0.56933,4.66533 -0.986,9.37733 -1.2292,14.13733 H 0.2568 C 0.08706,216.83127 0,220.27793 0,223.7446 c 0,3.46667 0.0871,6.912 0.2568,10.33867 H 7.41 c 0.24053,4.756 0.65933,9.468 1.22906,14.13466 l -7.0504,1.24267 c 0.85667,6.89867 2.05,13.69333 3.56707,20.36267 l 7.04387,-1.24134 c 1.06293,4.63467 2.2932,9.208 3.6708,13.712 l -6.7276,2.45067 c 2.038,6.624 4.4,13.10533 7.0672,19.428 l 6.726,-2.448 c 1.85306,4.36933 3.85626,8.65733 6.00786,12.86266 l -6.19693,3.57867 c 3.1604,6.148 6.62133,12.11867 10.3584,17.89067 l 6.20093,-3.57867 c 2.57973,3.96933 5.29693,7.848 8.14587,11.616 l -5.47974,4.59733 c 4.1724,5.49734 8.61094,10.78267 13.29907,15.83067 l 5.48173,-4.6 c 3.224,3.46 6.57134,6.804 10.03067,10.02933 l -4.6,5.48134 c 5.04947,4.688 10.3308,9.128 15.8292,13.29733 l 4.59893,-5.47733 c 3.7688,2.85066 7.64427,5.56533 11.61627,8.14666 l -3.58,6.20134 c 5.772,3.73866 11.74267,7.19866 17.892,10.35866 l 3.57867,-6.19733 c 4.20266,2.14933 8.492,4.156 12.86133,6.00667 l -2.448,6.72666 c 6.32267,2.66934 12.80667,5.02934 19.42933,7.06534 l 2.448,-6.72534 c 4.50667,1.376 9.07734,2.60667 13.712,3.67067 l -1.24267,7.04266 c 6.672,1.51867 13.46667,2.71334 20.36667,3.56934 l 1.24133,-7.052 c 4.66534,0.57067 9.37734,0.98667 14.13734,1.232 v 7.15066 c 3.42266,0.16667 6.86933,0.25867 10.336,0.25867 3.46666,0 6.91333,-0.092 10.33733,-0.25867 v -7.15066 0" /><path
       id="path174"
       style="fill:#b2b1b0;fill-opacity:1;fill-rule:evenodd;stroke:none;stroke-width:0.133333"
       d="m 206.96026,360.80726 c -75.69733,0 -137.0592,-61.36666 -137.0592,-137.06266 0,-75.69733 61.36187,-137.06 137.0592,-137.06 75.696,0 137.06133,61.36267 137.06133,137.06 0,75.696 -61.36533,137.06266 -137.06133,137.06266 z m 0,-9.548 c 70.42533,0 127.51466,-57.09066 127.51466,-127.51466 0,-70.42533 -57.08933,-127.51466 -127.51466,-127.51466 -70.42533,0 -127.51493,57.08933 -127.51493,127.51466 0,70.424 57.0896,127.51466 127.51493,127.51466 v 0" /><path
       id="path176"
       style="fill:#e8e8e7;fill-opacity:1;fill-rule:evenodd;stroke:none;stroke-width:0.133333"
       d="m 206.96026,288.25127 c 35.532,0 64.508,-28.98 64.508,-64.50667 0,-35.52933 -28.976,-64.508 -64.508,-64.508 -35.528,0 -64.50533,28.97867 -64.50533,64.508 0,35.52667 28.97733,64.50667 64.50533,64.50667" /><path
       id="path178"
       style="fill:#ffffff;fill-opacity:1;fill-rule:evenodd;stroke:none;stroke-width:0.133333"
       d="m 206.96026,270.7766 c 25.904,0 47.03466,-21.12533 47.03466,-47.032 0,-25.904 -21.13066,-47.03333 -47.03466,-47.03333 -25.904,0 -47.032,21.12933 -47.032,47.03333 0,25.90667 21.128,47.032 47.032,47.032" /><path
       id="path180"
       style="fill:#2f2d2d;fill-opacity:1;fill-rule:evenodd;stroke:none;stroke-width:0.133333"
       d="m 206.96026,264.37793 c 22.38133,0 40.63466,-18.25066 40.63466,-40.632 0,-22.38133 -18.25333,-40.63466 -40.63466,-40.63466 -22.37867,0 -40.63334,18.25333 -40.63334,40.63466 0,22.38134 18.25467,40.632 40.63334,40.632" /><path
       id="path182"
       style="fill:#cc2d23;fill-opacity:1;fill-rule:evenodd;stroke:none;stroke-width:0.133333"
       d="m 305.76825,419.3366 c 68.64134,32.17333 115.41734,-16.79734 164.01467,-7.43467 -22.30534,-34.58933 -55.84533,-14.70667 -55.09333,-47.64533 0.54133,-23.77734 40.02399,-3.428 93.08933,0.20933 37.588,2.576 76.07066,-15.99867 114.62266,-15.10267 -40.81467,-45.33466 -84.93066,-17.044 -113.04533,-23.148 -29.45867,-6.392 -25.96933,-47.32266 23.532,-38.34399 21.55867,3.90533 51.53333,11.37733 82.85866,10.01199 47.488,-2.064 97.044,-42.84266 131.72933,-30.41333 -23.45466,-53.504 -91.57066,-39.644 -132.67066,-40.66 -65.132,-1.60666 -24.84933,-63.94 30.91333,-60.84933 51.144,2.83467 70.80533,47.252 164.29467,3.98267 -70.07734,14.76933 -92.64534,-59.316 -147.724,-61.696 -63.88267,-2.76133 -128.65466,41.16533 -161.636,35.82933 -47.01333,-7.608 -52.56666,-52.848 -2.94266,-54.976 32.56266,-1.39733 94.05733,15.93467 128.41199,-30.08666 C 505.42158,69.29927 424.77092,-29.12473 249.01626,8.6952698 349.89892,28.30994 426.05892,117.12727 426.05892,223.7446 c 0,85.452 -48.92533,159.47066 -120.29067,195.592" /><path
       id="path184"
       style="fill:#971a1f;fill-opacity:1;fill-rule:evenodd;stroke:none;stroke-width:0.133333"
       d="m 412.49359,339.52326 c 19.53066,-34.66666 30.34399,-74.36266 30.34399,-115.77866 0,-87.896 -48.60266,-166.33733 -122.38666,-206.85999 32.36,-0.68267 64.23067,3.448 97.80667,12.27199 45.47466,11.94934 89.03999,31.32934 134.91866,41.19467 5.072,1.09067 10.13733,2.05067 15.20933,2.87067 -2.70267,0.368 -5.46,0.63866 -8.26533,0.828 -10.764,0.72133 -21.59467,0.18933 -32.34933,-0.512 -10.13067,-0.66134 -20.63867,-1.63734 -30.78,-1.20134 -69.51467,2.98 -66.44267,77.396 0.98266,88.30533 19.376,3.13467 44.06534,-5.85866 62.24267,-12.27733 22.86666,-8.07466 45.784,-16.69866 69.74266,-20.95466 10.40934,-1.848 21.02934,-2.85334 31.60534,-2.39734 5.936,0.25734 11.52,1.67867 16.968,4.024 15.54266,6.69334 30.46533,20.944 43.79199,31.39867 5.43467,4.26133 10.82667,8.13866 16.25467,11.564 -1.62267,-0.003 -3.24,-0.0493 -4.85467,-0.14267 -16.21333,-0.94933 -29.38666,-6.604 -44.28533,-12.3 -14.19866,-5.42933 -27.464,-9.5 -42.79066,-10.35066 -21.044,-1.16534 -42.676,5.26933 -59.36667,18.21066 -14.22,11.02667 -26.78667,29.14 -21.69333,47.99333 5.82266,21.53734 29.19866,27.69334 48.80266,28.176 18.38134,0.45467 36.76534,-1.384 55.22,-0.756 14.61734,0.5 29.27467,2.26 41.256,8.51067 -19.272,4.62933 -38.54666,13.73467 -55.02133,19.85067 -12.848,4.76533 -27.05333,9.33066 -40.828,9.928 -27.47067,1.19866 -52.464,-4.924 -79.13333,-9.76 -71.74667,-13.00934 -80.444,60.32666 -30.08533,71.25599 17.936,3.892 37.65066,-2.17066 55.86799,-2.76533 1.864,-0.0627 3.676,-0.0667 5.44,-0.009 -18.64799,4.104 -39.15333,9.188 -58.18266,7.88266 -19.30267,-1.32133 -37.43733,-5.252 -56.35733,-8.76533 -12.384,-2.3 -28.18133,-5.30933 -40.07333,0.56533 z m -65.24,73.87334 c 19.60266,-14.5 36.66666,-31.82667 50.73866,-51.25334 -0.0387,0.57467 -0.0653,1.148 -0.0787,1.72934 -0.25867,11.27066 2.516,21.95733 11.14,29.74133 3.156,2.852 6.44933,4.83467 9.79733,6.36133 -11.50267,3.14134 -22.892,6.88667 -34.41467,9.64667 -13.15333,3.15067 -25.24133,4.624 -37.18266,3.77467 v 0" /></g></svg>
