<?xml version="1.0" encoding="UTF-8" standalone="no"?>
<!-- Created with Inkscape (http://www.inkscape.org/) -->

<svg
   width="31.579611mm"
   height="26.059324mm"
   viewBox="0 0 31.579611 26.059324"
   version="1.1"
   id="svg1494"
   inkscape:version="1.2.1 (9c6d41e410, 2022-07-14)"
   sodipodi:docname="logo.svg"
   xmlns:inkscape="http://www.inkscape.org/namespaces/inkscape"
   xmlns:sodipodi="http://sodipodi.sourceforge.net/DTD/sodipodi-0.dtd"
   xmlns="http://www.w3.org/2000/svg"
   xmlns:svg="http://www.w3.org/2000/svg">
  <sodipodi:namedview
     id="namedview1496"
     pagecolor="#ffffff"
     bordercolor="#000000"
     borderopacity="0.25"
     inkscape:showpageshadow="2"
     inkscape:pageopacity="0.0"
     inkscape:pagecheckerboard="true"
     inkscape:deskcolor="#d1d1d1"
     inkscape:document-units="mm"
     showgrid="false"
     inkscape:zoom="8.2646359"
     inkscape:cx="59.651751"
     inkscape:cy="49.245969"
     inkscape:window-width="1920"
     inkscape:window-height="1017"
     inkscape:window-x="-8"
     inkscape:window-y="-8"
     inkscape:window-maximized="1"
     inkscape:current-layer="layer1" />
  <defs
     id="defs1491" />
  <g
     inkscape:label="Layer 1"
     inkscape:groupmode="layer"
     id="layer1"
     transform="translate(-67.24245,-93.776775)">
    <path
       d="m 91.859285,113.0201 -0.67698,0.60466 c -0.191912,0.14711 -0.38735,0.29386 -0.597959,0.42862 -0.24765,0.16969 -0.519641,0.33126 -0.793044,0.46285 -1.195917,0.62406 -2.553053,0.97049 -3.989917,0.96626 -1.45415,-0.004 -2.807759,-0.36866 -3.995914,-1.00401 l -0.800806,-0.48083 c -0.191558,-0.12771 -0.395111,-0.27094 -0.575381,-0.42475 l -0.02646,-0.0113 -0.624064,-0.5722 -0.02999,-0.0293 c -1.575506,-1.57163 -2.564694,-3.74545 -2.5527,-6.14716 0.0039,-0.49636 0.04868,-0.97402 0.138642,-1.45168 0.04551,-0.3048 0.109714,-0.60113 0.195791,-0.89076 0.06809,-0.22931 0.154164,-0.46602 0.230011,-0.68827 0.108303,-0.29316 0.228953,-0.56833 0.385939,-0.8382 1.234017,-2.45498 3.625145,-4.233335 6.444898,-4.639735 0.289278,-0.04445 0.597606,-0.0755 0.897819,-0.0755 0.124531,-0.01834 0.248709,-0.01517 0.383823,-0.01834 0.124178,0 0.237419,0.0032 0.361597,0.01834 0.300214,0.0081 0.605014,0.04163 0.905933,0.07937 2.81552,0.4318 5.187951,2.233785 6.421615,4.688065 0.131233,0.27481 0.258939,0.55315 0.361597,0.84243 0.09666,0.2219 0.160161,0.45509 0.220839,0.69145 0.09102,0.28998 0.165453,0.5976 0.202847,0.89535 0.08326,0.47307 0.12065,0.96273 0.124883,1.45485 -0.01129,2.40947 -1.016352,4.58647 -2.613025,6.13975 z m 6.232878,-7.09507 0.729898,-0.12735 -0.06456,-0.36054 -0.323497,-1.92158 -0.732367,0.12347 c -0.08749,-0.31926 -0.184502,-0.63112 -0.293864,-0.9398 -0.11183,-0.30797 -0.23248,-0.61207 -0.372533,-0.91369 l 0.647347,-0.36442 -0.684741,-1.20262 -0.465314,-0.812449 -0.644173,0.368652 c -0.378883,-0.545394 -0.800452,-1.052336 -1.255183,-1.522941 l 0.477661,-0.564445 -1.767417,-1.488369 -0.480836,0.560211 c -0.304447,-0.218017 -0.620536,-0.413456 -0.946855,-0.602192 -0.245534,-0.138642 -0.504473,-0.270228 -0.756356,-0.390525 l 0.259645,-0.691092 -2.169584,-0.808566 -0.255411,0.70238 c -0.636058,-0.168628 -1.281995,-0.297039 -1.944511,-0.356305 l 0.0046,-0.740834 -2.312459,-0.01517 v 0.740833 c -0.646994,0.05997 -1.304925,0.172861 -1.950861,0.337961 l -0.248708,-0.694972 -2.18052,0.781756 0.251884,0.691444 c -0.605367,0.282575 -1.17722,0.6096 -1.710973,0.977547 L 78.4294,96.12063 l -1.778706,1.476728 0.473428,0.571853 c -0.473428,0.466019 -0.893939,0.974019 -1.274233,1.5113 l -0.643114,-0.379942 -1.169458,2.000601 0.639586,0.37218 c -0.274109,0.58949 -0.507648,1.21074 -0.676628,1.84609 l -0.733072,-0.13159 -0.417689,2.27824 0.729191,0.12735 c -0.05609,0.65476 -0.05962,1.31587 -0.0035,1.97768 l -0.733425,0.12453 0.390877,2.28176 0.733778,-0.12382 c 0.08643,0.31926 0.18415,0.63147 0.292806,0.9398 0.109361,0.30833 0.233891,0.61313 0.368653,0.91369 l -0.642762,0.36866 1.049162,1.82703 0.101247,0.18415 0.639233,-0.3683 c 0.379589,0.54469 0.805039,1.05622 1.25977,1.52259 l -0.477661,0.56374 1.766711,1.4926 0.477308,-0.56303 c 0.537986,0.37853 1.113014,0.70944 1.707092,0.99131 l -0.255058,0.69603 2.164997,0.80468 0.256117,-0.70344 c 0.635352,0.17357 1.281641,0.29704 1.939925,0.35737 v 0.74083 l 2.311753,0.0148 v -0.74048 c 0.646641,-0.06 1.300339,-0.16933 1.943805,-0.33443 l 0.251884,0.70273 2.176992,-0.78176 -0.248003,-0.69955 c 0.601839,-0.28152 1.180747,-0.61278 1.714853,-0.98143 l 0.472722,0.5715 1.779411,-1.47708 -0.474486,-0.57115 c 0.474486,-0.46673 0.891469,-0.97049 1.274586,-1.50777 l 0.643467,0.37888 1.16205,-2.00025 -0.640292,-0.37183 c 0.278695,-0.59407 0.515409,-1.21461 0.684389,-1.84961 l 0.728839,0.13229 0.41522,-2.27577 -0.721784,-0.13123 c 0.05609,-0.65405 0.05927,-1.31622 0.0028,-1.97415"
       style="fill:#2e2d40;fill-opacity:1;fill-rule:nonzero;stroke:none;stroke-width:0.0352778"
       id="path188" />
    <path
       d="m 83.936954,105.78639 c -0.228953,0 -0.41275,0.18415 -0.41275,0.41416 0,0.2286 0.183797,0.4131 0.41275,0.4131 0.229659,0 0.413809,-0.1845 0.413809,-0.4131 0,-0.23001 -0.18415,-0.41416 -0.413809,-0.41416 z m 0.717903,2.23696 c -0.229658,0 -0.413456,0.1838 -0.413456,0.41311 0,0.23001 0.183798,0.41345 0.413456,0.41345 0.229306,0 0.413456,-0.18344 0.413456,-0.41345 0,-0.22931 -0.18415,-0.41311 -0.413456,-0.41311 z m 1.176514,-2.80846 c 0.229658,0 0.414161,-0.18415 0.414161,-0.41381 0,-0.22895 -0.184503,-0.41381 -0.414161,-0.41381 -0.225072,0 -0.413456,0.18486 -0.413456,0.41381 0,0.22966 0.188384,0.41381 0.413456,0.41381 z m 0,2.40594 c -0.431447,0 -0.773995,-0.35348 -0.773995,-0.78563 0,-0.43251 0.342548,-0.77082 0.782109,-0.77082 0.4318,0.004 0.773994,0.35031 0.773994,0.77893 -0.0039,0.4318 -0.345722,0.78211 -0.782108,0.77752 z m 1.151467,-0.77046 c 0,-0.635 -0.515761,-1.15147 -1.151467,-1.15147 -0.627239,0 -1.142295,0.51647 -1.142295,1.15147 0,0.63182 0.515056,1.14688 1.142295,1.14688 0.635706,0 1.151467,-0.51506 1.151467,-1.14688 z m 0.03669,1.17298 c -0.229306,0 -0.413456,0.1838 -0.413456,0.41311 0,0.23001 0.18415,0.41345 0.413456,0.41345 0.230011,0 0.414161,-0.18344 0.414161,-0.41345 0,-0.22931 -0.18415,-0.41311 -0.414161,-0.41311 z m 0.722489,-2.23696 c -0.230012,0 -0.413103,0.18415 -0.413103,0.41416 0,0.2286 0.183091,0.4131 0.413103,0.4131 0.229658,0 0.413455,-0.1845 0.413455,-0.4131 0,-0.23001 -0.183797,-0.41416 -0.413455,-0.41416"
       style="fill:#ffffff;fill-opacity:1;fill-rule:nonzero;stroke:none;stroke-width:0.0352778"
       id="path190" />
    <path
       d="m 92.642452,106.90963 c -0.0049,0.7867 -0.149931,1.55858 -0.417689,2.27683 l -0.01446,0.0483 c -0.03387,0.0878 -0.06809,0.17498 -0.111478,0.26247 -0.121708,0.29104 -0.261761,0.57256 -0.421922,0.84913 -0.131586,0.21414 -0.267053,0.42298 -0.422275,0.61737 -0.06879,0.0967 -0.136525,0.18415 -0.208844,0.27128 l -0.03457,0.0384 c -0.05327,0.0635 -0.105833,0.12665 -0.164394,0.18486 l -2.296584,-3.77155 4.048126,-1.62172 c 0.02963,0.2667 0.0441,0.53446 0.0441,0.79587 z m -4.514145,6.34436 c -0.369358,0.13688 -0.747889,0.23354 -1.121833,0.30656 h -0.04798 c -0.587728,0.10654 -1.179689,0.1263 -1.7526,0.0681 -0.189795,-0.0201 -0.374297,-0.0392 -0.563033,-0.0727 l -0.05362,-0.0102 c -0.09701,-0.0243 -0.199672,-0.0388 -0.306211,-0.0727 -0.25153,-0.0536 -0.494947,-0.12135 -0.738011,-0.21343 -0.198967,-0.0681 -0.388408,-0.14534 -0.572911,-0.23812 l 2.820458,-3.33058 2.840214,3.36409 c -0.159808,0.073 -0.330552,0.14111 -0.504472,0.19897 z m -7.355064,-1.84891 c -0.04833,-0.0635 -0.1016,-0.12171 -0.155222,-0.1845 l -0.03881,-0.0392 c -0.480483,-0.57715 -0.878417,-1.25695 -1.146175,-2.00978 l -0.01905,-0.0536 c -0.09243,-0.26176 -0.169686,-0.52846 -0.228247,-0.79092 -0.07267,-0.30586 -0.116064,-0.61631 -0.140406,-0.9271 -0.01976,-0.18909 -0.01976,-0.37853 -0.02399,-0.56304 l 0.0042,-0.0483 v -0.006 c 0,-0.0434 0,-0.0967 0.01023,-0.14534 0,-0.20849 0.01446,-0.41734 0.0381,-0.6163 l 4.039659,1.65523 z m -0.155222,-8.94221 0.03916,-0.0437 c 0.475192,-0.55245 1.033992,-1.03329 1.6891,-1.41711 0.02469,-0.0194 0.05786,-0.0339 0.09243,-0.0536 l 0.03316,-0.0296 c 0.2286,-0.12594 0.466725,-0.23777 0.718608,-0.33443 0.112184,-0.0529 0.223661,-0.10196 0.349956,-0.15099 0.116417,-0.043 0.242711,-0.0825 0.369358,-0.11113 0.198261,-0.0632 0.397581,-0.11183 0.596548,-0.15557 l -0.315031,4.35927 v 0.006 h -0.0053 l -4.252383,-1.08267 c 0.194027,-0.34537 0.427214,-0.68051 0.684389,-0.98602 z m 3.320344,4.15078 c -0.232833,0 -0.41275,-0.1845 -0.41275,-0.41275 0,-0.22824 0.179917,-0.41204 0.41275,-0.41204 0.228248,0 0.413456,0.1838 0.413456,0.41204 0,0.22825 -0.185208,0.41275 -0.413456,0.41275 z m 0.718256,1.40759 c 0.228247,0 0.413103,0.1845 0.413103,0.41769 0,0.2286 -0.184856,0.41275 -0.413103,0.41275 -0.232481,0 -0.416983,-0.18415 -0.416983,-0.41275 0,-0.23319 0.184502,-0.41769 0.416983,-0.41769 z m 1.17475,-2.32022 c 0.636764,0 1.151467,0.51435 1.151467,1.15041 0,0.63147 -0.514703,1.14582 -1.151467,1.14582 -0.625475,0 -1.140178,-0.51435 -1.140178,-1.14582 0,-0.63606 0.514703,-1.15041 1.140178,-1.15041 z m 0,-1.31586 c 0.228953,0 0.413103,0.1845 0.413103,0.41733 0,0.2286 -0.18415,0.41275 -0.413103,0.41275 -0.222956,0 -0.412397,-0.18415 -0.412397,-0.41275 0,-0.23283 0.189441,-0.41733 0.412397,-0.41733 z m 1.602669,4.05377 c 0,0.2286 -0.184502,0.41275 -0.412397,0.41275 -0.232833,0 -0.41275,-0.18415 -0.41275,-0.41275 0,-0.23319 0.179917,-0.41769 0.41275,-0.41769 0.227895,0 0.412397,0.1845 0.412397,0.41769 z m 0.723195,-2.23803 c 0,0.22825 -0.184856,0.41275 -0.417689,0.41275 -0.227894,0 -0.413456,-0.1845 -0.413456,-0.41275 0,-0.22824 0.185562,-0.41204 0.413456,-0.41204 0.232833,0 0.417689,0.1838 0.417689,0.41204 z m 1.082322,-5.24792 0.04868,0.0243 c 0.354189,0.20884 0.68968,0.44203 1.000125,0.71861 0.237772,0.20884 0.465666,0.43638 0.669572,0.6791 0.03457,0.0346 0.06844,0.0639 0.09243,0.0981 l 0.03387,0.0384 c 0.121356,0.14499 0.238125,0.29139 0.344312,0.45155 0.116769,0.16934 0.2286,0.33902 0.330552,0.52423 l -4.257322,1.05339 -0.296334,-4.36915 c 0.718256,0.15593 1.407937,0.41734 2.034117,0.7814 z m 5.107164,4.47146 c -0.03916,-0.29669 -0.111125,-0.60184 -0.203552,-0.89288 -0.05927,-0.23848 -0.121356,-0.47167 -0.219428,-0.69497 -0.1016,-0.28611 -0.232481,-0.56762 -0.363714,-0.83961 -1.232958,-2.4564 -3.602567,-4.257327 -6.417028,-4.689479 -0.301625,-0.03881 -0.606425,-0.07267 -0.908403,-0.07726 -0.126647,-0.01517 -0.238478,-0.01975 -0.359833,-0.01975 -0.135114,0.0046 -0.261056,0 -0.38735,0.01975 -0.296334,0 -0.606778,0.02893 -0.898173,0.07267 -2.815519,0.407812 -5.208764,2.184399 -6.442781,4.640789 -0.160161,0.27164 -0.276577,0.54363 -0.38735,0.83961 -0.07303,0.21873 -0.160161,0.4565 -0.2286,0.68933 -0.08643,0.28575 -0.150636,0.58244 -0.194027,0.8883 -0.09243,0.47589 -0.136173,0.95708 -0.140406,1.45203 -0.0099,2.40277 0.975431,4.57729 2.5527,6.14574 l 0.02928,0.0289 0.62618,0.57291 0.02505,0.0145 c 0.179212,0.15029 0.382764,0.29598 0.577145,0.42263 l 0.801511,0.48013 c 1.18357,0.63571 2.538236,0.99977 3.994503,1.00471 1.437217,0.005 2.791884,-0.34431 3.990623,-0.9659 0.271639,-0.13088 0.54363,-0.2914 0.79128,-0.46108 0.20955,-0.13547 0.408164,-0.28152 0.596548,-0.43216 l 0.680155,-0.60184 c 1.597731,-1.55363 2.597503,-3.73309 2.611967,-6.1408 -0.0049,-0.4953 -0.0441,-0.98072 -0.126295,-1.45627"
       style="fill:#ffffff;fill-opacity:1;fill-rule:nonzero;stroke:#000000;stroke-width:0.35269;stroke-dasharray:none;stroke-opacity:1"
       id="path192" />
    <path
       d="m 86.245532,104.80108 c 0,0.22966 -0.184503,0.41381 -0.414161,0.41381 -0.225072,0 -0.413456,-0.18415 -0.413456,-0.41381 0,-0.22895 0.188384,-0.41381 0.413456,-0.41381 0.229658,0 0.414161,0.18486 0.414161,0.41381"
       style="fill:#5f4d67;fill-opacity:1;fill-rule:nonzero;stroke:none;stroke-width:0.0352778"
       id="path194" />
    <path
       d="m 84.350763,106.20055 c 0,0.2286 -0.18415,0.4131 -0.413809,0.4131 -0.228953,0 -0.41275,-0.1845 -0.41275,-0.4131 0,-0.23001 0.183797,-0.41416 0.41275,-0.41416 0.229659,0 0.413809,0.18415 0.413809,0.41416"
       style="fill:#5f4d67;fill-opacity:1;fill-rule:nonzero;stroke:none;stroke-width:0.0352778"
       id="path196" />
    <path
       d="m 85.068313,108.43646 c 0,0.23001 -0.18415,0.41345 -0.413456,0.41345 -0.229658,0 -0.413456,-0.18344 -0.413456,-0.41345 0,-0.22931 0.183798,-0.41311 0.413456,-0.41311 0.229306,0 0.413456,0.1838 0.413456,0.41311"
       style="fill:#5f4d67;fill-opacity:1;fill-rule:nonzero;stroke:none;stroke-width:0.0352778"
       id="path198" />
    <path
       d="m 87.433688,108.43646 c 0,0.23001 -0.18415,0.41345 -0.414161,0.41345 -0.229306,0 -0.413456,-0.18344 -0.413456,-0.41345 0,-0.22931 0.18415,-0.41311 0.413456,-0.41311 0.230011,0 0.414161,0.1838 0.414161,0.41311"
       style="fill:#5f4d67;fill-opacity:1;fill-rule:nonzero;stroke:none;stroke-width:0.0352778"
       id="path200" />
    <path
       d="m 88.155471,106.20055 c 0,0.2286 -0.183797,0.4131 -0.413455,0.4131 -0.230012,0 -0.413103,-0.1845 -0.413103,-0.4131 0,-0.23001 0.183091,-0.41416 0.413103,-0.41416 0.229658,0 0.413455,0.18415 0.413455,0.41416"
       style="fill:#5f4d67;fill-opacity:1;fill-rule:nonzero;stroke:none;stroke-width:0.0352778"
       id="path202" />
    <path
       d="m 85.831371,107.62083 c -0.431447,0 -0.773995,-0.35348 -0.773995,-0.78563 0,-0.43251 0.342548,-0.77082 0.782109,-0.77082 0.4318,0.004 0.773994,0.35031 0.773994,0.77893 -0.0039,0.4318 -0.345722,0.78211 -0.782108,0.77752 z m 0,-1.92193 c -0.627239,0 -1.142295,0.51647 -1.142295,1.15147 0,0.63182 0.515056,1.14688 1.142295,1.14688 0.635706,0 1.151467,-0.51506 1.151467,-1.14688 0,-0.635 -0.515761,-1.15147 -1.151467,-1.15147"
       style="fill:#5f4d67;fill-opacity:1;fill-rule:nonzero;stroke:none;stroke-width:0.0352778"
       id="path204" />
    <path
       d="m 69.474828,102.77049 h 3.055112 v -2.38511 h -3.055112 z"
       style="fill:#5db2c3;fill-opacity:1;fill-rule:nonzero;stroke:none;stroke-width:0.0352778"
       id="path206" />
    <path
       d="m 74.762262,97.535976 c 0,2.07645 -1.683809,3.759904 -3.759553,3.759904 -2.076097,0 -3.760259,-1.683454 -3.760259,-3.759904 0,-2.076803 1.684162,-3.759201 3.760259,-3.759201 2.075744,0 3.759553,1.682398 3.759553,3.759201"
       style="fill:#ffffff;fill-opacity:1;fill-rule:nonzero;stroke:none;stroke-width:0.0352778"
       id="path208" />
    <path
       d="m 74.104684,97.535976 c 0,1.713089 -1.389592,3.101624 -3.101975,3.101624 -1.713089,0 -3.101975,-1.388535 -3.101975,-3.101624 0,-1.713089 1.388886,-3.101623 3.101975,-3.101623 1.712383,0 3.101975,1.388534 3.101975,3.101623"
       style="fill:#aacac0;fill-opacity:1;fill-rule:nonzero;stroke:none;stroke-width:0.0352778"
       id="path210" />
    <path
       d="m 73.817523,96.682959 -0.685095,0.684389 c -0.545041,-0.545042 -1.297163,-0.880534 -2.127602,-0.880534 -0.831498,0 -1.583267,0.335492 -2.129014,0.880534 L 68.188248,96.679784 C 68.910384,95.957295 69.9031,95.5135 71.004826,95.5135 c 1.096786,0 2.093383,0.447675 2.812697,1.169459"
       style="fill:#3b9878;fill-opacity:1;fill-rule:nonzero;stroke:none;stroke-width:0.0352778"
       id="path212" />
    <path
       d="m 73.817523,96.68437 -0.685095,0.684742 C 72.83927,97.075248 72.48614,96.846295 72.094556,96.695659 l 0.337961,-0.910167 c 0.526698,0.199672 0.996598,0.508 1.385006,0.898878"
       style="fill:#ef3320;fill-opacity:1;fill-rule:nonzero;stroke:none;stroke-width:0.0352778"
       id="path214" />
    <path
       d="m 71.396056,99.086434 c -0.09172,0.246239 -0.364067,0.370417 -0.609953,0.2794 -0.244475,-0.09066 -0.368652,-0.364067 -0.277283,-0.609953 l 0.04374,-0.08714 1.464028,-2.604206 -0.596194,2.928409 c -0.0039,0.0314 -0.01235,0.06174 -0.02434,0.09349"
       style="fill:#581e19;fill-opacity:1;fill-rule:nonzero;stroke:none;stroke-width:0.0352778"
       id="path216" />
    <path
       d="m 72.862553,100.01812 c 0.610659,-0.458258 1.047045,-1.136297 1.190626,-1.916994 l 7.05e-4,7.05e-4 c -0.142522,0.780345 -0.578908,1.458384 -1.191331,1.916289"
       style="fill:#d3d8d7;fill-opacity:1;fill-rule:nonzero;stroke:none;stroke-width:0.0352778"
       id="path218" />
    <path
       d="M 71.884301,100.50848 70.69932,99.323148 c 0.0074,0.0046 0.01446,0.0088 0.02187,0.01305 0.01764,0.0099 0.03634,0.01905 0.05644,0.02646 0.0028,0.0011 0.0056,0.0021 0.0085,0.0032 0.05468,0.02046 0.11042,0.02999 0.165453,0.02999 0.04022,0 0.07973,-0.0053 0.118181,-0.01517 0.14605,-0.03704 0.270933,-0.14217 0.326319,-0.293159 l 0.0011,-0.0035 c 0.0095,-0.02611 0.01693,-0.05115 0.02117,-0.07655 l 0.0039,-0.01446 0.481189,-2.369961 c 0.06526,0.02046 0.129822,0.04304 0.193322,0.06773 l -0.0021,0.0049 c 0.391584,0.150636 0.744714,0.379589 1.037872,0.673453 l 0.09454,-0.09455 0.826206,0.826559 c -0.143581,0.780697 -0.579967,1.458736 -1.190626,1.91699 -0.290688,0.21731 -0.620888,0.38488 -0.978252,0.49036"
       style="fill:#87a7a1;fill-opacity:1;fill-rule:nonzero;stroke:none;stroke-width:0.0352778"
       id="path220" />
    <path
       d="m 72.096673,96.69072 c -0.0635,-0.0247 -0.128058,-0.04727 -0.193322,-0.06773 l 0.113241,-0.558448 0.227895,0.227895 -0.147814,0.398286"
       style="fill:#307d65;fill-opacity:1;fill-rule:nonzero;stroke:none;stroke-width:0.0352778"
       id="path222" />
    <path
       d="M 73.132428,97.369112 C 72.83927,97.075248 72.48614,96.846295 72.094556,96.695659 l 0.0021,-0.0049 0.147814,-0.398286 0.982486,0.982133 -0.09454,0.09455"
       style="fill:#c92e23;fill-opacity:1;fill-rule:nonzero;stroke:none;stroke-width:0.0352778"
       id="path224" />
    <path
       d="m 70.951556,99.39582 c -0.05503,0 -0.110772,-0.0095 -0.165453,-0.02999 -0.0028,-0.0011 -0.0056,-0.0021 -0.0085,-0.0032 0.0028,0.0011 0.006,0.0021 0.0092,0.0032 0.05468,0.02011 0.110772,0.02963 0.165805,0.02963 0.03986,0 0.07902,-0.0049 0.117123,-0.01482 -0.03845,0.0099 -0.07796,0.01517 -0.118181,0.01517 m -0.230364,-0.05962 c -0.0074,-0.0042 -0.01446,-0.0085 -0.02187,-0.01305 l -0.0028,-0.0028 c 0.0081,0.0056 0.01623,0.01094 0.02469,0.01588 m 0.675922,-0.252236 0.02117,-0.07655 c -0.0042,0.0254 -0.01164,0.05045 -0.02117,0.07655"
       style="fill:#461b17;fill-opacity:1;fill-rule:nonzero;stroke:none;stroke-width:0.0352778"
       id="path226" />
    <path
       d="m 72.241312,102.77049 v 0.31256 h -2.477206 v -0.31256 h 2.477206"
       style="fill:#ffffff;fill-opacity:1;fill-rule:nonzero;stroke:none;stroke-width:0.0352778"
       id="path228" />
    <path
       d="m 71.002709,100.6376 c -1.714147,0 -3.101975,-1.387477 -3.101975,-3.098449 0,-3.53e-4 0,-0.0011 0,-0.0014 7.05e-4,1.712031 1.389591,3.099859 3.101975,3.099859 0.0025,0 0.0053,0 0.0078,0 -0.0025,0 -0.0053,0 -0.0078,0 m 0.271639,-0.0116 c 0.04762,-0.004 0.09525,-0.009 0.142169,-0.0159 0.0028,3.5e-4 0.0049,7.1e-4 0.0074,10e-4 -0.04868,0.006 -0.09878,0.0106 -0.149578,0.0148 m 0.140758,-6.164439 c -0.04904,-0.0067 -0.09843,-0.01199 -0.148167,-0.01623 0.05327,0.0042 0.105834,0.0095 0.156987,0.01517 -0.0028,3.52e-4 -0.0056,7.05e-4 -0.0088,0.0011 m -0.445911,-0.02716 c 0.0018,0 0.0032,0 0.0046,0 -0.0014,0 -0.0028,0 -0.0046,0 m 0.02046,0 c 0.0046,0 0.0085,0 0.01305,0 -0.0046,0 -0.0085,0 -0.01305,0 m 0.02081,0 c -0.0028,0 -0.0053,0 -0.0078,0 0.0025,0 0.0049,0 0.0078,0"
       style="fill:#d3d8d7;fill-opacity:1;fill-rule:nonzero;stroke:none;stroke-width:0.0352778"
       id="path230" />
    <path
       d="m 71.002709,100.6376 c -1.712384,0 -3.10127,-1.38783 -3.101975,-3.099861 7.05e-4,-1.702152 1.370189,-3.085394 3.068461,-3.103386 0.0018,0 0.0032,0 0.0046,0 0.0053,0 0.01094,0 0.01588,0 0.0046,0 0.0085,0 0.01305,0 v 0 0 c 0.0025,0 0.0049,0 0.0078,0 0.08572,3.53e-4 0.171803,0.0046 0.256469,0.01094 0.04974,0.0042 0.09913,0.0095 0.148167,0.01623 -0.950383,0.135467 -1.763183,0.700264 -2.234142,1.49225 -0.367594,0.189795 -0.702027,0.435328 -0.992716,0.726017 l 0.571147,0.571147 c -0.0085,0.0949 -0.01305,0.191206 -0.01305,0.28822 0,1.565627 1.16205,2.858203 2.670175,3.070933 -0.04692,0.006 -0.09454,0.0116 -0.142169,0.0159 -0.08678,0.007 -0.175331,0.0113 -0.263878,0.0116 -0.0025,0 -0.0053,0 -0.0078,0"
       style="fill:#87a7a1;fill-opacity:1;fill-rule:nonzero;stroke:none;stroke-width:0.0352778"
       id="path232" />
    <path
       d="m 68.759395,97.250931 -0.571147,-0.571147 c 0.290689,-0.290689 0.625122,-0.536222 0.992716,-0.726017 -0.229658,0.386292 -0.378177,0.826206 -0.421569,1.297164"
       style="fill:#307d65;fill-opacity:1;fill-rule:nonzero;stroke:none;stroke-width:0.0352778"
       id="path234" />
    <path
       d="m 70.024809,116.21168 c 3.582811,1.004 8.853664,-6.6922 11.710812,-3.36832 l 0.03775,0.0409 c 0.05221,0.0526 0.123825,0.0868 0.206375,0.0868 0.166158,0 0.293864,-0.13194 0.293864,-0.29352 0,-0.0409 -0.0081,-0.0783 -0.02364,-0.11641 v -0.004 c -0.0448,-0.0529 -0.09349,-0.10195 -0.137936,-0.14676 -2.695576,-2.69628 -6.839304,1.41006 -9.328151,2.63173 -1.12007,0.54856 -2.665942,1.1437 -3.605742,-0.06 -1.42875,-1.82387 -0.04127,-3.42936 1.184628,-4.72264 2.007306,-2.11596 1.169458,-4.52226 1.019175,-7.17691 h -0.717903 c 0.145697,1.56386 0.721078,3.38349 0.30727,4.85034 -0.484717,1.72191 -1.936045,2.55587 -2.710392,4.07494 -0.879475,1.7219 -0.09384,3.68088 1.763889,4.20334"
       style="fill:#f49e11;fill-opacity:1;fill-rule:nonzero;stroke:none;stroke-width:0.0352778"
       id="path236" />
  </g>
</svg>
