<?xml version="1.0" encoding="UTF-8" standalone="no"?>
<!-- Created with Inkscape (http://www.inkscape.org/) -->

<svg
   width="89.857079mm"
   height="57.216675mm"
   viewBox="0 0 89.857079 57.216675"
   version="1.1"
   id="svg3688"
   sodipodi:docname="logo-image.svg"
   inkscape:version="1.2.1 (9c6d41e410, 2022-07-14)"
   xmlns:inkscape="http://www.inkscape.org/namespaces/inkscape"
   xmlns:sodipodi="http://sodipodi.sourceforge.net/DTD/sodipodi-0.dtd"
   xmlns="http://www.w3.org/2000/svg"
   xmlns:svg="http://www.w3.org/2000/svg">
  <sodipodi:namedview
     id="namedview3690"
     pagecolor="#ffffff"
     bordercolor="#000000"
     borderopacity="0.25"
     inkscape:showpageshadow="2"
     inkscape:pageopacity="0.0"
     inkscape:pagecheckerboard="true"
     inkscape:deskcolor="#d1d1d1"
     inkscape:document-units="mm"
     showgrid="false"
     inkscape:zoom="2.6616398"
     inkscape:cx="109.89466"
     inkscape:cy="108.20397"
     inkscape:window-width="1920"
     inkscape:window-height="1017"
     inkscape:window-x="-8"
     inkscape:window-y="-8"
     inkscape:window-maximized="1"
     inkscape:current-layer="layer1" />
  <defs
     id="defs3685" />
  <g
     inkscape:label="Layer 1"
     inkscape:groupmode="layer"
     id="layer1"
     transform="translate(-172.58759,-114.7465)">
    <path
       id="path208"
       style="fill:#000000;fill-opacity:1;fill-rule:nonzero;stroke:none;stroke-width:0.0352777;stroke-opacity:1"
       d="m 229.80532,143.35537 c 0,15.80057 -12.80901,28.60781 -28.60924,28.60781 -15.8002,0 -28.60849,-12.80724 -28.60849,-28.60781 0,-15.8002 12.80829,-28.60887 28.60849,-28.60887 15.80023,0 28.60924,12.80867 28.60924,28.60887" />
    <path
       id="path210"
       style="fill:#63676b;fill-opacity:1;fill-rule:nonzero;stroke:none;stroke-width:0.0352777;stroke-opacity:1"
       d="m 224.99202,143.35537 c 0,13.14238 -10.6539,23.79593 -23.79594,23.79593 -13.14201,0 -23.79591,-10.65355 -23.79591,-23.79593 0,-13.14202 10.6539,-23.79557 23.79591,-23.79557 13.14204,0 23.79594,10.65355 23.79594,23.79557" />
    <path
       id="path212"
       style="fill:#505256;fill-opacity:1;fill-rule:nonzero;stroke:none;stroke-width:0.0352777;stroke-opacity:1"
       d="m 222.18283,143.35537 c 0,11.59086 -9.39622,20.9864 -20.98675,20.9864 -11.59015,0 -20.98637,-9.39554 -20.98637,-20.9864 0,-11.5905 9.39622,-20.98638 20.98637,-20.98638 11.59053,0 20.98675,9.39588 20.98675,20.98638" />
    <path
       id="path214"
       style="fill:#ecb22b;fill-opacity:1;fill-rule:nonzero;stroke:none;stroke-width:0.0352777;stroke-opacity:1"
       d="m 213.61668,154.99952 c -4.40406,-1.43158 -8.85999,-10.48739 -8.85999,-10.48739 0,0 8.9281,-4.7071 13.33182,-3.27623 1.65452,0.53763 3.04906,1.47142 4.08162,2.6289 0.004,-0.16971 0.0127,-0.33833 0.0127,-0.50943 0,-4.79494 -1.61184,-9.21137 -4.318,-12.74551 -0.15345,1.54517 -0.73342,3.12245 -1.75646,4.53109 -2.72169,3.7465 -12.7113,5.18618 -12.7113,5.18618 0,0 -1.71802,-9.94587 1.0033,-13.692 1.02518,-1.41076 2.34845,-2.45041 3.77262,-3.0734 -2.18334,-0.76941 -4.53004,-1.19274 -6.97691,-1.19274 -2.44615,0 -4.79319,0.42333 -6.97653,1.19274 1.42417,0.62299 2.74743,1.66264 3.77227,3.0734 2.72203,3.74613 1.00399,13.692 1.00399,13.692 0,0 -9.98961,-1.43968 -12.71164,-5.18618 -1.02341,-1.40864 -1.60266,-2.98592 -1.75684,-4.53109 -2.70615,3.53414 -4.31762,7.95057 -4.31762,12.74551 0,0.1711 0.009,0.33972 0.013,0.50943 1.03222,-1.15748 2.4271,-2.09127 4.08128,-2.6289 4.40409,-1.43087 13.33219,3.27623 13.33219,3.27623 0,0 -4.4563,9.05581 -8.86073,10.48739 -1.6563,0.53763 -3.33622,0.60148 -4.85352,0.26988 2.68642,3.88725 6.64916,6.82164 11.28395,8.19996 -0.78597,-1.34162 -1.24529,-2.95947 -1.24529,-4.70289 0,-4.63092 7.23546,-11.66706 7.23546,-11.66706 0,0 7.23582,7.03614 7.23582,11.66706 0,1.74342 -0.45966,3.36198 -1.24529,4.70289 4.63479,-1.37832 8.5979,-4.31271 11.28358,-8.19996 -1.51728,0.3316 -3.19685,0.26775 -4.85351,-0.26988" />
    <path
       id="path216"
       style="fill:#ecb22b;fill-opacity:1;fill-rule:nonzero;stroke:none;stroke-width:0.0352777;stroke-opacity:1"
       d="m 208.43228,143.35537 c 0,3.99626 -3.24027,7.23582 -7.2362,7.23582 -3.99589,0 -7.23545,-3.23956 -7.23545,-7.23582 0,-3.99627 3.23956,-7.23583 7.23545,-7.23583 3.99593,0 7.2362,3.23956 7.2362,7.23583" />
    <path
       id="path218"
       style="fill:#505256;fill-opacity:1;fill-rule:nonzero;stroke:none;stroke-width:0.0352777;stroke-opacity:1"
       d="m 205.22659,143.35537 c 0,2.22567 -1.80446,4.03013 -4.03051,4.03013 -2.22567,0 -4.03047,-1.80446 -4.03047,-4.03013 0,-2.22568 1.8048,-4.03014 4.03047,-4.03014 2.22605,0 4.03051,1.80446 4.03051,4.03014" />
    <path
       id="path220"
       style="fill:#87b576;fill-opacity:1;fill-rule:nonzero;stroke:none;stroke-width:0.0352777;stroke-opacity:1"
       d="m 229.78873,144.34457 v -0.003 0.003 m 0.004,-0.13476 c 0,-0.003 0,-0.008 0,-0.0106 0,0.003 0,0.007 0,0.0106 m 0,-0.0381 c 0,-0.004 0,-0.007 0,-0.0108 0,0.003 0,0.007 0,0.0108 m 0.003,-0.0995 c 0,-0.004 0,-0.01 0,-0.014 0,0.005 0,0.009 0,0.014 m 0,-0.0385 c 0,-0.005 0,-0.0114 0,-0.0159 0,0.005 0,0.0109 0,0.0159 m 0,-0.0399 c 0,-0.007 0,-0.014 0,-0.0209 0,0.007 0,0.0146 0,0.0209 m 0,-0.0526 c 0,-0.009 0,-0.0161 0,-0.0246 0,0.008 0,0.0167 0,0.0246 m 0,-0.0441 c 0,-0.008 0,-0.0148 0,-0.0225 0,0.007 0,0.0151 0,0.0225 m 0,-0.0409 c 0,-0.008 0,-0.0172 0,-0.0262 0,0.009 0,0.0172 0,0.0262 m 0,-0.0448 c 0,-0.0116 0,-0.0241 0,-0.0356 0,0.0116 0,0.0235 0,0.0356 m 0,-0.0515 c 0,-0.008 0,-0.0167 0,-0.0251 0,0.008 0,0.0169 0,0.0251 m 0,-0.0427 c 0,-0.009 0,-0.019 0,-0.0275 0,0.01 0,0.0177 0,0.0275 m 0,-0.0416 c 0,-0.0135 0,-0.0268 0,-0.0402 0,0.0135 0,0.0272 0,0.0402 m 0,-0.0515 c 0,-0.0106 0,-0.0201 0,-0.0307 0,0.01 0,0.0212 0,0.0307 m 0,-0.0451 c 0,-0.01 0,-0.019 0,-0.029 0,0.01 0,0.0193 0,0.029 m 0,-0.0427 c 0,-0.0145 0,-0.0265 0,-0.0409 0,0.014 0,0.0268 0,0.0409 m 0,-0.048 c 0,-0.0116 0,-0.023 0,-0.0346 0,0.0114 0,0.0236 0,0.0346 m 0,-0.0487 c 0,-0.01 0,-0.0201 0,-0.03 0,0.01 0,0.0204 0,0.03 m 0,-0.0423 c 0,-0.0135 0,-0.0286 0,-0.042 v 0 c 0,0.014 0,0.0279 0,0.042 m 0,-0.042 c 0,-0.0135 0,-0.0282 0,-0.042 0,0.014 0,0.0279 0,0.042 m 0,-0.0543 c 0,-0.01 0,-0.0201 0,-0.03 0,0.01 0,0.0204 0,0.03 m 0,-0.0441 c 0,-0.0116 0,-0.023 0,-0.0345 0,0.0114 0,0.0233 0,0.0345 m 0,-0.0416 c 0,-0.0145 0,-0.0262 0,-0.0406 0,0.0138 0,0.0268 0,0.0406 m 0,-0.0547 c 0,-0.01 0,-0.0193 0,-0.0289 0,0.01 0,0.0193 0,0.0289 m 0,-0.0434 c 0,-0.0106 0,-0.0198 0,-0.0303 0,0.01 0,0.0209 0,0.0303 m 0,-0.042 c 0,-0.0135 0,-0.0268 0,-0.0402 0,0.013 0,0.0268 0,0.0402 m 0,-0.0543 c 0,-0.008 0,-0.0188 0,-0.0271 0,0.01 0,0.0177 0,0.0271 m 0,-0.0451 c 0,-0.008 0,-0.0161 0,-0.0251 0,0.008 0,0.0169 0,0.0251 m 0,-0.0409 c 0,-0.0117 0,-0.0236 0,-0.0349 0,0.0116 0,0.0233 0,0.0349 m 0,-0.0547 c 0,-0.007 0,-0.018 0,-0.0257 0,0.009 0,0.0169 0,0.0257 m 0,-0.0444 c 0,-0.007 0,-0.0146 0,-0.0222 0,0.007 0,0.0151 0,0.0222 m 0,-0.0416 c 0,-0.008 0,-0.0156 0,-0.0241 0,0.008 0,0.0159 0,0.0241 m 0,-0.0568 c 0,-0.007 0,-0.0138 0,-0.0204 0,0.007 0,0.0138 0,0.0204 m 0,-0.0445 c 0,-0.005 0,-0.0109 0,-0.0159 0,0.005 0,0.0106 0,0.0159 m 0,-0.0402 c 0,-0.004 0,-0.01 0,-0.0137 0,0.004 0,0.009 0,0.0137 m -0.003,-0.103 c 0,-0.003 0,-0.006 0,-0.0103 0,0.004 0,0.007 0,0.0103 m -0.003,-0.0384 c 0,-0.003 0,-0.007 0,-0.01 0,0.003 0,0.006 0,0.01 m -0.004,-0.14359 v 0 0" />
    <path
       id="path222"
       style="fill:#46464a;fill-opacity:1;fill-rule:nonzero;stroke:none;stroke-width:0.0352777;stroke-opacity:1"
       d="m 211.68946,169.96999 c -2.13678,-0.84315 -4.14761,-1.93604 -5.99721,-3.24273 10.99254,-2.10185 19.29977,-11.76621 19.29977,-23.37189 0,-11.60497 -8.30757,-21.26967 -19.30014,-23.37152 1.84928,-1.3067 3.8608,-2.39959 5.99758,-3.24273 10.317,4.0714 17.70274,13.95907 18.09927,25.62576 v 0 c 0.003,0.0448 0.003,0.0892 0.004,0.13407 0,0.003 0,0.007 0,0.01 0,0.009 0,0.0193 0,0.0282 0,0.004 0,0.007 0,0.0103 0,0.0303 0.003,0.0593 0.003,0.0892 0,0.004 0,0.01 0,0.0138 0,0.008 0,0.0167 0,0.0243 0,0.005 0,0.0108 0,0.0159 0,0.008 0,0.0159 0,0.0241 0,0.007 0,0.0138 0,0.0204 0,0.0108 0,0.0214 0,0.0328 0,0.008 0,0.0156 0,0.0241 0,0.007 0,0.013 0,0.0193 0,0.008 0,0.0148 0,0.0222 0,0.006 0,0.013 0,0.0188 0,0.008 0,0.0182 0,0.0257 0,0.007 0,0.013 0,0.0198 0,0.0114 0,0.0233 0,0.0349 0,0.005 0,0.0108 0,0.0159 0,0.009 0,0.0167 0,0.0251 0,0.006 0,0.0119 0,0.018 0,0.008 0,0.0188 0,0.0272 0,0.004 0,0.01 0,0.014 0,0.0135 0,0.0268 0,0.0402 0,0.004 0,0.007 0,0.0116 0,0.0106 0,0.0198 0,0.0303 0,0.005 0,0.009 0,0.0146 0,0.01 0,0.019 0,0.0289 0,0.004 0,0.01 0,0.014 0,0.0146 0,0.0262 0,0.0406 0,0.003 0,0.005 0,0.007 0,0.0116 0,0.023 0,0.0345 0,0.005 0,0.009 0,0.014 0,0.01 0,0.0201 0,0.03 0,0.004 0,0.008 0,0.0124 0,0.0138 0,0.0286 0,0.042 v 0 c 0,0.0135 0,0.0286 0,0.042 0,0.004 0,0.008 0,0.0124 0,0.01 0,0.0204 0,0.03 0,0.005 0,0.009 0,0.014 0,0.0116 0,0.023 0,0.0346 0,0.003 0,0.005 0,0.007 0,0.0146 0,0.0265 0,0.0409 0,0.004 0,0.01 0,0.0138 0,0.01 0,0.0193 0,0.029 0,0.005 0,0.01 0,0.0145 0,0.0106 0,0.0201 0,0.0307 0,0.004 0,0.007 0,0.0114 0,0.0135 0,0.0268 0,0.0402 0,0.005 0,0.01 0,0.014 0,0.008 0,0.0188 0,0.0275 0,0.006 0,0.0116 0,0.0177 0,0.008 0,0.0167 0,0.0251 0,0.005 0,0.0106 0,0.0159 0,0.0117 0,0.0241 0,0.0356 0,0.006 0,0.0119 0,0.0188 0,0.009 0,0.0177 0,0.0262 0,0.006 0,0.0127 0,0.0182 0,0.008 0,0.0148 0,0.0225 0,0.007 0,0.0127 0,0.0193 0,0.008 0,0.0159 0,0.0246 0,0.0108 0,0.0209 0,0.0317 0,0.007 0,0.014 0,0.0209 0,0.008 0,0.0159 0,0.0241 0,0.004 0,0.0114 0,0.0159 0,0.008 0,0.0161 0,0.0243 0,0.005 0,0.01 0,0.014 0,0.0293 -0.003,0.0593 -0.003,0.0885 0,0.004 0,0.007 0,0.0109 0,0.009 0,0.0188 0,0.0275 0,0.003 0,0.008 0,0.0106 -0.003,0.0448 -0.003,0.0882 -0.004,0.13298 v 0.003 c -0.39653,11.66706 -7.78227,21.55401 -18.09927,25.62542" />
    <path
       id="path224"
       style="fill:#54565a;fill-opacity:1;fill-rule:nonzero;stroke:none;stroke-width:0.0352777;stroke-opacity:1"
       d="m 205.69225,166.72726 c -1.05481,-0.74541 -2.05777,-1.56033 -3.00074,-2.43806 10.89237,-0.76729 19.49132,-9.84602 19.49132,-20.93383 v 0 0 0 0 c 0,-0.0106 0,-0.0209 0,-0.0314 0,-0.003 0,-0.007 0,-0.01 0,-0.007 0,-0.0145 0,-0.022 0,-0.003 0,-0.008 0,-0.0119 0,-0.007 0,-0.013 0,-0.0198 0,-0.003 0,-0.008 0,-0.0119 0,-0.006 0,-0.013 0,-0.0193 0,-0.005 0,-0.008 0,-0.013 0,-0.008 0,-0.0159 0,-0.0241 0,-0.006 0,-0.0119 0,-0.0177 0,-0.006 0,-0.0124 0,-0.0182 0,-0.005 0,-0.0106 0,-0.0151 0,-0.005 0,-0.0103 0,-0.0156 0,-0.006 0,-0.0114 0,-0.0177 0,-0.003 0,-0.007 0,-0.0109 0,-0.007 0,-0.014 0,-0.0212 0,-0.003 0,-0.003 0,-0.004 -0.14533,-10.95833 -8.6896,-19.8896 -19.48883,-20.6502 0.94297,-0.8777 1.94484,-1.69227 3,-2.43769 10.99257,2.10185 19.30014,11.76655 19.30014,23.37152 0,11.60569 -8.30723,21.27004 -19.29977,23.37189" />
    <path
       id="path226"
       style="fill:#46464a;fill-opacity:1;fill-rule:nonzero;stroke:none;stroke-width:0.0352777;stroke-opacity:1"
       d="m 202.69151,164.2892 c -3.05012,-2.83914 -5.47968,-6.3373 -7.0612,-10.26652 0.84704,-1.42277 1.8969,-2.8053 2.8561,-3.95605 0.83714,0.3383 1.75154,0.52456 2.70967,0.52456 0.95851,0 1.87291,-0.18626 2.71005,-0.52456 2.05423,2.46486 4.52578,5.99297 4.52578,8.69984 0,1.74342 -0.45966,3.36198 -1.24529,4.70289 4.63479,-1.37832 8.5979,-4.31271 11.28358,-8.19996 -0.61172,0.13369 -1.25023,0.2032 -1.90251,0.2032 -0.96557,0 -1.96252,-0.15206 -2.95101,-0.47308 -2.57421,-0.8368 -5.16641,-4.27884 -6.87599,-6.99452 1.05553,-1.2573 1.69159,-2.87938 1.69159,-4.64963 0,-0.16897 -0.006,-0.3369 -0.0172,-0.50305 2.30682,-0.92287 5.29767,-1.88701 7.72478,-1.88701 0.70802,0 1.36773,0.0818 1.94876,0.27059 1.65452,0.53763 3.04906,1.47142 4.08162,2.6289 0.004,-0.16971 0.0127,-0.33833 0.0127,-0.50943 0,11.08781 -8.59896,20.16654 -19.49132,20.93383 m -8.35131,-14.33123 c -0.50128,-2.11913 -0.76624,-4.32965 -0.76624,-6.6026 0,-0.21977 0.003,-0.44027 0.007,-0.65934 0.13407,0.0522 0.26636,0.10443 0.39619,0.15663 -0.0114,0.16581 -0.0169,0.33374 -0.0169,0.50271 0,1.77025 0.63568,3.39233 1.69156,4.64963 -0.39405,0.62582 -0.83537,1.29079 -1.31199,1.95297 m 27.84263,-6.63398 c 0,-0.003 0,-0.006 0,-0.01 0,0.003 0,0.007 0,0.01 m 0,-0.0314 c 0,-0.004 0,-0.008 0,-0.0119 0,0.003 0,0.008 0,0.0119 m 0,-0.0317 c 0,-0.004 0,-0.008 0,-0.0119 0,0.003 0,0.008 0,0.0119 m 0,-0.0314 c 0,-0.004 0,-0.008 0,-0.013 0,0.005 0,0.008 0,0.013 m 0,-0.037 c 0,-0.006 0,-0.0116 0,-0.0177 0,0.006 0,0.0119 0,0.0177 m 0,-0.036 c 0,-0.005 0,-0.0103 0,-0.0151 0,0.004 0,0.0103 0,0.0151 m 0,-0.0307 c 0,-0.006 0,-0.0116 0,-0.0177 0,0.006 0,0.0114 0,0.0177 m 0,-0.0286 c 0,-0.007 0,-0.014 0,-0.0212 0,0.007 0,0.014 0,0.0212 m 0,-0.0254 c -0.0621,-4.68524 -1.66299,-8.99758 -4.31588,-12.46187 -0.15346,1.54517 -0.73343,3.12245 -1.75647,4.53109 -1.59104,2.19004 -5.66491,3.59162 -8.7757,4.37833 -0.98038,-1.56459 -2.54283,-2.72804 -4.38398,-3.18595 -0.21307,-3.20146 -0.13899,-7.50888 1.45169,-9.6982 1.02518,-1.41076 2.34844,-2.45041 3.77261,-3.0734 -1.73461,-0.61137 -3.57259,-1.00401 -5.48148,-1.13983 v 0 c 10.79924,0.7606 19.3435,9.69188 19.48884,20.6502 m -27.12085,-3.55245 c -0.38275,-0.0967 -0.78068,-0.20286 -1.18639,-0.31893 0.63008,-4.32681 2.22956,-8.33967 4.57025,-11.81028 1.15147,2.3255 1.19097,6.07729 1.00013,8.94326 -1.84116,0.45791 -3.4036,1.62102 -4.38399,3.18595" />
    <path
       id="path228"
       style="fill:#c09428;fill-opacity:1;fill-rule:nonzero;stroke:none;stroke-width:0.0352777;stroke-opacity:1"
       d="m 207.18662,163.46936 c 0.78563,-1.34091 1.24529,-2.95947 1.24529,-4.70289 0,-2.70687 -2.47155,-6.23498 -4.52578,-8.69984 1.10702,-0.44768 2.07857,-1.16099 2.83456,-2.06163 1.70958,2.71568 4.30178,6.15772 6.87599,6.99452 0.98849,0.32102 1.98544,0.47308 2.95101,0.47308 0.65228,0 1.29079,-0.0695 1.90251,-0.2032 -2.68568,3.88725 -6.64879,6.82164 -11.28358,8.19996 m -11.55631,-9.44668 c -0.52705,-1.30987 -0.95991,-2.66737 -1.29011,-4.06471 0.47662,-0.66218 0.91795,-1.32715 1.31199,-1.95297 0.75565,0.90064 1.72686,1.61395 2.83422,2.06163 -0.9592,1.15075 -2.00906,2.53328 -2.8561,3.95605 m 26.53982,-10.15788 c -1.03256,-1.15748 -2.4271,-2.09127 -4.08162,-2.6289 -0.58102,-0.18876 -1.24073,-0.27059 -1.94876,-0.27059 -2.4271,0 -5.41795,0.96414 -7.72477,1.88701 -0.0836,-1.21849 -0.46885,-2.35445 -1.08231,-3.33304 3.11079,-0.78671 7.18466,-2.18829 8.7757,-4.37833 1.02304,-1.40864 1.60301,-2.98592 1.75646,-4.53109 2.6529,3.46429 4.25382,7.77663 4.31589,12.46187 0,0.003 0,0.003 0,0.004 0,0.007 0,0.014 0,0.0212 0,0.004 0,0.007 0,0.0109 0,0.006 0,0.0116 0,0.0177 0,0.005 0,0.0103 0,0.0156 0,0.005 0,0.01 0,0.0151 0,0.006 0,0.0124 0,0.0183 0,0.006 0,0.0119 0,0.0177 0,0.008 0,0.0159 0,0.0241 0,0.004 0,0.009 0,0.013 0,0.006 0,0.013 0,0.0193 0,0.004 0,0.008 0,0.0119 0,0.007 0,0.013 0,0.0198 0,0.004 0,0.008 0,0.0119 0,0.007 0,0.0146 0,0.022 0,0.003 0,0.006 0,0.01 0,0.0106 0,0.0209 0,0.0314 v 0 0 0 c 0,0.17111 -0.009,0.33973 -0.0127,0.50943 m -28.19257,-1.01214 c -0.12983,-0.0522 -0.26213,-0.1044 -0.39619,-0.15663 0.0268,-1.18462 0.1256,-2.35056 0.2921,-3.49567 0.40571,0.11607 0.80365,0.22225 1.18639,0.31892 -0.61312,0.97859 -0.99835,2.11455 -1.0823,3.33338 m 8.97112,-6.51933 c -0.56126,-0.1397 -1.14829,-0.21378 -1.7526,-0.21378 -0.60394,0 -1.19131,0.0745 -1.75223,0.21378 0.19084,-2.86597 0.15134,-6.61776 -1.00013,-8.94326 1.22412,-1.81504 2.65076,-3.48157 4.24778,-4.96816 1.90889,0.13581 3.74687,0.52845 5.48148,1.13982 -1.42417,0.62299 -2.74743,1.66265 -3.77261,3.0734 -1.59068,2.18933 -1.66476,6.49674 -1.45169,9.6982" />
    <path
       id="path230"
       style="fill:#c09428;fill-opacity:1;fill-rule:nonzero;stroke:none;stroke-width:0.0352777;stroke-opacity:1"
       d="m 201.19608,150.59119 c -0.95813,0 -1.87253,-0.18626 -2.70967,-0.52456 -1.10736,-0.44768 -2.07857,-1.16099 -2.83422,-2.06163 -1.05587,-1.2573 -1.69156,-2.87938 -1.69156,-4.64963 0,-0.16897 0.006,-0.3369 0.0169,-0.50271 0.084,-1.21883 0.46919,-2.35479 1.08231,-3.33338 0.98039,-1.56493 2.54283,-2.72804 4.38399,-3.18595 0.56091,-0.13933 1.14829,-0.21379 1.75222,-0.21379 0.60431,0 1.19134,0.0741 1.7526,0.21379 1.84116,0.45791 3.4036,1.62136 4.38399,3.18595 0.61346,0.97859 0.9987,2.11455 1.08231,3.33304 0.0116,0.16615 0.0172,0.33408 0.0172,0.50305 0,1.77025 -0.63605,3.39233 -1.69158,4.64963 -0.756,0.90064 -1.72755,1.61395 -2.83456,2.06163 -0.83715,0.3383 -1.75155,0.52456 -2.71005,0.52456 m 0,-11.26596 c -2.22568,0 -4.03048,1.80446 -4.03048,4.03014 0,2.22567 1.8048,4.03013 4.03048,4.03013 2.22604,0 4.0305,-1.80446 4.0305,-4.03013 0,-2.22568 -1.80446,-4.03014 -4.0305,-4.03014" />
    <path
       id="path232"
       style="fill:#46464a;fill-opacity:1;fill-rule:nonzero;stroke:none;stroke-width:0.0352777;stroke-opacity:1"
       d="m 201.19608,147.3855 c -2.22567,0 -4.03047,-1.80446 -4.03047,-4.03013 0,-2.22568 1.8048,-4.03014 4.03047,-4.03014 2.22605,0 4.03051,1.80446 4.03051,4.03014 0,2.22567 -1.80446,4.03013 -4.03051,4.03013" />
    <path
       id="path234"
       style="fill:#000000;fill-opacity:1;fill-rule:nonzero;stroke:none;stroke-width:0.0352777;stroke-opacity:1"
       d="m 262.44466,143.35537 c 0,15.80057 -12.80935,28.60781 -28.61026,28.60781 -15.7988,0 -28.60781,-12.80724 -28.60781,-28.60781 0,-15.8002 12.80901,-28.60887 28.60781,-28.60887 15.80091,0 28.61026,12.80867 28.61026,28.60887" />
    <path
       id="path236"
       style="fill:#63676b;fill-opacity:1;fill-rule:nonzero;stroke:none;stroke-width:0.0352777;stroke-opacity:1"
       d="m 257.63277,143.35537 c 0,13.14238 -10.65387,23.79593 -23.79837,23.79593 -13.14064,0 -23.79488,-10.65355 -23.79488,-23.79593 0,-13.14202 10.65424,-23.79557 23.79488,-23.79557 13.1445,0 23.79837,10.65355 23.79837,23.79557" />
    <path
       id="path238"
       style="fill:#505256;fill-opacity:1;fill-rule:nonzero;stroke:none;stroke-width:0.0352777;stroke-opacity:1"
       d="m 254.82115,143.35537 c 0,11.59086 -9.39448,20.98606 -20.98675,20.98606 -11.58947,0 -20.98501,-9.3952 -20.98501,-20.98606 0,-11.5905 9.39554,-20.98638 20.98501,-20.98638 11.59227,0 20.98675,9.39588 20.98675,20.98638" />
    <path
       id="path240"
       style="fill:#ecb22b;fill-opacity:1;fill-rule:nonzero;stroke:none;stroke-width:0.0352777;stroke-opacity:1"
       d="m 246.25568,154.99952 c -4.40266,-1.43158 -8.85825,-10.48739 -8.85825,-10.48739 0,0 8.9253,-4.7071 13.33148,-3.27623 1.65452,0.53763 3.048,1.47142 4.08165,2.62924 0.003,-0.17005 0.0106,-0.33867 0.0106,-0.50977 0,-4.79494 -1.61222,-9.21137 -4.318,-12.74551 -0.15172,1.54517 -0.7338,3.12245 -1.75684,4.53109 -2.71991,3.7465 -12.71058,5.18618 -12.71058,5.18618 0,0 -1.71805,-9.94587 1.00542,-13.692 1.02303,-1.41076 2.34595,-2.45041 3.77118,-3.0734 -2.18368,-0.76941 -4.52966,-1.19274 -6.97793,-1.19274 -2.44475,0 -4.79251,0.42333 -6.97548,1.19274 1.42415,0.62299 2.74743,1.66264 3.77225,3.0734 2.72343,3.74613 1.00541,13.692 1.00541,13.692 0,0 -9.99138,-1.43968 -12.71341,-5.18618 -1.02304,-1.40864 -1.60266,-2.98592 -1.75647,-4.53109 -2.70615,3.53414 -4.31731,7.95057 -4.31731,12.74551 0,0.1711 0.008,0.33972 0.0127,0.50977 1.03225,-1.15782 2.42713,-2.09161 4.08094,-2.62924 4.40409,-1.43087 13.33182,3.27623 13.33182,3.27623 0,0 -4.45593,9.05581 -8.85965,10.48739 -1.65664,0.53763 -3.33621,0.60148 -4.85352,0.26988 2.68571,3.88725 6.6488,6.82201 11.28324,8.19996 -0.78563,-1.34162 -1.24529,-2.95947 -1.24529,-4.70289 0,-4.63092 7.23477,-11.66741 7.23477,-11.66741 0,0 7.23545,7.03649 7.23545,11.66741 0,1.74342 -0.4586,3.36198 -1.24529,4.70289 4.6355,-1.37795 8.60071,-4.31271 11.28535,-8.19996 -1.51693,0.3316 -3.19616,0.26775 -4.85423,-0.26988" />
    <path
       id="path242"
       style="fill:#ecb22b;fill-opacity:1;fill-rule:nonzero;stroke:none;stroke-width:0.0352777;stroke-opacity:1"
       d="m 241.06985,143.35537 c 0,3.99626 -3.2385,7.23582 -7.23545,7.23582 -3.99487,0 -7.23443,-3.23956 -7.23443,-7.23582 0,-3.99627 3.23956,-7.23583 7.23443,-7.23583 3.99695,0 7.23545,3.23956 7.23545,7.23583" />
    <path
       id="path244"
       style="fill:#505256;fill-opacity:1;fill-rule:nonzero;stroke:none;stroke-width:0.0352777;stroke-opacity:1"
       d="m 237.86665,143.35537 c 0,2.22567 -1.80623,4.03013 -4.03225,4.03013 -2.22605,0 -4.02908,-1.80446 -4.02908,-4.03013 0,-2.22568 1.80303,-4.03014 4.02908,-4.03014 2.22602,0 4.03225,1.80446 4.03225,4.03014" />
  </g>
</svg>
