<?xml version="1.0" encoding="UTF-8" standalone="no"?>
<!-- Created with Inkscape (http://www.inkscape.org/) -->

<svg
   width="13.229159mm"
   height="10.331754mm"
   viewBox="0 0 13.229159 10.331754"
   version="1.1"
   id="svg5032"
   inkscape:version="1.2.1 (9c6d41e410, 2022-07-14)"
   sodipodi:docname="settings.svg"
   xmlns:inkscape="http://www.inkscape.org/namespaces/inkscape"
   xmlns:sodipodi="http://sodipodi.sourceforge.net/DTD/sodipodi-0.dtd"
   xmlns="http://www.w3.org/2000/svg"
   xmlns:svg="http://www.w3.org/2000/svg">
  <sodipodi:namedview
     id="namedview5034"
     pagecolor="#ffffff"
     bordercolor="#000000"
     borderopacity="0.25"
     inkscape:showpageshadow="2"
     inkscape:pageopacity="0.0"
     inkscape:pagecheckerboard="0"
     inkscape:deskcolor="#d1d1d1"
     inkscape:document-units="mm"
     showgrid="false"
     inkscape:zoom="20.845525"
     inkscape:cx="24.993374"
     inkscape:cy="19.524574"
     inkscape:window-width="1920"
     inkscape:window-height="1017"
     inkscape:window-x="-8"
     inkscape:window-y="-8"
     inkscape:window-maximized="1"
     inkscape:current-layer="layer1" />
  <defs
     id="defs5029" />
  <g
     inkscape:label="Layer 1"
     inkscape:groupmode="layer"
     id="layer1"
     transform="translate(37.295148,-37.521758)">
    <path
       id="path16"
       style="fill:#616e7d;fill-opacity:1;fill-rule:nonzero;stroke:none;stroke-width:0.00163952"
       d="m -33.252606,43.95016 c -1.315612,0 -2.385542,-1.070144 -2.385542,-2.385461 0,-1.315267 1.06993,-2.38546 2.385542,-2.38546 1.315235,0 2.385264,1.070193 2.385264,2.38546 0,1.315317 -1.070029,2.385461 -2.385264,2.385461 z m 3.84371,-1.084784 c 0.103503,-0.304606 0.170854,-0.624361 0.198447,-0.953837 l -0.657757,-0.318607 c 7.39e-4,-0.106618 -0.0031,-0.214039 -0.01271,-0.321935 -0.0027,-0.03731 -0.0077,-0.07393 -0.0119,-0.111044 l 0.618769,-0.391041 c -0.06435,-0.324804 -0.166657,-0.635082 -0.302687,-0.925112 l -0.730895,0.05304 c -0.07129,-0.126603 -0.150967,-0.248271 -0.237534,-0.363464 l 0.34015,-0.646985 c -0.214874,-0.244386 -0.458916,-0.462441 -0.725632,-0.649428 l -0.606014,0.410781 c -0.124144,-0.07317 -0.253173,-0.1389 -0.386925,-0.196447 l -0.02872,-0.730289 c -0.304524,-0.103453 -0.624524,-0.170919 -0.953558,-0.19925 l -0.318754,0.658347 c -0.10652,-9.35e-4 -0.213367,0.0032 -0.321788,0.01251 -0.03759,0.0033 -0.07435,0.008 -0.111126,0.0124 l -0.39045,-0.619458 c -0.325214,0.06496 -0.635525,0.167297 -0.925867,0.303097 l 0.05324,0.73083 c -0.126456,0.07153 -0.248255,0.150868 -0.363152,0.237795 l -0.647444,-0.340395 c -0.244829,0.215317 -0.462884,0.459113 -0.649035,0.726222 l 0.411141,0.60567 c -0.07361,0.124275 -0.1399,0.253223 -0.196955,0.386564 l -0.730649,0.02869 c -0.103421,0.304605 -0.17046,0.624015 -0.198447,0.953935 l 0.658117,0.318557 c -7.05e-4,0.106716 0.0028,0.21399 0.01205,0.321984 0.0033,0.03732 0.008,0.07378 0.01295,0.110979 l -0.619458,0.390746 c 0.06514,0.324869 0.166985,0.635147 0.302983,0.925227 l 0.730583,-0.05294 c 0.07165,0.126505 0.150983,0.247665 0.237599,0.363267 l -0.340298,0.646788 c 0.214924,0.245239 0.459425,0.46313 0.726026,0.649576 l 0.605719,-0.410846 c 0.124472,0.07388 0.253616,0.139818 0.386925,0.196856 l 0.02877,0.730453 c 0.304523,0.103191 0.623622,0.170805 0.953098,0.198644 l 0.319493,-0.658101 c 0.106191,6.37e-4 0.213841,-0.003 0.321902,-0.01226 0.0371,-0.003 0.07386,-0.0081 0.110274,-0.0128 l 0.390745,0.619965 c 0.325657,-0.06509 0.635541,-0.167049 0.926014,-0.302834 l -0.05283,-0.731092 c 0.125947,-0.07198 0.24737,-0.151114 0.363152,-0.237681 l 0.647051,0.340232 c 0.244386,-0.215317 0.462376,-0.458965 0.648969,-0.725976 l -0.410387,-0.605719 c 0.07289,-0.124472 0.138736,-0.253617 0.19661,-0.387106 l 0.730191,-0.02849" />
    <path
       id="path18"
       style="fill:#616e7d;fill-opacity:1;fill-rule:nonzero;stroke:none;stroke-width:0.00163952"
       d="m -31.585777,41.419127 c 0.08007,0.921161 -0.600997,1.732721 -1.521617,1.812647 -0.920587,0.08057 -1.732393,-0.601357 -1.812827,-1.521715 -0.07966,-0.920702 0.601472,-1.732393 1.52201,-1.812319 0.920997,-0.08044 1.732802,0.601144 1.812434,1.521387 z m -3.881911,0.145572 c 0,1.221258 0.993349,2.214984 2.215082,2.214984 1.221405,0 2.214738,-0.993726 2.214738,-2.214984 0,-1.221356 -0.993333,-2.215131 -2.214738,-2.215131 -1.221733,0 -2.215082,0.993775 -2.215082,2.215131" />
    <path
       id="path20"
       style="fill:#616e7d;fill-opacity:1;fill-rule:nonzero;stroke:none;stroke-width:0.00163952"
       d="m -26.131458,44.166625 c 0.32564,0.550582 0.143375,1.261131 -0.407223,1.586886 -0.557795,0.329657 -1.278411,0.138408 -1.598706,-0.427913 -0.300343,-0.531892 -0.120259,-1.232227 0.399238,-1.553801 0.553221,-0.342527 1.276919,-0.161738 1.606691,0.394828 z m -2.898153,0.581437 c -0.02187,1.046682 0.811855,1.916084 1.858373,1.937955 1.046666,0.02202 1.915969,-0.811854 1.937857,-1.858274 0.02213,-1.046617 -0.811462,-1.916019 -1.858521,-1.937955 -1.046633,-0.02192 -1.91592,0.811658 -1.937709,1.858274" />
    <path
       id="path22"
       style="fill:#616e7d;fill-opacity:1;fill-rule:nonzero;stroke:none;stroke-width:0.00163952"
       d="m -27.173074,46.768173 c -1.091818,-0.02282 -1.961564,-0.929834 -1.938545,-2.021849 0.02258,-1.091818 0.92944,-1.961613 2.021652,-1.938692 1.091867,0.02282 1.961416,0.929834 1.938889,2.021849 -0.02302,1.091916 -0.929735,1.961711 -2.021996,1.938692 z m 3.092386,-1.679321 c 0.02148,-0.220876 0.01959,-0.443391 -0.0068,-0.666053 l -0.516513,-0.123521 c -0.02713,-0.135391 -0.0655,-0.270438 -0.113815,-0.402763 l 0.378499,-0.373465 c -0.0455,-0.100469 -0.09685,-0.199545 -0.154295,-0.296244 -0.05681,-0.09635 -0.118783,-0.188577 -0.185102,-0.277028 l -0.50956,0.152245 c -0.09263,-0.106847 -0.192299,-0.204939 -0.298785,-0.293408 L -25.346,42.296431 c -0.182379,-0.130276 -0.376662,-0.239418 -0.58042,-0.326837 l -0.365891,0.386975 c -0.131817,-0.04566 -0.267109,-0.08039 -0.404189,-0.104241 l -0.135244,-0.515414 c -0.220318,-0.02135 -0.443226,-0.01897 -0.664692,0.0082 l -0.124586,0.516266 c -0.135571,0.02628 -0.269635,0.06448 -0.401862,0.113553 l -0.373825,-0.378187 c -0.09962,0.04504 -0.199578,0.09575 -0.296129,0.153492 -0.09658,0.05691 -0.188872,0.119077 -0.277045,0.184609 l 0.15172,0.510462 c -0.10647,0.09276 -0.204595,0.19225 -0.293112,0.298507 l -0.512184,-0.140588 c -0.130588,0.181723 -0.239435,0.376153 -0.326804,0.57942 l 0.38658,0.366235 c -0.04559,0.131965 -0.07929,0.267257 -0.103453,0.404337 l -0.514873,0.135129 c -0.02177,0.2204 -0.01954,0.443357 0.0069,0.66556 l 0.517202,0.123046 c 0.02644,0.136129 0.0643,0.270438 0.112634,0.403402 l -0.378154,0.373318 c 0.04525,0.100568 0.09609,0.199152 0.153606,0.295342 0.05745,0.09704 0.11916,0.189675 0.185052,0.277586 l 0.51025,-0.151868 c 0.09239,0.10647 0.192807,0.204497 0.298523,0.292866 l -0.140294,0.512775 c 0.182068,0.130046 0.375859,0.239697 0.578913,0.325968 l 0.366693,-0.386286 c 0.132211,0.04599 0.266209,0.08027 0.404534,0.103748 l 0.134801,0.515316 c 0.219974,0.02087 0.443325,0.01949 0.665496,-0.0071 l 0.123028,-0.516955 c 0.135933,-0.02623 0.270389,-0.0645 0.4026,-0.113455 l 0.375088,0.378384 c 0.0996,-0.04479 0.198397,-0.09614 0.294981,-0.153409 0.09685,-0.05714 0.18843,-0.119111 0.276897,-0.185495 l -0.151671,-0.509561 c 0.106568,-0.09258 0.204644,-0.192692 0.293063,-0.298621 l 0.512578,0.140457 c 0.130292,-0.182035 0.239877,-0.376416 0.326116,-0.579617 l -0.386581,-0.366678 c 0.04525,-0.131095 0.08043,-0.266027 0.104191,-0.403698 l 0.514873,-0.134554" />
    <path
       id="path24"
       style="fill:#aad4c8;fill-opacity:1;fill-rule:nonzero;stroke:none;stroke-width:0.00163952"
       d="m -31.037868,41.564699 c 0,1.221258 -0.993333,2.214984 -2.214738,2.214984 -1.221733,0 -2.215082,-0.993726 -2.215082,-2.214984 0,-1.221356 0.993349,-2.215131 2.215082,-2.215131 1.221405,0 2.214738,0.993775 2.214738,2.215131 z m -4.60028,0 c 0,1.315317 1.06993,2.385461 2.385542,2.385461 1.315235,0 2.385264,-1.070144 2.385264,-2.385461 0,-1.315267 -1.070029,-2.38546 -2.385264,-2.38546 -1.315612,0 -2.385542,1.070193 -2.385542,2.38546" />
    <path
       id="path26"
       style="fill:#82bfab;fill-opacity:1;fill-rule:nonzero;stroke:none;stroke-width:0.00163952"
       d="m -25.233381,44.827743 c -0.02189,1.04642 -0.891191,1.880293 -1.937857,1.858274 -1.046518,-0.02187 -1.880244,-0.891273 -1.858373,-1.937955 0.02179,-1.046616 0.891076,-1.880194 1.937709,-1.858274 1.047059,0.02194 1.880654,0.891338 1.858521,1.937955 z m -3.878238,-0.08142 c -0.02302,1.092015 0.846727,1.999027 1.938545,2.021849 1.092261,0.02302 1.998977,-0.846776 2.021996,-1.938692 0.02253,-1.092015 -0.847022,-1.999027 -1.938889,-2.021849 -1.092212,-0.02292 -1.999076,0.846874 -2.021652,1.938692" />
  </g>
</svg>
