<?xml version="1.0" encoding="UTF-8" standalone="no"?>
<!-- Created with Inkscape (http://www.inkscape.org/) -->

<svg
   width="33.878227mm"
   height="26.458332mm"
   viewBox="0 0 33.878226 26.458333"
   version="1.1"
   id="svg5032"
   inkscape:version="1.2.1 (9c6d41e410, 2022-07-14)"
   sodipodi:docname="settings.svg"
   xmlns:inkscape="http://www.inkscape.org/namespaces/inkscape"
   xmlns:sodipodi="http://sodipodi.sourceforge.net/DTD/sodipodi-0.dtd"
   xmlns="http://www.w3.org/2000/svg"
   xmlns:svg="http://www.w3.org/2000/svg">
  <sodipodi:namedview
     id="namedview5034"
     pagecolor="#ffffff"
     bordercolor="#000000"
     borderopacity="0.25"
     inkscape:showpageshadow="2"
     inkscape:pageopacity="0.0"
     inkscape:pagecheckerboard="true"
     inkscape:deskcolor="#d1d1d1"
     inkscape:document-units="px"
     showgrid="false"
     inkscape:zoom="8.1400004"
     inkscape:cx="64.004911"
     inkscape:cy="49.999998"
     inkscape:window-width="1920"
     inkscape:window-height="1017"
     inkscape:window-x="1352"
     inkscape:window-y="-8"
     inkscape:window-maximized="1"
     inkscape:current-layer="layer1" />
  <defs
     id="defs5029" />
  <g
     inkscape:label="Layer 1"
     inkscape:groupmode="layer"
     id="layer1"
     transform="translate(37.295146,-37.521758)">
    <path
       id="path16"
       style="fill:#616e7d;fill-opacity:1;fill-rule:nonzero;stroke:none;stroke-width:0.00419861"
       d="m -26.942702,53.984094 c -3.369118,0 -6.109076,-2.740505 -6.109076,-6.108868 0,-3.368235 2.739958,-6.108866 6.109076,-6.108866 3.368153,0 6.108364,2.740631 6.108364,6.108866 0,3.368363 -2.740211,6.108868 -6.108364,6.108868 z m 9.843262,-2.777997 c 0.265058,-0.780058 0.437536,-1.59891 0.508198,-2.442657 l -1.684434,-0.815913 c 0.0019,-0.273035 -0.0079,-0.548127 -0.03255,-0.824435 -0.0069,-0.09555 -0.01972,-0.189326 -0.03047,-0.28437 l 1.584591,-1.001407 c -0.164793,-0.831783 -0.426788,-1.626366 -0.775144,-2.369097 l -1.871731,0.135829 c -0.182565,-0.324215 -0.386608,-0.635791 -0.608295,-0.930786 l 0.871082,-1.656848 c -0.550266,-0.625842 -1.175227,-1.184254 -1.858253,-1.663104 l -1.551927,1.051959 c -0.317917,-0.187379 -0.648344,-0.355706 -0.990866,-0.503077 l -0.07355,-1.870179 c -0.779848,-0.26493 -1.599328,-0.437702 -2.441943,-0.510254 l -0.816289,1.685945 c -0.272785,-0.0024 -0.546406,0.0082 -0.824059,0.03204 -0.09626,0.0085 -0.190401,0.02049 -0.28458,0.03175 l -0.999894,-1.586355 c -0.832832,0.166355 -1.6275,0.428427 -2.37103,0.776194 l 0.136341,1.871564 c -0.323838,0.18318 -0.63575,0.386355 -0.929987,0.608964 l -1.658023,-0.871709 c -0.626976,0.5514 -1.185388,1.175731 -1.662098,1.859764 l 1.052881,1.551045 c -0.188506,0.318253 -0.358266,0.648472 -0.504377,0.989942 l -1.871101,0.07347 c -0.264848,0.780055 -0.436527,1.598024 -0.508198,2.442908 l 1.685356,0.815785 c -0.0018,0.273286 0.0072,0.548002 0.03086,0.824561 0.0085,0.09557 0.02049,0.188941 0.03316,0.284203 l -1.586354,1.000652 c 0.166815,0.831949 0.427628,1.626532 0.775901,2.369391 l 1.870932,-0.135573 c 0.183487,0.323964 0.386649,0.63424 0.608462,0.930282 l -0.871461,1.656343 c 0.550394,0.628027 1.17653,1.186018 1.859262,1.663483 l 1.551171,-1.052125 c 0.318757,0.189197 0.649479,0.358056 0.990867,0.504124 l 0.07368,1.870599 c 0.779845,0.264259 1.597018,0.43741 2.440765,0.508702 l 0.818182,-1.685314 c 0.271942,0.0016 0.54762,-0.0077 0.824351,-0.0314 0.09501,-0.0077 0.189146,-0.02074 0.282398,-0.03278 l 1.000649,1.587653 c 0.833967,-0.166687 1.627541,-0.427791 2.371406,-0.77552 l -0.135291,-1.872235 c 0.322535,-0.184332 0.633484,-0.386985 0.929987,-0.608672 l 1.657017,0.871292 c 0.625842,-0.5514 1.184088,-1.175352 1.661929,-1.859134 l -1.05095,-1.551171 c 0.186662,-0.318757 0.355286,-0.649481 0.503494,-0.99133 l 1.869928,-0.07296" />
    <path
       id="path18"
       style="fill:#616e7d;fill-opacity:1;fill-rule:nonzero;stroke:none;stroke-width:0.00419861"
       d="m -22.674161,47.502434 c 0.20505,2.358979 -1.539078,4.437283 -3.896671,4.641963 -2.357509,0.20633 -4.436443,-1.54 -4.642424,-3.896922 -0.203999,-2.357803 1.540295,-4.436443 3.897678,-4.641123 2.358558,-0.205997 4.43749,1.539454 4.641417,3.896082 z m -9.94109,0.372792 c 0,3.127489 2.543843,5.672298 5.672549,5.672298 3.127866,0 5.671668,-2.544809 5.671668,-5.672298 0,-3.127741 -2.543802,-5.672674 -5.671668,-5.672674 -3.128706,0 -5.672549,2.544933 -5.672549,5.672674" />
    <path
       id="path20"
       style="fill:#616e7d;fill-opacity:1;fill-rule:nonzero;stroke:none;stroke-width:0.00419861"
       d="m -8.7063298,54.538434 c 0.8339234,1.409972 0.3671655,3.229599 -1.0428473,4.063817 -1.4284439,0.844211 -3.2738509,0.354446 -4.0940869,-1.095832 -0.769141,-1.362109 -0.307968,-3.155579 1.022399,-3.97909 1.41673,-0.877169 3.2700302,-0.414191 4.1145352,1.011105 z m -7.4218082,1.488988 c -0.05601,2.680422 2.079059,4.906852 4.759061,4.962861 2.6803814,0.05639 4.906558,-2.079057 4.9626104,-4.758808 0.056672,-2.680256 -2.078053,-4.906686 -4.7594404,-4.962861 -2.680297,-0.05613 -4.906432,2.078554 -4.962231,4.758808" />
    <path
       id="path22"
       style="fill:#616e7d;fill-opacity:1;fill-rule:nonzero;stroke:none;stroke-width:0.00419861"
       d="m -11.373779,61.200674 c -2.796009,-0.05844 -5.02332,-2.381189 -4.964372,-5.177703 0.05783,-2.79601 2.38018,-5.023447 5.177199,-4.964749 2.7961354,0.05844 5.022942,2.381189 4.9652531,5.177703 -0.058951,2.796261 -2.3809354,5.023698 -5.1780801,4.964749 z m 7.9192155,-4.300532 c 0.055008,-0.565636 0.050167,-1.135469 -0.017414,-1.705678 l -1.3227254,-0.316322 c -0.069477,-0.34672 -0.1677373,-0.692558 -0.291466,-1.031426 l 0.9692887,-0.956397 C -4.2334,52.63303 -4.3649009,52.379309 -4.5120104,52.131675 -4.6574937,51.884934 -4.8161989,51.648752 -4.9860336,51.42224 l -1.3049196,0.389881 C -6.5281671,51.538499 -6.783407,51.287298 -7.0561043,51.06074 l 0.3612345,-1.31164 c -0.4670499,-0.33362 -0.9645844,-0.613119 -1.4863833,-0.836989 l -0.9370012,0.990995 c -0.3375669,-0.116929 -0.6840328,-0.205869 -1.0350777,-0.266948 l -0.346343,-1.319911 c -0.564207,-0.05467 -1.135046,-0.04858 -1.702193,0.021 l -0.31905,1.322093 c -0.34718,0.0673 -0.690501,0.165125 -1.029118,0.290795 l -0.957319,-0.96849 c -0.255115,0.115342 -0.511095,0.245204 -0.75835,0.393074 -0.247329,0.14574 -0.483677,0.304942 -0.709477,0.472761 l 0.388536,1.307229 c -0.272657,0.237547 -0.523943,0.492329 -0.750624,0.76444 l -1.311639,-0.360029 c -0.33442,0.46537 -0.613163,0.963281 -0.836904,1.483823 l 0.989983,0.937882 c -0.11675,0.337946 -0.203052,0.684412 -0.26493,1.035456 l -1.318526,0.346049 c -0.05575,0.564417 -0.05004,1.135382 0.01767,1.704416 l 1.32449,0.315106 c 0.06771,0.348609 0.164664,0.692558 0.288442,1.033062 l -0.968406,0.956021 c 0.11588,0.257542 0.246075,0.510003 0.393366,0.756334 0.147122,0.248507 0.305154,0.485734 0.473895,0.710863 l 1.306687,-0.388915 c 0.236599,0.272656 0.493755,0.523691 0.76448,0.749993 l -0.359275,1.313153 c 0.466253,0.333032 0.962528,0.613834 1.482524,0.834763 l 0.939055,-0.98923 c 0.338576,0.117775 0.681728,0.205562 1.035961,0.265686 l 0.345208,1.31966 c 0.563326,0.05344 1.1353,0.04991 1.704253,-0.01818 l 0.315059,-1.323858 c 0.3481075,-0.06717 0.6924326,-0.165176 1.0310085,-0.290544 l 0.9605536,0.968994 c 0.2550631,-0.114701 0.5080699,-0.246202 0.7554095,-0.392861 0.2480208,-0.146328 0.4825458,-0.305028 0.7090987,-0.475029 l -0.3884105,-1.304923 c 0.2729074,-0.237085 0.5240678,-0.49346 0.7504978,-0.764731 l 1.3126483,0.359693 c 0.3336616,-0.466169 0.6142951,-0.963954 0.8351425,-1.484327 L -5.0399144,58.27846 c 0.1158796,-0.335718 0.2059712,-0.681262 0.2668202,-1.033821 l 1.3185255,-0.344576" />
    <path
       id="path24"
       style="fill:#aad4c8;fill-opacity:1;fill-rule:nonzero;stroke:none;stroke-width:0.00419861"
       d="m -21.271034,47.875226 c 0,3.127489 -2.543802,5.672298 -5.671668,5.672298 -3.128706,0 -5.672549,-2.544809 -5.672549,-5.672298 0,-3.127741 2.543843,-5.672674 5.672549,-5.672674 3.127866,0 5.671668,2.544933 5.671668,5.672674 z m -11.780744,0 c 0,3.368363 2.739958,6.108868 6.109076,6.108868 3.368153,0 6.108364,-2.740505 6.108364,-6.108868 0,-3.368235 -2.740211,-6.108866 -6.108364,-6.108866 -3.369118,0 -6.109076,2.740631 -6.109076,6.108866" />
    <path
       id="path26"
       style="fill:#82bfab;fill-opacity:1;fill-rule:nonzero;stroke:none;stroke-width:0.00419861"
       d="m -6.4064666,56.231475 c -0.056058,2.679751 -2.282229,4.815196 -4.9626104,4.758808 -2.680002,-0.05601 -4.81507,-2.282439 -4.759061,-4.962861 0.0558,-2.680254 2.281934,-4.814943 4.962231,-4.758808 2.6813874,0.05618 4.8161203,2.282605 4.7594404,4.962861 z m -9.9316844,-0.208507 c -0.05895,2.796514 2.168363,5.119259 4.964372,5.177703 2.7971447,0.05895 5.1191313,-2.168487 5.1780801,-4.964748 0.057696,-2.796514 -2.1691177,-5.119259 -4.9652531,-5.177703 -2.797019,-0.0587 -5.119384,2.168738 -5.177199,4.964748" />
  </g>
</svg>
