<?xml version="1.0" encoding="UTF-8" standalone="no"?>
<!-- Uploaded to: SVG Repo, www.svgrepo.com, Generator: SVG Repo Mixer Tools -->

<svg
   height="24.000002"
   width="24"
   version="1.1"
   id="Layer_1"
   viewBox="0 0 15.36 15.360001"
   xml:space="preserve"
   sodipodi:docname="accounts.svg"
   inkscape:version="1.2.1 (9c6d41e410, 2022-07-14)"
   xmlns:inkscape="http://www.inkscape.org/namespaces/inkscape"
   xmlns:sodipodi="http://sodipodi.sourceforge.net/DTD/sodipodi-0.dtd"
   xmlns="http://www.w3.org/2000/svg"
   xmlns:svg="http://www.w3.org/2000/svg"><defs
   id="defs535" /><sodipodi:namedview
   id="namedview533"
   pagecolor="#ffffff"
   bordercolor="#000000"
   borderopacity="0.25"
   inkscape:showpageshadow="2"
   inkscape:pageopacity="0.0"
   inkscape:pagecheckerboard="true"
   inkscape:deskcolor="#d1d1d1"
   showgrid="false"
   inkscape:zoom="33.916664"
   inkscape:cx="12.000001"
   inkscape:cy="12.000001"
   inkscape:window-width="1920"
   inkscape:window-height="1017"
   inkscape:window-x="-8"
   inkscape:window-y="-8"
   inkscape:window-maximized="1"
   inkscape:current-layer="Layer_1" />





<g
   id="g660"
   transform="matrix(0.03701294,0,0,0.03,-1.7953127,1.2573382e-6)"><path
     style="fill:#fff6b6"
     d="m 455.41,245.737 c 0,14 -1.26,27.97 -3.764,41.744 l -32.915,181.032 c -3.727,20.502 -21.583,35.403 -42.421,35.403 h -7.132 -150.905 c -11.906,0 -21.558,-9.651 -21.558,-21.558 V 471.58 377.263 191.326 113.179 97.01 30.158 c 0,-11.69 9.09,-21.645 20.772,-22.06 12.264,-0.437 22.344,9.377 22.344,21.544 0,-11.906 9.651,-21.558 21.558,-21.558 11.906,0 21.558,9.651 21.558,21.558 0,-11.906 9.651,-21.558 21.558,-21.558 11.906,0 21.558,9.651 21.558,21.558 0,-12.167 10.079,-21.98 22.344,-21.544 11.682,0.415 20.772,10.372 20.772,22.06 v 161.168 54.411 c 0,-11.69 9.09,-21.645 20.772,-22.06 12.264,-0.437 22.344,9.377 22.344,21.544 0,-12.543 10.712,-22.584 23.487,-21.474 11.212,0.974 19.628,10.736 19.628,21.99 z"
     id="path520" /><path
     style="fill:#ffc248"
     d="m 229.052,244.224 v 205.797 c 0,11.906 -9.651,21.558 -21.558,21.558 H 78.147 c -11.906,0 -21.558,-9.651 -21.558,-21.558 V 244.224 c 0,-6.216 2.684,-12.131 7.362,-16.224 l 64.674,-56.589 c 8.128,-7.112 20.264,-7.112 28.392,0 L 221.691,228 c 4.677,4.094 7.361,10.007 7.361,16.224 z"
     id="path522" /><path
     style="fill:#ffa233"
     d="m 121.263,256 c 0,-11.906 9.651,-21.558 21.558,-21.558 11.907,0 21.558,9.651 21.558,21.558 0,11.906 -9.651,21.558 -21.558,21.558 -11.907,0 -21.558,-9.652 -21.558,-21.558 z"
     id="path524" /><path
     style="fill:#f4da84"
     d="m 455.41,245.737 v 0 c 0,13.999 -1.26,27.97 -3.764,41.744 l -32.915,181.032 c -3.727,20.502 -21.583,35.403 -42.421,35.403 h -7.132 V 266.78 245.738 c 0,-11.69 9.09,-21.645 20.772,-22.06 12.264,-0.437 22.344,9.377 22.344,21.544 0,-12.543 10.712,-22.584 23.487,-21.474 11.213,0.973 19.629,10.735 19.629,21.989 z"
     id="path526" /><path
     style="fill:#f4c064"
     d="m 369.179,245.737 v 21.042 237.137 h 7.132 c 4.748,0 9.333,-0.791 13.64,-2.229 v -278.01 c -11.682,0.415 -20.772,10.371 -20.772,22.06 z"
     id="path528" /><path
     d="m 194.021,353.01 c 0,4.465 -3.62,8.084 -8.084,8.084 H 99.705 c -4.465,0 -8.084,-3.62 -8.084,-8.084 0,-4.464 3.62,-8.084 8.084,-8.084 h 86.232 c 4.464,0 8.084,3.619 8.084,8.084 z m 132.042,88.926 h -53.895 c -4.465,0 -8.084,3.62 -8.084,8.084 0,4.464 3.62,8.084 8.084,8.084 h 53.895 c 4.465,0 8.084,-3.62 8.084,-8.084 0,-4.464 -3.619,-8.084 -8.084,-8.084 z M 463.495,245.738 c 0,14.447 -1.311,28.978 -3.894,43.189 L 426.686,469.958 C 422.256,494.319 401.071,512 376.312,512 H 218.273 c -16.345,0 -29.642,-13.297 -29.642,-29.642 v -2.695 H 78.147 c -16.345,0 -29.642,-13.297 -29.642,-29.642 V 244.225 c 0,-8.548 3.69,-16.678 10.123,-22.307 l 64.674,-56.589 c 3.392,-2.969 7.312,-5.032 11.435,-6.19 v -27.096 c 0,-19.316 15.716,-35.032 35.032,-35.032 h 18.863 V 30.159 c 0,-16.058 12.816,-29.58 28.569,-30.139 8.132,-0.294 15.816,2.655 21.656,8.291 0.337,0.326 0.666,0.658 0.985,0.996 C 245.25,3.58 252.91,0 261.39,0 269.876,0 277.539,3.584 282.948,9.317 288.357,3.584 296.02,0 304.506,0 c 8.48,0 16.14,3.58 21.548,9.307 0.319,-0.338 0.648,-0.67 0.985,-0.996 5.84,-5.636 13.545,-8.578 21.656,-8.291 15.752,0.559 28.569,14.081 28.569,30.139 v 188.768 c 3.752,-1.983 7.96,-3.171 12.4,-3.33 8.129,-0.295 15.816,2.655 21.656,8.291 0.334,0.322 0.66,0.651 0.977,0.986 0.489,-0.52 0.999,-1.023 1.528,-1.508 6.106,-5.599 14.365,-8.398 22.657,-7.675 15.147,1.319 27.013,14.517 27.013,30.047 z m -328.758,-0.511 c -3.271,2.461 -5.389,6.374 -5.389,10.772 0,7.43 6.044,13.474 13.474,13.474 7.43,0 13.474,-6.044 13.474,-13.474 0,-4.399 -2.118,-8.312 -5.389,-10.772 -0.003,4.461 -3.622,8.078 -8.084,8.078 -4.462,0 -8.083,-3.616 -8.086,-8.078 z m 72.758,218.267 c 7.43,0 13.474,-6.044 13.474,-13.474 V 244.225 c 0,-3.885 -1.677,-7.581 -4.602,-10.14 v 0 l -64.674,-56.589 c -0.255,-0.224 -0.518,-0.438 -0.788,-0.639 v 50.622 c 12.428,3.527 21.558,14.977 21.558,28.521 0,16.345 -13.297,29.642 -29.642,29.642 -16.345,0 -29.642,-13.297 -29.642,-29.642 0,-13.544 9.13,-24.994 21.558,-28.521 v -50.622 c -0.269,0.202 -0.531,0.414 -0.788,0.638 l -64.674,56.589 c -2.924,2.559 -4.602,6.254 -4.602,10.14 v 205.797 c 0,7.43 6.044,13.474 13.474,13.474 H 207.495 Z M 447.326,245.738 c 0,-7.218 -5.379,-13.34 -12.244,-13.937 -3.848,-0.33 -7.515,0.903 -10.331,3.485 -2.82,2.585 -4.372,6.114 -4.372,9.935 0,4.465 -3.62,8.084 -8.084,8.084 -4.465,0 -8.084,-3.62 -8.084,-8.084 0,-3.69 -1.463,-7.134 -4.119,-9.697 -2.654,-2.561 -6.144,-3.899 -9.854,-3.768 -7.155,0.255 -12.976,6.527 -12.976,13.982 v 225.84 c 0,4.465 -3.62,8.084 -8.084,8.084 -4.465,0 -8.084,-3.62 -8.084,-8.084 V 30.159 c 0,-7.455 -5.821,-13.727 -12.975,-13.981 -3.691,-0.122 -7.199,1.207 -9.854,3.768 -2.656,2.563 -4.119,6.007 -4.119,9.697 0,4.465 -3.62,8.084 -8.084,8.084 -4.465,0 -8.084,-3.62 -8.084,-8.084 0,-7.43 -6.044,-13.474 -13.474,-13.474 -7.43,0 -13.474,6.044 -13.474,13.474 0,4.465 -3.62,8.084 -8.084,8.084 -4.465,0 -8.084,-3.62 -8.084,-8.084 0,-7.43 -6.044,-13.474 -13.474,-13.474 -7.43,0 -13.474,6.044 -13.474,13.474 0,4.465 -3.62,8.084 -8.084,8.084 -4.465,0 -8.084,-3.62 -8.084,-8.084 0,-3.69 -1.463,-7.134 -4.119,-9.697 -2.654,-2.56 -6.149,-3.888 -9.854,-3.768 -7.154,0.254 -12.975,6.527 -12.975,13.981 v 139.609 c 0,4.465 -3.62,8.084 -8.084,8.084 -4.465,0 -8.084,-3.62 -8.084,-8.084 v -56.589 h -18.863 c -10.401,0 -18.863,8.463 -18.863,18.863 v 27.094 c 4.124,1.159 8.042,3.222 11.435,6.191 l 64.674,56.589 c 6.433,5.629 10.123,13.759 10.123,22.307 V 450.02 c 0,16.345 -13.297,29.642 -29.642,29.642 H 204.8 v 2.695 c 0,7.43 6.044,13.474 13.474,13.474 h 158.038 c 16.94,0 31.436,-12.097 34.467,-28.765 l 32.915,-181.031 c 2.41,-13.26 3.632,-26.817 3.632,-40.297 z M 164.379,377.263 h -43.116 c -4.465,0 -8.084,3.62 -8.084,8.084 0,4.464 3.62,8.084 8.084,8.084 h 43.116 c 4.465,0 8.084,-3.62 8.084,-8.084 0,-4.464 -3.62,-8.084 -8.084,-8.084 z M 326.063,409.6 h -53.895 c -4.465,0 -8.084,3.62 -8.084,8.084 0,4.465 3.62,8.084 8.084,8.084 h 53.895 c 4.465,0 8.084,-3.62 8.084,-8.084 0,-4.465 -3.619,-8.084 -8.084,-8.084 z m 0,-172.464 h -53.895 c -4.465,0 -8.084,3.62 -8.084,8.084 0,4.465 3.62,8.084 8.084,8.084 h 53.895 c 4.465,0 8.084,-3.62 8.084,-8.084 0,-4.464 -3.619,-8.084 -8.084,-8.084 z m 0,-75.452 h -86.232 c -4.465,0 -8.084,3.62 -8.084,8.084 0,4.465 3.62,8.084 8.084,8.084 h 86.232 c 4.465,0 8.084,-3.62 8.084,-8.084 0,-4.465 -3.619,-8.084 -8.084,-8.084 z m 0,-32.337 h -86.232 c -4.465,0 -8.084,3.62 -8.084,8.084 0,4.465 3.62,8.084 8.084,8.084 h 86.232 c 4.465,0 8.084,-3.62 8.084,-8.084 0,-4.464 -3.619,-8.084 -8.084,-8.084 z m 0,226.358 h -53.895 c -4.465,0 -8.084,3.62 -8.084,8.084 0,4.465 3.62,8.084 8.084,8.084 h 53.895 c 4.465,0 8.084,-3.62 8.084,-8.084 0,-4.465 -3.619,-8.084 -8.084,-8.084 z m 0,-280.252 h -86.232 c -4.465,0 -8.084,3.62 -8.084,8.084 0,4.464 3.62,8.084 8.084,8.084 h 86.232 c 4.465,0 8.084,-3.62 8.084,-8.084 0,-4.464 -3.619,-8.084 -8.084,-8.084 z m 0,247.915 h -53.895 c -4.465,0 -8.084,3.62 -8.084,8.084 0,4.464 3.62,8.084 8.084,8.084 h 53.895 c 4.465,0 8.084,-3.62 8.084,-8.084 0,-4.464 -3.619,-8.084 -8.084,-8.084 z m 0,-53.895 h -53.895 c -4.465,0 -8.084,3.62 -8.084,8.084 0,4.465 3.62,8.084 8.084,8.084 h 53.895 c 4.465,0 8.084,-3.62 8.084,-8.084 0,-4.464 -3.619,-8.084 -8.084,-8.084 z"
     id="path530" /></g>
</svg>
