<?xml version="1.0" encoding="UTF-8" standalone="no"?>
<!-- Generator: Adobe Illustrator 18.0.0, SVG Export Plug-In . SVG Version: 6.00 Build 0)  -->

<svg
   version="1.1"
   id="Capa_1"
   x="0px"
   y="0px"
   viewBox="0 0 24 24"
   xml:space="preserve"
   sodipodi:docname="account.svg"
   width="24"
   height="24"
   inkscape:version="1.2.1 (9c6d41e410, 2022-07-14)"
   xmlns:inkscape="http://www.inkscape.org/namespaces/inkscape"
   xmlns:sodipodi="http://sodipodi.sourceforge.net/DTD/sodipodi-0.dtd"
   xmlns="http://www.w3.org/2000/svg"
   xmlns:svg="http://www.w3.org/2000/svg"><defs
   id="defs2777">
		
		
	</defs><sodipodi:namedview
   id="namedview2775"
   pagecolor="#ffffff"
   bordercolor="#111111"
   borderopacity="1"
   inkscape:showpageshadow="0"
   inkscape:pageopacity="0"
   inkscape:pagecheckerboard="1"
   inkscape:deskcolor="#d1d1d1"
   showgrid="false"
   inkscape:zoom="33.916667"
   inkscape:cx="12"
   inkscape:cy="12"
   inkscape:window-width="1920"
   inkscape:window-height="1017"
   inkscape:window-x="-8"
   inkscape:window-y="-8"
   inkscape:window-maximized="1"
   inkscape:current-layer="g2740" />
<g
   id="g2742"
   transform="translate(-14,-1.644)">
	
	<g
   id="g2907"
   transform="matrix(0.53014949,0,0,0.42870923,6.5779071,0.93920203)"><g
     id="g2918"
     transform="matrix(1.0288693,0,0,1.0086665,-0.40417048,-0.01424774)"><path
       style="fill:#8697cb;stroke-width:1.02331"
       d="M 53.566,46.445028 44.014,41.443749 C 42.78,40.797646 42,39.476119 42,38.031026 v -3.924789 c 0.268,-0.319387 0.576,-0.730924 0.904,-1.216811 1.302,-1.924696 2.286,-4.043119 2.969,-6.266258 C 47.098,26.228385 48,25.04299 48,23.634547 v -4.188675 c 0,-0.921509 -0.391,-1.745631 -1,-2.321574 V 11.06852 c 0,0 1.187,-9.42452 -11,-9.42452 -12.188,0 -11,9.42452 -11,9.42452 v 6.055778 c -0.609,0.575943 -1,1.400065 -1,2.321574 v 4.188675 c 0,1.103717 0.554,2.074442 1.383,2.635725 0.999,4.557279 3.617,7.835965 3.617,7.835965 v 3.827402 c 0,1.395876 -0.728,2.680753 -1.899,3.348846 L 18.18,46.378009 C 15.603,47.851376 14,50.678732 14,53.75322 V 57.145 h 44 v -3.186535 c 0,-3.182346 -1.717,-6.090334 -4.434,-7.513437 z"
       id="path2720" /><g
       id="g2740"
       transform="matrix(1,0,0,1.0471689,-1.914,-3.1991563)">
		
		
		
			
		
		
		
			
		<g
   id="g2957"
   transform="translate(0.64375)"><polygon
     style="fill:#eddcc7"
     points="35.84,55.43 40.487,50.783 37.836,48.133 37.828,48.14 "
     id="polygon2726" /><path
     style="fill:#d75a4a"
     d="m 57.086,34.184 -1.247,-1.247 c -0.775,-0.775 -2.032,-0.775 -2.807,0 l -3.582,3.582 2.65,2.651 z"
     id="path2728" /><rect
     x="43.094002"
     y="35.438999"
     transform="matrix(0.7071,0.7071,-0.7071,0.7071,44.0369,-19.0122)"
     style="fill:#f29c21"
     width="3.7490001"
     height="16.424"
     id="rect2730" /><polygon
     style="fill:#d6c4b1"
     points="35.707,55.918 43.485,53.797 43.493,53.79 40.487,50.783 35.84,55.43 "
     id="polygon2732" /><path
     style="fill:#a34740"
     d="m 55.107,42.176 3.582,-3.582 c 0.775,-0.775 0.775,-2.032 0,-2.807 L 57.087,34.185 52.1,39.17 Z"
     id="path2734" /><rect
     x="45.671001"
     y="38.266998"
     transform="matrix(-0.7071,-0.7071,0.7071,-0.7071,48.7273,113.1428)"
     style="fill:#e18c25"
     width="4.2509999"
     height="16.424"
     id="rect2736" /><path
     style="fill:#5e5e5e"
     d="m 35,57.626 c -0.256,0 -0.512,-0.098 -0.707,-0.293 -0.391,-0.391 -0.391,-1.023 0,-1.414 L 36.5,53.712 c 0.391,-0.391 1.023,-0.391 1.414,0 0.391,0.391 0.391,1.023 0,1.414 l -2.207,2.207 C 35.512,57.528 35.256,57.626 35,57.626 Z"
     id="path2738" /></g>
	</g></g></g>
</g>
<g
   id="g2744"
   transform="translate(-14,-1.644)">
</g>
<g
   id="g2746"
   transform="translate(-14,-1.644)">
</g>
<g
   id="g2748"
   transform="translate(-14,-1.644)">
</g>
<g
   id="g2750"
   transform="translate(-14,-1.644)">
</g>
<g
   id="g2752"
   transform="translate(-14,-1.644)">
</g>
<g
   id="g2754"
   transform="translate(-14,-1.644)">
</g>
<g
   id="g2756"
   transform="translate(-14,-1.644)">
</g>
<g
   id="g2758"
   transform="translate(-14,-1.644)">
</g>
<g
   id="g2760"
   transform="translate(-14,-1.644)">
</g>
<g
   id="g2762"
   transform="translate(-14,-1.644)">
</g>
<g
   id="g2764"
   transform="translate(-14,-1.644)">
</g>
<g
   id="g2766"
   transform="translate(-14,-1.644)">
</g>
<g
   id="g2768"
   transform="translate(-14,-1.644)">
</g>
<g
   id="g2770"
   transform="translate(-14,-1.644)">
</g>
<g
   id="g2772"
   transform="translate(-14,-1.644)">
</g>
</svg>
