<?xml version="1.0" encoding="UTF-8" standalone="no"?>
<!-- Generator: Adobe Illustrator 16.0.0, SVG Export Plug-In . SVG Version: 6.00 Build 0)  -->

<svg
   version="1.1"
   x="0px"
   y="0px"
   width="24"
   height="24"
   viewBox="0 0 24 23.999999"
   xml:space="preserve"
   id="svg32"
   sodipodi:docname="coachRoutes.svg"
   inkscape:version="1.2.1 (9c6d41e410, 2022-07-14)"
   xmlns:inkscape="http://www.inkscape.org/namespaces/inkscape"
   xmlns:sodipodi="http://sodipodi.sourceforge.net/DTD/sodipodi-0.dtd"
   xmlns="http://www.w3.org/2000/svg"
   xmlns:svg="http://www.w3.org/2000/svg"><defs
   id="defs36"><inkscape:perspective
   sodipodi:type="inkscape:persp3d"
   inkscape:vp_x="0 : 11.999999 : 1"
   inkscape:vp_y="0 : 1000 : 0"
   inkscape:vp_z="24 : 11.999999 : 1"
   inkscape:persp3d-origin="12 : 7.9999997 : 1"
   id="perspective764" />
			
			
			
			
			
			
			
			
			
			
			
			
		</defs><sodipodi:namedview
   id="namedview34"
   pagecolor="#ffffff"
   bordercolor="#000000"
   borderopacity="0.25"
   inkscape:showpageshadow="2"
   inkscape:pageopacity="0.0"
   inkscape:pagecheckerboard="true"
   inkscape:deskcolor="#d1d1d1"
   showgrid="false"
   inkscape:zoom="25.437103"
   inkscape:cx="15.017433"
   inkscape:cy="12.619362"
   inkscape:window-width="1920"
   inkscape:window-height="1017"
   inkscape:window-x="1352"
   inkscape:window-y="-8"
   inkscape:window-maximized="1"
   inkscape:current-layer="g1981" />
<g
   id="_x32_16_x2C__map_x2C__route_x2C__target_x2C__destination_x2C__position"
   transform="translate(-36.667,-21)">
	<g
   id="g28">
		
	<g
   id="g2440"
   transform="matrix(0.79999997,0,0,0.84837213,7.333401,3.184185)"><g
     id="Layer_1-3"
     transform="matrix(0.84863572,0,0,0.80024855,28.180643,20.111038)">
</g><g
     id="g1981"
     transform="translate(9.9741802)"><g
       id="g460"
       transform="matrix(0.99469514,0,0,0.99894043,0.21492083,0.02225063)"><g
         id="_x31_612_x2C__Automobile_x2C__bus_x2C__transport_x2C__vehicle"
         transform="matrix(0.04921376,0,0,0.04640771,26.126972,25.592579)">
	<g
   id="g44">
		<path
   style="fill:#ffd24d"
   d="M 260,330 H 70 v 100 c 0,11.05 8.95,20 20,20 h 70 200 70 c 11.05,0 20,-8.95 20,-20 V 330 Z"
   id="path2-9" />
		<path
   style="fill:#3c3b3d"
   d="m 140,370 c 11.05,0 20,8.95 20,20 0,11.05 -8.95,20 -20,20 -11.05,0 -20,-8.95 -20,-20 0,-11.05 8.95,-20 20,-20 z"
   id="path4" />
		<path
   style="fill:#3c3b3d"
   d="m 380,370 c 11.05,0 20,8.95 20,20 0,11.05 -8.95,20 -20,20 -11.05,0 -20,-8.95 -20,-20 0,-11.05 8.95,-20 20,-20 z"
   id="path6" />
		<rect
   x="20"
   y="120"
   style="fill:#3c3b3d"
   width="50"
   height="90"
   id="rect8" />
		<rect
   x="450"
   y="120"
   style="fill:#3c3b3d"
   width="50"
   height="90"
   id="rect10" />
		<path
   style="fill:#3c3b3d"
   d="m 160,450 v 40 c 0,5.52 -4.48,10 -10,10 h -50 c -5.52,0 -10,-4.48 -10,-10 v -40 z"
   id="path12" />
		<path
   style="fill:#3c3b3d"
   d="m 430,450 v 40 c 0,5.52 -4.48,10 -10,10 h -50 c -5.52,0 -10,-4.48 -10,-10 v -40 z"
   id="path14" />
		<path
   style="fill:#ffd24d"
   d="M 450,40 V 90 H 260 70 V 40 C 70,28.95 78.95,20 90,20 h 340 c 11.05,0 20,8.95 20,20 z"
   id="path16-9" />
		<polygon
   style="fill:#b2dbd8"
   points="450,330 260,330 260,90 450,90 450,120 450,210 "
   id="polygon18" />
		<polygon
   style="fill:#d8f2f1"
   points="260,330 70,330 70,210 70,120 70,90 260,90 "
   id="polygon20" />
		<path
   d="m 150,510 h -50 c -11.028,0 -20,-8.972 -20,-20 v -40 c 0,-5.522 4.477,-10 10,-10 5.523,0 10,4.478 10,10 v 40 h 50 v -40 c 0,-5.522 4.477,-10 10,-10 5.523,0 10,4.478 10,10 v 40 c 0,11.028 -8.972,20 -20,20 z"
   id="path22" />
		<path
   d="m 420,510 h -50 c -11.028,0 -20,-8.972 -20,-20 v -40 c 0,-5.522 4.477,-10 10,-10 5.522,0 10,4.478 10,10 v 40 h 50 v -40 c 0,-5.522 4.477,-10 10,-10 5.522,0 10,4.478 10,10 v 40 c 0,11.028 -8.972,20 -20,20 z"
   id="path24" />
		<path
   d="M 430,460 H 90 C 73.458,460 60,446.542 60,430 V 330 c 0,-5.522 4.477,-10 10,-10 5.523,0 10,4.478 10,10 v 100 c 0,5.514 4.486,10 10,10 h 340 c 5.514,0 10,-4.486 10,-10 V 330 c 0,-5.522 4.477,-10 10,-10 5.522,0 10,4.478 10,10 v 100 c 0,16.542 -13.458,30 -30,30 z"
   id="path26" />
		<path
   d="m 450,100 c -5.523,0 -10,-4.477 -10,-10 V 40 c 0,-5.514 -4.486,-10 -10,-10 H 90 c -5.514,0 -10,4.486 -10,10 v 50 c 0,5.523 -4.477,10 -10,10 -5.523,0 -10,-4.477 -10,-10 V 40 C 60,23.458 73.458,10 90,10 h 340 c 16.542,0 30,13.458 30,30 v 50 c 0,5.523 -4.478,10 -10,10 z"
   id="path28" />
		<path
   d="m 70,130 c -5.523,0 -10,-4.477 -10,-10 V 90 c 0,-5.523 4.477,-10 10,-10 h 190 c 5.522,0 10,4.477 10,10 0,5.523 -4.478,10 -10,10 H 80 v 20 c 0,5.523 -4.477,10 -10,10 z"
   id="path30" />
		<path
   d="M 260,340 H 70 c -5.523,0 -10,-4.478 -10,-10 V 210 c 0,-5.523 4.477,-10 10,-10 5.523,0 10,4.477 10,10 v 110 h 180 c 5.522,0 10,4.478 10,10 0,5.522 -4.478,10 -10,10 z"
   id="path32" />
		<path
   d="M 450,340 H 260 c -5.523,0 -10,-4.478 -10,-10 V 90 c 0,-5.523 4.477,-10 10,-10 h 190 c 5.522,0 10,4.477 10,10 v 30 c 0,5.523 -4.478,10 -10,10 -5.523,0 -10,-4.477 -10,-10 V 100 H 270 V 320 H 440 V 210 c 0,-5.523 4.477,-10 10,-10 5.522,0 10,4.477 10,10 v 120 c 0,5.522 -4.478,10 -10,10 z"
   id="path34" />
		<path
   d="m 140,420 c -16.542,0 -30,-13.458 -30,-30 0,-16.542 13.458,-30 30,-30 16.542,0 30,13.458 30,30 0,16.542 -13.458,30 -30,30 z m 0,-40 c -5.514,0 -10,4.486 -10,10 0,5.514 4.486,10 10,10 5.514,0 10,-4.486 10,-10 0,-5.514 -4.486,-10 -10,-10 z"
   id="path36" />
		<path
   d="m 380,420 c -16.542,0 -30,-13.458 -30,-30 0,-16.542 13.458,-30 30,-30 16.542,0 30,13.458 30,30 0,16.542 -13.458,30 -30,30 z m 0,-40 c -5.514,0 -10,4.486 -10,10 0,5.514 4.486,10 10,10 5.514,0 10,-4.486 10,-10 0,-5.514 -4.486,-10 -10,-10 z"
   id="path38" />
		<path
   d="m 500,220 h -50 c -5.523,0 -10,-4.477 -10,-10 v -90 c 0,-5.523 4.477,-10 10,-10 h 50 c 5.522,0 10,4.477 10,10 v 90 c 0,5.523 -4.478,10 -10,10 z m -40,-20 h 30 v -70 h -30 z"
   id="path40" />
		<path
   d="M 70,220 H 20 c -5.523,0 -10,-4.477 -10,-10 v -90 c 0,-5.523 4.477,-10 10,-10 h 50 c 5.523,0 10,4.477 10,10 v 90 c 0,5.523 -4.477,10 -10,10 z M 30,200 H 60 V 130 H 30 Z"
   id="path42" />
	</g>
</g><g
         id="g5620"
         transform="translate(0.49140818)"><path
           style="fill:#ef727a;stroke-width:0.0662758"
           d="m 51.622917,21 c 2.186574,0 3.960537,1.744079 3.960537,3.898684 0,2.522368 -2.385536,3.378289 -3.960537,5.507894 C 50.048583,28.276973 47.666386,27.421052 47.666386,24.898684 47.666386,22.744079 49.436342,21 51.622917,21 Z m 1.173072,3.9 c 0,-0.636185 -0.526113,-1.15329 -1.171737,-1.15329 -0.645624,0 -1.170401,0.517105 -1.170401,1.15329 0,0.636184 0.524777,1.154605 1.170401,1.154605 0.645624,0 1.171737,-0.518421 1.171737,-1.154605 z"
           id="path2" /><g
           id="Arrow_Dotted_Right"
           transform="matrix(0.57341449,0,0,-0.54071977,42.449881,49.247534)"><path
             clip-rule="evenodd"
             d="m 23.406,23.067 c 0.366,0.147 -0.134,-0.056 0,0 z"
             fill="#121313"
             fill-rule="evenodd"
             id="path1198" /><path
             clip-rule="evenodd"
             d="m 16.693,31.69 7.029,-6.989 c 0.518,-0.494 0.344,-1.369 -0.315,-1.634 -0.134,-0.056 -0.276,-0.079 -0.419,-0.075 H 9.008 c -0.887,-0.024 -1.38,1.07 -0.742,1.702 l 6.999,6.996 c 0.385,0.382 1.042,0.382 1.428,0 z m -5.276,-6.714 h 9.118 l -4.556,4.595 z"
             fill="#121313"
             fill-rule="evenodd"
             id="path1200"
             style="fill:#8fd19e;stroke:#000000;stroke-width:0.217992;stroke-dasharray:none;stroke-opacity:1" /><path
             clip-rule="evenodd"
             d="m 18.976,18.976 c 0,-1.657 -1.343,-3 -3,-3 -1.657,0 -3,1.343 -3,3 0,1.657 1.343,3 3,3 1.657,0 3,-1.343 3,-3 z m -4,0 c 0,-0.552 0.448,-1 1,-1 0.552,0 1,0.448 1,1 0,0.552 -0.448,1 -1,1 -0.552,0 -1,-0.448 -1,-1 z"
             fill="#121313"
             fill-rule="evenodd"
             id="path1202"
             style="fill:#8fd19e;stroke:#000000;stroke-width:0.217992;stroke-dasharray:none;stroke-opacity:1" /><path
             clip-rule="evenodd"
             d="m 18.976,10.976 c 0,-1.657 -1.343,-3 -3,-3 -1.657,0 -3,1.343 -3,3 0,1.657 1.343,3 3,3 1.657,0 3,-1.343 3,-3 z m -4,0 c 0,-0.552 0.448,-1 1,-1 0.552,0 1,0.448 1,1 0,0.552 -0.448,1 -1,1 -0.552,0 -1,-0.448 -1,-1 z"
             fill="#121313"
             fill-rule="evenodd"
             id="path1204"
             style="fill:#8fd19e;stroke:#000000;stroke-width:0.217992;stroke-dasharray:none;stroke-opacity:1" /><path
             clip-rule="evenodd"
             d="m 18.976,2.976 c 0,-1.657 -1.343,-3 -3,-3 -1.657,0 -3,1.343 -3,3 0,1.657 1.343,3 3,3 1.657,0 3,-1.343 3,-3 z m -4,0 c 0,-0.552 0.448,-1 1,-1 0.552,0 1,0.448 1,1 0,0.552 -0.448,1 -1,1 -0.552,0 -1,-0.448 -1,-1 z"
             fill="#121313"
             fill-rule="evenodd"
             id="path1206"
             style="fill:#8fd19e;stroke:#000000;stroke-width:0.217992;stroke-dasharray:none;stroke-opacity:1" /></g></g></g><g
       id="g524"
       transform="matrix(0.99469514,0,0,0.99894043,0.21492083,0.02225063)"><g
         id="g506"
         transform="matrix(0.04921376,0,0,0.04640771,26.126972,25.592579)">
	<g
   id="g504">
		<path
   style="fill:#ffd24d"
   d="M 260,330 H 70 v 100 c 0,11.05 8.95,20 20,20 h 70 200 70 c 11.05,0 20,-8.95 20,-20 V 330 Z"
   id="path462" />
		<path
   style="fill:#3c3b3d"
   d="m 140,370 c 11.05,0 20,8.95 20,20 0,11.05 -8.95,20 -20,20 -11.05,0 -20,-8.95 -20,-20 0,-11.05 8.95,-20 20,-20 z"
   id="path464" />
		<path
   style="fill:#3c3b3d"
   d="m 380,370 c 11.05,0 20,8.95 20,20 0,11.05 -8.95,20 -20,20 -11.05,0 -20,-8.95 -20,-20 0,-11.05 8.95,-20 20,-20 z"
   id="path466" />
		<rect
   x="20"
   y="120"
   style="fill:#3c3b3d"
   width="50"
   height="90"
   id="rect468" />
		<rect
   x="450"
   y="120"
   style="fill:#3c3b3d"
   width="50"
   height="90"
   id="rect470" />
		<path
   style="fill:#3c3b3d"
   d="m 160,450 v 40 c 0,5.52 -4.48,10 -10,10 h -50 c -5.52,0 -10,-4.48 -10,-10 v -40 z"
   id="path472" />
		<path
   style="fill:#3c3b3d"
   d="m 430,450 v 40 c 0,5.52 -4.48,10 -10,10 h -50 c -5.52,0 -10,-4.48 -10,-10 v -40 z"
   id="path474" />
		<path
   style="fill:#ffd24d"
   d="M 450,40 V 90 H 260 70 V 40 C 70,28.95 78.95,20 90,20 h 340 c 11.05,0 20,8.95 20,20 z"
   id="path476" />
		<polygon
   style="fill:#b2dbd8"
   points="450,330 260,330 260,90 450,90 450,120 450,210 "
   id="polygon478" />
		<polygon
   style="fill:#d8f2f1"
   points="260,330 70,330 70,210 70,120 70,90 260,90 "
   id="polygon480" />
		<path
   d="m 150,510 h -50 c -11.028,0 -20,-8.972 -20,-20 v -40 c 0,-5.522 4.477,-10 10,-10 5.523,0 10,4.478 10,10 v 40 h 50 v -40 c 0,-5.522 4.477,-10 10,-10 5.523,0 10,4.478 10,10 v 40 c 0,11.028 -8.972,20 -20,20 z"
   id="path482" />
		<path
   d="m 420,510 h -50 c -11.028,0 -20,-8.972 -20,-20 v -40 c 0,-5.522 4.477,-10 10,-10 5.522,0 10,4.478 10,10 v 40 h 50 v -40 c 0,-5.522 4.477,-10 10,-10 5.522,0 10,4.478 10,10 v 40 c 0,11.028 -8.972,20 -20,20 z"
   id="path484" />
		<path
   d="M 430,460 H 90 C 73.458,460 60,446.542 60,430 V 330 c 0,-5.522 4.477,-10 10,-10 5.523,0 10,4.478 10,10 v 100 c 0,5.514 4.486,10 10,10 h 340 c 5.514,0 10,-4.486 10,-10 V 330 c 0,-5.522 4.477,-10 10,-10 5.522,0 10,4.478 10,10 v 100 c 0,16.542 -13.458,30 -30,30 z"
   id="path486" />
		<path
   d="m 450,100 c -5.523,0 -10,-4.477 -10,-10 V 40 c 0,-5.514 -4.486,-10 -10,-10 H 90 c -5.514,0 -10,4.486 -10,10 v 50 c 0,5.523 -4.477,10 -10,10 -5.523,0 -10,-4.477 -10,-10 V 40 C 60,23.458 73.458,10 90,10 h 340 c 16.542,0 30,13.458 30,30 v 50 c 0,5.523 -4.478,10 -10,10 z"
   id="path488" />
		<path
   d="m 70,130 c -5.523,0 -10,-4.477 -10,-10 V 90 c 0,-5.523 4.477,-10 10,-10 h 190 c 5.522,0 10,4.477 10,10 0,5.523 -4.478,10 -10,10 H 80 v 20 c 0,5.523 -4.477,10 -10,10 z"
   id="path490" />
		<path
   d="M 260,340 H 70 c -5.523,0 -10,-4.478 -10,-10 V 210 c 0,-5.523 4.477,-10 10,-10 5.523,0 10,4.477 10,10 v 110 h 180 c 5.522,0 10,4.478 10,10 0,5.522 -4.478,10 -10,10 z"
   id="path492" />
		<path
   d="M 450,340 H 260 c -5.523,0 -10,-4.478 -10,-10 V 90 c 0,-5.523 4.477,-10 10,-10 h 190 c 5.522,0 10,4.477 10,10 v 30 c 0,5.523 -4.478,10 -10,10 -5.523,0 -10,-4.477 -10,-10 V 100 H 270 V 320 H 440 V 210 c 0,-5.523 4.477,-10 10,-10 5.522,0 10,4.477 10,10 v 120 c 0,5.522 -4.478,10 -10,10 z"
   id="path494" />
		<path
   d="m 140,420 c -16.542,0 -30,-13.458 -30,-30 0,-16.542 13.458,-30 30,-30 16.542,0 30,13.458 30,30 0,16.542 -13.458,30 -30,30 z m 0,-40 c -5.514,0 -10,4.486 -10,10 0,5.514 4.486,10 10,10 5.514,0 10,-4.486 10,-10 0,-5.514 -4.486,-10 -10,-10 z"
   id="path496" />
		<path
   d="m 380,420 c -16.542,0 -30,-13.458 -30,-30 0,-16.542 13.458,-30 30,-30 16.542,0 30,13.458 30,30 0,16.542 -13.458,30 -30,30 z m 0,-40 c -5.514,0 -10,4.486 -10,10 0,5.514 4.486,10 10,10 5.514,0 10,-4.486 10,-10 0,-5.514 -4.486,-10 -10,-10 z"
   id="path498" />
		<path
   d="m 500,220 h -50 c -5.523,0 -10,-4.477 -10,-10 v -90 c 0,-5.523 4.477,-10 10,-10 h 50 c 5.522,0 10,4.477 10,10 v 90 c 0,5.523 -4.478,10 -10,10 z m -40,-20 h 30 v -70 h -30 z"
   id="path500" />
		<path
   d="M 70,220 H 20 c -5.523,0 -10,-4.477 -10,-10 v -90 c 0,-5.523 4.477,-10 10,-10 h 50 c 5.523,0 10,4.477 10,10 v 90 c 0,5.523 -4.477,10 -10,10 z M 30,200 H 60 V 130 H 30 Z"
   id="path502" />
	</g>
</g><g
         id="g522"
         transform="translate(0.49140818)"><path
           style="fill:#ef727a;stroke-width:0.0662758"
           d="m 51.622917,21 c 2.186574,0 3.960537,1.744079 3.960537,3.898684 0,2.522368 -2.385536,3.378289 -3.960537,5.507894 C 50.048583,28.276973 47.666386,27.421052 47.666386,24.898684 47.666386,22.744079 49.436342,21 51.622917,21 Z m 1.173072,3.9 c 0,-0.636185 -0.526113,-1.15329 -1.171737,-1.15329 -0.645624,0 -1.170401,0.517105 -1.170401,1.15329 0,0.636184 0.524777,1.154605 1.170401,1.154605 0.645624,0 1.171737,-0.518421 1.171737,-1.154605 z"
           id="path508" /><g
           id="g520"
           transform="matrix(0.57341449,0,0,-0.54071977,42.449881,49.247534)"><path
             clip-rule="evenodd"
             d="m 23.406,23.067 c 0.366,0.147 -0.134,-0.056 0,0 z"
             fill="#121313"
             fill-rule="evenodd"
             id="path510" /><path
             clip-rule="evenodd"
             d="m 16.693,31.69 7.029,-6.989 c 0.518,-0.494 0.344,-1.369 -0.315,-1.634 -0.134,-0.056 -0.276,-0.079 -0.419,-0.075 H 9.008 c -0.887,-0.024 -1.38,1.07 -0.742,1.702 l 6.999,6.996 c 0.385,0.382 1.042,0.382 1.428,0 z m -5.276,-6.714 h 9.118 l -4.556,4.595 z"
             fill="#121313"
             fill-rule="evenodd"
             id="path512"
             style="fill:#8fd19e;stroke:#000000;stroke-width:0.217992;stroke-dasharray:none;stroke-opacity:1" /><path
             clip-rule="evenodd"
             d="m 18.976,18.976 c 0,-1.657 -1.343,-3 -3,-3 -1.657,0 -3,1.343 -3,3 0,1.657 1.343,3 3,3 1.657,0 3,-1.343 3,-3 z m -4,0 c 0,-0.552 0.448,-1 1,-1 0.552,0 1,0.448 1,1 0,0.552 -0.448,1 -1,1 -0.552,0 -1,-0.448 -1,-1 z"
             fill="#121313"
             fill-rule="evenodd"
             id="path514"
             style="fill:#8fd19e;stroke:#000000;stroke-width:0.217992;stroke-dasharray:none;stroke-opacity:1" /><path
             clip-rule="evenodd"
             d="m 18.976,10.976 c 0,-1.657 -1.343,-3 -3,-3 -1.657,0 -3,1.343 -3,3 0,1.657 1.343,3 3,3 1.657,0 3,-1.343 3,-3 z m -4,0 c 0,-0.552 0.448,-1 1,-1 0.552,0 1,0.448 1,1 0,0.552 -0.448,1 -1,1 -0.552,0 -1,-0.448 -1,-1 z"
             fill="#121313"
             fill-rule="evenodd"
             id="path516"
             style="fill:#8fd19e;stroke:#000000;stroke-width:0.217992;stroke-dasharray:none;stroke-opacity:1" /><path
             clip-rule="evenodd"
             d="m 18.976,2.976 c 0,-1.657 -1.343,-3 -3,-3 -1.657,0 -3,1.343 -3,3 0,1.657 1.343,3 3,3 1.657,0 3,-1.343 3,-3 z m -4,0 c 0,-0.552 0.448,-1 1,-1 0.552,0 1,0.448 1,1 0,0.552 -0.448,1 -1,1 -0.552,0 -1,-0.448 -1,-1 z"
             fill="#121313"
             fill-rule="evenodd"
             id="path518"
             style="fill:#8fd19e;stroke:#000000;stroke-width:0.217992;stroke-dasharray:none;stroke-opacity:1" /></g></g></g></g><g
     id="g1209"
     transform="matrix(1.25,0,0,-1.178728,44.233682,54.671462)" /><g
     id="g1211"
     transform="matrix(1.25,0,0,-1.178728,44.233682,54.671462)" /><g
     id="g1213"
     transform="matrix(1.25,0,0,-1.178728,44.233682,54.671462)" /><g
     id="g1215"
     transform="matrix(1.25,0,0,-1.178728,44.233682,54.671462)" /><g
     id="g1217"
     transform="matrix(1.25,0,0,-1.178728,44.233682,54.671462)" /><g
     id="g1219"
     transform="matrix(1.25,0,0,-1.178728,44.233682,54.671462)" /></g></g>
</g>
<g
   id="Layer_1"
   transform="translate(-36.667,-21)">
</g>
</svg>
