<?xml version="1.0" encoding="UTF-8" standalone="no"?>
<!-- Generator: Adobe Illustrator 24.0.0, SVG Export Plug-In . SVG Version: 6.00 Build 0)  -->

<svg
   version="1.1"
   x="0px"
   y="0px"
   viewBox="0 0 24 24"
   enable-background="new 0 0 64 64"
   xml:space="preserve"
   id="svg18346"
   sodipodi:docname="items.svg"
   width="24"
   height="24"
   inkscape:version="1.2.1 (9c6d41e410, 2022-07-14)"
   xmlns:inkscape="http://www.inkscape.org/namespaces/inkscape"
   xmlns:sodipodi="http://sodipodi.sourceforge.net/DTD/sodipodi-0.dtd"
   xmlns="http://www.w3.org/2000/svg"
   xmlns:svg="http://www.w3.org/2000/svg"><defs
   id="defs18350">

</defs><sodipodi:namedview
   id="namedview18348"
   pagecolor="#ffffff"
   bordercolor="#000000"
   borderopacity="0.25"
   inkscape:showpageshadow="2"
   inkscape:pageopacity="0.0"
   inkscape:pagecheckerboard="true"
   inkscape:deskcolor="#d1d1d1"
   showgrid="false"
   inkscape:zoom="33.916667"
   inkscape:cx="12"
   inkscape:cy="12.029484"
   inkscape:window-width="1920"
   inkscape:window-height="1017"
   inkscape:window-x="-8"
   inkscape:window-y="-8"
   inkscape:window-maximized="1"
   inkscape:current-layer="g18343" />
<g
   id="Captions"
   transform="matrix(0.42857143,0,0,0.42857143,-1.7142857,-1.7142857)">
</g>
<g
   id="g18343"
   transform="matrix(0.42857143,0,0,0.42857143,-1.7142857,-1.7142857)"><g
   id="g467"
   transform="matrix(1.75,0,0,1.5555556,-3,-33.333334)"><g
     id="g18333">
			<g
   id="g18291">
				<path
   fill="#0a5078"
   d="m 18,24 h 4 c 3.314,0 6,2.686 6,6 v 4 H 12 v -4 c 0,-3.314 2.686,-6 6,-6 z"
   id="path18289" />
			</g>
			<g
   id="g18295">
				<rect
   x="10"
   y="46"
   transform="rotate(180,20,53)"
   fill="#fab400"
   width="20"
   height="14"
   id="rect18293" />
			</g>
			<g
   id="g18299">
				<polygon
   fill="#00a0c8"
   points="22,60 21,50 19,50 18,60 "
   id="polygon18297" />
			</g>
			<g
   id="g18303">
				<path
   fill="#dc9600"
   d="m 20,50 -2.293,2.293 C 17.077,52.923 16,52.477 16,51.586 V 46 h 4 z"
   id="path18301" />
			</g>
			<g
   id="g18307">
				<path
   fill="#dc9600"
   d="m 20,50 2.293,2.293 C 22.923,52.923 24,52.477 24,51.586 V 46 h -4 z"
   id="path18305" />
			</g>
			<g
   id="g18311">
				<path
   fill="#d2aa82"
   d="m 20,50 v 0 c 2.209,0 4,-1.791 4,-4 v -4 h -8 v 4 c 0,2.209 1.791,4 4,4 z"
   id="path18309" />
			</g>
			<g
   id="g18315">
				<path
   fill="#fab400"
   d="m 36,52 v 8 H 30 V 46 c 3.314,0 6,2.686 6,6 z"
   id="path18313" />
			</g>
			<g
   id="g18319">
				<path
   fill="#fab400"
   d="M 10,46 V 60 H 4 v -8 c 0,-3.314 2.686,-6 6,-6 z"
   id="path18317" />
			</g>
			<g
   id="g18323">
				<path
   fill="#f0c8a0"
   d="m 16,28 h 8 c 1.105,0 2,0.895 2,2 v 2 c 0,1.105 0.895,2 2,2 v 0 0 4 c 0,3.314 -2.686,6 -6,6 h -4 c -3.314,0 -6,-2.686 -6,-6 v -4 0 0 c 1.105,0 2,-0.895 2,-2 v -2 c 0,-1.105 0.895,-2 2,-2 z"
   id="path18321" />
			</g>
			<g
   id="g18327">
				<path
   fill="#d2aa82"
   d="m 28,38 v 0 -4 0 c 1.105,0 2,0.895 2,2 v 0 c 0,1.105 -0.895,2 -2,2 z"
   id="path18325" />
			</g>
			<g
   id="g18331">
				<path
   fill="#d2aa82"
   d="m 12,38 v 0 -4 0 c -1.105,0 -2,0.895 -2,2 v 0 c 0,1.105 0.895,2 2,2 z"
   id="path18329" />
			</g>
		</g><g
     id="g18337">
			<path
   fill="#dc9600"
   d="M 11,60 V 52.5 C 11,52.224 10.776,52 10.5,52 10.224,52 10,52.224 10,52.5 V 60 Z"
   id="path18335" />
		</g><g
     id="g18341">
			<path
   fill="#dc9600"
   d="M 30,60 V 52.5 C 30,52.224 29.776,52 29.5,52 29.224,52 29,52.224 29,52.5 V 60 Z"
   id="path18339" />
		</g></g>






	</g>
</svg>
