<?xml version="1.0" encoding="UTF-8" standalone="no"?>
<svg
   width="24"
   height="24"
   viewBox="0 0 24 24"
   fill="none"
   version="1.1"
   id="svg173"
   sodipodi:docname="20789942401638275462.svg"
   inkscape:version="1.2.1 (9c6d41e410, 2022-07-14)"
   xmlns:inkscape="http://www.inkscape.org/namespaces/inkscape"
   xmlns:sodipodi="http://sodipodi.sourceforge.net/DTD/sodipodi-0.dtd"
   xmlns="http://www.w3.org/2000/svg"
   xmlns:svg="http://www.w3.org/2000/svg">
  <defs
     id="defs177" />
  <sodipodi:namedview
     id="namedview175"
     pagecolor="#ffffff"
     bordercolor="#111111"
     borderopacity="1"
     inkscape:showpageshadow="0"
     inkscape:pageopacity="0"
     inkscape:pagecheckerboard="1"
     inkscape:deskcolor="#d1d1d1"
     showgrid="false"
     inkscape:zoom="33.916667"
     inkscape:cx="12"
     inkscape:cy="12"
     inkscape:window-width="1920"
     inkscape:window-height="1017"
     inkscape:window-x="-8"
     inkscape:window-y="-8"
     inkscape:window-maximized="1"
     inkscape:current-layer="svg173" />
  <g
     id="g468"
     transform="matrix(0.42857143,0,0,0.39999837,-1.7142857,-0.80028874)">
    <path
       d="m 23,7 v 48 l 18,6 V 13 Z"
       fill="#ffcd00"
       id="path145" />
    <path
       d="M 41,61 59,55 V 41 l -18,6 z"
       fill="#9bc9ff"
       id="path147" />
    <path
       d="M 5,13 V 47 61 L 23,55 V 41 7 Z"
       fill="#ddb200"
       id="path149" />
    <path
       d="M 41,13 V 47 61 L 59,55 V 41 7 Z"
       fill="#ffeb99"
       id="path151" />
    <path
       d="M 41,30 C 41,30 51,18.523 51,13 50.9985,11.9253 50.8236,10.8579 50.482,9.83901 v 0 C 49.8196,7.84797 48.5472,6.11598 46.8453,4.88857 45.1434,3.66117 43.0983,3.00064 41,3.00064 c -2.0983,0 -4.1434,0.66053 -5.8453,1.88793 -1.7019,1.22741 -2.9743,2.9594 -3.6367,4.95044 v 0 C 31.1764,10.8579 31.0015,11.9253 31,13 31,18.523 41,30 41,30 Z M 41,9.00001 c 0.5933,0 1.1734,0.17594 1.6667,0.50559 0.4934,0.32964 0.8779,0.7982 1.1049,1.3464 0.2271,0.5481 0.2865,1.1513 0.1708,1.7333 -0.1158,0.5819 -0.4015,1.1165 -0.8211,1.536 -0.4195,0.4196 -0.9541,0.7053 -1.536,0.8211 -0.582,0.1157 -1.1852,0.0563 -1.7333,-0.1708 -0.5482,-0.227 -1.0168,-0.6115 -1.3464,-1.1049 C 38.1759,13.1734 38,12.5933 38,12 38,11.2044 38.3161,10.4413 38.8787,9.87868 39.4413,9.31608 40.2044,9.00001 41,9.00001 Z"
       fill="#ed1c24"
       id="path153" />
    <path
       d="m 41,15 c 1.6569,0 3,-1.3431 3,-3 0,-1.6569 -1.3431,-3 -3,-3 -1.6569,0 -3,1.3431 -3,3 0,1.6569 1.3431,3 3,3 z"
       fill="#f1f2f2"
       id="path155" />
    <path
       d="M 59.585,6.18901 C 59.4566,6.09641 59.3081,6.03562 59.1516,6.01163 58.9952,5.98764 58.8352,6.00113 58.685,6.05101 l -7.615,2.538 C 50.214,6.63059 48.8054,4.96429 47.0169,3.79413 45.2283,2.62397 43.1373,2.00073 41,2.00073 c -2.1373,0 -4.2283,0.62324 -6.0169,1.7934 C 33.1946,4.96429 31.786,6.63059 30.93,8.58901 l -7.614,-2.538 v 0.006 C 23.1119,5.98652 22.8904,5.98442 22.685,6.05101 l -18,5.99999 C 4.48561,12.1172 4.31212,12.2445 4.18916,12.4148 4.0662,12.5852 4.00002,12.7899 4,13 v 48 c 0,0.2652 0.10536,0.5196 0.29289,0.7071 C 4.48043,61.8946 4.73478,62 5,62 5.10737,61.9999 5.21405,61.9827 5.316,61.949 L 23,56.054 40.684,61.949 c 0.205,0.0693 0.427,0.0693 0.632,0 l 18,-6 c 0.1992,-0.0663 0.3725,-0.1937 0.4952,-0.364 C 59.934,55.4146 60.0001,55.21 60,55 V 7.00001 C 60,6.84162 59.9624,6.6855 59.8902,6.5445 59.8181,6.4035 59.7135,6.28166 59.585,6.18901 Z M 41,4.00001 c 2.3861,0.00291 4.6735,0.95205 6.3607,2.63925 C 49.0479,8.32646 49.9971,10.614 50,13 50,16.873 44.073,24.774 41,28.458 37.926,24.775 32,16.875 32,13 32.0029,10.614 32.9521,8.32646 34.6393,6.63926 36.3265,4.95206 38.6139,4.00292 41,4.00001 Z M 6,59.613 V 47.721 l 1.213,-0.4 C 7.33776,47.2796 7.45313,47.214 7.55253,47.128 7.65194,47.0419 7.73342,46.9372 7.79234,46.8197 7.85126,46.7022 7.88646,46.5742 7.89592,46.4431 7.90539,46.312 7.88893,46.1803 7.8475,46.0555 7.80607,45.9307 7.74047,45.8154 7.65445,45.716 7.56843,45.6166 7.46367,45.5351 7.34616,45.4762 7.22865,45.4172 7.10068,45.382 6.96957,45.3726 6.83845,45.3631 6.70676,45.3796 6.582,45.421 L 6,45.613 V 13.721 L 22,8.38701 V 40.279 l -0.24,0.08 c -0.221,0.0705 -0.4105,0.216 -0.5356,0.4114 -0.1251,0.1954 -0.178,0.4284 -0.1495,0.6587 0.0284,0.2302 0.1365,0.4433 0.3054,0.6023 0.1689,0.1591 0.3881,0.2541 0.6197,0.2686 v 11.979 z m 36,0 V 47.721 l 1.213,-0.4 c 0.1248,-0.0414 0.2401,-0.107 0.3395,-0.193 0.0994,-0.0861 0.1809,-0.1908 0.2398,-0.3083 0.059,-0.1175 0.0942,-0.2455 0.1036,-0.3766 0.0095,-0.1311 -0.007,-0.2628 -0.0484,-0.3876 -0.0414,-0.1248 -0.107,-0.2401 -0.1931,-0.3395 -0.086,-0.0994 -0.1907,-0.1809 -0.3082,-0.2398 -0.1176,-0.059 -0.2455,-0.0942 -0.3766,-0.1036 -0.1311,-0.0095 -0.2628,0.007 -0.3876,0.0484 L 42,45.613 V 34 C 42,33.7348 41.8946,33.4804 41.7071,33.2929 41.5196,33.1054 41.2652,33 41,33 40.7348,33 40.4804,33.1054 40.2929,33.2929 40.1054,33.4804 40,33.7348 40,34 v 11.694 c -0.2308,0.0169 -0.4486,0.1134 -0.6162,0.273 -0.1677,0.1595 -0.2748,0.3723 -0.3031,0.602 -0.0283,0.2297 0.0239,0.4621 0.1478,0.6576 0.1239,0.1954 0.3117,0.3419 0.5315,0.4144 L 40,47.721 V 59.612 L 24,54.279 V 42.387 l 0.582,0.194 c 0.252,0.0837 0.5268,0.0638 0.7642,-0.0552 0.2373,-0.1189 0.4176,-0.3273 0.5013,-0.5793 0.0837,-0.252 0.0638,-0.5268 -0.0552,-0.7642 C 25.6734,40.945 25.465,40.7647 25.213,40.681 L 24,40.279 V 8.38801 L 30.3,10.488 C 30.1032,11.3109 30.0026,12.1539 30,13 c 0,5.831 9.828,17.177 10.246,17.657 0.0939,0.1078 0.2097,0.1941 0.3398,0.2533 0.1301,0.0592 0.2713,0.0898 0.4142,0.0898 0.1429,0 0.2841,-0.0306 0.4142,-0.0898 0.1301,-0.0592 0.2459,-0.1455 0.3398,-0.2533 C 42.172,30.177 52,18.831 52,13 51.9974,12.1539 51.8968,11.3109 51.7,10.488 L 58,8.38801 V 40.279 l -0.24,0.08 c -0.221,0.0705 -0.4105,0.216 -0.5356,0.4114 -0.1251,0.1954 -0.178,0.4284 -0.1495,0.6587 0.0284,0.2302 0.1365,0.4433 0.3054,0.6023 0.1689,0.1591 0.3881,0.2541 0.6197,0.2686 v 11.979 z"
       fill="#231f20"
       id="path157" />
    <path
       d="M 45,12 C 45,11.2089 44.7654,10.4355 44.3259,9.77772 43.8864,9.11993 43.2616,8.60723 42.5307,8.30448 41.7998,8.00173 40.9956,7.92252 40.2196,8.07686 c -0.7759,0.15434 -1.4886,0.5353 -2.048,1.09471 -0.5594,0.55941 -0.9404,1.27213 -1.0947,2.04803 -0.1544,0.776 -0.0752,1.5802 0.2276,2.3111 0.3027,0.7309 0.8154,1.3557 1.4732,1.7952 C 39.4355,15.7654 40.2089,16 41,16 42.0609,16 43.0783,15.5786 43.8284,14.8284 44.5786,14.0783 45,13.0609 45,12 Z m -6,0 c 0,-0.3956 0.1173,-0.7822 0.3371,-1.1111 0.2197,-0.3289 0.5321,-0.5853 0.8975,-0.7367 0.3655,-0.1513 0.7676,-0.19094 1.1556,-0.1138 0.3879,0.0772 0.7443,0.2677 1.024,0.5474 0.2797,0.2797 0.4702,0.6361 0.5474,1.024 0.0771,0.388 0.0375,0.7901 -0.1138,1.1556 -0.1514,0.3654 -0.4078,0.6778 -0.7367,0.8975 C 41.7822,13.8827 41.3956,14 41,14 40.4696,14 39.9609,13.7893 39.5858,13.4142 39.2107,13.0391 39,12.5304 39,12 Z"
       fill="#231f20"
       id="path159" />
    <path
       d="m 53.966,41.624 -1.9,0.632 c -0.1247,0.0415 -0.2401,0.1072 -0.3395,0.1932 -0.0994,0.0861 -0.1808,0.1909 -0.2397,0.3085 -0.0589,0.1176 -0.094,0.2456 -0.1034,0.3767 -0.0094,0.1311 0.0071,0.2628 0.0486,0.3876 0.0415,0.1248 0.1072,0.2401 0.1933,0.3395 0.086,0.0994 0.1908,0.1808 0.3084,0.2397 0.1176,0.0589 0.2456,0.094 0.3767,0.1034 0.1311,0.0094 0.2629,-0.0071 0.3876,-0.0486 l 1.9,-0.633 C 54.85,43.4392 55.0583,43.2587 55.1772,43.0213 55.2961,42.7839 55.3158,42.509 55.232,42.257 55.1482,42.005 54.9677,41.7967 54.7303,41.6778 54.4929,41.5589 54.218,41.5392 53.966,41.623 Z"
       fill="#231f20"
       id="path161" />
    <path
       d="m 48.273,43.521 -1.9,0.633 c -0.252,0.0838 -0.4603,0.2643 -0.5792,0.5017 -0.1189,0.2374 -0.1386,0.5123 -0.0548,0.7643 0.0838,0.252 0.2643,0.4603 0.5017,0.5792 0.2374,0.1189 0.5123,0.1386 0.7643,0.0548 l 1.9,-0.632 c 0.2519,-0.0838 0.4603,-0.2643 0.5792,-0.5017 0.1189,-0.2374 0.1386,-0.5123 0.0548,-0.7643 -0.0838,-0.252 -0.2643,-0.4603 -0.5017,-0.5792 -0.2374,-0.1189 -0.5124,-0.1386 -0.7643,-0.0548 z"
       fill="#231f20"
       id="path163" />
    <path
       d="m 36.6,44.479 -1.9,-0.633 c -0.252,-0.0838 -0.5269,-0.0641 -0.7643,0.0548 -0.2374,0.1189 -0.4179,0.3273 -0.5017,0.5792 -0.0838,0.252 -0.0641,0.5269 0.0548,0.7643 0.1189,0.2374 0.3272,0.4179 0.5792,0.5017 l 1.9,0.632 c 0.2519,0.0838 0.5269,0.0641 0.7643,-0.0548 0.2374,-0.1189 0.4179,-0.3272 0.5017,-0.5792 0.0838,-0.2519 0.0641,-0.5269 -0.0548,-0.7643 C 37.0603,44.7423 36.8519,44.5618 36.6,44.478 Z"
       fill="#231f20"
       id="path165" />
    <path
       d="m 30.905,42.581 -1.9,-0.632 c -0.1247,-0.0415 -0.2564,-0.058 -0.3876,-0.0486 -0.1311,0.0094 -0.2591,0.0445 -0.3767,0.1034 -0.1176,0.0589 -0.2224,0.1403 -0.3084,0.2397 -0.0861,0.0994 -0.1518,0.2147 -0.1933,0.3395 -0.0415,0.1248 -0.058,0.2565 -0.0486,0.3876 0.0094,0.1311 0.0445,0.2592 0.1034,0.3767 0.0589,0.1176 0.1403,0.2224 0.2397,0.3085 0.0994,0.086 0.2148,0.1517 0.3395,0.1932 l 1.9,0.633 c 0.1248,0.0415 0.2565,0.058 0.3876,0.0486 0.1312,-0.0094 0.2592,-0.0445 0.3767,-0.1034 0.1176,-0.0589 0.2224,-0.1403 0.3085,-0.2397 0.0861,-0.0994 0.1517,-0.2147 0.1932,-0.3395 0.0415,-0.1248 0.058,-0.2565 0.0486,-0.3876 -0.0094,-0.1311 -0.0445,-0.2591 -0.1034,-0.3767 -0.0589,-0.1176 -0.1403,-0.2224 -0.2397,-0.3085 -0.0994,-0.086 -0.2147,-0.1517 -0.3395,-0.1932 z"
       fill="#231f20"
       id="path167" />
    <path
       d="m 17.966,41.624 -1.9,0.632 c -0.1247,0.0415 -0.2401,0.1072 -0.3395,0.1932 -0.0994,0.0861 -0.1808,0.1909 -0.2397,0.3085 -0.0589,0.1176 -0.094,0.2456 -0.1034,0.3767 -0.0094,0.1311 0.0071,0.2628 0.0486,0.3876 0.0415,0.1248 0.1072,0.2401 0.1932,0.3395 0.0861,0.0994 0.1909,0.1808 0.3085,0.2397 0.1176,0.0589 0.2456,0.094 0.3767,0.1034 0.1311,0.0094 0.2629,-0.0071 0.3876,-0.0486 l 1.9,-0.633 C 18.85,43.4392 19.0583,43.2587 19.1772,43.0213 19.2961,42.7839 19.3158,42.509 19.232,42.257 19.1482,42.005 18.9677,41.7967 18.7303,41.6778 18.4929,41.5589 18.218,41.5392 17.966,41.623 Z"
       fill="#231f20"
       id="path169" />
    <path
       d="m 12.273,43.521 -1.9,0.633 c -0.1247,0.0415 -0.2401,0.1072 -0.3395,0.1932 -0.09936,0.0861 -0.18081,0.1909 -0.23968,0.3085 -0.05888,0.1176 -0.09402,0.2456 -0.10342,0.3767 -0.0094,0.1311 0.00712,0.2628 0.04861,0.3876 0.0415,0.1248 0.10716,0.2401 0.19325,0.3395 0.08604,0.0994 0.19084,0.1808 0.30844,0.2397 0.1176,0.0589 0.2456,0.094 0.3767,0.1034 0.1311,0.0094 0.2629,-0.0071 0.3876,-0.0486 l 1.9,-0.632 c 0.252,-0.0838 0.4603,-0.2643 0.5792,-0.5017 C 13.6031,44.6829 13.6228,44.408 13.539,44.156 13.4552,43.904 13.2747,43.6957 13.0373,43.5768 12.7999,43.4579 12.525,43.4382 12.273,43.522 Z"
       fill="#231f20"
       id="path171" />
  </g>
</svg>
