<?xml version="1.0" encoding="UTF-8" standalone="no"?>
<!-- Uploaded to: SVG Repo, www.svgrepo.com, Generator: SVG Repo Mixer Tools -->

<svg
   width="24"
   height="24"
   viewBox="0 0 2.4 2.4"
   fill="none"
   version="1.1"
   id="svg85"
   sodipodi:docname="forgot-password.svg"
   inkscape:version="1.2.1 (9c6d41e410, 2022-07-14)"
   xmlns:inkscape="http://www.inkscape.org/namespaces/inkscape"
   xmlns:sodipodi="http://sodipodi.sourceforge.net/DTD/sodipodi-0.dtd"
   xmlns="http://www.w3.org/2000/svg"
   xmlns:svg="http://www.w3.org/2000/svg">
  <sodipodi:namedview
     id="namedview87"
     pagecolor="#ffffff"
     bordercolor="#000000"
     borderopacity="0.25"
     inkscape:showpageshadow="2"
     inkscape:pageopacity="0.0"
     inkscape:pagecheckerboard="true"
     inkscape:deskcolor="#d1d1d1"
     showgrid="false"
     inkscape:zoom="33.916667"
     inkscape:cx="12"
     inkscape:cy="12"
     inkscape:window-width="1920"
     inkscape:window-height="1017"
     inkscape:window-x="-8"
     inkscape:window-y="-8"
     inkscape:window-maximized="1"
     inkscape:current-layer="svg85" />
  <g
     id="g1448">
    <path
       d="M 1.2,2.4 C 1.8627426,2.4 2.4,1.8627426 2.4,1.2 2.4,0.53725742 1.8627426,0 1.2,0 0.53725742,0 0,0.53725742 0,1.2 0,1.8627426 0.53725742,2.4 1.2,2.4 Z"
       fill="url(#paint0_radial)"
       id="path2"
       style="fill:url(#paint0_radial);stroke-width:0.0393765" />
    <path
       opacity="0.5"
       d="M 1.2,2.4 C 1.8627426,2.4 2.4,1.8627426 2.4,1.2 2.4,0.53725742 1.8627426,0 1.2,0 0.53725742,0 0,0.53725742 0,1.2 0,1.8627426 0.53725742,2.4 1.2,2.4 Z"
       fill="url(#paint1_radial)"
       id="path4"
       style="fill:url(#paint1_radial);stroke-width:0.0393765" />
    <path
       d="m 0.80818769,1.251347 c 0.0638058,0 0.11553471,-0.078214 0.11553471,-0.1746979 0,-0.0964804 -0.051729,-0.17469405 -0.11553471,-0.17469405 -0.0638097,0 -0.1155347,0.0782136 -0.1155347,0.17469405 0,0.096484 0.051725,0.1746979 0.1155347,0.1746979 z"
       fill="url(#paint2_radial)"
       id="path6"
       style="fill:url(#paint2_radial);stroke-width:0.0393765" />
    <path
       d="m 0.80818769,0.96111436 c 0.0496735,0 0.0926491,0.0429794 0.11553471,0.10716324 C 0.9220454,0.973955 0.8712571,0.89804495 0.80818769,0.89804495 c -0.0630733,0 -0.11386119,0.0759101 -0.1155347,0.17023265 0.0228817,-0.064184 0.0658573,-0.10716324 0.1155347,-0.10716324 z"
       fill="url(#paint3_linear)"
       id="path8"
       style="fill:url(#paint3_linear);stroke-width:0.0393765" />
    <path
       d="m 1.5918123,1.251347 c 0.06381,0 0.1155347,-0.078214 0.1155347,-0.1746979 0,-0.0964804 -0.051725,-0.17469405 -0.1155347,-0.17469405 -0.063806,0 -0.1155347,0.0782136 -0.1155347,0.17469405 0,0.096484 0.051729,0.1746979 0.1155347,0.1746979 z"
       fill="url(#paint4_radial)"
       id="path10"
       style="fill:url(#paint4_radial);stroke-width:0.0393765" />
    <path
       d="m 1.5918123,0.96502445 c -0.049673,0 -0.092649,0.0429755 -0.1155347,0.10716325 0.00168,-0.0943265 0.052465,-0.17023265 0.1155347,-0.17023265 0.063069,0 0.1138612,0.0759062 0.1155347,0.17023265 C 1.684465,1.0085591 1.64149,0.96502445 1.5918123,0.96502445 Z"
       fill="url(#paint5_linear)"
       id="path12"
       style="fill:url(#paint5_linear);stroke-width:0.0393765" />
    <path
       d="m 1.4662326,0.5642776 c 0.00279,-0.048 0.056371,-0.075347 0.1456736,-0.0703226 0.075906,0.004465 0.24,0.0552532 0.3466041,0.20930205 0.019535,0.0284653 -0.013951,0.041302 -0.033486,0.0228817 -0.066979,-0.0636286 -0.2517222,-0.15125316 -0.4001875,-0.144 -0.060278,0.003351 -0.058604,-0.0178612 -0.058604,-0.0178611 z"
       fill="url(#paint6_linear)"
       id="path14"
       style="fill:url(#paint6_linear);stroke-width:0.0393765" />
    <path
       d="m 0.93376735,0.5642776 c -0.002792,-0.048 -0.0563715,-0.075347 -0.1456735,-0.0703226 -0.0759101,0.004465 -0.24,0.0552532 -0.34660804,0.20930205 -0.0195347,0.0284653 0.013955,0.041302 0.0334897,0.0228817 0.0669756,-0.0636286 0.2517224,-0.15125316 0.4001877,-0.144 0.0602776,0.003351 0.0586041,-0.0178612 0.0586041,-0.0178611 z"
       fill="url(#paint7_linear)"
       id="path16"
       style="fill:url(#paint7_linear);stroke-width:0.0393765" />
    <path
       d="m 1.1999961,2.1611183 c 0.1498119,0 0.2712571,-0.1621802 0.2712571,-0.3622327 0,-0.2000564 -0.1214452,-0.3622326 -0.2712571,-0.3622326 -0.1498081,0 -0.2712532,0.1621762 -0.2712532,0.3622326 0,0.2000525 0.1214451,0.3622327 0.2712532,0.3622327 z"
       fill="url(#paint8_radial)"
       id="path18"
       style="fill:url(#paint8_radial);stroke-width:0.0393765" />
    <path
       d="m 1.2,1.5488368 c 0.1172121,0 0.2187918,0.087629 0.2701427,0.216 C 1.4573021,1.580653 1.3412121,1.436653 1.2,1.436653 c -0.1412082,0 -0.25730205,0.144 -0.2701388,0.3281838 0.0513509,-0.1283715 0.1529306,-0.216 0.2701388,-0.216 z"
       fill="url(#paint9_linear)"
       id="path20"
       style="fill:url(#paint9_linear);stroke-width:0.0393765" />
    <path
       d="m 1.2,1.7079062 c 0.072,0 0.1400938,-0.011163 0.2014897,-0.030139 C 1.368,1.5666979 1.2904203,1.4891183 1.2,1.4891183 c -0.09042,0 -0.168,0.078139 -0.20148975,0.1886491 C 1.0599062,1.6973021 1.128,1.7079062 1.2,1.7079062 Z"
       fill="url(#paint10_radial)"
       id="path22"
       style="fill:url(#paint10_radial);stroke-width:0.0393765" />
  </g>
  <defs
     id="defs83">
    <radialGradient
       id="paint0_radial"
       cx="0"
       cy="0"
       r="1"
       gradientUnits="userSpaceOnUse"
       gradientTransform="matrix(1.4476431,0,0,1.4476431,0.96389832,0.7136801)">
      <stop
         stop-color="#FFDF30"
         id="stop24" />
      <stop
         offset="1"
         stop-color="#FFB82E"
         id="stop26" />
    </radialGradient>
    <radialGradient
       id="paint1_radial"
       cx="0"
       cy="0"
       r="1"
       gradientUnits="userSpaceOnUse"
       gradientTransform="matrix(1.138927,0,0,1.138927,0.96389832,0.7136801)">
      <stop
         stop-color="#FFE95F"
         id="stop29" />
      <stop
         offset="1"
         stop-color="#FFBB47"
         stop-opacity="0"
         id="stop31" />
    </radialGradient>
    <radialGradient
       id="paint2_radial"
       cx="0"
       cy="0"
       r="1"
       gradientUnits="userSpaceOnUse"
       gradientTransform="matrix(0.04715004,0.16286323,-0.10536983,0.0305053,0.7731623,1.0808585)">
      <stop
         offset="0.00132565"
         stop-color="#7A4400"
         id="stop34" />
      <stop
         offset="1"
         stop-color="#643800"
         id="stop36" />
    </radialGradient>
    <linearGradient
       id="paint3_linear"
       x1="30.525299"
       y1="32.877201"
       x2="30.525299"
       y2="37.0131"
       gradientUnits="userSpaceOnUse"
       gradientTransform="matrix(0.03937654,0,0,0.03937654,-0.3937654,-0.3937654)">
      <stop
         offset="0.00132565"
         stop-color="#3C2200"
         id="stop39" />
      <stop
         offset="1"
         stop-color="#512D00"
         id="stop41" />
    </linearGradient>
    <radialGradient
       id="paint4_radial"
       cx="0"
       cy="0"
       r="1"
       gradientUnits="userSpaceOnUse"
       gradientTransform="matrix(0.04715004,0.16286323,-0.10536983,0.0305053,1.5567673,1.080886)">
      <stop
         offset="0.00132565"
         stop-color="#7A4400"
         id="stop44" />
      <stop
         offset="1"
         stop-color="#643800"
         id="stop46" />
    </radialGradient>
    <linearGradient
       id="paint5_linear"
       x1="50.424702"
       y1="32.986"
       x2="50.424702"
       y2="37.121899"
       gradientUnits="userSpaceOnUse"
       gradientTransform="matrix(0.03937654,0,0,0.03937654,-0.3937654,-0.3937654)">
      <stop
         offset="0.00132565"
         stop-color="#3C2200"
         id="stop49" />
      <stop
         offset="1"
         stop-color="#512D00"
         id="stop51" />
    </linearGradient>
    <linearGradient
       id="paint6_linear"
       x1="53.529202"
       y1="26.722601"
       x2="53.709301"
       y2="23.5165"
       gradientUnits="userSpaceOnUse"
       gradientTransform="matrix(0.03937654,0,0,0.03937654,-0.3937654,-0.3937654)">
      <stop
         offset="0.00132565"
         stop-color="#3C2200"
         id="stop54" />
      <stop
         offset="1"
         stop-color="#7A4400"
         id="stop56" />
    </linearGradient>
    <linearGradient
       id="paint7_linear"
       x1="27.43"
       y1="26.723301"
       x2="27.2498"
       y2="23.5173"
       gradientUnits="userSpaceOnUse"
       gradientTransform="matrix(0.03937654,0,0,0.03937654,-0.3937654,-0.3937654)">
      <stop
         offset="0.00132565"
         stop-color="#3C2200"
         id="stop59" />
      <stop
         offset="1"
         stop-color="#7A4400"
         id="stop61" />
    </linearGradient>
    <radialGradient
       id="paint8_radial"
       cx="0"
       cy="0"
       r="1"
       gradientUnits="userSpaceOnUse"
       gradientTransform="matrix(0.09153556,0.42186064,-0.21174188,0.04594387,1.1834107,1.8203302)">
      <stop
         offset="0.00132565"
         stop-color="#7A4400"
         id="stop64" />
      <stop
         offset="1"
         stop-color="#643800"
         id="stop66" />
    </radialGradient>
    <linearGradient
       id="paint9_linear"
       x1="40.475101"
       y1="42.155998"
       x2="40.475101"
       y2="57.149799"
       gradientUnits="userSpaceOnUse"
       gradientTransform="matrix(0.03937654,0,0,0.03937654,-0.3937654,-0.3937654)">
      <stop
         offset="0.00132565"
         stop-color="#3C2200"
         id="stop69" />
      <stop
         offset="1"
         stop-color="#512D00"
         id="stop71" />
    </linearGradient>
    <radialGradient
       id="paint10_radial"
       cx="0"
       cy="0"
       r="1"
       gradientUnits="userSpaceOnUse"
       gradientTransform="matrix(0.40955992,0.00165558,-0.00116685,0.28865918,1.1999961,1.5987072)">
      <stop
         offset="0.00132565"
         stop-color="white"
         id="stop74" />
      <stop
         offset="0.4312"
         stop-color="#D3DCDD"
         id="stop76" />
      <stop
         offset="0.7963"
         stop-color="#B4C4C6"
         id="stop78" />
      <stop
         offset="1"
         stop-color="#A8BBBD"
         id="stop80" />
    </radialGradient>
  </defs>
</svg>
