<?xml version="1.0" encoding="UTF-8" standalone="no"?>
<!-- Generator: Adobe Illustrator 19.0.0, SVG Export Plug-In . SVG Version: 6.00 Build 0)  -->

<svg
   version="1.1"
   id="Layer_1"
   x="0px"
   y="0px"
   viewBox="0 0 24.000002 24"
   xml:space="preserve"
   sodipodi:docname="genders.svg"
   width="24.000002"
   height="24"
   inkscape:version="1.2.1 (9c6d41e410, 2022-07-14)"
   xmlns:inkscape="http://www.inkscape.org/namespaces/inkscape"
   xmlns:sodipodi="http://sodipodi.sourceforge.net/DTD/sodipodi-0.dtd"
   xmlns="http://www.w3.org/2000/svg"
   xmlns:svg="http://www.w3.org/2000/svg"><defs
   id="defs248" /><sodipodi:namedview
   id="namedview246"
   pagecolor="#ffffff"
   bordercolor="#000000"
   borderopacity="0.25"
   inkscape:showpageshadow="2"
   inkscape:pageopacity="0.0"
   inkscape:pagecheckerboard="true"
   inkscape:deskcolor="#d1d1d1"
   showgrid="false"
   inkscape:zoom="33.666667"
   inkscape:cx="12"
   inkscape:cy="12"
   inkscape:window-width="1920"
   inkscape:window-height="1014"
   inkscape:window-x="-8"
   inkscape:window-y="-8"
   inkscape:window-maximized="1"
   inkscape:current-layer="Layer_1" />


















<g
   id="g269"
   transform="scale(0.06295363,0.046875)"><path
     style="fill:#e88158"
     d="m 263.064,247.569 c 0,38.411 -16.464,72.977 -42.712,97.03 h -0.011 c -15.326,-5.621 -28.581,-15.497 -38.343,-28.217 21.151,-15.519 34.873,-40.562 34.873,-68.813 0,-19.547 -6.576,-37.558 -17.636,-51.94 -4.875,-6.354 -21.504,-2.826 -27.955,-7.589 -6.451,-4.763 -2.725,-17.818 -10.388,-20.628 0,0 0,0 -0.011,0 -9.148,-3.345 -19.035,-5.177 -29.343,-5.177 -47.138,0 -85.345,38.207 -85.345,85.333 0,40.687 28.467,74.729 66.583,83.274 6.042,1.354 12.322,2.071 18.762,2.071 1.923,0 3.846,-0.068 5.734,-0.193 9.444,15.519 22.016,28.922 36.83,39.344 -10.695,3.652 -22.027,5.973 -33.769,6.747 -2.901,0.193 -5.837,0.296 -8.795,0.296 C 58.891,379.107 0,320.216 0,247.569 0,180.668 49.96,125.429 114.608,117.123 V 80.213 H 78.768 V 35.84 h 35.84 V 0 h 44.373 v 35.84 h 35.829 v 44.373 h -35.829 v 38.696 c 17.613,3.743 33.929,11.014 48.162,21.038 h 0.011 c 8.112,5.712 15.553,12.311 22.164,19.672 5.473,6.076 10.388,12.652 14.655,19.672 5.37,8.806 9.717,18.295 12.902,28.297 4.016,12.606 6.189,26.043 6.189,39.981 z"
     id="path207" /><path
     style="fill:#d37250"
     d="m 174.101,372.065 c -10.695,3.652 -22.027,5.973 -33.769,6.747 -5.473,-6.064 -10.388,-12.652 -14.655,-19.672 -5.359,-8.795 -9.717,-18.284 -12.902,-28.297 6.042,1.354 12.322,2.071 18.762,2.071 1.923,0 3.846,-0.068 5.734,-0.193 19.217,0 23.187,3.362 27.56,8.541 7.292,8.631 13.289,11.012 9.27,30.803 z"
     id="path209" /><path
     style="fill:#5dacd8"
     d="m 266.637,394.889 v 47.138 h 35.829 L 244.45,512 186.423,442.027 h 35.84 v -48.936 c -17.613,-3.743 -33.929,-11.002 -48.162,-21.025 -14.814,-10.422 -27.386,-23.825 -36.83,-39.344 -12.117,-19.9 -19.103,-43.281 -19.103,-68.289 0,-30.413 10.32,-58.402 27.659,-80.68 4.54,-5.86 9.58,-11.332 15.053,-16.338 0.011,0 0.011,0 0.011,0 15.326,5.621 28.592,15.508 38.343,28.217 -6.69,4.904 -12.641,10.775 -17.647,17.385 -10.82,14.29 -17.226,32.108 -17.226,51.416 0,18.216 5.7,35.112 15.451,48.97 0.705,1.013 1.434,2.003 2.185,2.981 8.738,11.378 20.264,20.491 33.576,26.294 1.559,0.694 3.152,1.331 4.767,1.923 h 0.011 c 9.148,3.345 19.035,5.177 29.355,5.177 47.127,0 85.333,-38.207 85.333,-85.345 0,-47.127 -38.207,-85.333 -85.333,-85.333 -1.934,0 -3.846,0.068 -5.734,0.193 -9.444,-15.519 -22.005,-28.922 -36.819,-39.344 13.346,-4.563 27.659,-7.043 42.553,-7.043 72.636,0 131.527,58.88 131.527,131.527 10e-4,66.911 -49.959,122.138 -114.596,130.456 z"
     id="path211" /><path
     style="fill:#4c9cbf"
     d="m 145.827,183.751 c 4.54,-5.86 9.58,-11.332 15.053,-16.338 0.011,0 0.011,0 0.011,0 15.326,5.621 28.592,15.508 38.343,28.217 -6.69,4.904 -12.641,10.775 -17.647,17.385 -0.705,-1.013 -1.434,-2.002 -2.185,-2.97 -8.726,-11.378 -20.263,-20.48 -33.575,-26.294 z"
     id="path213" /><g
     id="g215"
     transform="translate(-65.384)">
</g><g
     id="g217"
     transform="translate(-65.384)">
</g><g
     id="g219"
     transform="translate(-65.384)">
</g><g
     id="g221"
     transform="translate(-65.384)">
</g><g
     id="g223"
     transform="translate(-65.384)">
</g><g
     id="g225"
     transform="translate(-65.384)">
</g><g
     id="g227"
     transform="translate(-65.384)">
</g><g
     id="g229"
     transform="translate(-65.384)">
</g><g
     id="g231"
     transform="translate(-65.384)">
</g><g
     id="g233"
     transform="translate(-65.384)">
</g><g
     id="g235"
     transform="translate(-65.384)">
</g><g
     id="g237"
     transform="translate(-65.384)">
</g><g
     id="g239"
     transform="translate(-65.384)">
</g><g
     id="g241"
     transform="translate(-65.384)">
</g><g
     id="g243"
     transform="translate(-65.384)">
</g></g>
<g
   id="g309"
   transform="scale(0.06295363,0.046875)"><path
     style="fill:#e88158"
     d="m 263.064,247.569 c 0,38.411 -16.464,72.977 -42.712,97.03 h -0.011 c -15.326,-5.621 -28.581,-15.497 -38.343,-28.217 21.151,-15.519 34.873,-40.562 34.873,-68.813 0,-19.547 -6.576,-37.558 -17.636,-51.94 -4.875,-6.354 -21.504,-2.826 -27.955,-7.589 -6.451,-4.763 -2.725,-17.818 -10.388,-20.628 0,0 0,0 -0.011,0 -9.148,-3.345 -19.035,-5.177 -29.343,-5.177 -47.138,0 -85.345,38.207 -85.345,85.333 0,40.687 28.467,74.729 66.583,83.274 6.042,1.354 12.322,2.071 18.762,2.071 1.923,0 3.846,-0.068 5.734,-0.193 9.444,15.519 22.016,28.922 36.83,39.344 -10.695,3.652 -22.027,5.973 -33.769,6.747 -2.901,0.193 -5.837,0.296 -8.795,0.296 C 58.891,379.107 0,320.216 0,247.569 0,180.668 49.96,125.429 114.608,117.123 V 80.213 H 78.768 V 35.84 h 35.84 V 0 h 44.373 v 35.84 h 35.829 v 44.373 h -35.829 v 38.696 c 17.613,3.743 33.929,11.014 48.162,21.038 h 0.011 c 8.112,5.712 15.553,12.311 22.164,19.672 5.473,6.076 10.388,12.652 14.655,19.672 5.37,8.806 9.717,18.295 12.902,28.297 4.016,12.606 6.189,26.043 6.189,39.981 z"
     id="path271" /><path
     style="fill:#d37250"
     d="m 174.101,372.065 c -10.695,3.652 -22.027,5.973 -33.769,6.747 -5.473,-6.064 -10.388,-12.652 -14.655,-19.672 -5.359,-8.795 -9.717,-18.284 -12.902,-28.297 6.042,1.354 12.322,2.071 18.762,2.071 1.923,0 3.846,-0.068 5.734,-0.193 19.217,0 23.187,3.362 27.56,8.541 7.292,8.631 13.289,11.012 9.27,30.803 z"
     id="path273" /><path
     style="fill:#5dacd8"
     d="m 266.637,394.889 v 47.138 h 35.829 L 244.45,512 186.423,442.027 h 35.84 v -48.936 c -17.613,-3.743 -33.929,-11.002 -48.162,-21.025 -14.814,-10.422 -27.386,-23.825 -36.83,-39.344 -12.117,-19.9 -19.103,-43.281 -19.103,-68.289 0,-30.413 10.32,-58.402 27.659,-80.68 4.54,-5.86 9.58,-11.332 15.053,-16.338 0.011,0 0.011,0 0.011,0 15.326,5.621 28.592,15.508 38.343,28.217 -6.69,4.904 -12.641,10.775 -17.647,17.385 -10.82,14.29 -17.226,32.108 -17.226,51.416 0,18.216 5.7,35.112 15.451,48.97 0.705,1.013 1.434,2.003 2.185,2.981 8.738,11.378 20.264,20.491 33.576,26.294 1.559,0.694 3.152,1.331 4.767,1.923 h 0.011 c 9.148,3.345 19.035,5.177 29.355,5.177 47.127,0 85.333,-38.207 85.333,-85.345 0,-47.127 -38.207,-85.333 -85.333,-85.333 -1.934,0 -3.846,0.068 -5.734,0.193 -9.444,-15.519 -22.005,-28.922 -36.819,-39.344 13.346,-4.563 27.659,-7.043 42.553,-7.043 72.636,0 131.527,58.88 131.527,131.527 10e-4,66.911 -49.959,122.138 -114.596,130.456 z"
     id="path275" /><path
     style="fill:#4c9cbf"
     d="m 145.827,183.751 c 4.54,-5.86 9.58,-11.332 15.053,-16.338 0.011,0 0.011,0 0.011,0 15.326,5.621 28.592,15.508 38.343,28.217 -6.69,4.904 -12.641,10.775 -17.647,17.385 -0.705,-1.013 -1.434,-2.002 -2.185,-2.97 -8.726,-11.378 -20.263,-20.48 -33.575,-26.294 z"
     id="path277" /><g
     id="g279"
     transform="translate(-65.384)">
</g><g
     id="g281"
     transform="translate(-65.384)">
</g><g
     id="g283"
     transform="translate(-65.384)">
</g><g
     id="g285"
     transform="translate(-65.384)">
</g><g
     id="g287"
     transform="translate(-65.384)">
</g><g
     id="g289"
     transform="translate(-65.384)">
</g><g
     id="g291"
     transform="translate(-65.384)">
</g><g
     id="g293"
     transform="translate(-65.384)">
</g><g
     id="g295"
     transform="translate(-65.384)">
</g><g
     id="g297"
     transform="translate(-65.384)">
</g><g
     id="g299"
     transform="translate(-65.384)">
</g><g
     id="g301"
     transform="translate(-65.384)">
</g><g
     id="g303"
     transform="translate(-65.384)">
</g><g
     id="g305"
     transform="translate(-65.384)">
</g><g
     id="g307"
     transform="translate(-65.384)">
</g></g></svg>
