<?xml version="1.0" encoding="UTF-8" standalone="no"?>
<!-- Uploaded to: SVG Repo, www.svgrepo.com, Generator: SVG Repo Mixer Tools -->

<svg
   height="24"
   width="24"
   version="1.1"
   id="Layer_1"
   viewBox="0 0 15.36 15.36"
   xml:space="preserve"
   sodipodi:docname="items.svg"
   inkscape:version="1.2.1 (9c6d41e410, 2022-07-14)"
   xmlns:inkscape="http://www.inkscape.org/namespaces/inkscape"
   xmlns:sodipodi="http://sodipodi.sourceforge.net/DTD/sodipodi-0.dtd"
   xmlns="http://www.w3.org/2000/svg"
   xmlns:svg="http://www.w3.org/2000/svg"><defs
   id="defs10652">
	
	
	
</defs><sodipodi:namedview
   id="namedview10650"
   pagecolor="#ffffff"
   bordercolor="#000000"
   borderopacity="0.25"
   inkscape:showpageshadow="2"
   inkscape:pageopacity="0.0"
   inkscape:pagecheckerboard="true"
   inkscape:deskcolor="#d1d1d1"
   showgrid="false"
   inkscape:zoom="33.916667"
   inkscape:cx="11.941032"
   inkscape:cy="12"
   inkscape:window-width="1920"
   inkscape:window-height="1017"
   inkscape:window-x="-8"
   inkscape:window-y="-8"
   inkscape:window-maximized="1"
   inkscape:current-layer="Layer_1" />
<path
   style="fill:#535353;stroke-width:0.09408;stroke:#ffffff;stroke-opacity:1;stroke-dasharray:none"
   d="m 7.68,13.77102 c -3.35853,0 -6.09102,-2.73249 -6.09102,-6.09102 0,-3.35853 2.73249,-6.09102 6.09102,-6.09102 3.35853,0 6.09102,2.73249 6.09102,6.09102 0,3.35853 -2.73249,6.09102 -6.09102,6.09102 M 7.68,0 C 3.43851,0 0,3.43851 0,7.68 c 0,4.24149 3.43851,7.68 7.68,7.68 4.24149,0 7.68,-3.43851 7.68,-7.68 C 15.36,3.43851 11.92149,0 7.68,0"
   id="path10633" /><path
   style="fill:#a4a4a4;stroke-width:0.03"
   d="M 11.24226,6.66051 C 11.16387,6.3864 11.05635,6.12477 10.92048,5.8806 L 11.61249,4.49661 12.72714,4.27362 C 12.28992,3.62796 11.73219,3.06999 11.08626,2.63301 L 10.86354,3.74739 9.47955,4.43937 C 9.23538,4.3035 8.97372,4.19598 8.69937,4.11759 L 8.20971,2.64834 8.84106,1.70133 C 8.46501,1.62849 8.07702,1.58904 7.68006,1.58904 c -0.39699,0 -0.78495,0.03945 -1.161,0.11229 L 7.15041,2.64834 6.66048,4.11759 C 6.38637,4.19598 6.12474,4.3035 5.88057,4.43937 L 4.49658,3.74739 4.27359,2.63301 C 3.62793,3.06999 3.0702,3.62796 2.63298,4.27362 L 3.74763,4.49661 4.43961,5.8806 C 4.3035,6.12477 4.19598,6.38643 4.11783,6.66051 L 2.64831,7.15044 1.7013,6.51909 c -0.07284,0.37605 -0.11229,0.76377 -0.11229,1.161 0,0.39699 0.03945,0.78468 0.11229,1.161 L 2.64831,8.20974 4.11783,8.6994 C 4.19595,8.97375 4.30347,9.23514 4.43961,9.47958 L 3.74763,10.8633 2.63298,11.08629 c 0.43722,0.6459 0.99495,1.20363 1.64061,1.64088 l 0.22299,-1.11465 1.38399,-0.69198 c 0.24417,0.13587 0.50583,0.24339 0.77991,0.32178 l 0.48993,1.46952 -0.63135,0.94701 c 0.37605,0.07284 0.76404,0.11229 1.161,0.11229 0.39699,0 0.78495,-0.03945 1.161,-0.11229 L 8.20971,12.71184 8.69937,11.24232 c 0.27435,-0.07839 0.53601,-0.18591 0.78018,-0.32178 l 1.38399,0.69198 0.22272,1.11465 c 0.6459,-0.43722 1.20363,-0.99495 1.64088,-1.64088 L 11.61249,10.8633 10.92048,9.47958 C 11.05635,9.23514 11.16387,8.97375 11.24226,8.6994 l 1.46952,-0.48966 0.94701,0.63135 c 0.07284,-0.37632 0.11229,-0.76404 0.11229,-1.161 0,-0.39723 -0.03945,-0.78495 -0.11229,-1.161 l -0.94701,0.63135 z"
   id="path10635" /><g
   id="g10645"
   transform="scale(0.03)">
		<path
   style="fill:#535353"
   d="m 282.483,317.793 c 0,14.627 -11.855,26.483 -26.483,26.483 -14.627,0 -26.483,-11.855 -26.483,-26.483 0,-14.627 11.855,-26.483 26.483,-26.483 14.627,0 26.483,11.856 26.483,26.483"
   id="path10637" />
		<path
   style="fill:#535353"
   d="m 344.276,256 c 0,14.627 -11.855,26.483 -26.483,26.483 -14.628,0 -26.483,-11.856 -26.483,-26.483 0,-14.627 11.855,-26.483 26.483,-26.483 14.628,0 26.483,11.856 26.483,26.483"
   id="path10639" />
		<path
   style="fill:#535353"
   d="m 282.483,194.207 c 0,14.627 -11.855,26.483 -26.483,26.483 -14.627,0 -26.483,-11.855 -26.483,-26.483 0,-14.628 11.855,-26.483 26.483,-26.483 14.627,0 26.483,11.856 26.483,26.483"
   id="path10641" />
		<path
   style="fill:#535353"
   d="m 220.69,256 c 0,14.627 -11.855,26.483 -26.483,26.483 -14.628,0 -26.483,-11.856 -26.483,-26.483 0,-14.627 11.855,-26.483 26.483,-26.483 14.628,0 26.483,11.856 26.483,26.483"
   id="path10643" />
	</g>
</svg>
