<?xml version="1.0" encoding="UTF-8" standalone="no"?>
<!-- Generator: Adobe Illustrator 16.0.0, SVG Export Plug-In . SVG Version: 6.00 Build 0)  -->

<svg
   version="1.1"
   x="0px"
   y="0px"
   width="23.999998"
   height="24"
   viewBox="0 0 23.999998 24"
   xml:space="preserve"
   id="svg6342"
   sodipodi:docname="ledgers.svg"
   inkscape:version="1.2.1 (9c6d41e410, 2022-07-14)"
   xmlns:inkscape="http://www.inkscape.org/namespaces/inkscape"
   xmlns:sodipodi="http://sodipodi.sourceforge.net/DTD/sodipodi-0.dtd"
   xmlns="http://www.w3.org/2000/svg"
   xmlns:svg="http://www.w3.org/2000/svg"><defs
   id="defs6346">
	


			
		</defs><sodipodi:namedview
   id="namedview6344"
   pagecolor="#ffffff"
   bordercolor="#111111"
   borderopacity="1"
   inkscape:showpageshadow="0"
   inkscape:pageopacity="0"
   inkscape:pagecheckerboard="1"
   inkscape:deskcolor="#d1d1d1"
   showgrid="false"
   inkscape:zoom="33.916667"
   inkscape:cx="12"
   inkscape:cy="12"
   inkscape:window-width="1920"
   inkscape:window-height="1017"
   inkscape:window-x="-8"
   inkscape:window-y="-8"
   inkscape:window-maximized="1"
   inkscape:current-layer="g6338" />
<g
   id="g6338"
   transform="matrix(0.06496336,0,0,0.05464232,-4.6305882,-1.988434)">
		<g
   id="XMLID_993_">
				<g
   id="g6299">
					<g
   id="g6177">
						<polygon
   style="fill:#b8bfcc"
   points="381.86,95.04 381.86,41.39 435.72,94.99 435.72,95.04 "
   id="polygon6175" />
					</g>
					<g
   id="g6181">
						<rect
   x="121.24"
   y="148.7"
   style="fill:#b64344"
   width="53.900002"
   height="44.700001"
   id="rect6179" />
					</g>
					<g
   id="g6185">
						<rect
   x="175.14101"
   y="148.7"
   style="fill:#f2595b"
   width="215.629"
   height="44.700001"
   id="rect6183" />
					</g>
					<g
   id="g6189">
						<path
   style="fill:#b64344"
   d="M 390.77,193.4 V 425.9 H 175.141 V 193.4 Z m -26.96,196.63 v -17.86 h -17.94 v 17.86 z m 0,-35.74 v -17.86 h -17.94 v 17.86 z m 0,-35.75 v -17.85 h -17.94 v 17.85 z m 0,-35.74 v -17.86 h -17.94 v 17.86 z m 0,-35.74 V 229.2 h -17.94 v 17.86 z m -35.94,142.97 v -17.86 h -17.94 v 17.86 z m 0,-35.74 v -17.86 h -17.94 v 17.86 z m 0,-35.75 v -17.85 h -17.94 v 17.85 z m 0,-35.74 v -17.86 h -17.94 v 17.86 z m 0,-35.74 V 229.2 h -17.94 v 17.86 z M 291.94,390.03 V 372.17 H 274 v 17.86 z m 0,-35.74 V 336.43 H 274 v 17.86 z m 0,-35.75 V 300.69 H 274 v 17.85 z m 0,-35.74 V 264.94 H 274 v 17.86 z m 0,-35.74 V 229.2 H 274 v 17.86 z M 256,390.03 v -17.86 h -17.939 v 17.86 z m 0,-35.74 v -17.86 h -17.939 v 17.86 z m 0,-35.75 v -17.85 h -17.939 v 17.85 z m 0,-35.74 v -17.86 h -17.939 v 17.86 z m 0,-35.74 V 229.2 h -17.939 v 17.86 z m -35.93,142.97 v -17.86 h -17.95 v 17.86 z m 0,-35.74 v -17.86 h -17.95 v 17.86 z m 0,-35.75 v -17.85 h -17.95 v 17.85 z m 0,-35.74 v -17.86 h -17.95 v 17.86 z m 0,-35.74 V 229.2 h -17.95 v 17.86 z"
   id="path6187" />
					</g>
					<g
   id="g6193">
						<rect
   x="121.24"
   y="193.39999"
   style="fill:#f2595b"
   width="53.900002"
   height="232.5"
   id="rect6191" />
					</g>
					<g
   id="g6197">
						<path
   style="fill:#d7deed"
   d="M 76.29,86.1 76.28,41.39 h 305.58 v 53.65 h 53.859 V 470.61 H 76.351 Z M 390.77,425.9 V 193.4 148.7 h -215.629 -53.9 v 44.7 232.5 h 53.9 z"
   id="path6195" />
					</g>
					<g
   id="g6201">
						<rect
   x="345.87"
   y="372.17001"
   width="17.938999"
   height="17.860001"
   id="rect6199" />
					</g>
					<g
   id="g6205">
						<rect
   x="345.87"
   y="336.42999"
   width="17.938999"
   height="17.860001"
   id="rect6203" />
					</g>
					<g
   id="g6209">
						<rect
   x="345.87"
   y="300.69"
   width="17.938999"
   height="17.85"
   id="rect6207" />
					</g>
					<g
   id="g6213">
						<rect
   x="345.87"
   y="264.94"
   width="17.938999"
   height="17.858999"
   id="rect6211" />
					</g>
					<g
   id="g6217">
						<rect
   x="345.87"
   y="229.2"
   width="17.938999"
   height="17.860001"
   id="rect6215" />
					</g>
					<g
   id="g6221">
						<rect
   x="309.92999"
   y="372.17001"
   width="17.940001"
   height="17.860001"
   id="rect6219" />
					</g>
					<g
   id="g6225">
						<rect
   x="309.92999"
   y="336.42999"
   width="17.940001"
   height="17.860001"
   id="rect6223" />
					</g>
					<g
   id="g6229">
						<rect
   x="309.92999"
   y="300.69"
   width="17.940001"
   height="17.85"
   id="rect6227" />
					</g>
					<g
   id="g6233">
						<rect
   x="309.92999"
   y="264.94"
   width="17.940001"
   height="17.858999"
   id="rect6231" />
					</g>
					<g
   id="g6237">
						<rect
   x="309.92999"
   y="229.2"
   width="17.940001"
   height="17.860001"
   id="rect6235" />
					</g>
					<g
   id="g6241">
						<rect
   x="274"
   y="372.17001"
   width="17.940001"
   height="17.860001"
   id="rect6239" />
					</g>
					<g
   id="g6245">
						<rect
   x="274"
   y="336.42999"
   width="17.940001"
   height="17.860001"
   id="rect6243" />
					</g>
					<g
   id="g6249">
						<rect
   x="274"
   y="300.69"
   width="17.940001"
   height="17.85"
   id="rect6247" />
					</g>
					<g
   id="g6253">
						<rect
   x="274"
   y="264.94"
   width="17.940001"
   height="17.858999"
   id="rect6251" />
					</g>
					<g
   id="g6257">
						<rect
   x="274"
   y="229.2"
   width="17.940001"
   height="17.860001"
   id="rect6255" />
					</g>
					<g
   id="g6261">
						<rect
   x="238.061"
   y="372.17001"
   width="17.938999"
   height="17.860001"
   id="rect6259" />
					</g>
					<g
   id="g6265">
						<rect
   x="238.061"
   y="336.42999"
   width="17.938999"
   height="17.860001"
   id="rect6263" />
					</g>
					<g
   id="g6269">
						<rect
   x="238.061"
   y="300.69"
   width="17.938999"
   height="17.85"
   id="rect6267" />
					</g>
					<g
   id="g6273">
						<rect
   x="238.061"
   y="264.94"
   width="17.938999"
   height="17.858999"
   id="rect6271" />
					</g>
					<g
   id="g6277">
						<rect
   x="238.061"
   y="229.2"
   width="17.938999"
   height="17.860001"
   id="rect6275" />
					</g>
					<g
   id="g6281">
						<rect
   x="202.12"
   y="372.17001"
   width="17.950001"
   height="17.860001"
   id="rect6279" />
					</g>
					<g
   id="g6285">
						<rect
   x="202.12"
   y="336.42999"
   width="17.950001"
   height="17.860001"
   id="rect6283" />
					</g>
					<g
   id="g6289">
						<rect
   x="202.12"
   y="300.69"
   width="17.950001"
   height="17.85"
   id="rect6287" />
					</g>
					<g
   id="g6293">
						<rect
   x="202.12"
   y="264.94"
   width="17.950001"
   height="17.858999"
   id="rect6291" />
					</g>
					<g
   id="g6297">
						<rect
   x="202.12"
   y="229.2"
   width="17.950001"
   height="17.860001"
   id="rect6295" />
					</g>
				</g>
				<g
   id="g6333">
					<g
   id="g6303">
						<path
   d="M 435.72,475.61 H 76.351 c -2.762,0 -5,-2.238 -5,-4.999 L 71.29,86.101 71.28,41.391 c -0.001,-1.326 0.526,-2.598 1.464,-3.536 0.938,-0.938 2.21,-1.465 3.536,-1.465 h 305.58 c 1.322,0 2.59,0.523 3.527,1.456 l 53.859,53.6 c 0.942,0.938 1.473,2.214 1.473,3.544 v 375.62 c 0.001,2.762 -2.238,5 -4.999,5 z m -354.37,-10 H 430.72 V 97.068 L 379.796,46.39 H 81.281 l 0.009,39.709 z"
   id="path6301" />
					</g>
					<g
   id="g6307">
						<path
   d="m 435.72,100.04 h -53.86 c -2.762,0 -5,-2.239 -5,-5 V 41.39 c 0,-2.761 2.238,-5 5,-5 2.762,0 5,2.239 5,5 v 48.65 h 48.859 c 2.762,0 5,2.239 5,5 0,2.761 -2.238,5 -4.999,5 z"
   id="path6305" />
					</g>
					<g
   id="g6311">
						<path
   d="M 390.77,430.9 H 175.141 c -2.762,0 -5,-2.238 -5,-5 0,-2.762 2.238,-5 5,-5 H 385.77 V 193.4 c 0,-2.761 2.238,-5 5,-5 2.762,0 5,2.239 5,5 v 232.5 c 0,2.762 -2.239,5 -5,5 z"
   id="path6309" />
					</g>
					<g
   id="g6315">
						<path
   d="m 175.141,430.9 h -53.9 c -2.761,0 -5,-2.238 -5,-5 V 193.4 c 0,-2.761 2.239,-5 5,-5 2.762,0 5,2.239 5,5 v 227.5 h 43.9 V 148.7 c 0,-2.761 2.238,-5 5,-5 2.761,0 5,2.239 5,5 v 277.2 c 0,2.762 -2.24,5 -5,5 z"
   id="path6313" />
					</g>
					<g
   id="g6319">
						<path
   d="M 390.77,198.4 H 121.24 c -2.761,0 -5,-2.239 -5,-5 v -44.7 c 0,-2.761 2.239,-5 5,-5 h 269.53 c 2.762,0 5,2.239 5,5 v 44.7 c 0,2.761 -2.239,5 -5,5 z m -264.53,-10 H 385.77 V 153.7 H 126.24 Z"
   id="path6317" />
					</g>
					<g
   id="g6323">
						<path
   d="M 282.95,91.1 H 76.29 c -2.761,0 -5,-2.239 -5,-5 0,-2.761 2.239,-5 5,-5 h 206.66 c 2.762,0 5,2.239 5,5 0,2.761 -2.238,5 -5,5 z"
   id="path6321" />
					</g>
					<g
   id="g6327">
						<path
   d="M 247.021,121.68 H 121.24 c -2.761,0 -5,-2.239 -5,-5 0,-2.761 2.239,-5 5,-5 h 125.78 c 2.761,0 5,2.239 5,5 0,2.761 -2.239,5 -4.999,5 z"
   id="path6325" />
					</g>
					<g
   id="g6331">
						<path
   d="m 327.87,121.68 h -44.92 c -2.762,0 -5,-2.239 -5,-5 0,-2.761 2.238,-5 5,-5 h 44.92 c 2.762,0 5,2.239 5,5 0,2.761 -2.238,5 -5,5 z"
   id="path6329" />
					</g>
				</g>
			</g>
	</g>

</svg>
