<?xml version="1.0" encoding="UTF-8" standalone="no"?>
<!-- Uploaded to: SVG Repo, www.svgrepo.com, Generator: SVG Repo Mixer Tools -->

<svg
   height="24"
   width="23.999998"
   version="1.1"
   id="_x34_"
   viewBox="0 0 15.359999 15.36"
   xml:space="preserve"
   sodipodi:docname="login.svg"
   inkscape:version="1.2.1 (9c6d41e410, 2022-07-14)"
   xmlns:inkscape="http://www.inkscape.org/namespaces/inkscape"
   xmlns:sodipodi="http://sodipodi.sourceforge.net/DTD/sodipodi-0.dtd"
   xmlns="http://www.w3.org/2000/svg"
   xmlns:svg="http://www.w3.org/2000/svg"><defs
   id="defs23" /><sodipodi:namedview
   id="namedview21"
   pagecolor="#ffffff"
   bordercolor="#000000"
   borderopacity="0.25"
   inkscape:showpageshadow="2"
   inkscape:pageopacity="0.0"
   inkscape:pagecheckerboard="true"
   inkscape:deskcolor="#d1d1d1"
   showgrid="false"
   inkscape:zoom="33.916667"
   inkscape:cx="12"
   inkscape:cy="12"
   inkscape:window-width="1920"
   inkscape:window-height="1017"
   inkscape:window-x="-8"
   inkscape:window-y="-8"
   inkscape:window-maximized="1"
   inkscape:current-layer="_x34_" />
<g
   id="g427"
   transform="scale(1,1.1999999)"><g
     id="g18"
     transform="scale(0.03319796,0.02500005)">
	<g
   id="g6">
		<path
   style="fill:#c3dfd0"
   d="M 372.08,141.725 V 377.66 c 0,62.369 -40.211,115.465 -95.933,134.339 H 186.533 C 130.811,493.124 90.6,440.029 90.6,377.66 v -70.575 c 8.124,2.298 16.905,3.529 26.014,3.529 10.258,0 20.024,-1.559 29.051,-4.432 v 71.478 c 0,47.761 38.406,86.578 85.675,86.578 47.269,0 85.675,-38.816 85.675,-86.578 V 141.725 c 0,-2.216 -0.082,-4.431 -0.246,-6.647 -0.082,-0.657 -0.082,-1.395 -0.164,-2.052 -0.082,-0.657 -0.164,-1.231 -0.246,-1.805 v -0.492 c -0.082,-0.492 -0.164,-0.985 -0.246,-1.478 0,-0.246 -0.082,-0.492 -0.082,-0.738 -0.082,-0.41 -0.164,-0.903 -0.246,-1.313 0,-0.246 -0.082,-0.492 -0.082,-0.738 0,-0.082 0,-0.164 -0.082,-0.164 -0.082,-0.492 -0.164,-0.985 -0.246,-1.477 -0.164,-0.657 -0.246,-1.395 -0.41,-2.052 -0.164,-0.492 -0.246,-1.067 -0.411,-1.641 -0.082,-0.328 -0.164,-0.656 -0.246,-0.985 -0.164,-0.738 -0.328,-1.395 -0.574,-2.134 0,-0.164 -0.082,-0.328 -0.164,-0.492 0,-0.164 -0.082,-0.328 -0.082,-0.492 -0.082,-0.328 -0.164,-0.575 -0.329,-0.903 -0.082,-0.41 -0.164,-0.82 -0.328,-1.231 -0.164,-0.492 -0.329,-0.985 -0.492,-1.477 -0.082,-0.246 -0.164,-0.492 -0.246,-0.738 -0.164,-0.492 -0.41,-0.985 -0.574,-1.396 -0.082,-0.41 -0.246,-0.903 -0.41,-1.313 -0.082,-0.082 -0.082,-0.082 -0.082,-0.164 -0.164,-0.246 -0.246,-0.492 -0.328,-0.82 -0.164,-0.328 -0.247,-0.657 -0.41,-0.985 -0.164,-0.246 -0.246,-0.575 -0.41,-0.903 -0.164,-0.329 -0.329,-0.657 -0.411,-0.985 -0.082,-0.082 -0.082,-0.164 -0.082,-0.164 -0.164,-0.246 -0.246,-0.574 -0.411,-0.821 -0.164,-0.328 -0.328,-0.738 -0.492,-1.066 -0.164,-0.329 -0.246,-0.575 -0.41,-0.821 -0.082,-0.328 -0.246,-0.575 -0.41,-0.903 -0.164,-0.246 -0.246,-0.492 -0.41,-0.739 0,-0.082 -0.082,-0.164 -0.082,-0.164 -0.246,-0.411 -0.41,-0.821 -0.657,-1.231 -0.246,-0.492 -0.575,-0.985 -0.82,-1.477 -0.082,-0.246 -0.247,-0.41 -0.329,-0.575 -0.246,-0.492 -0.492,-0.903 -0.738,-1.313 -0.082,0 -0.082,-0.082 -0.082,-0.082 -0.328,-0.575 -0.657,-1.149 -1.067,-1.724 -0.164,-0.246 -0.328,-0.575 -0.492,-0.82 -0.246,-0.329 -0.41,-0.574 -0.574,-0.821 v -0.082 c -0.41,-0.493 -0.738,-0.985 -1.067,-1.478 -0.082,-0.082 -0.082,-0.164 -0.164,-0.246 -0.164,-0.246 -0.411,-0.575 -0.574,-0.821 -0.246,-0.246 -0.411,-0.574 -0.657,-0.82 0,-0.082 -0.082,-0.164 -0.082,-0.246 -0.328,-0.328 -0.574,-0.657 -0.82,-0.985 0,-0.082 -0.082,-0.082 -0.082,-0.164 -0.082,0 -0.082,-0.082 -0.164,-0.164 0,0 0,-0.082 -0.082,-0.082 -0.328,-0.492 -0.656,-0.903 -0.985,-1.313 l -1.231,-1.477 c -0.411,-0.41 -0.739,-0.821 -1.067,-1.231 -0.164,-0.164 -0.329,-0.41 -0.492,-0.574 -0.082,-0.082 -0.164,-0.164 -0.164,-0.164 -0.328,-0.329 -0.657,-0.657 -0.903,-0.985 -0.492,-0.492 -0.903,-0.985 -1.395,-1.477 -0.493,-0.492 -0.903,-0.903 -1.396,-1.395 l -1.395,-1.395 c -0.492,-0.41 -0.903,-0.821 -1.395,-1.231 0,0 0,-0.082 -0.082,-0.082 0,0 0,0 -0.082,-0.082 -0.41,-0.411 -0.902,-0.821 -1.395,-1.231 -0.082,0 -0.082,-0.082 -0.164,-0.082 -0.41,-0.41 -0.903,-0.82 -1.313,-1.149 -0.492,-0.41 -1.067,-0.821 -1.559,-1.231 -0.328,-0.329 -0.739,-0.575 -1.149,-0.903 -0.082,-0.082 -0.246,-0.164 -0.41,-0.328 -0.329,-0.246 -0.739,-0.492 -1.067,-0.738 -0.082,-0.082 -0.082,-0.082 -0.164,-0.164 -0.164,-0.082 -0.246,-0.164 -0.328,-0.246 -0.082,0 -0.164,-0.082 -0.247,-0.082 -0.328,-0.329 -0.738,-0.575 -1.149,-0.821 -0.082,-0.082 -0.164,-0.164 -0.246,-0.246 -0.574,-0.329 -1.149,-0.739 -1.641,-1.067 -0.574,-0.328 -1.067,-0.657 -1.559,-0.985 -0.082,0 -0.082,0 -0.164,-0.082 -1.066,-0.657 -2.215,-1.313 -3.282,-1.888 -0.657,-0.328 -1.231,-0.656 -1.887,-0.985 -0.575,-0.328 -1.149,-0.656 -1.724,-0.903 -0.082,-0.082 -0.164,-0.082 -0.246,-0.082 -0.492,-0.328 -0.985,-0.492 -1.477,-0.738 -0.41,-0.247 -0.903,-0.41 -1.313,-0.575 0,0 0,0 0,-0.082 -0.329,-0.082 -0.657,-0.246 -0.985,-0.328 -0.492,-0.246 -1.067,-0.492 -1.641,-0.739 -0.082,-0.082 -0.164,-0.082 -0.246,-0.082 -0.492,-0.246 -0.903,-0.41 -1.395,-0.575 H 261.3 c -0.492,-0.246 -0.985,-0.41 -1.477,-0.574 -0.246,-0.082 -0.41,-0.164 -0.575,-0.164 -0.164,-0.082 -0.328,-0.164 -0.41,-0.164 -0.41,-0.164 -0.82,-0.246 -1.231,-0.41 -0.574,-0.164 -1.067,-0.328 -1.641,-0.492 -0.164,-0.082 -0.329,-0.164 -0.574,-0.164 -0.575,-0.164 -1.067,-0.328 -1.641,-0.492 -0.575,-0.164 -1.149,-0.328 -1.723,-0.492 -0.164,0 -0.328,-0.082 -0.41,-0.082 -0.492,-0.082 -0.985,-0.246 -1.477,-0.328 -0.246,-0.082 -0.41,-0.082 -0.574,-0.164 -0.492,-0.082 -0.985,-0.164 -1.477,-0.328 h -0.246 c -0.164,0 -0.246,-0.082 -0.329,-0.082 -0.492,-0.082 -1.067,-0.164 -1.559,-0.246 -0.082,-0.082 -0.164,-0.082 -0.246,-0.082 -0.575,-0.082 -1.231,-0.164 -1.888,-0.329 h -0.082 c -0.657,-0.082 -1.313,-0.164 -1.97,-0.246 h -0.082 c -0.492,-0.082 -1.067,-0.164 -1.559,-0.164 -0.492,-0.082 -0.903,-0.082 -1.313,-0.082 -0.246,-0.082 -0.41,-0.082 -0.575,-0.082 -0.082,0 -0.246,-0.082 -0.328,-0.082 h -0.903 c -0.082,-0.082 -0.082,-0.082 -0.164,-0.082 -0.41,0 -0.821,0 -1.313,-0.082 h -2.052 c -0.739,-0.082 -1.395,-0.082 -2.134,-0.082 -29.872,0 -56.132,15.51 -71.478,38.981 -1.477,2.216 -2.79,4.513 -4.021,6.812 -1.313,2.462 -2.462,4.924 -3.529,7.385 -0.985,2.462 -1.888,5.006 -2.708,7.632 -0.328,0.903 -0.575,1.887 -0.821,2.872 -0.246,0.657 -0.411,1.395 -0.574,2.052 -1.231,4.924 -1.969,10.012 -2.38,15.182 v 1.067 H 90.681 v -0.82 C 93.553,60.646 155.594,0 231.34,0 c 2.134,0 4.267,0.082 6.401,0.164 1.395,0.082 2.708,0.082 4.021,0.246 3.201,0.246 6.319,0.575 9.438,1.067 1.313,0.082 2.544,0.328 3.857,0.574 1.888,0.329 3.775,0.657 5.663,1.067 1.97,0.411 3.857,0.903 5.745,1.395 2.298,0.575 4.513,1.231 6.811,1.887 1.887,0.657 3.775,1.231 5.663,1.969 3.118,1.067 6.073,2.298 9.027,3.693 1.477,0.575 2.955,1.231 4.35,1.97 2.052,0.985 4.103,2.052 6.073,3.118 1.97,1.067 3.939,2.216 5.908,3.447 1.888,1.149 3.857,2.38 5.663,3.693 1.806,1.231 3.611,2.462 5.417,3.857 0.082,0 0.164,0.082 0.328,0.164 1.723,1.396 3.447,2.708 5.088,4.103 5.252,4.35 10.176,9.027 14.69,14.115 1.477,1.641 2.954,3.364 4.349,5.006 0.082,0.082 0.164,0.246 0.247,0.328 1.395,1.723 2.708,3.447 4.021,5.17 1.313,1.806 2.626,3.611 3.939,5.499 1.231,1.887 2.462,3.857 3.611,5.744 1.067,1.723 2.052,3.447 3.036,5.252 4.35,7.878 7.961,16.249 10.668,25.03 0.575,1.724 1.067,3.447 1.559,5.252 0.492,1.641 0.903,3.283 1.313,5.006 0.164,0.657 0.328,1.395 0.492,2.052 0.328,1.723 0.657,3.365 0.985,5.088 0.328,1.641 0.657,3.283 0.82,4.924 0.329,2.134 0.657,4.267 0.821,6.401 0.164,1.477 0.328,2.955 0.328,4.432 0.164,1.148 0.246,2.298 0.246,3.447 0.08,2.216 0.162,4.35 0.162,6.565 z"
   id="path2" />
		<path
   style="opacity:0.2;fill:#5d5d5d"
   d="m 145.83,136.358 c -0.014,0.22 -0.028,0.447 -0.041,0.675 H 90.67 c 0.007,-0.268 0.021,-0.537 0.034,-0.806 1.294,-3.869 13.136,-6.905 27.545,-6.905 14.526,0 26.443,3.084 27.573,7.001 0.001,0.014 0.008,0.021 0.008,0.035 z"
   id="path4" />
	</g>
	<path
   style="fill:#ead66c"
   d="m 462.679,201.632 -0.329,6.976 -13.294,283.778 c 0,10.832 -8.781,19.613 -19.695,19.613 H 33.318 c -10.915,0 -19.696,-8.781 -19.696,-19.613 L 13.458,489.104 4.185,290.098 0,201.632 C 0,190.8 8.781,182.019 19.614,182.019 h 423.452 c 10.832,0 19.613,8.781 19.613,19.613 z"
   id="path8" />
	<path
   style="fill:#5b5743"
   d="m 293.481,316.501 c 0,-34.319 -27.821,-62.141 -62.141,-62.141 -34.32,0 -62.141,27.821 -62.141,62.141 0,26.26 16.29,48.716 39.315,57.814 -9.154,27.688 -22.094,65.646 -22.094,65.646 h 42.338 5.163 42.338 c 0,0 -12.94,-37.958 -22.094,-65.646 23.026,-9.098 39.316,-31.553 39.316,-57.814 z"
   id="path10" />
	<path
   style="fill:none"
   d="m 462.679,201.632 -0.329,6.976 -13.294,283.778 c 0,10.832 -8.781,19.613 -19.695,19.613 H 33.318 c -10.915,0 -19.696,-8.781 -19.696,-19.613 L 13.458,489.104 4.185,290.098 0,201.632 C 0,190.8 8.781,182.019 19.614,182.019 H 231.34 v 23.224 h 85.675 v -63.518 c 0,-2.216 -0.082,-4.431 -0.246,-6.647 -0.082,-0.657 -0.082,-1.395 -0.164,-2.052 -0.082,-0.657 -0.164,-1.231 -0.246,-1.805 v -0.492 c -0.082,-0.492 -0.164,-0.985 -0.246,-1.478 0,-0.246 -0.082,-0.492 -0.082,-0.738 -0.082,-0.41 -0.164,-0.903 -0.246,-1.313 0,-0.246 -0.082,-0.492 -0.082,-0.738 0,-0.082 0,-0.164 -0.082,-0.164 -0.082,-0.492 -0.164,-0.985 -0.246,-1.477 -0.164,-0.657 -0.246,-1.395 -0.41,-2.052 -0.164,-0.492 -0.246,-1.067 -0.411,-1.641 -0.082,-0.328 -0.164,-0.656 -0.246,-0.985 -0.164,-0.738 -0.328,-1.395 -0.574,-2.134 0,-0.164 -0.082,-0.328 -0.164,-0.492 0,-0.164 -0.082,-0.328 -0.082,-0.492 -0.082,-0.328 -0.164,-0.575 -0.329,-0.903 -0.082,-0.41 -0.164,-0.82 -0.328,-1.231 -0.164,-0.492 -0.329,-0.985 -0.492,-1.477 -0.082,-0.246 -0.164,-0.492 -0.246,-0.738 -0.164,-0.492 -0.41,-0.985 -0.574,-1.396 -0.082,-0.41 -0.246,-0.903 -0.41,-1.313 -0.082,-0.082 -0.082,-0.082 -0.082,-0.164 -0.164,-0.246 -0.246,-0.492 -0.328,-0.82 -0.164,-0.328 -0.247,-0.657 -0.41,-0.985 -0.164,-0.246 -0.246,-0.575 -0.41,-0.903 -0.164,-0.329 -0.329,-0.657 -0.411,-0.985 -0.082,-0.082 -0.082,-0.164 -0.082,-0.164 -0.164,-0.246 -0.246,-0.574 -0.411,-0.821 -0.164,-0.328 -0.328,-0.738 -0.492,-1.066 -0.164,-0.329 -0.246,-0.575 -0.41,-0.821 -0.082,-0.328 -0.246,-0.575 -0.41,-0.903 -0.164,-0.246 -0.246,-0.492 -0.41,-0.739 0,-0.082 -0.082,-0.164 -0.082,-0.164 -0.246,-0.411 -0.41,-0.821 -0.657,-1.231 -0.246,-0.492 -0.575,-0.985 -0.82,-1.477 -0.082,-0.246 -0.247,-0.41 -0.329,-0.575 -0.246,-0.492 -0.492,-0.903 -0.738,-1.313 -0.082,0 -0.082,-0.082 -0.082,-0.082 -0.328,-0.575 -0.657,-1.149 -1.067,-1.724 -0.164,-0.246 -0.328,-0.575 -0.492,-0.82 -0.246,-0.329 -0.41,-0.574 -0.574,-0.821 v -0.082 c -0.41,-0.493 -0.738,-0.985 -1.067,-1.478 -0.082,-0.082 -0.082,-0.164 -0.164,-0.246 -0.164,-0.246 -0.411,-0.575 -0.574,-0.821 -0.246,-0.246 -0.411,-0.574 -0.657,-0.82 0,-0.082 -0.082,-0.164 -0.082,-0.246 -0.328,-0.328 -0.574,-0.657 -0.82,-0.985 0,-0.082 -0.082,-0.082 -0.082,-0.164 -0.082,0 -0.082,-0.082 -0.164,-0.164 0,0 0,-0.082 -0.082,-0.082 -0.328,-0.492 -0.656,-0.903 -0.985,-1.313 l -1.231,-1.477 c -0.411,-0.41 -0.739,-0.821 -1.067,-1.231 -0.164,-0.164 -0.329,-0.41 -0.492,-0.574 -0.082,-0.082 -0.164,-0.164 -0.164,-0.164 -0.328,-0.329 -0.657,-0.657 -0.903,-0.985 -0.492,-0.492 -0.903,-0.985 -1.395,-1.477 -0.493,-0.492 -0.903,-0.903 -1.396,-1.395 l -1.395,-1.395 c -0.492,-0.41 -0.903,-0.821 -1.395,-1.231 0,0 0,-0.082 -0.082,-0.082 0,0 0,0 -0.082,-0.082 -0.41,-0.411 -0.902,-0.821 -1.395,-1.231 -0.082,0 -0.082,-0.082 -0.164,-0.082 -0.41,-0.41 -0.903,-0.82 -1.313,-1.149 -0.492,-0.41 -1.067,-0.821 -1.559,-1.231 -0.328,-0.329 -0.739,-0.575 -1.149,-0.903 -0.082,-0.082 -0.246,-0.164 -0.41,-0.328 -0.329,-0.246 -0.739,-0.492 -1.067,-0.738 -0.082,-0.082 -0.082,-0.082 -0.164,-0.164 -0.164,-0.082 -0.246,-0.164 -0.328,-0.246 -0.082,0 -0.164,-0.082 -0.247,-0.082 -0.328,-0.329 -0.738,-0.575 -1.149,-0.821 -0.082,-0.082 -0.164,-0.164 -0.246,-0.246 -0.574,-0.329 -1.149,-0.739 -1.641,-1.067 -0.574,-0.328 -1.067,-0.657 -1.559,-0.985 -0.082,0 -0.082,0 -0.164,-0.082 -1.066,-0.657 -2.215,-1.313 -3.282,-1.888 -0.657,-0.328 -1.231,-0.656 -1.887,-0.985 -0.575,-0.328 -1.149,-0.656 -1.724,-0.903 -0.082,-0.082 -0.164,-0.082 -0.246,-0.082 -0.492,-0.328 -0.985,-0.492 -1.477,-0.738 -0.41,-0.247 -0.903,-0.41 -1.313,-0.575 0,0 0,0 0,-0.082 -0.329,-0.082 -0.657,-0.246 -0.985,-0.328 -0.492,-0.246 -1.067,-0.492 -1.641,-0.739 -0.082,-0.082 -0.164,-0.082 -0.246,-0.082 -0.492,-0.246 -0.903,-0.41 -1.395,-0.575 H 261.3 c -0.492,-0.246 -0.985,-0.41 -1.477,-0.574 -0.246,-0.082 -0.41,-0.164 -0.575,-0.164 -0.164,-0.082 -0.328,-0.164 -0.41,-0.164 -0.41,-0.164 -0.82,-0.246 -1.231,-0.41 -0.574,-0.164 -1.067,-0.328 -1.641,-0.492 -0.164,-0.082 -0.329,-0.164 -0.574,-0.164 -0.575,-0.164 -1.067,-0.328 -1.641,-0.492 -0.575,-0.164 -1.149,-0.328 -1.723,-0.492 -0.164,0 -0.328,-0.082 -0.41,-0.082 -0.492,-0.082 -0.985,-0.246 -1.477,-0.328 -0.246,-0.082 -0.41,-0.082 -0.574,-0.164 -0.492,-0.082 -0.985,-0.164 -1.477,-0.328 h -0.246 c -0.164,0 -0.246,-0.082 -0.329,-0.082 -0.492,-0.082 -1.067,-0.164 -1.559,-0.246 -0.082,-0.082 -0.164,-0.082 -0.246,-0.082 -0.575,-0.082 -1.231,-0.164 -1.888,-0.329 h -0.082 c -0.657,-0.082 -1.313,-0.164 -1.97,-0.246 h -0.082 c -0.492,-0.082 -1.067,-0.164 -1.559,-0.164 -0.492,-0.082 -0.903,-0.082 -1.313,-0.082 -0.246,-0.082 -0.41,-0.082 -0.575,-0.082 -0.082,0 -0.246,-0.082 -0.328,-0.082 h -0.903 c -0.082,-0.082 -0.082,-0.082 -0.164,-0.082 -0.41,0 -0.821,0 -1.313,-0.082 h -2.052 c -0.739,-0.082 -1.395,-0.082 -2.134,-0.082 -29.872,0 -56.132,15.51 -71.478,38.981 -1.477,2.216 -2.79,4.513 -4.021,6.812 -1.313,2.462 -2.462,4.924 -3.529,7.385 -0.985,2.462 -1.888,5.006 -2.708,7.632 -0.246,0.903 -0.575,1.887 -0.821,2.872 -0.246,0.657 -0.411,1.395 -0.574,2.052 -1.231,4.924 -1.969,10.012 -2.38,15.182 v 1.067 H 90.681 v -0.82 C 93.553,60.646 155.594,0 231.34,0 c 2.134,0 4.267,0.082 6.401,0.164 1.395,0.082 2.708,0.082 4.021,0.246 3.201,0.246 6.319,0.575 9.438,1.067 1.313,0.082 2.544,0.328 3.857,0.574 1.888,0.329 3.775,0.657 5.663,1.067 1.97,0.411 3.857,0.903 5.745,1.395 2.298,0.575 4.513,1.231 6.811,1.887 1.887,0.657 3.775,1.231 5.663,1.969 3.118,1.067 6.073,2.298 9.027,3.693 1.477,0.575 2.955,1.231 4.35,1.97 2.052,0.985 4.103,2.052 6.073,3.118 1.97,1.067 3.939,2.216 5.908,3.447 1.888,1.149 3.857,2.38 5.663,3.693 1.806,1.231 3.611,2.462 5.417,3.857 0.082,0 0.164,0.082 0.328,0.164 1.723,1.396 3.447,2.708 5.088,4.103 5.252,4.35 10.176,9.027 14.69,14.115 1.477,1.641 2.954,3.364 4.349,5.006 0.082,0.082 0.164,0.246 0.247,0.328 1.395,1.723 2.708,3.447 4.021,5.17 1.313,1.806 2.626,3.611 3.939,5.499 1.231,1.887 2.462,3.857 3.611,5.744 1.067,1.723 2.052,3.447 3.036,5.252 4.35,7.878 7.961,16.249 10.668,25.03 0.575,1.724 1.067,3.447 1.559,5.252 0.492,1.641 0.903,3.283 1.313,5.006 0.164,0.657 0.328,1.395 0.492,2.052 0.328,1.723 0.657,3.365 0.985,5.088 0.328,1.641 0.657,3.283 0.82,4.924 0.329,2.134 0.657,4.267 0.821,6.401 0.164,1.477 0.328,2.955 0.328,4.432 0.164,1.148 0.246,2.298 0.246,3.447 0.082,2.216 0.164,4.349 0.164,6.565 v 40.294 h 70.986 c 10.83,0 19.611,8.781 19.611,19.613 z"
   id="path12" />
	<path
   style="fill:none"
   d="m 238.807,55.476 -7.468,7.468 v -7.878 c 0.738,0 1.395,0 2.134,0.082 h 2.052 c 0.492,0.082 0.903,0.082 1.313,0.082 0.082,0 0.082,0 0.164,0.082 h 0.903 c 0.082,0 0.246,0.082 0.328,0.082 0.164,0 0.328,0 0.574,0.082 z"
   id="path14" />
	<path
   style="opacity:0.08;fill:#040000"
   d="m 462.679,201.632 -0.329,6.976 -13.294,283.778 c 0,10.832 -8.781,19.613 -19.695,19.613 H 231.34 v -329.98 h 85.675 v -40.294 c 0,-2.216 -0.082,-4.431 -0.246,-6.647 -0.082,-0.657 -0.082,-1.395 -0.164,-2.052 -0.082,-0.657 -0.164,-1.231 -0.246,-1.805 v -0.492 c -0.082,-0.492 -0.164,-0.985 -0.246,-1.478 0,-0.246 -0.082,-0.492 -0.082,-0.738 -0.082,-0.41 -0.164,-0.903 -0.246,-1.313 0,-0.246 -0.082,-0.492 -0.082,-0.738 0,-0.082 0,-0.164 -0.082,-0.164 -0.082,-0.492 -0.164,-0.985 -0.246,-1.477 -0.164,-0.657 -0.246,-1.395 -0.41,-2.052 -0.164,-0.492 -0.246,-1.067 -0.411,-1.641 -0.082,-0.328 -0.164,-0.656 -0.246,-0.985 -0.164,-0.738 -0.328,-1.395 -0.574,-2.134 0,-0.164 -0.082,-0.328 -0.164,-0.492 0,-0.164 -0.082,-0.328 -0.082,-0.492 -0.082,-0.328 -0.164,-0.575 -0.329,-0.903 -0.082,-0.41 -0.164,-0.82 -0.328,-1.231 -0.164,-0.492 -0.329,-0.985 -0.492,-1.477 -0.082,-0.246 -0.164,-0.492 -0.246,-0.738 -0.164,-0.492 -0.41,-0.985 -0.574,-1.396 -0.082,-0.41 -0.246,-0.903 -0.41,-1.313 -0.082,-0.082 -0.082,-0.082 -0.082,-0.164 -0.164,-0.246 -0.246,-0.492 -0.328,-0.82 -0.164,-0.328 -0.247,-0.657 -0.41,-0.985 -0.164,-0.246 -0.246,-0.575 -0.41,-0.903 -0.164,-0.329 -0.329,-0.657 -0.411,-0.985 -0.082,-0.082 -0.082,-0.164 -0.082,-0.164 -0.164,-0.246 -0.246,-0.574 -0.411,-0.821 -0.164,-0.328 -0.328,-0.738 -0.492,-1.066 -0.164,-0.329 -0.246,-0.575 -0.41,-0.821 -0.082,-0.328 -0.246,-0.575 -0.41,-0.903 -0.164,-0.246 -0.246,-0.492 -0.41,-0.739 0,-0.082 -0.082,-0.164 -0.082,-0.164 -0.246,-0.411 -0.41,-0.821 -0.657,-1.231 -0.246,-0.492 -0.575,-0.985 -0.82,-1.477 -0.082,-0.246 -0.247,-0.41 -0.329,-0.575 -0.246,-0.492 -0.492,-0.903 -0.738,-1.313 -0.082,0 -0.082,-0.082 -0.082,-0.082 -0.328,-0.575 -0.657,-1.149 -1.067,-1.724 -0.164,-0.246 -0.328,-0.575 -0.492,-0.82 -0.246,-0.329 -0.41,-0.574 -0.574,-0.821 v -0.082 c -0.41,-0.493 -0.738,-0.985 -1.067,-1.478 -0.082,-0.082 -0.082,-0.164 -0.164,-0.246 -0.164,-0.246 -0.411,-0.575 -0.574,-0.821 -0.246,-0.246 -0.411,-0.574 -0.657,-0.82 0,-0.082 -0.082,-0.164 -0.082,-0.246 -0.328,-0.328 -0.574,-0.657 -0.82,-0.985 0,-0.082 -0.082,-0.082 -0.082,-0.164 -0.082,0 -0.082,-0.082 -0.164,-0.164 0,0 0,-0.082 -0.082,-0.082 -0.328,-0.492 -0.656,-0.903 -0.985,-1.313 l -1.231,-1.477 c -0.411,-0.41 -0.739,-0.821 -1.067,-1.231 -0.164,-0.164 -0.329,-0.41 -0.492,-0.574 -0.082,-0.082 -0.164,-0.164 -0.164,-0.164 -0.328,-0.329 -0.657,-0.657 -0.903,-0.985 -0.492,-0.492 -0.903,-0.985 -1.395,-1.477 -0.493,-0.492 -0.903,-0.903 -1.396,-1.395 l -1.395,-1.395 c -0.492,-0.41 -0.903,-0.821 -1.395,-1.231 0,0 0,-0.082 -0.082,-0.082 0,0 0,0 -0.082,-0.082 -0.41,-0.411 -0.902,-0.821 -1.395,-1.231 -0.082,0 -0.082,-0.082 -0.164,-0.082 -0.41,-0.41 -0.903,-0.82 -1.313,-1.149 -0.492,-0.41 -1.067,-0.821 -1.559,-1.231 -0.328,-0.329 -0.739,-0.575 -1.149,-0.903 -0.082,-0.082 -0.246,-0.164 -0.41,-0.328 -0.329,-0.246 -0.739,-0.492 -1.067,-0.738 -0.082,-0.082 -0.082,-0.082 -0.164,-0.164 -0.164,-0.082 -0.246,-0.164 -0.328,-0.246 -0.082,0 -0.164,-0.082 -0.247,-0.082 -0.328,-0.329 -0.738,-0.575 -1.149,-0.821 -0.082,-0.082 -0.164,-0.164 -0.246,-0.246 -0.574,-0.329 -1.149,-0.739 -1.641,-1.067 -0.574,-0.328 -1.067,-0.657 -1.559,-0.985 -0.082,0 -0.082,0 -0.164,-0.082 -1.066,-0.657 -2.215,-1.313 -3.282,-1.888 -0.657,-0.328 -1.231,-0.656 -1.887,-0.985 -0.575,-0.328 -1.149,-0.656 -1.724,-0.903 -0.082,-0.082 -0.164,-0.082 -0.246,-0.082 -0.492,-0.328 -0.985,-0.492 -1.477,-0.738 -0.41,-0.247 -0.903,-0.41 -1.313,-0.575 0,0 0,0 0,-0.082 -0.329,-0.082 -0.657,-0.246 -0.985,-0.328 -0.492,-0.246 -1.067,-0.492 -1.641,-0.739 -0.082,-0.082 -0.164,-0.082 -0.246,-0.082 -0.492,-0.246 -0.903,-0.41 -1.395,-0.575 H 261.3 c -0.492,-0.246 -0.985,-0.41 -1.477,-0.574 -0.246,-0.082 -0.41,-0.164 -0.575,-0.164 -0.164,-0.082 -0.328,-0.164 -0.41,-0.164 -0.41,-0.164 -0.82,-0.246 -1.231,-0.41 -0.574,-0.164 -1.067,-0.328 -1.641,-0.492 -0.164,-0.082 -0.329,-0.164 -0.574,-0.164 -0.575,-0.164 -1.067,-0.328 -1.641,-0.492 -0.575,-0.164 -1.149,-0.328 -1.723,-0.492 -0.164,0 -0.328,-0.082 -0.41,-0.082 -0.492,-0.082 -0.985,-0.246 -1.477,-0.328 -0.246,-0.082 -0.41,-0.082 -0.574,-0.164 -0.492,-0.082 -0.985,-0.164 -1.477,-0.328 h -0.246 c -0.164,0 -0.246,-0.082 -0.329,-0.082 -0.492,-0.082 -1.067,-0.164 -1.559,-0.246 -0.082,-0.082 -0.164,-0.082 -0.246,-0.082 -0.575,-0.082 -1.231,-0.164 -1.888,-0.329 h -0.082 c -0.657,-0.082 -1.313,-0.164 -1.97,-0.246 h -0.082 c -0.492,-0.082 -1.067,-0.164 -1.559,-0.164 -0.492,-0.082 -0.903,-0.082 -1.313,-0.082 -0.246,-0.082 -0.41,-0.082 -0.575,-0.082 -0.082,0 -0.246,-0.082 -0.328,-0.082 h -0.903 c -0.082,-0.082 -0.082,-0.082 -0.164,-0.082 -0.41,0 -0.821,0 -1.313,-0.082 h -2.052 c -0.739,-0.082 -1.395,-0.082 -2.134,-0.082 V 0 c 2.134,0 4.267,0.082 6.401,0.164 1.395,0.082 2.708,0.082 4.021,0.246 3.201,0.246 6.319,0.575 9.438,1.067 1.313,0.082 2.544,0.328 3.857,0.574 1.888,0.329 3.775,0.657 5.663,1.067 1.97,0.411 3.857,0.903 5.745,1.395 2.298,0.575 4.513,1.231 6.811,1.887 1.887,0.657 3.775,1.231 5.663,1.969 3.118,1.067 6.073,2.298 9.027,3.693 1.477,0.575 2.955,1.231 4.35,1.97 2.052,0.985 4.103,2.052 6.073,3.118 1.97,1.067 3.939,2.216 5.908,3.447 1.888,1.149 3.857,2.38 5.663,3.693 1.806,1.231 3.611,2.462 5.417,3.857 0.082,0 0.164,0.082 0.328,0.164 1.723,1.396 3.447,2.708 5.088,4.103 5.252,4.35 10.176,9.027 14.69,14.115 1.477,1.641 2.954,3.364 4.349,5.006 0.082,0.082 0.164,0.246 0.247,0.328 1.395,1.723 2.708,3.447 4.021,5.17 1.313,1.806 2.626,3.611 3.939,5.499 1.231,1.887 2.462,3.857 3.611,5.744 1.067,1.723 2.052,3.447 3.036,5.252 4.35,7.878 7.961,16.249 10.668,25.03 0.575,1.724 1.067,3.447 1.559,5.252 0.492,1.641 0.903,3.283 1.313,5.006 0.164,0.657 0.328,1.395 0.492,2.052 0.328,1.723 0.657,3.365 0.985,5.088 0.328,1.641 0.657,3.283 0.82,4.924 0.329,2.134 0.657,4.267 0.821,6.401 0.164,1.477 0.328,2.955 0.328,4.432 0.164,1.148 0.246,2.298 0.246,3.447 0.082,2.216 0.164,4.349 0.164,6.565 v 40.294 h 70.986 c 10.823,0 19.604,8.781 19.604,19.613 z"
   id="path16" />
</g></g>
</svg>
