<?xml version="1.0" encoding="UTF-8" standalone="no"?>
<!-- Generator: Adobe Illustrator 23.0.3, SVG Export Plug-In . SVG Version: 6.00 Build 0)  -->

<svg
   version="1.1"
   id="Layer_1"
   x="0px"
   y="0px"
   viewBox="0 0 24 24"
   xml:space="preserve"
   sodipodi:docname="manifest.svg"
   width="24"
   height="24"
   inkscape:version="1.2.1 (9c6d41e410, 2022-07-14)"
   xmlns:inkscape="http://www.inkscape.org/namespaces/inkscape"
   xmlns:sodipodi="http://sodipodi.sourceforge.net/DTD/sodipodi-0.dtd"
   xmlns="http://www.w3.org/2000/svg"
   xmlns:svg="http://www.w3.org/2000/svg"
   xmlns:rdf="http://www.w3.org/1999/02/22-rdf-syntax-ns#"
   xmlns:cc="http://creativecommons.org/ns#"
   xmlns:dc="http://purl.org/dc/elements/1.1/"><defs
   id="defs5077" /><sodipodi:namedview
   id="namedview5075"
   pagecolor="#ffffff"
   bordercolor="#111111"
   borderopacity="1"
   inkscape:showpageshadow="0"
   inkscape:pageopacity="0"
   inkscape:pagecheckerboard="1"
   inkscape:deskcolor="#d1d1d1"
   showgrid="false"
   inkscape:zoom="33.916667"
   inkscape:cx="12.029484"
   inkscape:cy="12.029484"
   inkscape:window-width="1920"
   inkscape:window-height="1017"
   inkscape:window-x="1352"
   inkscape:window-y="-8"
   inkscape:window-maximized="1"
   inkscape:current-layer="Layer_1" />
<style
   type="text/css"
   id="style5046">
	.st0{fill:#FFB60B;}
	.st1{fill:#141C28;}
</style>
<title
   id="title5048">notepad-1-flat</title>












<metadata
   id="metadata7893"><rdf:RDF><cc:Work
       rdf:about=""><dc:title>notepad-1-flat</dc:title></cc:Work></rdf:RDF></metadata><g
   id="g7862"
   transform="matrix(0.04566127,0,0,0.04411595,-2.3378572,1.4126353)"><g
     id="g3432"
     transform="matrix(1.2832265,0,0,1.0624999,616.17779,-12.278196)"><path
       class="st0"
       d="m -94.679084,19.838304 h -57.599996 c 4.2,5.5 6.5,12.3 6.5,19.2 v 38.4 c 0,17.7 -14.3,31.999996 -32,31.999996 h -115.3 c -17.7,0 -32,-14.299996 -32,-31.999996 v -38.4 c 0,-6.9 2.3,-13.7 6.4,-19.2 h -57.6 c -35.3,0.1 -63.9,28.7 -64,64 V 429.4383 c 0.1,35.3 28.7,63.9 64,64 h 281.599996 c 35.3,-0.1 63.9,-28.7 64,-64 V 83.838304 c -0.1,-35.3 -28.7,-63.9 -64,-64 z"
       id="path5050" /><path
       class="st1"
       d="m -145.87908,199.0383 h -128 c -7.1,0 -12.8,-5.7 -12.8,-12.8 0,-7.1 5.7,-12.8 12.8,-12.8 v 0 h 128 c 7.1,0 12.8,5.7 12.8,12.8 0,7.1 -5.7,12.8 -12.8,12.8 z"
       id="path5052" /><circle
       class="st1"
       cx="-325.0791"
       cy="186.23831"
       r="12.8"
       id="circle5054" /><path
       class="st1"
       d="m -145.87908,250.2383 h -128 c -7.1,0 -12.8,-5.7 -12.8,-12.8 0,-7.1 5.7,-12.8 12.8,-12.8 v 0 h 128 c 7.1,0 12.8,5.7 12.8,12.8 0,7.1 -5.7,12.8 -12.8,12.8 z"
       id="path5056" /><circle
       class="st1"
       cx="-325.0791"
       cy="237.43831"
       r="12.8"
       id="circle5058" /><path
       class="st1"
       d="m -145.87908,301.4383 h -128 c -7.1,0 -12.8,-5.7 -12.8,-12.8 0,-7.1 5.7,-12.8 12.8,-12.8 v 0 h 128 c 7.1,0 12.8,5.7 12.8,12.8 0,7.1 -5.7,12.8 -12.8,12.8 z"
       id="path5060" /><circle
       class="st1"
       cx="-325.0791"
       cy="288.63831"
       r="12.8"
       id="circle5062" /><path
       class="st1"
       d="m -145.87908,352.6383 h -128 c -7.1,0 -12.8,-5.7 -12.8,-12.8 0,-7.1 5.7,-12.8 12.8,-12.8 v 0 h 128 c 7.1,0 12.8,5.7 12.8,12.8 0,7.1 -5.7,12.8 -12.8,12.8 z"
       id="path5064" /><circle
       class="st1"
       cx="-325.0791"
       cy="339.83829"
       r="12.8"
       id="circle5066" /><path
       class="st1"
       d="m -145.87908,403.8383 h -128 c -7.1,0 -12.8,-5.7 -12.8,-12.8 0,-7.1 5.7,-12.8 12.8,-12.8 v 0 h 128 c 7.1,0 12.8,5.7 12.8,12.8 0,7.1 -5.7,12.8 -12.8,12.8 z"
       id="path5068" /><circle
       class="st1"
       cx="-325.0791"
       cy="391.0383"
       r="12.8"
       id="circle5070" /><path
       class="st1"
       d="m -177.87908,7.0383041 h -21.4 c -7,-20.0000001 -28.9,-30.5000001 -48.9,-23.4000001 -11,3.9 -19.6,12.5000001 -23.4,23.4000001 h -21.4 c -17.7,0 -32,14.2999999 -32,31.9999999 v 38.4 c 0,17.7 14.3,31.999996 32,31.999996 h 115.2 c 17.7,0 32,-14.299996 32,-31.999996 v -38.4 c -0.1,-17.7 -14.4,-31.9999999 -32.1,-31.9999999 z m -57.6,25.5999999 c -7.1,0 -12.8,-5.7 -12.8,-12.8 0,-7.1 5.7,-12.7999999 12.8,-12.7999999 7.1,0 12.8,5.6999999 12.8,12.7999999 0,0 0,0 0,0 0,7.1 -5.7,12.8 -12.8,12.8 z"
       id="path5072"
       style="fill:#212a2d;fill-opacity:1" /></g></g></svg>
