<?xml version="1.0" encoding="UTF-8" standalone="no"?>
<!-- Uploaded to: SVG Repo, www.svgrepo.com, Generator: SVG Repo Mixer Tools -->

<svg
   version="1.1"
   id="Capa_1"
   viewBox="0 0 24 24"
   xml:space="preserve"
   sodipodi:docname="passenger.svg"
   width="24"
   height="24"
   inkscape:version="1.2.1 (9c6d41e410, 2022-07-14)"
   xmlns:inkscape="http://www.inkscape.org/namespaces/inkscape"
   xmlns:sodipodi="http://sodipodi.sourceforge.net/DTD/sodipodi-0.dtd"
   xmlns="http://www.w3.org/2000/svg"
   xmlns:svg="http://www.w3.org/2000/svg"><defs
   id="defs31" /><sodipodi:namedview
   id="namedview29"
   pagecolor="#ffffff"
   bordercolor="#000000"
   borderopacity="0.25"
   inkscape:showpageshadow="2"
   inkscape:pageopacity="0.0"
   inkscape:pagecheckerboard="true"
   inkscape:deskcolor="#d1d1d1"
   showgrid="false"
   inkscape:zoom="33.916667"
   inkscape:cx="11.985258"
   inkscape:cy="12"
   inkscape:window-width="1920"
   inkscape:window-height="1017"
   inkscape:window-x="1352"
   inkscape:window-y="-8"
   inkscape:window-maximized="1"
   inkscape:current-layer="Capa_1" />
<g
   id="g26"
   transform="matrix(0.41187435,0,0,0.41392195,-2.1098907e-5,-0.05962705)">
	<g
   id="g8">
		<path
   style="fill:#ecf0f1"
   d="m 18.613,41.696 -7.907,4.313 c -0.464,0.253 -0.881,0.564 -1.269,0.903 4.611,3.886 10.562,6.231 17.064,6.231 6.454,0 12.367,-2.31 16.964,-6.144 -0.424,-0.358 -0.884,-0.68 -1.394,-0.934 L 33.604,41.832 C 32.51,41.285 31.819,40.167 31.819,38.944 v -3.322 c 0.238,-0.271 0.51,-0.619 0.801,-1.03 1.154,-1.63 2.027,-3.423 2.632,-5.304 1.086,-0.335 1.886,-1.338 1.886,-2.53 v -3.546 c 0,-0.78 -0.347,-1.477 -0.886,-1.965 v -5.126 c 0,0 1.053,-7.977 -9.75,-7.977 -10.803,0 -9.75,7.977 -9.75,7.977 v 5.126 c -0.54,0.488 -0.886,1.185 -0.886,1.965 v 3.546 c 0,0.934 0.491,1.756 1.226,2.231 0.886,3.857 3.206,6.633 3.206,6.633 v 3.24 c -0.002,1.181 -0.648,2.268 -1.685,2.834 z"
   id="path2" />
		<g
   id="g6">
			<path
   style="fill:#556080"
   d="M 26.953,0.148 C 12.32,-0.102 0.254,11.558 0.004,26.191 -0.138,34.488 3.56,41.945 9.448,46.904 9.833,46.568 10.246,46.26 10.705,46.01 l 7.907,-4.313 c 1.037,-0.566 1.683,-1.653 1.683,-2.835 v -3.24 c 0,0 -2.321,-2.776 -3.206,-6.633 -0.734,-0.475 -1.226,-1.296 -1.226,-2.231 v -3.546 c 0,-0.78 0.347,-1.477 0.886,-1.965 v -5.126 c 0,0 -1.053,-7.977 9.75,-7.977 10.803,0 9.75,7.977 9.75,7.977 v 5.126 c 0.54,0.488 0.886,1.185 0.886,1.965 v 3.546 c 0,1.192 -0.8,2.195 -1.886,2.53 -0.605,1.881 -1.478,3.674 -2.632,5.304 -0.291,0.411 -0.563,0.759 -0.801,1.03 v 3.322 c 0,1.223 0.691,2.342 1.785,2.888 l 8.467,4.233 c 0.508,0.254 0.967,0.575 1.39,0.932 5.71,-4.762 9.399,-11.882 9.536,-19.9 C 53.246,12.464 41.587,0.398 26.953,0.148 Z"
   id="path4" />
		</g>
	</g>
	<g
   id="g24">
		<polygon
   style="fill:#eddcc7"
   points="34.84,55.93 39.487,51.283 36.836,48.633 36.828,48.64 "
   id="polygon10" />
		<path
   style="fill:#d75a4a"
   d="m 56.086,34.684 -1.247,-1.247 c -0.775,-0.775 -2.032,-0.775 -2.807,0 l -3.582,3.582 2.65,2.651 z"
   id="path12" />
		
			<rect
   x="42.094002"
   y="35.938999"
   transform="matrix(0.7071,0.7071,-0.7071,0.7071,44.0976,-18.1587)"
   style="fill:#f29c21"
   width="3.7490001"
   height="16.424"
   id="rect14" />
		<polygon
   style="fill:#d6c4b1"
   points="42.493,54.29 39.487,51.283 34.84,55.93 34.707,56.418 42.485,54.297 "
   id="polygon16" />
		<path
   style="fill:#a34740"
   d="m 54.107,42.676 3.582,-3.582 c 0.775,-0.775 0.775,-2.032 0,-2.807 L 56.087,34.685 51.1,39.67 Z"
   id="path18" />
		
			<rect
   x="44.671001"
   y="38.768002"
   transform="matrix(-0.7071,-0.7071,0.7071,-0.7071,46.6666,113.2895)"
   style="fill:#e18c25"
   width="4.2509999"
   height="16.424"
   id="rect20" />
		<path
   style="fill:#5e5e5e"
   d="m 34,58.126 c -0.256,0 -0.512,-0.098 -0.707,-0.293 -0.391,-0.391 -0.391,-1.023 0,-1.414 L 35.5,54.212 c 0.391,-0.391 1.023,-0.391 1.414,0 0.391,0.391 0.391,1.023 0,1.414 l -2.207,2.207 C 34.512,58.028 34.256,58.126 34,58.126 Z"
   id="path22" />
	</g>
</g>
<g
   id="g436"
   transform="scale(0.41187435,0.41392195)"><g
     id="g421"
     transform="translate(-5.1226563e-5,-0.14405384)">
	<g
   id="g403">
		<path
   style="fill:#ecf0f1"
   d="m 18.613,41.696 -7.907,4.313 c -0.464,0.253 -0.881,0.564 -1.269,0.903 4.611,3.886 10.562,6.231 17.064,6.231 6.454,0 12.367,-2.31 16.964,-6.144 -0.424,-0.358 -0.884,-0.68 -1.394,-0.934 L 33.604,41.832 C 32.51,41.285 31.819,40.167 31.819,38.944 v -3.322 c 0.238,-0.271 0.51,-0.619 0.801,-1.03 1.154,-1.63 2.027,-3.423 2.632,-5.304 1.086,-0.335 1.886,-1.338 1.886,-2.53 v -3.546 c 0,-0.78 -0.347,-1.477 -0.886,-1.965 v -5.126 c 0,0 1.053,-7.977 -9.75,-7.977 -10.803,0 -9.75,7.977 -9.75,7.977 v 5.126 c -0.54,0.488 -0.886,1.185 -0.886,1.965 v 3.546 c 0,0.934 0.491,1.756 1.226,2.231 0.886,3.857 3.206,6.633 3.206,6.633 v 3.24 c -0.002,1.181 -0.648,2.268 -1.685,2.834 z"
   id="path397" />
		<g
   id="g401">
			<path
   style="fill:#556080"
   d="M 26.953,0.148 C 12.32,-0.102 0.254,11.558 0.004,26.191 -0.138,34.488 3.56,41.945 9.448,46.904 9.833,46.568 10.246,46.26 10.705,46.01 l 7.907,-4.313 c 1.037,-0.566 1.683,-1.653 1.683,-2.835 v -3.24 c 0,0 -2.321,-2.776 -3.206,-6.633 -0.734,-0.475 -1.226,-1.296 -1.226,-2.231 v -3.546 c 0,-0.78 0.347,-1.477 0.886,-1.965 v -5.126 c 0,0 -1.053,-7.977 9.75,-7.977 10.803,0 9.75,7.977 9.75,7.977 v 5.126 c 0.54,0.488 0.886,1.185 0.886,1.965 v 3.546 c 0,1.192 -0.8,2.195 -1.886,2.53 -0.605,1.881 -1.478,3.674 -2.632,5.304 -0.291,0.411 -0.563,0.759 -0.801,1.03 v 3.322 c 0,1.223 0.691,2.342 1.785,2.888 l 8.467,4.233 c 0.508,0.254 0.967,0.575 1.39,0.932 5.71,-4.762 9.399,-11.882 9.536,-19.9 C 53.246,12.464 41.587,0.398 26.953,0.148 Z"
   id="path399" />
		</g>
	</g>
	<g
   id="g419">
		<polygon
   style="fill:#eddcc7"
   points="34.84,55.93 39.487,51.283 36.836,48.633 36.828,48.64 "
   id="polygon405" />
		<path
   style="fill:#d75a4a"
   d="m 56.086,34.684 -1.247,-1.247 c -0.775,-0.775 -2.032,-0.775 -2.807,0 l -3.582,3.582 2.65,2.651 z"
   id="path407" />
		
			<rect
   x="42.094002"
   y="35.938999"
   transform="matrix(0.7071,0.7071,-0.7071,0.7071,44.0976,-18.1587)"
   style="fill:#f29c21"
   width="3.7490001"
   height="16.424"
   id="rect409" />
		<polygon
   style="fill:#d6c4b1"
   points="42.493,54.29 39.487,51.283 34.84,55.93 34.707,56.418 42.485,54.297 "
   id="polygon411" />
		<path
   style="fill:#a34740"
   d="m 54.107,42.676 3.582,-3.582 c 0.775,-0.775 0.775,-2.032 0,-2.807 L 56.087,34.685 51.1,39.67 Z"
   id="path413" />
		
			<rect
   x="44.671001"
   y="38.768002"
   transform="matrix(-0.7071,-0.7071,0.7071,-0.7071,46.6666,113.2895)"
   style="fill:#e18c25"
   width="4.2509999"
   height="16.424"
   id="rect415" />
		<path
   style="fill:#5e5e5e"
   d="m 34,58.126 c -0.256,0 -0.512,-0.098 -0.707,-0.293 -0.391,-0.391 -0.391,-1.023 0,-1.414 L 35.5,54.212 c 0.391,-0.391 1.023,-0.391 1.414,0 0.391,0.391 0.391,1.023 0,1.414 l -2.207,2.207 C 34.512,58.028 34.256,58.126 34,58.126 Z"
   id="path417" />
	</g>
</g></g></svg>
