<?xml version="1.0" encoding="UTF-8" standalone="no"?>
<!-- Creator: CorelDRAW -->

<svg
   xml:space="preserve"
   width="0.25in"
   height="0.25in"
   version="1.1"
   style="clip-rule:evenodd;fill-rule:evenodd;image-rendering:optimizeQuality;shape-rendering:geometricPrecision;text-rendering:geometricPrecision"
   viewBox="0 0 250 250"
   id="svg1266"
   sodipodi:docname="pickupPoints.svg"
   inkscape:version="1.2.1 (9c6d41e410, 2022-07-14)"
   xmlns:inkscape="http://www.inkscape.org/namespaces/inkscape"
   xmlns:sodipodi="http://sodipodi.sourceforge.net/DTD/sodipodi-0.dtd"
   xmlns="http://www.w3.org/2000/svg"
   xmlns:svg="http://www.w3.org/2000/svg"><sodipodi:namedview
   id="namedview1268"
   pagecolor="#ffffff"
   bordercolor="#111111"
   borderopacity="1"
   inkscape:showpageshadow="0"
   inkscape:pageopacity="0"
   inkscape:pagecheckerboard="1"
   inkscape:deskcolor="#d1d1d1"
   inkscape:document-units="in"
   showgrid="false"
   inkscape:zoom="33.916667"
   inkscape:cx="12"
   inkscape:cy="12"
   inkscape:window-width="1920"
   inkscape:window-height="1017"
   inkscape:window-x="-8"
   inkscape:window-y="-8"
   inkscape:window-maximized="1"
   inkscape:current-layer="Layer_x0020_1" />
 <defs
   id="defs1236">
  <style
   type="text/css"
   id="style1234">
   <![CDATA[
    .fil0 {fill:black}
    .fil4 {fill:#ACC349}
    .fil3 {fill:#BFD951}
    .fil1 {fill:#FA3C48}
    .fil2 {fill:white}
   ]]>
  </style>
 </defs>
 <g
   id="Layer_x0020_1"
   inkscape:label="Layer 1"
   inkscape:groupmode="layer">
  <metadata
   id="CorelCorpID_0Corel-Layer" />
  
  
  
  
  
  
  
  
  
  
  
  
  <g
   id="g1400"
   transform="matrix(0.14648495,0,0,0.17638302,0,-25.51204)"><path
     class="fil0"
     d="M 1670.27,1562.01 H 255.83 c -26.33,0 -26.33,-40 0,-40 H 1666.66 V 572.29 H 1148.6 c -26.33,0 -26.33,-40 0,-40 h 521.67 c 20.14,0 36.39,16.39 36.39,36.39 v 956.94 c 0,20.14 -16.39,36.39 -36.39,36.39 z M 573.06,572.29 H 279.03 c -26.36,0 -26.36,-40 0,-40 H 573.2 c 26.4,0 26.35,40 -0.14,40 z"
     id="path1239" /><path
     class="fil0"
     d="M 255.83,1562.01 H 140.42 C 63.06,1562.01 0,1498.95 0,1421.45 c 0,-77.5 63.06,-140.56 140.56,-140.56 h 138.47 c 26.33,0 26.33,40 0,40 H 140.56 c -55.42,0 -100.56,45.14 -100.56,100.56 0,55.42 45.14,100.56 100.56,100.56 h 115.42 c 26.37,0 26.32,40 -0.14,40 z"
     id="path1241" /><path
     class="fil0"
     d="m 20,1441.46 c -11.11,0 -20,-9.03 -20,-20 V 456.19 c 0,-82.36 67.08,-149.44 149.44,-149.44 82.5,0 149.44,67.08 149.44,149.44 v 844.85 c 0,26.33 -40,26.33 -40,0 V 456.19 C 258.88,395.77 209.71,346.75 149.44,346.75 89.16,346.75 40,395.92 40,456.19 v 965.41 c 0,10.97 -8.89,19.86 -20,19.86 z"
     id="path1243" /><path
     class="fil0"
     d="M 1291.38,1047.98 H 860.82 c -26.33,0 -26.33,-40 0,-40 h 410.56 V 552.43 c 0,-26.33 40,-26.33 40,0 v 475.55 c 0,10.97 -8.89,20 -20,20 z"
     id="path1245" /><path
     class="fil0"
     d="m 586.53,1562.01 c -11.11,0 -20,-9.03 -20,-20 v -302.22 c 0,-10.97 8.89,-20 20,-20 H 951.1 c 26.3,0 26.3,40 0,40 H 606.53 v 282.36 c 0,10.97 -8.89,19.86 -20,19.86 z"
     id="path1247" /><path
     class="fil0"
     d="m 1530.96,1280.62 h -295.14 c -26.3,0 -26.3,-40 0,-40 h 275.14 V 795.35 c 0,-11.11 9.03,-20 20,-20 h 155.69 c 26.33,0 26.33,40 0,40 h -135.69 v 445.27 c 0,10.97 -8.89,20 -20,20 z"
     id="path1249" /><path
     class="fil0"
     d="m 860.83,622.02 c -86.66,0 -157.22,-70.56 -157.22,-157.22 0,-86.67 70.56,-157.22 157.22,-157.22 86.67,0 157.22,70.55 157.22,157.22 0,86.67 -70.56,157.22 -157.22,157.22 z m 0,-274.31 c -64.58,0 -117.22,52.5 -117.22,117.22 0,64.72 52.5,117.22 117.22,117.22 64.72,0 117.22,-52.5 117.22,-117.22 0,-64.72 -52.64,-117.22 -117.22,-117.22 z"
     id="path1251" /><path
     class="fil1"
     d="m 860.83,307.58 c 86.67,0 157.22,70.55 157.22,157.22 0,86.67 -70.56,157.22 -157.22,157.22 -86.66,0 -157.22,-70.56 -157.22,-157.22 0,-86.67 70.56,-157.22 157.22,-157.22 z m 0,683.46 c 66.62,-101.48 285.56,-394.82 285.56,-520.97 0,-157.5 -128.06,-285.56 -285.56,-285.56 -157.5,0 -285.55,128.06 -285.55,285.56 0,125.76 220.74,422.24 285.55,520.97 z"
     id="path1253" /><path
     class="fil2"
     d="m 978.05,464.93 c 0,-64.72 -52.64,-117.22 -117.22,-117.22 -64.58,0 -117.22,52.5 -117.22,117.22 0,64.72 52.5,117.22 117.22,117.22 64.72,0 117.22,-52.5 117.22,-117.22 z"
     id="path1255" /><path
     class="fil3"
     d="m 1162.88,572.3 c -53.35,136.31 -185.2,312.09 -265.69,435.69 h 374.19 V 572.3 Z"
     id="path1257" /><path
     class="fil0"
     d="m 860.83,1047.98 c -6.94,0 -13.33,-3.47 -16.94,-9.31 C 746.15,882.3 535.28,615.15 535.28,470.2 c 0,-179.44 145.97,-325.56 325.55,-325.56 179.58,0 325.56,145.97 325.56,325.56 0,146.44 -212.44,413.21 -308.75,568.47 -3.47,5.7 -9.86,9.31 -16.81,9.31 z m 0,-863.46 c -157.5,0 -285.55,128.06 -285.55,285.56 0,120.96 190.98,376.91 285.55,520.97 94.72,-144.27 285.56,-399.44 285.56,-520.97 0,-157.5 -128.06,-285.56 -285.56,-285.56 z"
     id="path1259" /><path
     class="fil3"
     d="M 843.52,1038.09 C 765.64,913.62 616.58,719.4 558.89,572.29 h -260 v 728.74 c 0,11.57 -8.28,19.86 -19.86,19.86 H 140.56 c -55.45,0 -100.59,45.15 -100.56,100.69 0.07,55.35 45.19,100.42 100.56,100.42 h 425.97 v -282.22 c 0,-10.97 8.89,-20 20,-20 H 951.1 c 26.3,0 26.3,40 0,40 H 606.53 V 1522 H 1666.66 V 815.34 h -115.69 v 445.27 c 0,10.97 -8.89,20 -20,20 h -295.14 c -26.3,0 -26.3,-40 0,-40 h 275.14 V 795.34 c 0,-11.11 9.03,-20 20,-20 h 135.69 V 572.28 h -355.28 v 455.69 c 0,10.97 -8.89,20 -20,20 H 860.82 c -7.46,0 -13.44,-3.67 -17.31,-9.89 z"
     id="path1261" /><path
     class="fil4"
     d="M 258.89,1280.9 V 456.18 c 0,-60.42 -49.17,-109.44 -109.44,-109.44 -60.28,0 -109.44,49.17 -109.44,109.44 v 867.16 c 25.54,-26.17 61.19,-42.44 100.56,-42.44 H 258.9 Z"
     id="path1263" /></g>
 </g>
</svg>
