<?xml version="1.0" encoding="UTF-8" standalone="no"?>
<svg
   data-name="Layer 1"
   viewBox="0 0 24 24"
   version="1.1"
   id="svg50"
   sodipodi:docname="ports.svg"
   width="24"
   height="24"
   inkscape:version="1.2.1 (9c6d41e410, 2022-07-14)"
   xmlns:inkscape="http://www.inkscape.org/namespaces/inkscape"
   xmlns:sodipodi="http://sodipodi.sourceforge.net/DTD/sodipodi-0.dtd"
   xmlns="http://www.w3.org/2000/svg"
   xmlns:svg="http://www.w3.org/2000/svg">
  <defs
     id="defs54" />
  <sodipodi:namedview
     id="namedview52"
     pagecolor="#ffffff"
     bordercolor="#000000"
     borderopacity="0.25"
     inkscape:showpageshadow="2"
     inkscape:pageopacity="0.0"
     inkscape:pagecheckerboard="true"
     inkscape:deskcolor="#d1d1d1"
     showgrid="false"
     inkscape:zoom="33.916667"
     inkscape:cx="11.985258"
     inkscape:cy="12"
     inkscape:window-width="1920"
     inkscape:window-height="1017"
     inkscape:window-x="-8"
     inkscape:window-y="-8"
     inkscape:window-maximized="1"
     inkscape:current-layer="svg50" />
  <path
     fill="#5c677d"
     d="m 21.94268,8.3078086 -0.12891,1.208276 a 1.1170637,0.82468966 0 0 1 -0.992075,0.446896 H 15.216758 V 6.652636 h 5.604937 a 1.1170637,0.82468966 0 0 1 0.992072,0.4468965 0.02073827,0.01531034 0 0 1 0.0056,0.012414 z"
     id="path2"
     style="fill:#ffc107;fill-opacity:1;stroke-width:0.481589" />
  <path
     fill="#a5a58d"
     d="M 4.9655172,19.034483 H 1.6551724 A 1.6551724,1.6551724 0 0 0 0,20.689655 v 0.827586 A 2.4827586,2.4827586 0 0 0 2.4827586,24 H 20.689655 A 3.3103448,3.3103448 0 0 0 24,20.689655 V 3.3103448 A 3.3103448,3.3103448 0 0 0 20.689655,0 H 9.1034483 A 2.4827586,2.4827586 0 0 0 6.6206897,2.4827586 v 0.8275862 h 4.9655173 a 7.862069,7.862069 0 0 1 7.862069,7.8620692 v 0 a 7.862069,7.862069 0 0 1 -7.862069,7.862069 z"
     id="path6"
     style="stroke-width:0.413793;fill:#ffc107;fill-opacity:1" />
  <rect
     width="4.965517"
     height="4.1379309"
     x="16.09696"
     y="19.832584"
     fill="#5c677d"
     id="rect12"
     style="stroke-width:0.413793" />
  <polygon
     fill="#2d3142"
     points="47,48 39,52 55,52 "
     id="polygon14"
     transform="matrix(0.4137931,0,0,0.4137931,-0.86855662,-1.6846564)" />
  <path
     fill="#7ccdf4"
     d="m 18.579719,21.487757 v 0 a 0.82758621,0.82758621 0 0 1 0.827587,0.827587 v 1.655172 h -1.655173 v -1.655172 a 0.82758621,0.82758621 0 0 1 0.827586,-0.827587 z"
     id="path16"
     style="stroke-width:0.413793" />
  <g
     id="g192"
     transform="matrix(0.02095053,0,0,0.03546688,3.5353236,4.0019439)">
    <path
       style="fill:#128cb3"
       d="M 300.535,184.659 289.63,149.825 c -8.434,-26.943 -33.068,-45.046 -61.301,-45.046 h -94.666 c -9.384,0 -16.991,7.608 -16.991,16.991 v 67.965 c 0,9.384 7.608,16.991 16.991,16.991 h 150.655 c 5.407,0 10.491,-2.572 13.693,-6.93 3.202,-4.357 4.138,-9.977 2.524,-15.137 z"
       id="path2-0" />
    <path
       style="fill:#34b2d9"
       d="m 252.932,109.623 c -7.62,-3.14 -15.941,-4.844 -24.602,-4.844 h -94.666 c -9.384,0 -16.991,7.608 -16.991,16.991 v 67.965 c 0,9.384 7.608,16.991 16.991,16.991 h 119.265 z"
       id="path4" />
    <path
       style="fill:#212a2d"
       d="M 444.398,237.898 352.023,176.314 C 331.845,162.863 308.361,155.752 284.11,155.752 H 116.673 v 96.283 c 0,9.384 7.608,16.991 16.991,16.991 h 300.808 c 6.917,0 13.4,-3.926 16.116,-10.288 3.257,-7.627 0.561,-16.34 -6.19,-20.84 z"
       id="path6-5" />
    <path
       style="fill:#2e373a"
       d="M 252.931,155.752 H 116.673 v 96.283 c 0,9.384 7.608,16.991 16.991,16.991 h 119.265 z"
       id="path8" />
    <path
       style="fill:#ba2b11"
       d="M 495.009,235.044 H 73.629 c -6.895,0 -13.107,4.167 -15.722,10.548 L 1.269,383.787 c -2.148,5.24 -1.543,11.207 1.613,15.909 3.155,4.703 8.446,7.525 14.109,7.525 h 339.823 c 85.57,0 155.186,-69.616 155.186,-155.186 0,-9.383 -7.607,-16.991 -16.991,-16.991 z"
       id="path10" />
    <path
       style="fill:#e64122"
       d="m 252.929,235.044 h -179.3 c -6.895,0 -13.107,4.167 -15.722,10.548 L 1.269,383.787 c -2.148,5.24 -1.543,11.207 1.613,15.909 3.155,4.703 8.446,7.525 14.109,7.525 h 235.938 z"
       id="path12" />
    <path
       style="fill:#a2b3bf"
       d="m 274.572,338.124 h -42.029 c -9.384,0 -16.991,-7.608 -16.991,-16.991 0,-9.384 7.608,-16.991 16.991,-16.991 h 42.029 c 9.384,0 16.991,7.607 16.991,16.991 0,9.384 -7.608,16.991 -16.991,16.991 z"
       id="path14" />
    <path
       style="fill:#c9d2d9"
       d="m 253.557,338.124 h -21.015 c -9.384,0 -16.991,-7.608 -16.991,-16.991 0,-9.384 7.608,-16.991 16.991,-16.991 h 21.015 z"
       id="path16-6" />
    <path
       style="fill:#a2b3bf"
       d="m 382.69,338.124 h -42.03 c -9.384,0 -16.991,-7.608 -16.991,-16.991 0,-9.384 7.608,-16.991 16.991,-16.991 h 42.029 c 9.384,0 16.991,7.607 16.991,16.991 10e-4,9.384 -7.607,16.991 -16.99,16.991 z"
       id="path18" />
    <path
       style="fill:#c9d2d9"
       d="M 361.675,338.124 H 340.66 c -9.384,0 -16.991,-7.608 -16.991,-16.991 0,-9.384 7.608,-16.991 16.991,-16.991 h 21.015 z"
       id="path20" />
    <path
       style="fill:#a2b3bf"
       d="m 165.203,338.124 h -42.029 c -9.384,0 -16.991,-7.608 -16.991,-16.991 0,-9.384 7.608,-16.991 16.991,-16.991 h 42.029 c 9.384,0 16.991,7.607 16.991,16.991 0,9.384 -7.607,16.991 -16.991,16.991 z"
       id="path22" />
    <path
       style="fill:#c9d2d9"
       d="m 144.188,338.124 h -21.015 c -9.384,0 -16.991,-7.608 -16.991,-16.991 0,-9.384 7.608,-16.991 16.991,-16.991 h 21.015 z"
       id="path24" />
    <g
       id="g26">
</g>
    <g
       id="g28">
</g>
    <g
       id="g30">
</g>
    <g
       id="g32">
</g>
    <g
       id="g34">
</g>
    <g
       id="g36">
</g>
    <g
       id="g38">
</g>
    <g
       id="g40">
</g>
    <g
       id="g42">
</g>
    <g
       id="g44">
</g>
    <g
       id="g46">
</g>
    <g
       id="g48">
</g>
    <g
       id="g50">
</g>
    <g
       id="g52">
</g>
    <g
       id="g54">
</g>
  </g>
</svg>
