<?xml version="1.0" encoding="UTF-8" standalone="no"?>
<!-- Uploaded to: SVG Repo, www.svgrepo.com, Generator: SVG Repo Mixer Tools -->

<svg
   version="1.0"
   id="Layer_1"
   width="23.999998"
   height="23.999905"
   viewBox="0 0 1.9199998 1.9199924"
   enable-background="new 0 0 64 64"
   xml:space="preserve"
   sodipodi:docname="prices.svg"
   inkscape:version="1.2.1 (9c6d41e410, 2022-07-14)"
   xmlns:inkscape="http://www.inkscape.org/namespaces/inkscape"
   xmlns:sodipodi="http://sodipodi.sourceforge.net/DTD/sodipodi-0.dtd"
   xmlns="http://www.w3.org/2000/svg"
   xmlns:svg="http://www.w3.org/2000/svg"><defs
   id="defs401" /><sodipodi:namedview
   id="namedview399"
   pagecolor="#ffffff"
   bordercolor="#000000"
   borderopacity="0.25"
   inkscape:showpageshadow="2"
   inkscape:pageopacity="0.0"
   inkscape:pagecheckerboard="true"
   inkscape:deskcolor="#d1d1d1"
   showgrid="false"
   inkscape:zoom="33.916801"
   inkscape:cx="11.999952"
   inkscape:cy="11.999952"
   inkscape:window-width="1920"
   inkscape:window-height="1017"
   inkscape:window-x="-8"
   inkscape:window-y="-8"
   inkscape:window-maximized="1"
   inkscape:current-layer="Layer_1" />
<g
   id="g687"
   transform="scale(0.02999988)"><g
     id="g396">
	<path
   fill="#f9ebb2"
   d="m 31,2 c 8.837,0 16,7.164 16,16 0,1.004 -0.117,2.088 -0.295,3.049 l -1.77,-1.77 -0.024,-0.025 C 44.949,18.855 45,18.383 45,18 45,10.27 38.732,4 31,4 c -0.432,0 -0.856,0.027 -1.278,0.064 -0.82,0.074 -1.616,0.229 -2.391,0.439 -3.525,0.955 -6.49,3.248 -8.327,6.307 -0.345,0.574 -0.66,1.166 -0.921,1.789 C 17.387,14.262 17,16.086 17,18 c 0,0.617 0.131,1.818 0.131,1.818 0,0 -0.735,0.182 -1.131,0.182 -0.303,0 -0.595,-0.041 -0.878,-0.104 -0.033,-0.008 -0.038,-0.008 0,0 C 15.049,19.273 15,18.643 15,18 c 0,-2.117 0.421,-4.133 1.168,-5.982 0.268,-0.662 0.577,-1.299 0.927,-1.914 C 18.994,6.768 22.058,4.19 25.735,2.907 26.455,2.655 27.193,2.446 27.956,2.3 28.941,2.107 29.958,2 31,2 Z"
   id="path368" />
	<path
   fill="#b4ccb9"
   d="m 61.414,41.414 -20.001,20 C 41.036,61.791 40.534,62 40,62 39.466,62 38.964,61.791 38.586,61.414 l -36,-36 C 2.214,25.041 2,24.525 2,24 V 4 C 2,2.896 2.897,2 4,2 H 22.778 C 19.332,3.775 16.543,6.627 14.838,10.115 12.081,10.656 10,13.084 10,16 c 0,3.312 2.687,6 6,6 3.313,0 6,-2.688 6,-6 0,-1.488 -0.545,-2.848 -1.443,-3.896 1.748,-3.088 4.822,-5.316 8.451,-5.924 L 61.414,38.586 C 61.792,38.963 62,39.465 62,40 c 0,0.533 -0.208,1.035 -0.586,1.414 z"
   id="path370" />
	<g
   id="g380">
		<path
   fill="#394240"
   d="M 62.828,37.172 48.347,22.689 48.359,22.701 C 48.764,21.201 49,19.629 49,18 49,8.059 40.941,0 31,0 29.337,0 27.734,0.244 26.207,0.666 25.557,0.236 24.791,0 24,0 H 4 C 1.791,0 0,1.791 0,4 v 20 c 0,1.061 0.422,2.078 1.172,2.828 l 36,36 C 37.952,63.609 38.977,64 40,64 c 1.023,0 2.048,-0.391 2.828,-1.172 l 20,-20 c 1.563,-1.562 1.563,-4.096 0,-5.656 z M 25.734,2.906 C 26.454,2.654 27.192,2.445 27.955,2.299 28.941,2.107 29.958,2 31,2 c 8.837,0 16,7.164 16,16 0,1.004 -0.117,2.088 -0.295,3.049 l -1.77,-1.77 -0.024,-0.025 C 44.949,18.855 45,18.383 45,18 45,10.27 38.732,4 31,4 c -0.432,0 -0.856,0.027 -1.278,0.064 -0.82,0.074 -1.616,0.229 -2.391,0.439 -3.525,0.955 -6.49,3.248 -8.327,6.307 -0.345,0.574 -0.66,1.166 -0.921,1.789 C 17.387,14.262 17,16.086 17,18 c 0,0.617 0.131,1.818 0.131,1.818 0,0 -0.735,0.182 -1.131,0.182 -0.303,0 -0.595,-0.041 -0.878,-0.104 C 15.049,19.273 15,18.643 15,18 c 0,-2.117 0.421,-4.133 1.168,-5.982 0.268,-0.662 0.577,-1.299 0.927,-1.914 1.899,-3.336 4.963,-5.915 8.639,-7.198 z M 42.965,17.309 31.692,6.035 c 6.073,0.348 10.925,5.199 11.273,11.274 z M 20,16 c 0,0.99 -0.371,1.885 -0.971,2.578 C 19.021,18.387 19,18.197 19,18 19,16.699 19.213,15.451 19.596,14.277 19.848,14.801 20,15.381 20,16 Z m 41.414,25.414 -20.001,20 C 41.036,61.791 40.534,62 40,62 39.466,62 38.964,61.791 38.586,61.414 l -36,-36 C 2.214,25.041 2,24.525 2,24 V 4 C 2,2.896 2.897,2 4,2 H 22.778 C 19.332,3.775 16.543,6.627 14.838,10.115 12.081,10.656 10,13.084 10,16 c 0,3.312 2.687,6 6,6 3.313,0 6,-2.688 6,-6 0,-1.488 -0.545,-2.848 -1.443,-3.896 1.748,-3.088 4.822,-5.316 8.451,-5.924 L 61.414,38.586 C 61.792,38.963 62,39.465 62,40 c 0,0.533 -0.208,1.035 -0.586,1.414 z M 13.031,18.627 C 12.402,17.924 12,17.018 12,16 12,14.602 12.72,13.375 13.806,12.66 13.282,14.348 13,16.141 13,18 c 0,0.211 0.022,0.418 0.031,0.627 z"
   id="path372" />
		<path
   fill="#394240"
   d="m 50.122,37.879 c -1.17,-1.17 -3.073,-1.17 -4.243,0 l -7.984,7.984 c -1.169,1.168 -1.212,3.115 -0.042,4.285 1.168,1.17 3.108,1.135 4.278,-0.035 l 7.992,-7.99 h -0.002 c 1.17,-1.17 1.17,-3.074 10e-4,-4.244 z m -1.415,2.83 -7.96,7.959 c -0.391,0.391 -1.092,0.457 -1.48,0.066 -0.391,-0.391 -0.34,-1.074 0.051,-1.465 l 7.976,-7.975 c 0.391,-0.391 1.023,-0.391 1.414,0 0.39,0.39 0.39,1.024 -10e-4,1.415 z"
   id="path374" />
		<path
   fill="#394240"
   d="m 42.122,34.123 c 1.17,-1.17 1.17,-3.074 10e-4,-4.242 -1.17,-1.17 -3.073,-1.172 -4.243,-0.002 l -7.984,7.984 c -1.169,1.17 -1.212,3.117 -0.042,4.287 1.168,1.17 3.108,1.133 4.278,-0.037 l 7.992,-7.99 z m -1.414,-1.414 -7.96,7.961 c -0.391,0.391 -1.092,0.457 -1.48,0.066 -0.391,-0.391 -0.34,-1.074 0.051,-1.465 l 7.976,-7.977 c 0.391,-0.391 1.023,-0.391 1.414,0 0.39,0.39 0.39,1.024 -0.001,1.415 z"
   id="path376" />
		<path
   fill="#394240"
   d="m 34.118,26.119 c 1.17,-1.17 1.17,-3.074 10e-4,-4.242 -1.17,-1.17 -3.073,-1.172 -4.243,-0.002 l -7.984,7.984 c -1.169,1.17 -1.212,3.117 -0.042,4.287 1.168,1.17 3.108,1.133 4.278,-0.037 l 7.992,-7.99 z m -1.414,-1.414 -7.96,7.961 c -0.391,0.391 -1.092,0.457 -1.48,0.066 -0.391,-0.391 -0.34,-1.074 0.051,-1.465 l 7.976,-7.977 c 0.391,-0.391 1.023,-0.391 1.414,0 0.39,0.39 0.39,1.024 -10e-4,1.415 z"
   id="path378" />
	</g>
	<g
   id="g388">
		<path
   fill="#506c7f"
   d="m 48.707,39.295 c -0.391,-0.391 -1.023,-0.391 -1.414,0 l -7.976,7.975 c -0.391,0.391 -0.441,1.074 -0.051,1.465 0.389,0.391 1.09,0.324 1.48,-0.066 l 7.96,-7.959 c 0.392,-0.392 0.392,-1.026 10e-4,-1.415 z"
   id="path382" />
		<path
   fill="#506c7f"
   d="m 40.708,31.295 c -0.391,-0.391 -1.023,-0.391 -1.414,0 l -7.976,7.977 c -0.391,0.391 -0.441,1.074 -0.051,1.465 0.389,0.391 1.09,0.324 1.48,-0.066 l 7.96,-7.961 c 0.392,-0.392 0.392,-1.026 10e-4,-1.415 z"
   id="path384" />
		<path
   fill="#506c7f"
   d="m 32.704,23.291 c -0.391,-0.391 -1.023,-0.391 -1.414,0 l -7.976,7.977 c -0.391,0.391 -0.441,1.074 -0.051,1.465 0.389,0.391 1.09,0.324 1.48,-0.066 l 7.96,-7.961 c 0.392,-0.392 0.392,-1.026 10e-4,-1.415 z"
   id="path386" />
	</g>
	<g
   id="g394">
		<path
   fill="#506c7f"
   d="M 19.596,14.277 C 19.213,15.451 19,16.699 19,18 c 0,0.197 0.021,0.387 0.029,0.578 C 19.629,17.885 20,16.99 20,16 20,15.381 19.848,14.801 19.596,14.277 Z"
   id="path390" />
		<path
   fill="#506c7f"
   d="m 12,16 c 0,1.018 0.402,1.924 1.031,2.627 C 13.022,18.418 13,18.211 13,18 13,16.141 13.282,14.348 13.806,12.66 12.72,13.375 12,14.602 12,16 Z"
   id="path392" />
	</g>
</g></g>
</svg>
