<?xml version="1.0" encoding="UTF-8" standalone="no"?>
<!-- Generator: Adobe Illustrator 19.0.0, SVG Export Plug-In . SVG Version: 6.00 Build 0)  -->

<svg
   version="1.1"
   id="Capa_1"
   x="0px"
   y="0px"
   viewBox="0 0 24.999998 24.999998"
   xml:space="preserve"
   sodipodi:docname="calendar.svg"
   width="24.999998"
   height="24.999998"
   inkscape:version="1.2.1 (9c6d41e410, 2022-07-14)"
   xmlns:inkscape="http://www.inkscape.org/namespaces/inkscape"
   xmlns:sodipodi="http://sodipodi.sourceforge.net/DTD/sodipodi-0.dtd"
   xmlns="http://www.w3.org/2000/svg"
   xmlns:svg="http://www.w3.org/2000/svg"><defs
   id="defs521" /><sodipodi:namedview
   id="namedview519"
   pagecolor="#ffffff"
   bordercolor="#111111"
   borderopacity="1"
   inkscape:showpageshadow="0"
   inkscape:pageopacity="0"
   inkscape:pagecheckerboard="1"
   inkscape:deskcolor="#d1d1d1"
   showgrid="false"
   inkscape:zoom="32.560002"
   inkscape:cx="12.499999"
   inkscape:cy="12.499999"
   inkscape:window-width="1920"
   inkscape:window-height="1017"
   inkscape:window-x="-8"
   inkscape:window-y="-8"
   inkscape:window-maximized="1"
   inkscape:current-layer="Capa_1" />



























<rect
   style="fill:#6d4135;fill-opacity:1;stroke-width:0.0860685;stroke-linecap:square"
   id="rect14124"
   width="25"
   height="5.2691698"
   x="0"
   y="0" /><rect
   x="1.9531248"
   y="2.1972654"
   style="fill:#ffffff;stroke-width:0.0488281"
   width="1.4648436"
   height="1.4648436"
   id="rect484" /><rect
   x="21.582029"
   y="2.1972654"
   style="fill:#ffdbcc;stroke-width:0.0488281"
   width="1.4648436"
   height="1.4648436"
   id="rect486" /><g
   id="g488"
   transform="scale(0.04882812)">
</g><g
   id="g490"
   transform="scale(0.04882812)">
</g><g
   id="g492"
   transform="scale(0.04882812)">
</g><g
   id="g494"
   transform="scale(0.04882812)">
</g><g
   id="g496"
   transform="scale(0.04882812)">
</g><g
   id="g498"
   transform="scale(0.04882812)">
</g><g
   id="g500"
   transform="scale(0.04882812)">
</g><g
   id="g502"
   transform="scale(0.04882812)">
</g><g
   id="g504"
   transform="scale(0.04882812)">
</g><g
   id="g506"
   transform="scale(0.04882812)">
</g><g
   id="g508"
   transform="scale(0.04882812)">
</g><g
   id="g510"
   transform="scale(0.04882812)">
</g><g
   id="g512"
   transform="scale(0.04882812)">
</g><g
   id="g514"
   transform="scale(0.04882812)">
</g><g
   id="g516"
   transform="scale(0.04882812)">
</g><g
   id="g14148"
   transform="translate(-22.31445,5.0000001)"><g
     id="g14132"
     transform="translate(22.314451,-5.8890001)"><g
       id="g681"
       style="fill:#6d4135;fill-opacity:1"
       transform="matrix(0.04882812,0,0,0.05102041,0,-0.23344918)"><polygon
         style="fill:#6d4135;fill-opacity:1"
         points="512,512 256,512 192.266,320.968 256,120 512,120 "
         id="polygon456" /><g
         id="g462"
         style="fill:#6d4135;fill-opacity:1">
	<rect
   y="120"
   style="fill:#6d4135;fill-opacity:1"
   width="256"
   height="392"
   id="rect458"
   x="0" />
	<polygon
   style="fill:#6d4135;fill-opacity:1"
   points="482,482 256,482 199.734,316 256,150 482,150 "
   id="polygon460" />
</g></g></g><g
     id="g14155"
     transform="translate(0.11095257)"><rect
       class="cls-1"
       x="1.3890464"
       y="7.3240027"
       width="22"
       height="17"
       id="rect8"
       style="fill:#ffd38d;stroke-width:0.0483182"
       transform="translate(22.314451,-5.8890001)" /><g
       id="g14136"
       transform="translate(22.390125,-5.3988906)"><path
         class="cls-3"
         d="M 11.083074,17.434079 H 9.3941641 a 1.0101751,1.017009 0 0 0 0,2.034018 h 1.6889099 a 2.35415,2.3700757 0 0 0 2.351779,-2.367693 V 13.699731 A 2.35415,2.3700757 0 0 0 11.083074,11.332048 H 9.3941641 a 1.0101728,1.0170066 0 0 0 0,2.034007 h 1.6889099 a 0.33143705,0.3336792 0 0 1 0.33144,0.333676 v 0.683088 h -1.010418 a 1.0101752,1.017009 0 0 0 0,2.034018 h 1.009942 v 0.683088 a 0.33143705,0.3336792 0 0 1 -0.330964,0.334154 z"
         id="path14"
         style="fill:#6d4135;stroke-width:0.0475082" /><path
         class="cls-3"
         d="m 15.454727,19.467619 a 1.0099361,1.0167682 0 0 0 1.009932,-1.016764 v -6.101564 a 1.0101728,1.0170066 0 1 0 -2.020339,0 v 6.101564 a 1.0099361,1.0167682 0 0 0 1.010407,1.016764 z"
         id="path16"
         style="fill:#6d4135;stroke-width:0.0475082" /></g></g></g><rect
   class="cls-2"
   x="1.5"
   y="1.4538156"
   width="22"
   height="4.4165869"
   id="rect10"
   style="fill:#ed7c69;stroke-width:0.0440551" /></svg>
