<svg width="55" height="15" viewBox="0 0 55 15" fill="none" xmlns="http://www.w3.org/2000/svg">
<path d="M0.0292969 2.03125L0.0117188 1.52734C0.0117188 1.3125 0.0332031 1.17969 0.0761719 1.12891C0.181641 1.125 0.380859 1.12305 0.673828 1.12305C0.970703 1.12305 1.22656 1.125 1.44141 1.12891L2.26758 1.14062C2.41992 1.12891 2.64062 1.12305 2.92969 1.12305C3.21875 1.12305 3.40234 1.16211 3.48047 1.24023C3.46094 2.19336 3.45117 3.32617 3.45117 4.63867L3.65625 4.67383C3.71484 4.52148 3.82031 4.29297 3.97266 3.98828C4.12891 3.68359 4.21875 3.50586 4.24219 3.45508L4.30664 3.31445C4.32227 3.2793 4.39258 3.12891 4.51758 2.86328C4.64648 2.59375 4.77734 2.29297 4.91016 1.96094C5.04297 1.625 5.18555 1.36133 5.33789 1.16992C5.61133 1.16602 5.94336 1.16406 6.33398 1.16406C6.72852 1.16406 7.1875 1.17188 7.71094 1.1875C8.23438 1.19922 8.62695 1.20508 8.88867 1.20508C7.77539 3.2168 6.98438 4.60938 6.51562 5.38281L6.65039 5.59961C6.81055 5.79883 7.16016 6.36719 7.69922 7.30469C8.23828 8.24219 8.62891 8.9082 8.87109 9.30273L9.01172 9.53125C9.18359 9.81641 9.26953 9.97852 9.26953 10.0176C9.26953 10.0566 9.25781 10.0918 9.23438 10.123H9.19922C8.98047 10.1152 8.80273 10.1113 8.66602 10.1113C8.5332 10.1113 8.35742 10.1152 8.13867 10.123H5.50781C4.90625 8.99805 4.28125 7.77734 3.63281 6.46094C3.60156 6.77344 3.55469 7.51172 3.49219 8.67578V8.75195L3.50391 10.082C3.45703 10.1523 3.25195 10.1875 2.88867 10.1875L2.76562 10.1816H2.44922L0.791016 10.1934H0.251953C0.142578 10.1934 0.0644531 10.1523 0.0175781 10.0703L0 10.0527V9.16211L0.0117188 8.24219V4.93164L0.0292969 2.03125Z" fill="#FFB779"/>
<path d="M9.25781 2.98633L10.8164 2.98047H12.375L12.5039 3.76562C12.5938 4.31641 12.6465 4.62891 12.6621 4.70312H12.8672C13.0117 4.03516 13.2891 3.56055 13.6992 3.2793L13.9336 3.14453C13.9453 3.12109 14.0156 3.07812 14.1445 3.01562L14.1211 3.02148L14.2559 2.96875C14.6387 2.81641 14.9688 2.73828 15.2461 2.73438C15.3047 2.73438 15.3438 2.73828 15.3633 2.74609H15.5801V6.01562C15.498 5.99609 15.3691 5.98633 15.1934 5.98633C15.0176 5.98633 14.8359 6.01172 14.6484 6.0625C14.4648 6.11328 14.3086 6.17969 14.1797 6.26172C14.0547 6.33984 13.9453 6.44141 13.8516 6.56641C13.5625 6.95312 13.418 7.5332 13.418 8.30664L13.4297 8.92188V10L11.3438 10.0059H9.26367L9.25781 6.50781V2.98633Z" fill="#FFB779"/>
<path d="M24.8145 6.45508C24.8066 6.49414 24.8027 6.51758 24.8027 6.52539V6.57227C24.791 7.2168 24.6426 7.79688 24.3574 8.3125H24.3633C23.9648 8.92188 23.4082 9.39062 22.6934 9.71875C21.9824 10.0469 21.2812 10.2109 20.5898 10.2109C19.8984 10.2109 19.3242 10.1426 18.8672 10.0059C18.4141 9.87305 17.9941 9.67773 17.6074 9.41992C17.2207 9.16211 16.9336 8.91406 16.7461 8.67578C16.3008 8.11328 16.0781 7.31836 16.0781 6.29102C16.0781 6.25586 16.084 6.22656 16.0957 6.20312V6.10938C16.084 6.09375 16.0781 6.07812 16.0781 6.0625L16.0898 5.99805H16.084C16.1582 5.31445 16.3027 4.86523 16.5176 4.65039C16.5176 4.60742 16.5449 4.55859 16.5996 4.50391V4.50977L16.6875 4.36914C17.1484 3.7793 17.6758 3.375 18.2695 3.15625L18.4746 3.08008C18.7324 2.95508 19.0938 2.86133 19.5586 2.79883L19.7461 2.78125C19.7734 2.77734 19.8281 2.77344 19.9102 2.76953C19.9961 2.76562 20.0566 2.75781 20.0918 2.74609L20.3438 2.75195C20.3555 2.74805 20.3691 2.74609 20.3848 2.74609C20.4004 2.74609 20.418 2.74805 20.4375 2.75195L20.4316 2.74609C20.4551 2.75781 20.4902 2.76367 20.5371 2.76367C20.5527 2.74805 20.5801 2.74023 20.6191 2.74023C21.4668 2.74023 22.1875 2.91406 22.7812 3.26172L22.8984 3.31445C24.1758 3.92773 24.8145 4.97461 24.8145 6.45508ZM21.1699 6.49023C21.1543 5.71289 21.043 5.1875 20.8359 4.91406C20.75 4.80078 20.6445 4.74414 20.5195 4.74414C20.3984 4.74414 20.291 4.81641 20.1973 4.96094C20.1035 5.10156 20.0273 5.32422 19.9688 5.62891C19.9141 5.93359 19.8867 6.20508 19.8867 6.44336C19.8867 6.67773 19.8965 6.88086 19.916 7.05273C19.9395 7.2207 19.9727 7.40039 20.0156 7.5918C20.0586 7.7793 20.125 7.9375 20.2148 8.06641C20.3047 8.19141 20.4062 8.25391 20.5195 8.25391C20.9531 8.25391 21.1699 7.66602 21.1699 6.49023Z" fill="#FFB779"/>
<path d="M29.7715 7.08203L29.7656 7.16992C29.7656 7.30664 29.7695 7.4082 29.7773 7.47461C29.7891 7.53711 29.8301 7.61328 29.9004 7.70312C29.9707 7.78906 30.1992 7.83203 30.5859 7.83203L30.7441 7.83789C30.8027 7.83789 30.8555 7.83203 30.9023 7.82031L30.9082 10.0059H27.7031L27.5039 10.0176H27.4395C27.2949 10.0176 27.1367 9.9707 26.9648 9.87695C26.793 9.7832 26.6641 9.70117 26.5781 9.63086C26.4961 9.55664 26.4258 9.46289 26.3672 9.34961C26.2578 9.13867 26.1914 8.93164 26.168 8.72852C26.1484 8.52148 26.1387 8.26562 26.1387 7.96094V4.71484H25.4473L25.4414 3.89453V3.05664H26.1152V1.11719H27.9258L29.7363 1.11133L29.7422 3.04492H30.7207L30.7266 3.88281V4.71484H29.7715V7.08203Z" fill="#FFB779"/>
<path d="M38.7129 4.50977L38.1797 4.50391C37.8633 4.50391 37.373 4.50781 36.709 4.51562C36.6621 4.38672 36.5664 4.27734 36.4219 4.1875C36.2812 4.09766 36.125 4.05273 35.9531 4.05273C35.7812 4.05273 35.6406 4.0918 35.5312 4.16992C35.4219 4.24414 35.3672 4.34961 35.3672 4.48633C35.3672 4.62305 35.418 4.74609 35.5195 4.85547C35.625 4.96484 35.7715 5.04297 35.959 5.08984C36.1465 5.13281 36.332 5.16211 36.5156 5.17773C36.7031 5.19336 36.9199 5.20898 37.166 5.22461C37.416 5.24023 37.6035 5.25977 37.7285 5.2832C37.8574 5.30273 38.0195 5.32422 38.2148 5.34766C38.5625 5.39453 38.8691 5.45898 39.1348 5.54102C39.4043 5.61914 39.6855 5.78516 39.9785 6.03906C40.0371 6.06641 40.1152 6.13867 40.2129 6.25586C40.3887 6.52539 40.5 6.91602 40.5469 7.42773C40.5273 7.99023 40.3223 8.49023 39.9316 8.92773C39.541 9.36133 39.0469 9.67578 38.4492 9.87109C38.4023 9.89453 38.3438 9.91016 38.2734 9.91797L38.0742 9.96484C37.6953 10.0742 37.3672 10.1289 37.0898 10.1289C36.9219 10.1836 36.6523 10.2109 36.2812 10.2109L36.1348 10.2051H35.707L35.6426 10.2109C35.0371 10.2109 34.3887 10.1133 33.6973 9.91797V9.92383C32.2246 9.56055 31.4863 8.92773 31.4824 8.02539C31.6895 8.04102 31.9766 8.04883 32.3438 8.04883C32.7109 8.04883 33.207 8.04688 33.832 8.04297C34.4609 8.03516 34.9375 8.03125 35.2617 8.03125C35.2578 8.05469 35.2559 8.09375 35.2559 8.14844C35.2559 8.32031 35.3438 8.46094 35.5195 8.57031C35.6953 8.67969 35.8984 8.73438 36.1289 8.73438C36.3594 8.73438 36.541 8.68945 36.6738 8.59961C36.8066 8.50977 36.873 8.39453 36.873 8.25391C36.873 8.10938 36.8359 7.99023 36.7617 7.89648C36.6875 7.79883 36.5781 7.72656 36.4336 7.67969C36.2891 7.63281 36.1543 7.59961 36.0293 7.58008C35.9082 7.55664 35.75 7.53711 35.5547 7.52148C35.3594 7.50586 35.2148 7.49023 35.1211 7.47461C35.0273 7.45898 34.8887 7.43945 34.7051 7.41602C34.5215 7.38867 34.3594 7.36719 34.2188 7.35156C34.082 7.33203 33.9199 7.30469 33.7324 7.26953C33.5488 7.23438 33.3848 7.19922 33.2402 7.16406C33.0996 7.125 32.9473 7.07422 32.7832 7.01172C32.6191 6.94922 32.4766 6.88086 32.3555 6.80664C31.7656 6.43945 31.4707 5.9043 31.4707 5.20117C31.4707 4.57227 31.6484 4.08594 32.0039 3.74219C32.4492 3.31641 33.1719 3.03906 34.1719 2.91016C34.2734 2.89453 34.418 2.86719 34.6055 2.82812C34.793 2.78516 34.9219 2.76367 34.9922 2.76367C35.0625 2.76367 35.1094 2.76758 35.1328 2.77539L35.877 2.73438L36.9082 2.78125C36.9473 2.78516 37.0605 2.79297 37.248 2.80469C37.7129 2.83984 38.1211 2.90625 38.4727 3.00391C38.8281 3.09766 39.166 3.2832 39.4863 3.56055C39.8105 3.83789 39.9961 4.13867 40.043 4.46289L40.002 4.45117L38.7129 4.50977Z" fill="#FFB779"/>
<path d="M44.8359 0.753906L44.8418 2.35938H41.2324C41.2324 1.98438 41.2285 1.7168 41.2207 1.55664L41.2148 0.765625L44.8359 0.753906ZM41.1562 0.765625L41.2148 0.707031V0.765625H41.1562ZM44.8594 8.14258L44.8652 8.19531L44.8711 9.07422C44.8711 9.23438 44.8633 9.42578 44.8477 9.64844C44.832 9.87109 44.8184 9.98633 44.8066 9.99414L44.7012 10.0059H42.5684L42.3223 10.0293C41.7129 10.0293 41.3418 10.0215 41.209 10.0059V9.96484L41.2031 9.85352V9.58984C41.2031 8.82031 41.2148 8.18164 41.2383 7.67383L41.3027 3.16211V2.98633L41.7598 2.98047L41.8594 2.98633H42.0293L42.1758 2.99219L42.252 2.98633H42.6738L42.7617 2.98047L44.7598 3.00391C44.7754 3 44.7871 2.99805 44.7949 2.99805C44.8027 2.99805 44.8066 3.00977 44.8066 3.0332L44.8125 3.58984C44.8164 3.96094 44.8242 4.45898 44.8359 5.08398C44.8477 5.70508 44.8535 6.14453 44.8535 6.40234L44.8477 7.13477V7.44531L44.8652 7.75586V7.9375C44.8652 7.94141 44.8633 7.94922 44.8594 7.96094V8.14258Z" fill="#FFB779"/>
<path d="M52.7871 4.50977L52.2539 4.50391C51.9375 4.50391 51.4473 4.50781 50.7832 4.51562C50.7363 4.38672 50.6406 4.27734 50.4961 4.1875C50.3555 4.09766 50.1992 4.05273 50.0273 4.05273C49.8555 4.05273 49.7148 4.0918 49.6055 4.16992C49.4961 4.24414 49.4414 4.34961 49.4414 4.48633C49.4414 4.62305 49.4922 4.74609 49.5938 4.85547C49.6992 4.96484 49.8457 5.04297 50.0332 5.08984C50.2207 5.13281 50.4062 5.16211 50.5898 5.17773C50.7773 5.19336 50.9941 5.20898 51.2402 5.22461C51.4902 5.24023 51.6777 5.25977 51.8027 5.2832C51.9316 5.30273 52.0938 5.32422 52.2891 5.34766C52.6367 5.39453 52.9434 5.45898 53.209 5.54102C53.4785 5.61914 53.7598 5.78516 54.0527 6.03906C54.1113 6.06641 54.1895 6.13867 54.2871 6.25586C54.4629 6.52539 54.5742 6.91602 54.6211 7.42773C54.6016 7.99023 54.3965 8.49023 54.0059 8.92773C53.6152 9.36133 53.1211 9.67578 52.5234 9.87109C52.4766 9.89453 52.418 9.91016 52.3477 9.91797L52.1484 9.96484C51.7695 10.0742 51.4414 10.1289 51.1641 10.1289C50.9961 10.1836 50.7266 10.2109 50.3555 10.2109L50.209 10.2051H49.7812L49.7168 10.2109C49.1113 10.2109 48.4629 10.1133 47.7715 9.91797V9.92383C46.2988 9.56055 45.5605 8.92773 45.5566 8.02539C45.7637 8.04102 46.0508 8.04883 46.418 8.04883C46.7852 8.04883 47.2812 8.04688 47.9062 8.04297C48.5352 8.03516 49.0117 8.03125 49.3359 8.03125C49.332 8.05469 49.3301 8.09375 49.3301 8.14844C49.3301 8.32031 49.418 8.46094 49.5938 8.57031C49.7695 8.67969 49.9727 8.73438 50.2031 8.73438C50.4336 8.73438 50.6152 8.68945 50.748 8.59961C50.8809 8.50977 50.9473 8.39453 50.9473 8.25391C50.9473 8.10938 50.9102 7.99023 50.8359 7.89648C50.7617 7.79883 50.6523 7.72656 50.5078 7.67969C50.3633 7.63281 50.2285 7.59961 50.1035 7.58008C49.9824 7.55664 49.8242 7.53711 49.6289 7.52148C49.4336 7.50586 49.2891 7.49023 49.1953 7.47461C49.1016 7.45898 48.9629 7.43945 48.7793 7.41602C48.5957 7.38867 48.4336 7.36719 48.293 7.35156C48.1562 7.33203 47.9941 7.30469 47.8066 7.26953C47.623 7.23438 47.459 7.19922 47.3145 7.16406C47.1738 7.125 47.0215 7.07422 46.8574 7.01172C46.6934 6.94922 46.5508 6.88086 46.4297 6.80664C45.8398 6.43945 45.5449 5.9043 45.5449 5.20117C45.5449 4.57227 45.7227 4.08594 46.0781 3.74219C46.5234 3.31641 47.2461 3.03906 48.2461 2.91016C48.3477 2.89453 48.4922 2.86719 48.6797 2.82812C48.8672 2.78516 48.9961 2.76367 49.0664 2.76367C49.1367 2.76367 49.1836 2.76758 49.207 2.77539L49.9512 2.73438L50.9824 2.78125C51.0215 2.78516 51.1348 2.79297 51.3223 2.80469C51.7871 2.83984 52.1953 2.90625 52.5469 3.00391C52.9023 3.09766 53.2402 3.2832 53.5605 3.56055C53.8848 3.83789 54.0703 4.13867 54.1172 4.46289L54.0762 4.45117L52.7871 4.50977Z" fill="#FFB779"/>
<path d="M16.4771 12.1267L15.7526 14.9414H15.3207L14.7337 12.6049L14.1603 14.9414H13.738L13 12.1267H13.3932L13.9744 14.4669L14.5516 12.1267H14.941L15.5241 14.4896L16.1013 12.1267H16.4771Z" fill="#4997CF"/>
<path d="M18.4936 14.9414H18.1295V13.7391C18.1295 13.6421 18.1243 13.552 18.114 13.4688C18.1049 13.3844 18.0868 13.317 18.0597 13.2665C18.03 13.2136 17.9887 13.1745 17.9358 13.1493C17.8828 13.1229 17.8105 13.1096 17.7188 13.1096C17.6284 13.1096 17.5348 13.1336 17.4379 13.1815C17.3424 13.2281 17.2487 13.2892 17.157 13.3648V14.9414H16.7929V12H17.157V13.0643C17.2655 12.9698 17.3727 12.8973 17.4786 12.8469C17.5845 12.7965 17.6962 12.7713 17.8137 12.7713C18.0268 12.7713 18.1934 12.8399 18.3135 12.9773C18.4336 13.1134 18.4936 13.3113 18.4936 13.5709V14.9414Z" fill="#4997CF"/>
<path d="M19.9445 14.9905C19.5997 14.9905 19.3318 14.896 19.1406 14.707C18.9508 14.5167 18.8559 14.247 18.8559 13.8979C18.8559 13.5539 18.9482 13.2804 19.1329 13.0775C19.3176 12.8733 19.559 12.7713 19.8574 12.7713C19.9917 12.7713 20.1105 12.7902 20.2138 12.828C20.3171 12.8658 20.4075 12.925 20.485 13.0057C20.5625 13.0863 20.6219 13.1853 20.6632 13.3025C20.7045 13.4184 20.7252 13.5608 20.7252 13.7297V13.9225H19.2259C19.2259 14.1682 19.2891 14.356 19.4157 14.4858C19.5423 14.6156 19.7172 14.6805 19.9407 14.6805C20.0207 14.6805 20.0989 14.6717 20.1751 14.6541C20.2525 14.6364 20.3223 14.6137 20.3843 14.586C20.4501 14.557 20.5057 14.5293 20.5508 14.5028C20.596 14.4751 20.6335 14.4493 20.6632 14.4253H20.6845V14.8129C20.6419 14.8292 20.5889 14.85 20.5257 14.8752C20.4624 14.8992 20.4056 14.9181 20.3552 14.9319C20.2842 14.9509 20.2196 14.9653 20.1615 14.9754C20.1047 14.9855 20.0323 14.9905 19.9445 14.9905ZM20.3707 13.6503C20.3681 13.5545 20.3565 13.472 20.3358 13.4026C20.3152 13.3333 20.2855 13.2747 20.2467 13.2268C20.2041 13.1739 20.1492 13.1336 20.0821 13.1059C20.0162 13.0781 19.9342 13.0643 19.8361 13.0643C19.7392 13.0643 19.6566 13.0788 19.5881 13.1078C19.521 13.1355 19.4596 13.1764 19.4041 13.2306C19.3498 13.2861 19.3085 13.3478 19.2801 13.4159C19.2517 13.4827 19.2336 13.5608 19.2259 13.6503H20.3707Z" fill="#4997CF"/>
<path d="M22.0327 14.9905C21.6879 14.9905 21.42 14.896 21.2288 14.707C21.039 14.5167 20.9441 14.247 20.9441 13.8979C20.9441 13.5539 21.0364 13.2804 21.2211 13.0775C21.4058 12.8733 21.6473 12.7713 21.9456 12.7713C22.0799 12.7713 22.1987 12.7902 22.302 12.828C22.4053 12.8658 22.4957 12.925 22.5732 13.0057C22.6507 13.0863 22.7101 13.1853 22.7514 13.3025C22.7927 13.4184 22.8134 13.5608 22.8134 13.7297V13.9225H21.3141C21.3141 14.1682 21.3773 14.356 21.5039 14.4858C21.6305 14.6156 21.8054 14.6805 22.0289 14.6805C22.1089 14.6805 22.1871 14.6717 22.2633 14.6541C22.3407 14.6364 22.4105 14.6137 22.4725 14.586C22.5383 14.557 22.5939 14.5293 22.6391 14.5028C22.6843 14.4751 22.7217 14.4493 22.7514 14.4253H22.7727V14.8129C22.7301 14.8292 22.6771 14.85 22.6139 14.8752C22.5506 14.8992 22.4938 14.9181 22.4434 14.9319C22.3724 14.9509 22.3078 14.9653 22.2497 14.9754C22.1929 14.9855 22.1206 14.9905 22.0327 14.9905ZM22.4589 13.6503C22.4563 13.5545 22.4447 13.472 22.424 13.4026C22.4034 13.3333 22.3737 13.2747 22.3349 13.2268C22.2923 13.1739 22.2374 13.1336 22.1703 13.1059C22.1044 13.0781 22.0224 13.0643 21.9243 13.0643C21.8274 13.0643 21.7448 13.0788 21.6763 13.1078C21.6092 13.1355 21.5478 13.1764 21.4923 13.2306C21.438 13.2861 21.3967 13.3478 21.3683 13.4159C21.3399 13.4827 21.3218 13.5608 21.3141 13.6503H22.4589Z" fill="#4997CF"/>
<path d="M23.5534 14.9414H23.1892V12H23.5534V14.9414Z" fill="#4997CF"/>
<path d="M24.673 14.9924C24.5284 14.9924 24.3928 14.9735 24.2662 14.9357C24.141 14.8979 24.037 14.8576 23.9543 14.8147V14.4159H23.9737C24.0047 14.4398 24.0409 14.4663 24.0822 14.4953C24.1248 14.5243 24.181 14.5545 24.2507 14.586C24.3127 14.6137 24.3805 14.6383 24.4541 14.6597C24.529 14.6812 24.6065 14.6919 24.6866 14.6919C24.7447 14.6919 24.8067 14.6856 24.8725 14.673C24.9384 14.6591 24.9875 14.6421 25.0198 14.6219C25.065 14.5929 25.0972 14.5621 25.1166 14.5293C25.1373 14.4965 25.1476 14.4474 25.1476 14.3819C25.1476 14.2974 25.1237 14.2338 25.0759 14.1909C25.0294 14.1481 24.9461 14.1122 24.826 14.0832C24.7796 14.0718 24.7189 14.0586 24.644 14.0435C24.5691 14.0284 24.5 14.012 24.4367 13.9943C24.2714 13.9477 24.1513 13.8759 24.0764 13.7788C24.0015 13.6805 23.964 13.5621 23.964 13.4234C23.964 13.2331 24.0376 13.0781 24.1849 12.9584C24.3321 12.8387 24.5277 12.7788 24.7718 12.7788C24.8919 12.7788 25.0127 12.7933 25.134 12.8223C25.2554 12.8513 25.3575 12.8878 25.4401 12.9319V13.3119H25.4207C25.3278 13.2401 25.2238 13.1834 25.1089 13.1418C24.9952 13.1002 24.8803 13.0794 24.7641 13.0794C24.644 13.0794 24.5426 13.104 24.4599 13.1531C24.3773 13.2023 24.336 13.2766 24.336 13.3762C24.336 13.4644 24.3605 13.5306 24.4096 13.5747C24.4586 13.6175 24.5374 13.6528 24.6459 13.6805C24.7001 13.6944 24.7602 13.7083 24.826 13.7221C24.8932 13.7347 24.9636 13.7498 25.0372 13.7675C25.1973 13.8066 25.3174 13.8715 25.3975 13.9622C25.4789 14.0529 25.5195 14.1764 25.5195 14.3327C25.5195 14.4234 25.5008 14.5098 25.4634 14.5917C25.4272 14.6723 25.3736 14.7417 25.3026 14.7996C25.2251 14.8626 25.1373 14.9105 25.0391 14.9433C24.9423 14.9761 24.8202 14.9924 24.673 14.9924Z" fill="#4997CF"/>
<path d="M28.307 14.4216V13.8355C28.2205 13.8431 28.1107 13.8538 27.9777 13.8677C27.846 13.8803 27.7395 13.8986 27.6581 13.9225C27.5612 13.9515 27.4812 13.9962 27.4179 14.0567C27.3546 14.1159 27.323 14.1991 27.323 14.3062C27.323 14.4272 27.3578 14.5186 27.4276 14.5803C27.4973 14.6421 27.5993 14.673 27.7336 14.673C27.8486 14.673 27.9525 14.649 28.0455 14.6011C28.1385 14.552 28.2257 14.4921 28.307 14.4216ZM28.307 14.7164C28.2773 14.7379 28.2373 14.7681 28.1869 14.8072C28.1379 14.845 28.0901 14.8752 28.0436 14.8979C27.979 14.9307 27.9164 14.9559 27.8557 14.9735C27.7963 14.9912 27.7123 15 27.6039 15C27.5148 15 27.4302 14.9836 27.3501 14.9509C27.27 14.9181 27.1997 14.8721 27.139 14.8129C27.0808 14.7549 27.0344 14.6837 26.9995 14.5992C26.9646 14.5135 26.9472 14.4234 26.9472 14.3289C26.9472 14.1827 26.9788 14.0586 27.0421 13.9565C27.1054 13.8532 27.2055 13.7713 27.3424 13.7108C27.4637 13.6566 27.6071 13.6194 27.7724 13.5992C27.9377 13.5778 28.1159 13.5621 28.307 13.552V13.4839C28.307 13.4008 28.2941 13.334 28.2683 13.2836C28.2425 13.2319 28.2063 13.1922 28.1598 13.1645C28.1133 13.1355 28.0565 13.1166 27.9893 13.1078C27.9222 13.0977 27.8531 13.0926 27.7821 13.0926C27.6981 13.0926 27.5993 13.1052 27.4857 13.1304C27.3721 13.1544 27.2584 13.1897 27.1448 13.2363H27.1235V12.8752C27.1906 12.8563 27.2868 12.8355 27.4121 12.8129C27.5374 12.7902 27.6613 12.7788 27.784 12.7788C27.9325 12.7788 28.0578 12.7902 28.1598 12.8129C28.2618 12.8355 28.3535 12.8765 28.4349 12.9357C28.5137 12.9937 28.5724 13.0687 28.6112 13.1607C28.6499 13.2527 28.6693 13.3648 28.6693 13.4972V14.9414H28.307V14.7164Z" fill="#4997CF"/>
<path d="M30.8834 14.9414H30.5192V13.7391C30.5192 13.6421 30.514 13.552 30.5037 13.4688C30.4947 13.3844 30.4766 13.317 30.4495 13.2665C30.4198 13.2136 30.3784 13.1745 30.3255 13.1493C30.2726 13.1229 30.2002 13.1096 30.1085 13.1096C30.0181 13.1096 29.9245 13.1336 29.8277 13.1815C29.7321 13.2281 29.6385 13.2892 29.5468 13.3648V14.9414H29.1826V12.8299H29.5468V13.0643C29.6553 12.9698 29.7624 12.8973 29.8683 12.8469C29.9742 12.7965 30.0859 12.7713 30.2035 12.7713C30.4165 12.7713 30.5831 12.8399 30.7032 12.9773C30.8233 13.1134 30.8834 13.3113 30.8834 13.5709V14.9414Z" fill="#4997CF"/>
<path d="M33.0607 14.9414H32.6965V14.7259C32.6397 14.7725 32.5906 14.811 32.5493 14.8412C32.508 14.8715 32.4595 14.8992 32.404 14.9244C32.3524 14.9483 32.2988 14.9666 32.2432 14.9792C32.1877 14.9931 32.1231 15 32.0495 15C31.932 15 31.8229 14.9761 31.7222 14.9282C31.6227 14.8803 31.5381 14.8103 31.4684 14.7183C31.3974 14.6251 31.3425 14.5104 31.3037 14.3743C31.265 14.2369 31.2456 14.0794 31.2456 13.9017C31.2456 13.7164 31.2702 13.5564 31.3192 13.4216C31.3683 13.2854 31.4361 13.167 31.5226 13.0662C31.6014 12.9742 31.6963 12.9023 31.8074 12.8507C31.9197 12.7977 32.0373 12.7713 32.1599 12.7713C32.2684 12.7713 32.3627 12.7832 32.4428 12.8072C32.5228 12.8299 32.6074 12.8658 32.6965 12.9149V12H33.0607V14.9414ZM32.6965 14.4272V13.2098C32.6061 13.167 32.5248 13.1374 32.4524 13.121C32.3814 13.1046 32.3039 13.0964 32.22 13.0964C32.0327 13.0964 31.8862 13.1651 31.7803 13.3025C31.6744 13.4386 31.6214 13.6358 31.6214 13.8941C31.6214 14.1424 31.6621 14.3327 31.7435 14.465C31.8248 14.5961 31.9553 14.6616 32.1348 14.6616C32.2303 14.6616 32.3265 14.6408 32.4234 14.5992C32.5202 14.5564 32.6113 14.4991 32.6965 14.4272Z" fill="#4997CF"/>
<path d="M35.5305 14.9414V12.4594H34.562V12.1267H36.8826V12.4594H35.9141V14.9414H35.5305Z" fill="#4997CF"/>
<path d="M37.516 14.9414H37.1519V12.8299H37.516V14.9414ZM37.5412 12.4764H37.1267V12.1078H37.5412V12.4764Z" fill="#4997CF"/>
<path d="M39.1975 13.2117H39.1781C39.151 13.2042 39.1219 13.1997 39.0909 13.1985C39.0612 13.196 39.0251 13.1947 38.9824 13.1947C38.8843 13.1947 38.7868 13.2155 38.6899 13.2571C38.5931 13.2987 38.5014 13.3604 38.4149 13.4423V14.9414H38.0507V12.8299H38.4149V13.1437C38.5479 13.029 38.6635 12.9483 38.7616 12.9017C38.861 12.8538 38.9573 12.8299 39.0502 12.8299C39.0877 12.8299 39.1155 12.8311 39.1335 12.8336C39.1529 12.8349 39.1742 12.8374 39.1975 12.8412V13.2117Z" fill="#4997CF"/>
<path d="M40.4198 14.9905C40.075 14.9905 39.807 14.896 39.6159 14.707C39.426 14.5167 39.3311 14.247 39.3311 13.8979C39.3311 13.5539 39.4235 13.2804 39.6081 13.0775C39.7928 12.8733 40.0343 12.7713 40.3326 12.7713C40.4669 12.7713 40.5857 12.7902 40.689 12.828C40.7923 12.8658 40.8827 12.925 40.9602 13.0057C41.0377 13.0863 41.0971 13.1853 41.1384 13.3025C41.1798 13.4184 41.2004 13.5608 41.2004 13.7297V13.9225H39.7011C39.7011 14.1682 39.7644 14.356 39.8909 14.4858C40.0175 14.6156 40.1925 14.6805 40.4159 14.6805C40.496 14.6805 40.5741 14.6717 40.6503 14.6541C40.7278 14.6364 40.7975 14.6137 40.8595 14.586C40.9254 14.557 40.9809 14.5293 41.0261 14.5028C41.0713 14.4751 41.1087 14.4493 41.1384 14.4253H41.1597V14.8129C41.1171 14.8292 41.0642 14.85 41.0009 14.8752C40.9376 14.8992 40.8808 14.9181 40.8304 14.9319C40.7594 14.9509 40.6948 14.9653 40.6367 14.9754C40.5799 14.9855 40.5076 14.9905 40.4198 14.9905ZM40.8459 13.6503C40.8434 13.5545 40.8317 13.472 40.8111 13.4026C40.7904 13.3333 40.7607 13.2747 40.722 13.2268C40.6793 13.1739 40.6245 13.1336 40.5573 13.1059C40.4914 13.0781 40.4094 13.0643 40.3113 13.0643C40.2144 13.0643 40.1318 13.0788 40.0633 13.1078C39.9962 13.1355 39.9348 13.1764 39.8793 13.2306C39.8251 13.2861 39.7838 13.3478 39.7553 13.4159C39.7269 13.4827 39.7089 13.5608 39.7011 13.6503H40.8459Z" fill="#4997CF"/>
<path d="M42.1535 14.9924C42.0088 14.9924 41.8732 14.9735 41.7467 14.9357C41.6214 14.8979 41.5175 14.8576 41.4348 14.8147V14.4159H41.4542C41.4852 14.4398 41.5213 14.4663 41.5627 14.4953C41.6053 14.5243 41.6615 14.5545 41.7312 14.586C41.7932 14.6137 41.861 14.6383 41.9346 14.6597C42.0095 14.6812 42.087 14.6919 42.167 14.6919C42.2252 14.6919 42.2871 14.6856 42.353 14.673C42.4189 14.6591 42.4679 14.6421 42.5002 14.6219C42.5454 14.5929 42.5777 14.5621 42.5971 14.5293C42.6177 14.4965 42.6281 14.4474 42.6281 14.3819C42.6281 14.2974 42.6042 14.2338 42.5564 14.1909C42.5099 14.1481 42.4266 14.1122 42.3065 14.0832C42.26 14.0718 42.1993 14.0586 42.1244 14.0435C42.0495 14.0284 41.9804 14.012 41.9172 13.9943C41.7519 13.9477 41.6318 13.8759 41.5569 13.7788C41.482 13.6805 41.4445 13.5621 41.4445 13.4234C41.4445 13.2331 41.5181 13.0781 41.6653 12.9584C41.8126 12.8387 42.0082 12.7788 42.2523 12.7788C42.3724 12.7788 42.4931 12.7933 42.6145 12.8223C42.7359 12.8513 42.8379 12.8878 42.9206 12.9319V13.3119H42.9012C42.8082 13.2401 42.7043 13.1834 42.5893 13.1418C42.4757 13.1002 42.3608 13.0794 42.2445 13.0794C42.1244 13.0794 42.0231 13.104 41.9404 13.1531C41.8578 13.2023 41.8164 13.2766 41.8164 13.3762C41.8164 13.4644 41.841 13.5306 41.89 13.5747C41.9391 13.6175 42.0179 13.6528 42.1264 13.6805C42.1806 13.6944 42.2407 13.7083 42.3065 13.7221C42.3737 13.7347 42.4441 13.7498 42.5177 13.7675C42.6778 13.8066 42.7979 13.8715 42.878 13.9622C42.9593 14.0529 43 14.1764 43 14.3327C43 14.4234 42.9813 14.5098 42.9438 14.5917C42.9077 14.6723 42.8541 14.7417 42.783 14.7996C42.7056 14.8626 42.6177 14.9105 42.5196 14.9433C42.4227 14.9761 42.3007 14.9924 42.1535 14.9924Z" fill="#4997CF"/>
</svg>
