<?xml version="1.0" encoding="UTF-8" standalone="no"?>
<svg
   version="1.1"
   id="Capa_1"
   x="0px"
   y="0px"
   viewBox="0 0 27 25"
   xml:space="preserve"
   sodipodi:docname="cs-CZ.svg"
   width="27"
   height="25"
   inkscape:version="1.2.1 (9c6d41e410, 2022-07-14)"
   xmlns:inkscape="http://www.inkscape.org/namespaces/inkscape"
   xmlns:sodipodi="http://sodipodi.sourceforge.net/DTD/sodipodi-0.dtd"
   xmlns="http://www.w3.org/2000/svg"
   xmlns:svg="http://www.w3.org/2000/svg"
   xmlns:rdf="http://www.w3.org/1999/02/22-rdf-syntax-ns#"
   xmlns:cc="http://creativecommons.org/ns#"
   xmlns:dc="http://purl.org/dc/elements/1.1/"><metadata
   id="metadata43"><rdf:RDF><cc:Work
       rdf:about=""><dc:format>image/svg+xml</dc:format><dc:type
         rdf:resource="http://purl.org/dc/dcmitype/StillImage" /></cc:Work></rdf:RDF></metadata><defs
   id="defs41" /><sodipodi:namedview
   pagecolor="#ffffff"
   bordercolor="#666666"
   borderopacity="1"
   objecttolerance="10"
   gridtolerance="10"
   guidetolerance="10"
   inkscape:pageopacity="0"
   inkscape:pageshadow="2"
   inkscape:window-width="1920"
   inkscape:window-height="1017"
   id="namedview39"
   showgrid="false"
   fit-margin-top="0"
   fit-margin-left="0"
   fit-margin-right="0"
   fit-margin-bottom="0"
   inkscape:zoom="32.56"
   inkscape:cx="13.498157"
   inkscape:cy="12.5"
   inkscape:window-x="1352"
   inkscape:window-y="-8"
   inkscape:window-maximized="1"
   inkscape:current-layer="Capa_1"
   inkscape:document-rotation="0"
   inkscape:showpageshadow="2"
   inkscape:pagecheckerboard="true"
   inkscape:deskcolor="#d1d1d1" />


<g
   id="g871"
   transform="matrix(4.5,0,0,6.2501343,0,-533.3677)"><rect
     y="85.336998"
     style="fill:#0052b4;stroke-width:0.0117188"
     width="6"
     height="3.9999139"
     id="rect2"
     x="0" /><polygon
     style="fill:#d80027"
     points="512,256 512,426.663 0,426.663 215.185,256 "
     id="polygon4"
     transform="matrix(0.01171875,0,0,0.01171875,0,84.336955)" /><polygon
     style="fill:#f0f0f0"
     points="512,85.337 512,256 215.185,256 0,85.337 "
     id="polygon6"
     transform="matrix(0.01171875,0,0,0.01171875,0,84.336955)" /></g>
<g
   id="g8"
   transform="matrix(0.01395264,0,0,0.01627605,0,-1.3889577)">
</g>
<g
   id="g10"
   transform="matrix(0.01395264,0,0,0.01627605,0,-1.3889577)">
</g>
<g
   id="g12"
   transform="matrix(0.01395264,0,0,0.01627605,0,-1.3889577)">
</g>
<g
   id="g14"
   transform="matrix(0.01395264,0,0,0.01627605,0,-1.3889577)">
</g>
<g
   id="g16"
   transform="matrix(0.01395264,0,0,0.01627605,0,-1.3889577)">
</g>
<g
   id="g18"
   transform="matrix(0.01395264,0,0,0.01627605,0,-1.3889577)">
</g>
<g
   id="g20"
   transform="matrix(0.01395264,0,0,0.01627605,0,-1.3889577)">
</g>
<g
   id="g22"
   transform="matrix(0.01395264,0,0,0.01627605,0,-1.3889577)">
</g>
<g
   id="g24"
   transform="matrix(0.01395264,0,0,0.01627605,0,-1.3889577)">
</g>
<g
   id="g26"
   transform="matrix(0.01395264,0,0,0.01627605,0,-1.3889577)">
</g>
<g
   id="g28"
   transform="matrix(0.01395264,0,0,0.01627605,0,-1.3889577)">
</g>
<g
   id="g30"
   transform="matrix(0.01395264,0,0,0.01627605,0,-1.3889577)">
</g>
<g
   id="g32"
   transform="matrix(0.01395264,0,0,0.01627605,0,-1.3889577)">
</g>
<g
   id="g34"
   transform="matrix(0.01395264,0,0,0.01627605,0,-1.3889577)">
</g>
<g
   id="g36"
   transform="matrix(0.01395264,0,0,0.01627605,0,-1.3889577)">
</g>
</svg>
