<?xml version="1.0" encoding="UTF-8" standalone="no"?>
<svg
   version="1.1"
   id="Capa_1"
   x="0px"
   y="0px"
   viewBox="0 0 27.000002 25.000002"
   xml:space="preserve"
   sodipodi:docname="en-GB.svg"
   width="27.000002"
   height="25.000002"
   inkscape:version="1.2.1 (9c6d41e410, 2022-07-14)"
   xmlns:inkscape="http://www.inkscape.org/namespaces/inkscape"
   xmlns:sodipodi="http://sodipodi.sourceforge.net/DTD/sodipodi-0.dtd"
   xmlns="http://www.w3.org/2000/svg"
   xmlns:svg="http://www.w3.org/2000/svg"
   xmlns:rdf="http://www.w3.org/1999/02/22-rdf-syntax-ns#"
   xmlns:cc="http://creativecommons.org/ns#"
   xmlns:dc="http://purl.org/dc/elements/1.1/"><metadata
   id="metadata81"><rdf:RDF><cc:Work
       rdf:about=""><dc:format>image/svg+xml</dc:format><dc:type
         rdf:resource="http://purl.org/dc/dcmitype/StillImage" /></cc:Work></rdf:RDF></metadata><defs
   id="defs79" /><sodipodi:namedview
   pagecolor="#ffffff"
   bordercolor="#666666"
   borderopacity="1"
   objecttolerance="10"
   gridtolerance="10"
   guidetolerance="10"
   inkscape:pageopacity="0"
   inkscape:pageshadow="2"
   inkscape:window-width="1920"
   inkscape:window-height="1017"
   id="namedview77"
   showgrid="false"
   fit-margin-top="0"
   fit-margin-left="0"
   fit-margin-right="0"
   fit-margin-bottom="0"
   inkscape:zoom="32.559998"
   inkscape:cx="13.498158"
   inkscape:cy="12.500001"
   inkscape:window-x="1352"
   inkscape:window-y="-8"
   inkscape:window-maximized="1"
   inkscape:current-layer="Capa_1"
   inkscape:showpageshadow="2"
   inkscape:pagecheckerboard="true"
   inkscape:deskcolor="#d1d1d1" />


























<g
   id="g943"
   transform="matrix(0.05273438,0,0,0.07324076,0,-6.2496341)"><rect
     y="85.333"
     style="fill:#f0f0f0"
     width="512"
     height="341.33701"
     id="rect2"
     x="0" /><polygon
     style="fill:#d80027"
     points="224,426.662 288,426.662 288,287.996 512,287.996 512,223.996 288,223.996 288,85.33 224,85.33 224,223.996 0,223.996 0,287.996 224,287.996 "
     id="polygon4" /><g
     id="g12">
	<polygon
   style="fill:#0052b4"
   points="393.785,315.358 512,381.034 512,315.358 "
   id="polygon6" />
	<polygon
   style="fill:#0052b4"
   points="512,395.188 368.307,315.358 311.652,315.358 512,426.662 "
   id="polygon8" />
	<polygon
   style="fill:#0052b4"
   points="458.634,426.662 311.652,344.998 311.652,426.662 "
   id="polygon10" />
</g><polygon
     style="fill:#f0f0f0"
     points="512,395.188 368.307,315.358 311.652,315.358 512,426.662 "
     id="polygon14" /><polygon
     style="fill:#d80027"
     points="512,395.188 368.307,315.358 311.652,315.358 512,426.662 "
     id="polygon16" /><g
     id="g22">
	<polygon
   style="fill:#0052b4"
   points="90.341,315.356 0,365.546 0,315.356 "
   id="polygon18" />
	<polygon
   style="fill:#0052b4"
   points="200.348,329.51 200.348,426.661 25.491,426.661 "
   id="polygon20" />
</g><polygon
     style="fill:#d80027"
     points="0,395.188 0,426.662 200.348,315.358 143.693,315.358 "
     id="polygon24" /><g
     id="g32">
	<polygon
   style="fill:#0052b4"
   points="118.215,196.634 0,130.958 0,196.634 "
   id="polygon26" />
	<polygon
   style="fill:#0052b4"
   points="0,116.804 143.693,196.634 200.348,196.634 0,85.33 "
   id="polygon28" />
	<polygon
   style="fill:#0052b4"
   points="53.366,85.33 200.348,166.994 200.348,85.33 "
   id="polygon30" />
</g><polygon
     style="fill:#f0f0f0"
     points="0,116.804 143.693,196.634 200.348,196.634 0,85.33 "
     id="polygon34" /><polygon
     style="fill:#d80027"
     points="0,116.804 143.693,196.634 200.348,196.634 0,85.33 "
     id="polygon36" /><g
     id="g42">
	<polygon
   style="fill:#0052b4"
   points="421.659,196.636 512,146.446 512,196.636 "
   id="polygon38" />
	<polygon
   style="fill:#0052b4"
   points="311.652,182.482 311.652,85.331 486.509,85.331 "
   id="polygon40" />
</g><polygon
     style="fill:#d80027"
     points="512,116.804 512,85.33 311.652,196.634 368.307,196.634 "
     id="polygon44" /><g
     id="g46">
</g><g
     id="g48">
</g><g
     id="g50">
</g><g
     id="g52">
</g><g
     id="g54">
</g><g
     id="g56">
</g><g
     id="g58">
</g><g
     id="g60">
</g><g
     id="g62">
</g><g
     id="g64">
</g><g
     id="g66">
</g><g
     id="g68">
</g><g
     id="g70">
</g><g
     id="g72">
</g><g
     id="g74">
</g></g>
</svg>
