<?xml version="1.0" encoding="UTF-8" standalone="no"?>
<svg
   id="Layer_1"
   data-name="Layer 1"
   viewBox="0 0 24 24"
   version="1.1"
   sodipodi:docname="calendar.svg"
   inkscape:version="1.1 (c68e22c387, 2021-05-23)"
   xmlns:inkscape="http://www.inkscape.org/namespaces/inkscape"
   xmlns:sodipodi="http://sodipodi.sourceforge.net/DTD/sodipodi-0.dtd"
   xmlns="http://www.w3.org/2000/svg"
   xmlns:svg="http://www.w3.org/2000/svg">
  <defs
     id="defs919" />
  <sodipodi:namedview
     id="namedview917"
     pagecolor="#ffffff"
     bordercolor="#666666"
     borderopacity="1.0"
     inkscape:pageshadow="2"
     inkscape:pageopacity="0.0"
     inkscape:pagecheckerboard="0"
     showgrid="false"
     inkscape:zoom="36.333333"
     inkscape:cx="11.174312"
     inkscape:cy="11.986239"
     inkscape:window-width="1920"
     inkscape:window-height="1017"
     inkscape:window-x="1272"
     inkscape:window-y="-8"
     inkscape:window-maximized="1"
     inkscape:current-layer="Layer_1" />
  <title
     id="title882">Artboard 24</title>
  <rect
     x="5"
     y="8"
     width="2"
     height="2"
     id="rect884"
     style="fill:#fcfcfc;fill-opacity:1" />
  <rect
     x="9"
     y="8"
     width="2"
     height="2"
     id="rect886"
     style="fill:#fcfcfc;fill-opacity:1" />
  <rect
     x="13"
     y="8"
     width="2"
     height="2"
     id="rect888"
     style="fill:#fcfcfc;fill-opacity:1" />
  <rect
     x="17"
     y="8"
     width="2"
     height="2"
     id="rect890"
     style="fill:#fcfcfc;fill-opacity:1" />
  <rect
     x="5"
     y="11"
     width="2"
     height="2"
     id="rect892"
     style="fill:#fcfcfc;fill-opacity:1" />
  <rect
     x="9"
     y="11"
     width="2"
     height="2"
     id="rect894"
     style="fill:#fcfcfc;fill-opacity:1" />
  <rect
     x="13"
     y="11"
     width="2"
     height="2"
     id="rect896"
     style="fill:#fcfcfc;fill-opacity:1" />
  <rect
     x="17"
     y="11"
     width="2"
     height="2"
     id="rect898"
     style="fill:#fcfcfc;fill-opacity:1" />
  <rect
     x="5"
     y="14"
     width="2"
     height="2"
     id="rect900"
     style="fill:#fcfcfc;fill-opacity:1" />
  <rect
     x="9"
     y="14"
     width="2"
     height="2"
     id="rect902"
     style="fill:#fcfcfc;fill-opacity:1" />
  <rect
     x="13"
     y="14"
     width="2"
     height="2"
     id="rect904"
     style="fill:#fcfcfc;fill-opacity:1" />
  <rect
     x="17"
     y="14"
     width="2"
     height="2"
     id="rect906"
     style="fill:#fcfcfc;fill-opacity:1" />
  <rect
     x="5"
     y="17"
     width="2"
     height="2"
     id="rect908"
     style="fill:#fcfcfc;fill-opacity:1" />
  <rect
     x="9"
     y="17"
     width="2"
     height="2"
     id="rect910"
     style="fill:#fcfcfc;fill-opacity:1" />
  <rect
     x="13"
     y="17"
     width="2"
     height="2"
     id="rect912"
     style="fill:#fcfcfc;fill-opacity:1" />
  <path
     d="M20,1H16V4H14V3.37A1.37,1.37,0,0,0,12.63,2H11.37A1.37,1.37,0,0,0,10,3.37V4H8V1H4A3,3,0,0,0,1,4V20a3,3,0,0,0,3,3H20a3,3,0,0,0,3-3V4A3,3,0,0,0,20,1Zm1,19a1,1,0,0,1-1,1H4a1,1,0,0,1-1-1V4A1,1,0,0,1,4,3H6V6H18V3h2a1,1,0,0,1,1,1Z"
     id="path914"
     style="fill:#fcfcfc;fill-opacity:1" />
</svg>
