<?xml version="1.0" encoding="UTF-8" standalone="no"?>
<svg
   enable-background="new 0 0 512 512"
   height="512px"
   id="pilot_x5F_captain"
   version="1.1"
   viewBox="0 0 512 512"
   width="512px"
   xml:space="preserve"
   sodipodi:docname="crew.svg"
   inkscape:version="1.1 (c68e22c387, 2021-05-23)"
   xmlns:inkscape="http://www.inkscape.org/namespaces/inkscape"
   xmlns:sodipodi="http://sodipodi.sourceforge.net/DTD/sodipodi-0.dtd"
   xmlns="http://www.w3.org/2000/svg"
   xmlns:svg="http://www.w3.org/2000/svg"><defs
     id="defs13" /><sodipodi:namedview
     id="namedview11"
     pagecolor="#ffffff"
     bordercolor="#666666"
     borderopacity="1.0"
     inkscape:pageshadow="2"
     inkscape:pageopacity="0.0"
     inkscape:pagecheckerboard="0"
     showgrid="false"
     inkscape:zoom="1.625"
     inkscape:cx="255.69231"
     inkscape:cy="256.30769"
     inkscape:window-width="1920"
     inkscape:window-height="1017"
     inkscape:window-x="1272"
     inkscape:window-y="-8"
     inkscape:window-maximized="1"
     inkscape:current-layer="pilot_x5F_captain" /><path
     d="M256,317.615l8.79-6.02l20.507-14.045v-22.95c19.198-9.237,33.347-27.276,37.257-48.879h7.027  c11.118,0,20.13-9.013,20.13-20.13v-1.759c0-11.118-9.012-20.131-20.13-20.131h-5.923v-12.896c-28.72,9.248-59.02,9.92-67.049,9.92  c-1.049,0-1.715-0.011-1.951-0.016c-28.922,0-50.432-3.382-66.316-7.915v10.906h-6.077c-11.118,0-20.13,9.013-20.13,20.131v1.759  c0,11.117,9.012,20.13,20.13,20.13h7.182c3.91,21.603,18.059,39.642,37.257,48.879v22.95L256,317.615z M285.297,193.471  c3.637,0,6.585,2.948,6.585,6.585c0,3.636-2.948,6.584-6.585,6.584c-3.636,0-6.584-2.948-6.584-6.584  C278.713,196.419,281.661,193.471,285.297,193.471z M226.703,193.471c3.637,0,6.584,2.948,6.584,6.585  c0,3.636-2.947,6.584-6.584,6.584s-6.585-2.948-6.585-6.584C220.118,196.419,223.066,193.471,226.703,193.471z M222.047,228.832  c0-2.021,1.639-3.659,3.659-3.659h60.588c2.021,0,3.659,1.639,3.659,3.659c0,18.752-15.201,33.953-33.953,33.953  S222.047,247.584,222.047,228.832z"
     id="path2"
     style="fill:#fcfcfc;stroke:#fcfcfc;stroke-width:3.8;stroke-miterlimit:4;stroke-dasharray:none" /><path
     d="M400.512,468.354c0,0-6.155-53.659-21.646-102.091c-6.369-19.912-20.064-36.658-38.297-46.888  c-6.063-3.402-12.786-7.008-19.752-10.451l-1.14,2.678l-38.837,91.285l-10.784-58.322c-0.621-3.359-3.553-5.799-6.97-5.799h-14.171  c-3.418,0-6.35,2.439-6.971,5.799l-10.784,58.322l-38.837-91.285l-1.14-2.678c-6.966,3.443-13.689,7.049-19.752,10.451  c-18.232,10.229-31.927,26.976-38.296,46.888c-15.492,48.432-21.647,102.091-21.647,102.091H256H400.512z M303.15,397.908h14.964  c2.448,0,4.555,1.527,5.572,3.755c2.629,5.753,11.043,6.353,11.043,6.353s8.413-0.6,11.042-6.353  c1.019-2.228,3.124-3.755,5.572-3.755h14.965c2.065,0,3.226,2.377,1.955,4.006l-6.856,8.785c-1.581,2.027-4.009,3.213-6.58,3.213  h-5.378c-2.79,0-5.499,0.933-7.697,2.65l-4.641,3.629c-1.399,1.094-3.365,1.094-4.765,0l-4.641-3.629  c-2.198-1.718-4.907-2.65-7.696-2.65h-5.379c-2.57,0-4.998-1.186-6.58-3.213l-6.855-8.785  C299.925,400.285,301.085,397.908,303.15,397.908z"
     id="path4"
     style="fill:#fcfcfc;stroke:#fcfcfc;stroke-width:3.8;stroke-miterlimit:4;stroke-dasharray:none" /><path
     d="M143.276,137.223c23.124-6.964,65.557-17.577,109.965-17.818v-0.013c0.257,0,0.515,0.006,0.771,0.006  c0.255,0,0.508-0.006,0.763-0.006v0.013c45.037,0.237,88.071,10.868,111.494,17.834c0.546-1.368,0.979-2.705,1.308-4  c2.218-8.713-1.692-17.883-8.916-21.446c-6.514-3.214-17.772-11.682-34.817-33.71c-0.298-0.385-0.597-0.767-0.896-1.145  c-35.22-44.389-101.124-44.389-136.344,0c-0.3,0.378-0.599,0.76-0.896,1.145c-17.045,22.028-28.304,30.496-34.818,33.71  c-7.224,3.563-11.133,12.733-8.916,21.446C142.302,134.528,142.732,135.859,143.276,137.223z M220.779,72.507h16.109  c2.636,0,4.902,1.906,5.998,4.686c2.831,7.178,11.889,7.926,11.889,7.926s9.058-0.748,11.888-7.926  c1.096-2.779,3.362-4.686,5.999-4.686h16.108c2.224,0,3.473,2.966,2.105,4.997l-7.381,10.964c-1.703,2.528-4.316,4.007-7.084,4.007  h-5.79c-3.003,0-5.92,1.165-8.285,3.309l-4.996,4.527c-1.507,1.365-3.622,1.365-5.129,0l-4.996-4.527  c-2.366-2.144-5.283-3.309-8.286-3.309h-5.79c-2.768,0-5.381-1.479-7.084-4.007l-7.381-10.964  C217.307,75.473,218.556,72.507,220.779,72.507z"
     id="path6"
     style="fill:#fcfcfc;stroke:#fcfcfc;stroke-width:3.8;stroke-miterlimit:4;stroke-dasharray:none" /><path
     d="M323.658,141.508c-0.637-0.072-1.287-0.144-1.936-0.216c-18.74-2.073-42.207-3.857-67.71-3.893  c-40.928,0.058-76.562,4.734-95.41,7.771c3.486,3.35,12.166,10.066,29.739,15.548c14.951,4.664,36.321,8.426,66.434,8.426  c0.576,0.008,37.126,0.533,68.883-10.568c9.563-3.343,18.682-7.74,26.262-13.527C343.068,143.971,334.151,142.7,323.658,141.508z"
     id="path8"
     style="fill:#fcfcfc;stroke:#fcfcfc;stroke-width:3.8;stroke-miterlimit:4;stroke-dasharray:none" /></svg>
