<?xml version="1.0" encoding="UTF-8" standalone="no"?>
<svg
   enable-background="new 0 0 50 50"
   height="50px"
   id="Layer_1"
   version="1.1"
   viewBox="0 0 50 50"
   width="50px"
   xml:space="preserve"
   sodipodi:docname="driver-light.svg"
   inkscape:version="1.2 (dc2aedaf03, 2022-05-15)"
   xmlns:inkscape="http://www.inkscape.org/namespaces/inkscape"
   xmlns:sodipodi="http://sodipodi.sourceforge.net/DTD/sodipodi-0.dtd"
   xmlns="http://www.w3.org/2000/svg"
   xmlns:svg="http://www.w3.org/2000/svg"><defs
     id="defs13" /><sodipodi:namedview
     id="namedview11"
     pagecolor="#ffffff"
     bordercolor="#666666"
     borderopacity="1.0"
     inkscape:pageshadow="2"
     inkscape:pageopacity="0.0"
     inkscape:pagecheckerboard="0"
     showgrid="false"
     inkscape:zoom="16.64"
     inkscape:cx="25.030048"
     inkscape:cy="25"
     inkscape:window-width="1920"
     inkscape:window-height="1017"
     inkscape:window-x="-8"
     inkscape:window-y="-8"
     inkscape:window-maximized="1"
     inkscape:current-layer="Layer_1"
     inkscape:showpageshadow="2"
     inkscape:deskcolor="#d1d1d1" /><path
     d="  M25,1C11.767,1,1,11.766,1,25c0,13.234,10.767,24,24,24s24-10.766,24-24C49,11.766,38.233,1,25,1z M25,44C14.524,44,6,35.477,6,25  S14.524,6,25,6s18.999,8.523,18.999,19S35.476,44,25,44z"
     fill="none"
     stroke="#000000"
     stroke-linecap="round"
     stroke-linejoin="round"
     stroke-miterlimit="10"
     stroke-width="2.1111"
     id="path4"
     style="stroke:none;fill:#000000;fill-opacity:1" /><path
     d="  M43.444,22c-8,0-11.841-5-18.444-5c-6.613,0-9.944,5-18.444,5 M29,42c0,0,0-6.205,0-8c0-2.684,2.26-5,5-5c1.241,0,9.056,0,9.056,0   M6.556,29c0,0,8.341,0,9.444,0c2.885,0,5,2.23,5,5c0,1.857,0,8,0,8"
     fill="none"
     stroke="#000000"
     stroke-linecap="round"
     stroke-linejoin="round"
     stroke-miterlimit="10"
     stroke-width="2"
     id="path6"
     style="stroke:#fcfcfc;fill:#000000;fill-opacity:1" /><circle
     cx="25"
     cy="25"
     fill="none"
     r="4"
     stroke="#000000"
     stroke-linecap="round"
     stroke-linejoin="round"
     stroke-miterlimit="10"
     stroke-width="2"
     id="circle8"
     style="stroke:#fcfcfc;fill:#000000;fill-opacity:1" /></svg>
