<?xml version="1.0" encoding="UTF-8" standalone="no"?>
<svg
   height="24px"
   version="1.1"
   viewBox="0 0 24 24"
   width="24px"
   id="svg6"
   sodipodi:docname="gender.svg"
   inkscape:version="1.1 (c68e22c387, 2021-05-23)"
   xmlns:inkscape="http://www.inkscape.org/namespaces/inkscape"
   xmlns:sodipodi="http://sodipodi.sourceforge.net/DTD/sodipodi-0.dtd"
   xmlns="http://www.w3.org/2000/svg"
   xmlns:svg="http://www.w3.org/2000/svg">
  <defs
     id="defs10" />
  <sodipodi:namedview
     id="namedview8"
     pagecolor="#ffffff"
     bordercolor="#666666"
     borderopacity="1.0"
     inkscape:pageshadow="2"
     inkscape:pageopacity="0.0"
     inkscape:pagecheckerboard="0"
     showgrid="false"
     inkscape:zoom="34.666667"
     inkscape:cx="11.985577"
     inkscape:cy="12.014423"
     inkscape:window-width="1920"
     inkscape:window-height="1017"
     inkscape:window-x="-8"
     inkscape:window-y="-8"
     inkscape:window-maximized="1"
     inkscape:current-layer="social/gender/gender-fluid-alt" />
  <title
     id="title2" />
  <g
     fill="none"
     fill-rule="evenodd"
     id="social/gender/gender-fluid-alt"
     stroke="none"
     stroke-linecap="round"
     stroke-linejoin="round"
     stroke-width="1"
     style="stroke:#f4f8fc">
    <path
       d="M10.1834227,6.94144927 C9.78445496,5.9983348 9.02544475,5.20755746 8.00119347,4.79299791 C5.95405534,3.96321173 3.62182602,4.95078327 2.79308767,6.99834582 C1.96330149,9.04548395 2.95087303,11.3777133 4.99843558,12.2064516 C7.04557371,13.0362378 8.91308276,11.5022074 10.2065414,10.0011037 C11.5,8.5 13.3689081,6.9665363 15.4160462,7.79632248 C17.4636088,8.62506083 18.4511803,10.9572901 17.6213941,13.0044283 C16.7926558,15.0519908 14.4604265,16.0395624 12.4132883,15.2097762 C11.3899772,14.7955971 10.6314204,14.0058906 10.2321586,13.0639214 M16.7418491,8.67387371 L20.91,4.5 M16.7404179,4.5014302 L20.9114312,8.67244351 M6.5,12.5 L6.5,19.5 M3.5,16.5 L9.5,16.5"
       id="line"
       stroke="#000000"
       style="stroke:#fcfcfc;stroke-width:1.6;stroke-miterlimit:4;stroke-dasharray:none" />
  </g>
</svg>
