<?xml version="1.0" encoding="UTF-8" standalone="no"?>
<svg
   enable-background="new 0 0 26 26"
   id="Слой_1"
   version="1.1"
   viewBox="0 0 26 26"
   xml:space="preserve"
   sodipodi:docname="invoice-light.svg"
   inkscape:version="1.2 (dc2aedaf03, 2022-05-15)"
   xmlns:inkscape="http://www.inkscape.org/namespaces/inkscape"
   xmlns:sodipodi="http://sodipodi.sourceforge.net/DTD/sodipodi-0.dtd"
   xmlns="http://www.w3.org/2000/svg"
   xmlns:svg="http://www.w3.org/2000/svg"><defs
     id="defs21" /><sodipodi:namedview
     id="namedview19"
     pagecolor="#ffffff"
     bordercolor="#666666"
     borderopacity="1.0"
     inkscape:pageshadow="2"
     inkscape:pageopacity="0.0"
     inkscape:pagecheckerboard="0"
     showgrid="false"
     inkscape:zoom="32"
     inkscape:cx="12.984375"
     inkscape:cy="13.03125"
     inkscape:window-width="1920"
     inkscape:window-height="1017"
     inkscape:window-x="-8"
     inkscape:window-y="-8"
     inkscape:window-maximized="1"
     inkscape:current-layer="g16"
     inkscape:showpageshadow="2"
     inkscape:deskcolor="#d1d1d1" /><g
     id="g16"
     style="fill:#000000"><path
       d="M 22,1 H 4 C 3.5859375,1 3.25,1.3359375 3.25,1.75 v 18.401367 c 0,0.09766 0.019958,0.194946 0.057922,0.286621 0.038025,0.09161 0.092712,0.174561 0.1618042,0.243653 l 4.0986328,4.098632 c 0.069092,0.06909 0.1520386,0.12378 0.2436523,0.161805 C 7.9037476,24.980041 8.0009766,25 8.0986328,25 H 22 c 0.414062,0 0.75,-0.335938 0.75,-0.75 V 1.75 C 22.75,1.3359375 22.414062,1 22,1 Z M 7.3486328,22.439453 5.8105469,20.901367 H 7.3486328 Z M 21.25,23.5 H 8.8486328 v -3.348633 c 0,-0.414062 -0.3359375,-0.75 -0.75,-0.75 H 4.75 V 2.5 h 16.5 z"
       fill="#1d1d1b"
       id="path2"
       style="fill:#000000;stroke:none;fill-opacity:1" /><path
       d="M 7.0493164,5.5 H 12.4375 c 0.276367,0 0.5,-0.2236328 0.5,-0.5 0,-0.2763672 -0.223633,-0.5 -0.5,-0.5 H 7.0493164 c -0.2763672,0 -0.5,0.2236328 -0.5,0.5 0,0.2763672 0.2236328,0.5 0.5,0.5 z"
       fill="#1d1d1b"
       id="path4"
       style="fill:#000000;stroke:none;fill-opacity:1" /><path
       d="m 7.0493164,7.5 h 2.6938477 c 0.2763669,0 0.4999999,-0.2236328 0.4999999,-0.5 0,-0.2763672 -0.223633,-0.5 -0.4999999,-0.5 H 7.0493164 c -0.2763672,0 -0.5,0.2236328 -0.5,0.5 0,0.2763672 0.2236328,0.5 0.5,0.5 z"
       fill="#1d1d1b"
       id="path6"
       style="fill:#000000;stroke:none;fill-opacity:1" /><path
       d="m 10.875,7 c 0,0.2763672 0.223633,0.5 0.5,0.5 h 3.25 c 0.276367,0 0.5,-0.2236328 0.5,-0.5 0,-0.2763672 -0.223633,-0.5 -0.5,-0.5 h -3.25 c -0.276367,0 -0.5,0.2236328 -0.5,0.5 z"
       fill="#1d1d1b"
       id="path8"
       style="fill:#000000;stroke:none;fill-opacity:1" /><path
       d="m 7,15.75 h 12 c 0.276367,0 0.5,-0.223633 0.5,-0.5 v -6 C 19.5,8.9736328 19.276367,8.75 19,8.75 H 7 c -0.2763672,0 -0.5,0.2236328 -0.5,0.5 v 6 c 0,0.276367 0.2236328,0.5 0.5,0.5 z m 9.5,-4.71875 v 1 h -1.625 v -1 z m -1.625,-0.5 V 9.75 H 16.5 v 0.78125 z m 0,3 v -1 H 16.5 v 1 z m 1.625,0.5 V 14.75 h -1.625 v -0.71875 z m -9,-1.5 h 6.875 v 1 H 7.5 Z m 9.5,0 h 1.5 v 1 H 17 Z m 1.5,-0.5 H 17 v -1 h 1.5 z m -4.125,0 H 7.5 v -1 h 6.875 z m -6.875,2 h 6.875 V 14.75 H 7.5 Z M 17,14.75 v -0.71875 h 1.5 V 14.75 Z m 1.5,-4.21875 H 17 V 9.75 h 1.5 z M 14.375,9.75 v 0.78125 H 7.5 V 9.75 Z"
       fill="#1d1d1b"
       id="path10"
       style="fill:#000000;stroke:none;fill-opacity:1" /><path
       d="m 16.817383,16.349609 c -0.871155,0 -1.631653,0.462036 -2.064087,1.150391 h -0.70398 c -0.276367,0 -0.5,0.223633 -0.5,0.5 0,0.276367 0.223633,0.5 0.5,0.5 h 0.355225 c -0.01172,0.09686 -0.02954,0.192017 -0.02954,0.291992 0,1.34668 1.095703,2.442383 2.442383,2.442383 1.346679,0 2.441894,-1.095703 2.441894,-2.442383 0,-1.34668 -1.095215,-2.442383 -2.441894,-2.442383 z m 0,4.384766 c -1.070801,0 -1.942383,-0.871094 -1.942383,-1.942383 0,-0.09998 0.01489,-0.196045 0.02954,-0.291992 h 0.350098 c -0.0177,0.09497 -0.02954,0.192017 -0.02954,0.291992 0,0.87793 0.714355,1.591797 1.592285,1.591797 0.87793,0 1.591797,-0.713867 1.591797,-1.591797 0,-0.87793 -0.713867,-1.592773 -1.591797,-1.592773 -0.345215,0 -0.662781,0.113281 -0.923889,0.300781 h -0.515686 c 0.355896,-0.396179 0.866516,-0.650391 1.439575,-0.650391 1.070801,0 1.941894,0.871094 1.941894,1.942383 0,1.071289 -0.871093,1.942383 -1.941894,1.942383 z M 16.75,18.5 c 0.276367,0 0.5,-0.223633 0.5,-0.5 0,-0.0824 -0.02466,-0.156799 -0.05988,-0.225281 0.417237,0.153748 0.719056,0.546997 0.719056,1.017273 0,0.601563 -0.489746,1.091797 -1.091797,1.091797 -0.602051,0 -1.092285,-0.490234 -1.092285,-1.091797 0,-0.103516 0.03204,-0.197021 0.05908,-0.291992 z"
       fill="#1d1d1b"
       id="path12"
       style="fill:#000000;stroke:none;fill-opacity:1" /><path
       d="M 12.4375,17.5 H 7.0493164 c -0.2763672,0 -0.5,0.223633 -0.5,0.5 0,0.276367 0.2236328,0.5 0.5,0.5 H 12.4375 c 0.276367,0 0.5,-0.223633 0.5,-0.5 0,-0.276367 -0.223633,-0.5 -0.5,-0.5 z"
       fill="#1d1d1b"
       id="path14"
       style="fill:#000000;stroke:none;fill-opacity:1" /></g></svg>
