<?xml version="1.0" encoding="UTF-8" standalone="no"?>
<svg
   id="Layer_1"
   style="enable-background:new 0 0 512 512;"
   version="1.1"
   viewBox="0 0 512 512"
   xml:space="preserve"
   sodipodi:docname="pickupPoint.svg"
   inkscape:version="1.1 (c68e22c387, 2021-05-23)"
   xmlns:inkscape="http://www.inkscape.org/namespaces/inkscape"
   xmlns:sodipodi="http://sodipodi.sourceforge.net/DTD/sodipodi-0.dtd"
   xmlns="http://www.w3.org/2000/svg"
   xmlns:svg="http://www.w3.org/2000/svg"><defs
     id="defs10" /><sodipodi:namedview
     id="namedview8"
     pagecolor="#ffffff"
     bordercolor="#666666"
     borderopacity="1.0"
     inkscape:pageshadow="2"
     inkscape:pageopacity="0.0"
     inkscape:pagecheckerboard="0"
     showgrid="false"
     inkscape:zoom="1.625"
     inkscape:cx="255.69231"
     inkscape:cy="256.30769"
     inkscape:window-width="1920"
     inkscape:window-height="1017"
     inkscape:window-x="-8"
     inkscape:window-y="-8"
     inkscape:window-maximized="1"
     inkscape:current-layer="Layer_1" /><g
     id="g5"
     style="fill:#fcfcfc;stroke:none"><path
       d="m 255.9,6 c -21.7,0 -43.4,5.3 -62.3,16 -33.9,19.2 -57.9,55.3 -61.9,94.1 -3.7,36.1 8.9,71.8 22,105.7 15.1,38.9 102.1,228.9 102.1,228.9 0,0 87.6,-191.4 102.8,-230.9 13.1,-34.2 25.7,-70.2 21.2,-106.5 C 374.6,71.2 345.1,33.4 306.2,16.5 290.5,9.5 273.2,6 255.9,6 Z m 0,183.8 c -33,0 -59.8,-26.8 -59.8,-59.8 0,-33 26.8,-59.8 59.8,-59.8 33,0 59.8,26.8 59.8,59.8 0,33 -26.7,59.8 -59.8,59.8 z"
       id="path2"
       style="fill:#fcfcfc;stroke:none" /><path
       d="m 292.2,397.1 c -4.1,8.9 -7.9,17.2 -11.4,24.7 36.8,3.6 63.6,15.2 63.6,28.8 0,16.6 -39.6,30 -88.4,30 -48.8,0 -88.4,-13.4 -88.4,-30 0,-13.6 26.8,-25.2 63.5,-28.8 -3.5,-7.4 -7.4,-15.8 -11.4,-24.7 -60.2,6.3 -104.5,27.9 -104.5,53.5 0,30.6 63.1,55.4 140.8,55.4 77.7,0 140.8,-24.8 140.8,-55.4 0,-25.6 -44.4,-47.2 -104.6,-53.5 z"
       id="XMLID_1_"
       style="fill:#fcfcfc;stroke:none" /></g></svg>
