<?xml version="1.0" encoding="UTF-8" standalone="no"?>
<svg
   width="64"
   height="64"
   viewBox="0 0 64 64"
   fill="none"
   version="1.1"
   id="svg2735"
   sodipodi:docname="reservations-light.svg"
   inkscape:version="1.2 (dc2aedaf03, 2022-05-15)"
   xmlns:inkscape="http://www.inkscape.org/namespaces/inkscape"
   xmlns:sodipodi="http://sodipodi.sourceforge.net/DTD/sodipodi-0.dtd"
   xmlns="http://www.w3.org/2000/svg"
   xmlns:svg="http://www.w3.org/2000/svg">
  <defs
     id="defs2739" />
  <sodipodi:namedview
     id="namedview2737"
     pagecolor="#ffffff"
     bordercolor="#666666"
     borderopacity="1.0"
     inkscape:pageshadow="2"
     inkscape:pageopacity="0.0"
     inkscape:pagecheckerboard="0"
     showgrid="false"
     inkscape:zoom="12.640625"
     inkscape:cx="32.07911"
     inkscape:cy="32.039555"
     inkscape:window-width="1920"
     inkscape:window-height="1017"
     inkscape:window-x="1352"
     inkscape:window-y="-8"
     inkscape:window-maximized="1"
     inkscape:current-layer="svg2735"
     inkscape:showpageshadow="2"
     inkscape:deskcolor="#d1d1d1" />
  <path
     d="M32 3.82996H3.83V39.07H32V3.82996Z"
     fill="#78B9EB"
     id="path2731"
     style="fill:#000000;fill-opacity:1" />
  <path
     d="M60 2.5H4C3.60218 2.5 3.22064 2.65804 2.93934 2.93934C2.65804 3.22064 2.5 3.60218 2.5 4V60C2.5 60.3978 2.65804 60.7794 2.93934 61.0607C3.22064 61.342 3.60218 61.5 4 61.5H60C60.3978 61.5 60.7794 61.342 61.0607 61.0607C61.342 60.7794 61.5 60.3978 61.5 60V4C61.5 3.60218 61.342 3.22064 61.0607 2.93934C60.7794 2.65804 60.3978 2.5 60 2.5ZM58.5 23.07H33.5V5.5H58.5V23.07ZM30.5 5.5V37.93H5.5V5.5H30.5ZM5.5 40.93H30.5V58.5H5.5V40.93ZM33.5 58.5V26.07H58.5V58.5H33.5Z"
     fill="#006DF0"
     id="path2733"
     style="fill:#000000;fill-opacity:1" />
</svg>
