<?xml version="1.0" encoding="UTF-8" standalone="no"?>
<svg
   viewBox="0 0 512 512"
   version="1.1"
   id="svg11"
   sodipodi:docname="shipRoute-light.svg"
   inkscape:version="1.2 (dc2aedaf03, 2022-05-15)"
   xmlns:inkscape="http://www.inkscape.org/namespaces/inkscape"
   xmlns:sodipodi="http://sodipodi.sourceforge.net/DTD/sodipodi-0.dtd"
   xmlns="http://www.w3.org/2000/svg"
   xmlns:svg="http://www.w3.org/2000/svg">
  <defs
     id="defs15" />
  <sodipodi:namedview
     id="namedview13"
     pagecolor="#ffffff"
     bordercolor="#666666"
     borderopacity="1.0"
     inkscape:pageshadow="2"
     inkscape:pageopacity="0.0"
     inkscape:pagecheckerboard="0"
     showgrid="false"
     inkscape:zoom="1.625"
     inkscape:cx="256.30769"
     inkscape:cy="256.61538"
     inkscape:window-width="1920"
     inkscape:window-height="1017"
     inkscape:window-x="-8"
     inkscape:window-y="-8"
     inkscape:window-maximized="1"
     inkscape:current-layer="svg11"
     inkscape:showpageshadow="2"
     inkscape:deskcolor="#d1d1d1" />
  <title
     id="title2" />
  <g
     id="Navigator"
     style="fill:#000000;stroke:none;fill-opacity:1">
    <path
       d="M 456.59,74.3682 A 86.939,86.939 0 0 0 324.3689,186.3735 l 56.8331,79.5625 a 17.1,17.1 0 0 0 27.832,0 l 56.833,-79.5625 A 86.6665,86.6665 0 0 0 456.59,74.3682 Z m -61.472,89.9763 a 28.5,28.5 0 1 1 28.5,-28.5 28.5014,28.5014 0 0 1 -28.5,28.5 z"
       id="path4"
       style="fill:#000000;stroke:none;fill-opacity:1" />
    <path
       d="M 395.118,314.9019 A 17.0965,17.0965 0 0 0 378.02,332 v 36.46 a 60.4419,60.4419 0 1 1 -120.8838,0 V 213.38 a 94.6382,94.6382 0 1 0 -189.2763,0 V 294 a 17.0982,17.0982 0 0 0 34.1963,0 v -80.62 a 60.4419,60.4419 0 1 1 120.8837,0 v 155.08 a 94.6382,94.6382 0 0 0 189.2764,0 V 332 A 17.0965,17.0965 0 0 0 395.118,314.9019 Z"
       id="path6"
       style="fill:#000000;stroke:none;fill-opacity:1" />
    <path
       d="M 84.9578,352.9019 A 55.0981,55.0981 0 1 0 140.056,408 55.1578,55.1578 0 0 0 84.9578,352.9019 Z"
       id="path8"
       style="fill:#000000;stroke:none;fill-opacity:1" />
  </g>
</svg>
