<?xml version="1.0" encoding="UTF-8" standalone="no"?>
<svg
   enable-background="new 0 0 24 24"
   height="24px"
   id="Layer_1"
   version="1.1"
   viewBox="0 0 24 24"
   width="24px"
   xml:space="preserve"
   sodipodi:docname="shipOwner.svg"
   inkscape:version="1.1 (c68e22c387, 2021-05-23)"
   xmlns:inkscape="http://www.inkscape.org/namespaces/inkscape"
   xmlns:sodipodi="http://sodipodi.sourceforge.net/DTD/sodipodi-0.dtd"
   xmlns="http://www.w3.org/2000/svg"
   xmlns:svg="http://www.w3.org/2000/svg"><defs
     id="defs7" /><sodipodi:namedview
     id="namedview5"
     pagecolor="#ffffff"
     bordercolor="#666666"
     borderopacity="1.0"
     inkscape:pageshadow="2"
     inkscape:pageopacity="0.0"
     inkscape:pagecheckerboard="0"
     showgrid="false"
     inkscape:zoom="34.666667"
     inkscape:cx="11.985577"
     inkscape:cy="12.014423"
     inkscape:window-width="1920"
     inkscape:window-height="1017"
     inkscape:window-x="-8"
     inkscape:window-y="-8"
     inkscape:window-maximized="1"
     inkscape:current-layer="Layer_1" /><path
     d="M23,11h-2.1c-0.2-1.7-0.9-3.3-1.9-4.6l1.5-1.5c0.4-0.4,0.4-1,0-1.4c-0.4-0.4-1-0.4-1.4,0L17.6,5c-1.3-1-2.9-1.7-4.6-1.9V1  c0-0.6-0.4-1-1-1c-0.6,0-1,0.4-1,1v2.1C9.3,3.3,7.7,3.9,6.4,5L4.9,3.5c-0.4-0.4-1-0.4-1.4,0c-0.4,0.4-0.4,1,0,1.4L5,6.4  c-1,1.3-1.7,2.9-1.9,4.6H1c-0.6,0-1,0.4-1,1s0.4,1,1,1h2.1c0.2,1.7,0.9,3.3,1.9,4.6l-1.5,1.5c-0.4,0.4-0.4,1,0,1.4  c0.4,0.4,1,0.4,1.4,0L6.4,19c1.3,1,2.9,1.7,4.6,1.9V23c0,0.6,0.4,1,1,1c0.6,0,1-0.4,1-1v-2.1c1.7-0.2,3.3-0.9,4.6-1.9l1.5,1.5  c0.4,0.4,1,0.4,1.4,0c0.4-0.4,0.4-1,0-1.4L19,17.6c1-1.3,1.7-2.9,1.9-4.6H23c0.6,0,1-0.4,1-1S23.6,11,23,11z M18.9,11h-3.1  c-0.1-0.4-0.2-0.7-0.4-1l2.2-2.2C18.3,8.7,18.8,9.8,18.9,11z M14.9,12.5c0,0.2-0.1,0.3-0.1,0.5c0,0.1-0.1,0.2-0.1,0.3  c-0.3,0.6-0.8,1.1-1.4,1.4c-0.1,0-0.2,0.1-0.3,0.1c-0.2,0.1-0.3,0.1-0.5,0.1C12.4,15,12.2,15,12,15s-0.4,0-0.5-0.1  c-0.2,0-0.3-0.1-0.5-0.1c-0.1,0-0.2-0.1-0.3-0.1h0c-0.6-0.3-1.1-0.8-1.4-1.4c0-0.1-0.1-0.2-0.1-0.3c-0.1-0.2-0.1-0.3-0.1-0.5  C9,12.4,9,12.2,9,12s0-0.4,0.1-0.5c0-0.2,0.1-0.3,0.1-0.5c0-0.1,0.1-0.2,0.1-0.3c0.3-0.6,0.8-1.1,1.4-1.4c0.1,0,0.2-0.1,0.3-0.1  c0.2-0.1,0.3-0.1,0.5-0.1C11.6,9,11.8,9,12,9s0.4,0,0.5,0.1c0.2,0,0.3,0.1,0.5,0.1c0.1,0,0.2,0.1,0.3,0.1c0.6,0.3,1.1,0.8,1.4,1.4  c0,0.1,0.1,0.2,0.1,0.3c0.1,0.2,0.1,0.3,0.1,0.5c0,0.2,0.1,0.3,0.1,0.5S15,12.4,14.9,12.5z M16.2,6.4L14,8.6c-0.3-0.2-0.7-0.3-1-0.4  V5.1C14.2,5.2,15.3,5.7,16.2,6.4z M11,5.1v3.1c-0.4,0.1-0.7,0.2-1,0.4L7.8,6.4C8.7,5.7,9.8,5.2,11,5.1z M6.4,7.8L8.6,10  c-0.2,0.3-0.3,0.7-0.4,1H5.1C5.2,9.8,5.7,8.7,6.4,7.8z M5.1,13h3.1c0.1,0.4,0.2,0.7,0.4,1l-2.2,2.2C5.7,15.3,5.2,14.2,5.1,13z   M7.8,17.6l2.2-2.2c0.3,0.2,0.7,0.3,1,0.4v3.1C9.8,18.8,8.7,18.3,7.8,17.6z M13,18.9v-3.1c0.4-0.1,0.7-0.2,1-0.4l2.2,2.2  C15.3,18.3,14.2,18.8,13,18.9z M17.6,16.2L15.4,14c0.2-0.3,0.3-0.7,0.4-1h3.1C18.8,14.2,18.3,15.3,17.6,16.2z"
     id="path2"
     style="fill:#fcfcfc;stroke:none" /></svg>
