<?xml version="1.0" encoding="UTF-8" standalone="no"?>
<svg
   enable-background="new 0 0 50 50"
   height="50px"
   id="Layer_1"
   version="1.1"
   viewBox="0 0 50 50"
   width="50px"
   xml:space="preserve"
   sodipodi:docname="ship.svg"
   inkscape:version="1.1 (c68e22c387, 2021-05-23)"
   xmlns:inkscape="http://www.inkscape.org/namespaces/inkscape"
   xmlns:sodipodi="http://sodipodi.sourceforge.net/DTD/sodipodi-0.dtd"
   xmlns="http://www.w3.org/2000/svg"
   xmlns:svg="http://www.w3.org/2000/svg"><defs
     id="defs21" /><sodipodi:namedview
     id="namedview19"
     pagecolor="#ffffff"
     bordercolor="#666666"
     borderopacity="1.0"
     inkscape:pageshadow="2"
     inkscape:pageopacity="0.0"
     inkscape:pagecheckerboard="0"
     showgrid="false"
     inkscape:zoom="16.64"
     inkscape:cx="23.888221"
     inkscape:cy="26.111779"
     inkscape:window-width="1920"
     inkscape:window-height="1017"
     inkscape:window-x="-8"
     inkscape:window-y="-8"
     inkscape:window-maximized="1"
     inkscape:current-layer="Layer_1" /><path
     d="  M49,44.646c-0.494,0.174-1.091,0.296-1.846,0.296c-1.538,0-3.902-0.42-5.539-1.71c-1.637,1.29-4,1.71-5.538,1.71  s-3.901-0.42-5.539-1.71c-1.637,1.29-4,1.71-5.538,1.71s-3.901-0.42-5.539-1.71c-1.637,1.29-4,1.71-5.538,1.71  s-3.901-0.42-5.538-1.71c-1.637,1.29-4.001,1.71-5.539,1.71c-0.69,0-1.291-0.062-1.846-0.147"
     fill="none"
     stroke="#000000"
     stroke-linecap="round"
     stroke-linejoin="round"
     stroke-miterlimit="10"
     stroke-width="2"
     id="path4"
     style="stroke:#fcfcfc" /><path
     d="  M49,48.646c-0.494,0.174-1.091,0.296-1.846,0.296c-1.538,0-3.902-0.42-5.539-1.71c-1.637,1.29-4,1.71-5.538,1.71  s-3.901-0.42-5.539-1.71c-1.637,1.29-4,1.71-5.538,1.71s-3.901-0.42-5.539-1.71c-1.637,1.29-4,1.71-5.538,1.71  s-3.901-0.42-5.538-1.71c-1.637,1.29-4.001,1.71-5.539,1.71c-0.69,0-1.291-0.062-1.846-0.147"
     fill="none"
     stroke="#000000"
     stroke-linecap="round"
     stroke-linejoin="round"
     stroke-miterlimit="10"
     stroke-width="2"
     id="path6"
     style="stroke:#fcfcfc" /><path
     d="M44,31.05c0,0.919-0.919,0.95-0.919,0.95h-2.015c0,0-1.066-0.06-1.066-0.979c0-0.535,0-1.306,0-1.306  s0.034-0.386,0.653-0.386c0.62,0,0.68,0.386,0.68,0.386v0.8c0,0,0.062,0.387,0.653,0.387s0.681-0.387,0.681-0.387v-0.8  c0,0,0.062-0.386,0.682-0.386c0.621,0,0.651,0.386,0.651,0.386S44,30.546,44,31.05z"
     id="path8"
     style="stroke:#fcfcfc;fill:none" /><polyline
     fill="none"
     points="  38.766,25.883 30,16 22,16 20,22 15,22 10,16 6,16 8,21 4.607,26.062 "
     stroke="#000000"
     stroke-linecap="round"
     stroke-linejoin="round"
     stroke-miterlimit="10"
     stroke-width="2"
     id="polyline10"
     style="stroke:#fcfcfc" /><line
     fill="none"
     stroke="#000000"
     stroke-linecap="round"
     stroke-linejoin="round"
     stroke-miterlimit="10"
     stroke-width="2"
     x1="6.25"
     x2="36.375"
     y1="27"
     y2="27"
     id="line12"
     style="stroke:#fcfcfc" /><path
     d="  M32.643,44.33c6.889-1.316,14.33-7.135,16.286-15.897c0.12-0.547,0.117-1.151-0.233-1.587C48.344,26.408,47.562,26,47,26h-9l-4,6H7  l-2-6H3c-1.021,0-2,0.98-2,2v5.539c0,5.097,3.156,8.546,6.133,10.113"
     fill="none"
     stroke="#000000"
     stroke-linecap="round"
     stroke-linejoin="round"
     stroke-miterlimit="10"
     stroke-width="2.0021"
     id="path14"
     style="stroke:#fcfcfc" /><line
     fill="none"
     stroke="#000000"
     stroke-linecap="round"
     stroke-linejoin="round"
     stroke-miterlimit="10"
     stroke-width="2"
     x1="7.833"
     x2="35.042"
     y1="22"
     y2="22"
     id="line16"
     style="stroke:#fcfcfc" /></svg>
