<?xml version="1.0" encoding="UTF-8" standalone="no"?>
<svg
   style="enable-background:new 0 0 50 50;"
   version="1.1"
   viewBox="0 0 50 50"
   xml:space="preserve"
   id="svg7"
   sodipodi:docname="tables.svg"
   inkscape:version="1.1 (c68e22c387, 2021-05-23)"
   xmlns:inkscape="http://www.inkscape.org/namespaces/inkscape"
   xmlns:sodipodi="http://sodipodi.sourceforge.net/DTD/sodipodi-0.dtd"
   xmlns="http://www.w3.org/2000/svg"
   xmlns:svg="http://www.w3.org/2000/svg"><defs
     id="defs11" /><sodipodi:namedview
     id="namedview9"
     pagecolor="#ffffff"
     bordercolor="#666666"
     borderopacity="1.0"
     inkscape:pageshadow="2"
     inkscape:pageopacity="0.0"
     inkscape:pagecheckerboard="0"
     showgrid="false"
     inkscape:zoom="16.64"
     inkscape:cx="24.969952"
     inkscape:cy="24.969952"
     inkscape:window-width="1920"
     inkscape:window-height="1017"
     inkscape:window-x="-8"
     inkscape:window-y="-8"
     inkscape:window-maximized="1"
     inkscape:current-layer="svg7" /><g
     id="Layer_1"
     style="fill:#fcfcfc;stroke:#fcfcfc"><path
       d="M 48,2 H 2 V 48 H 48 Z M 46,13 H 37 V 4 h 9 z M 26,13 V 4 h 9 v 9 z m 9,2 v 9 H 26 V 15 Z M 24,13 H 15 V 4 h 9 z m 0,2 v 9 H 15 V 15 Z M 13,24 H 4 v -9 h 9 z m 0,2 v 9 H 4 v -9 z m 2,0 h 9 v 9 h -9 z m 9,11 v 9 h -9 v -9 z m 2,0 h 9 v 9 h -9 z m 0,-2 v -9 h 9 v 9 z m 11,-9 h 9 v 9 h -9 z m 0,-2 v -9 h 9 v 9 z M 13,4 v 9 H 4 V 4 Z M 4,37 h 9 v 9 H 4 Z m 33,9 v -9 h 9 v 9 z"
       id="path2"
       style="fill:#fcfcfc;stroke:#fcfcfc" /></g><g
     id="g5"
     style="fill:#fcfcfc;stroke:#fcfcfc" /></svg>
