<?xml version="1.0" encoding="UTF-8" standalone="no"?>
<svg
   version="1.1"
   id="Layer_1"
   x="0px"
   y="0px"
   viewBox="0 0 48 48"
   xml:space="preserve"
   sodipodi:docname="total-dark.svg"
   inkscape:export-filename="total.svg"
   inkscape:export-xdpi="96"
   inkscape:export-ydpi="96"
   width="122.88"
   height="122.88"
   inkscape:version="1.2 (dc2aedaf03, 2022-05-15)"
   xmlns:inkscape="http://www.inkscape.org/namespaces/inkscape"
   xmlns:sodipodi="http://sodipodi.sourceforge.net/DTD/sodipodi-0.dtd"
   xmlns="http://www.w3.org/2000/svg"
   xmlns:svg="http://www.w3.org/2000/svg"><defs
     id="defs138" /><sodipodi:namedview
     id="namedview136"
     pagecolor="#ffffff"
     bordercolor="#000000"
     borderopacity="0.25"
     inkscape:showpageshadow="2"
     inkscape:pageopacity="0.0"
     inkscape:pagecheckerboard="0"
     inkscape:deskcolor="#d1d1d1"
     showgrid="false"
     inkscape:zoom="6.8115236"
     inkscape:cx="54.833547"
     inkscape:cy="61.660214"
     inkscape:window-width="1920"
     inkscape:window-height="1017"
     inkscape:window-x="1352"
     inkscape:window-y="-8"
     inkscape:window-maximized="1"
     inkscape:current-layer="Layer_1" /><style
     type="text/css"
     id="style129">.st0{fill-rule:evenodd;clip-rule:evenodd;}</style><g
     id="g133"
     transform="scale(0.390625)"
     style="fill:#fcfcfc;fill-opacity:1"
     inkscape:export-filename="..\Corfu Cruises\FrontEnd\src\assets\images\menu\total.svg"
     inkscape:export-xdpi="96"
     inkscape:export-ydpi="96"><path
       class="st0"
       d="M 0,61.44 C 0,44.47 6.88,29.11 18,18 29.11,6.88 44.47,0 61.44,0 c 16.97,0 32.33,6.88 43.44,18 11.12,11.12 18,26.48 18,43.44 0,16.97 -6.88,32.33 -18,43.44 -11.12,11.12 -26.48,18 -43.44,18 C 44.47,122.88 29.11,116 18,104.88 6.88,93.77 0,78.41 0,61.44 Z M 77.56,45.69 V 43.96 H 52.84 L 66.61,57.8 c 0.98,0.99 1.46,2.27 1.46,3.56 0,1.29 -0.5,2.58 -1.48,3.56 l -14.1,14 H 77.57 V 77.3 c 0,-1.23 1,-2.23 2.23,-2.23 h 5.63 c 1.23,0 2.23,1 2.23,2.23 v 6.66 c 0,1.39 -0.57,2.65 -1.48,3.56 l -0.01,0.01 C 85.26,88.44 84,89.01 82.61,89.01 H 40.26 C 40.17,89.01 40.09,89 40,88.99 39.43,88.96 38.87,88.83 38.33,88.61 37.74,88.36 37.18,88 36.7,87.51 c -0.98,-0.99 -1.46,-2.27 -1.46,-3.56 0,-1.29 0.5,-2.58 1.48,-3.56 L 55.93,61.33 37.36,42.66 c -0.51,-0.45 -0.92,-1.02 -1.21,-1.65 -0.3,-0.65 -0.46,-1.36 -0.46,-2.09 0,-1.39 0.57,-2.65 1.48,-3.56 l 0.01,-0.01 c 0.91,-0.91 2.17,-1.48 3.56,-1.48 h 41.88 c 1.39,0 2.65,0.57 3.56,1.48 l 0.01,0.01 c 0.91,0.91 1.48,2.17 1.48,3.56 v 6.77 c 0,1.23 -1,2.23 -2.23,2.23 h -5.63 c -1.25,0 -2.25,-1 -2.25,-2.23 z M 25.46,25.46 c -9.21,9.21 -14.9,21.93 -14.9,35.98 0,14.05 5.7,26.78 14.9,35.98 9.21,9.21 21.93,14.9 35.98,14.9 14.05,0 26.78,-5.7 35.98,-14.9 9.21,-9.21 14.9,-21.93 14.9,-35.98 0,-14.05 -5.7,-26.78 -14.9,-35.98 C 88.21,16.25 75.49,10.56 61.44,10.56 47.39,10.55 34.66,16.25 25.46,25.46 Z"
       id="path131"
       style="fill:#fcfcfc;fill-opacity:1" /></g></svg>
